<svg width="349" height="264" viewBox="0 0 349 264" fill="none" xmlns="http://www.w3.org/2000/svg">
<g clip-path="url(#clip0_1320_267831)">
<path d="M249.643 4.14004C268.707 4.25909 287.747 2.62647 306.811 3.19789C313.27 3.60604 319.743 3.42577 326.206 3.2455C327.393 3.27271 328.804 2.78633 329.818 3.61964C330.828 4.51418 330.692 5.97674 330.719 7.1978C330.593 17.1738 330.382 27.1497 330.151 37.1223C329.903 43.4759 330.212 49.8295 330.508 56.1763C330.777 67.5196 330.722 78.8731 330.202 90.2096C330.039 94.1755 329.369 98.1142 329.525 102.094C329.682 108.791 330.049 115.485 330.015 122.185C330.093 130.75 329.838 139.311 329.899 147.872C330.821 148.048 332.413 147.79 332.597 149.059C332.903 152.368 332.767 155.712 332.756 159.035C330.879 159.276 328.991 159.086 327.11 159.041C322.951 158.916 318.798 158.654 314.638 158.592C305.791 158.307 296.944 158.657 288.101 158.817C273.7 158.899 259.295 158.773 244.901 159.12C238.207 159.188 231.524 158.678 224.834 158.606C216.895 158.371 208.95 158.528 201.011 158.708C192.055 159.137 183.086 159.024 174.127 159.086C173.62 159.041 173.25 159.419 172.879 159.694C170.131 161.892 167.158 163.803 164.08 165.504C160.114 167.599 155.859 169.375 151.352 169.8C146.546 169.915 141.652 169.837 136.992 168.504C131.604 167.174 126.757 164.388 122.098 161.46C122.533 168.47 123.55 175.425 124.737 182.344C124.853 183.038 124.962 183.742 124.934 184.452C123.377 185.153 121.659 185.381 120.033 185.864C120.989 191.381 122.128 196.867 122.938 202.408C132.274 202.421 141.604 202.034 150.941 201.976C164.689 201.751 178.443 201.687 192.191 202.03C206.48 202.187 220.769 202.221 235.054 202.095C245.153 202.075 255.241 201.694 265.34 201.677C276.094 201.551 286.849 201.66 297.604 201.779C314.617 202.105 331.634 202.098 348.647 201.843V203.146C340.035 203.228 331.423 203.285 322.814 203.5C312.94 203.626 303.07 203.275 293.196 203.173C274.717 202.796 256.231 203.139 237.752 203.442C219.616 203.724 201.477 203.66 183.345 203.251C167.025 203.047 150.699 203.228 134.383 203.609C130.659 203.748 126.934 203.751 123.21 203.813C123.292 204.496 123.377 205.183 123.462 205.874C139.108 206.265 154.757 206.153 170.403 206.333C184.018 206.493 197.633 206.258 211.249 206.309C222.347 206.313 233.446 206.537 244.547 206.472C263.033 206.374 281.513 205.85 300.002 205.738C316.216 205.636 332.433 205.887 348.647 205.69V215.05C337.818 215.088 326.991 215.088 316.165 215.084C316.641 231.387 316.529 247.696 316.553 264.002H314.985C314.978 258.59 315.043 253.179 314.995 247.767C306.709 247.713 298.42 247.706 290.135 247.512C285.183 247.407 280.227 247.315 275.275 247.305C274.574 249.397 273.302 251.471 271.142 252.281C268.428 253.271 265.295 253.179 262.632 252.063C260.69 251.233 259.724 249.23 259.051 247.356C251.16 247.325 243.275 247.869 235.381 247.744C229.64 247.74 223.902 247.706 218.16 247.693C218.201 253.128 218.174 258.566 218.204 264.002H216.66C216.585 247.924 216.708 231.843 216.711 215.765C198.511 215.758 180.314 215.809 162.114 215.734C162.202 231.822 162.264 247.914 162.247 264.002H160.777C160.696 247.893 160.883 231.781 160.859 215.673C148.784 215.625 136.706 215.489 124.632 215.326C126.104 227.043 128.118 238.686 129.995 250.346C130.781 254.893 131.451 259.464 132.298 264.002H48.1197C50.385 251.961 52.9292 239.972 55.5175 227.996C56.4733 223.554 57.6059 219.152 58.5821 214.714C52.7863 214.486 46.9803 214.612 41.1777 214.516C27.5726 214.418 13.964 214.37 0.355469 214.571V205.693C20.5285 205.959 40.7015 205.884 60.878 205.802C61.1059 204.966 61.3303 204.126 61.565 203.292C53.0686 203.115 44.5688 203.044 36.0724 203C24.1645 202.952 12.26 203.455 0.355469 203.122V201.921C2.68195 201.847 5.01183 202.061 7.34171 202.027C7.82469 195.697 7.34511 189.35 7.43014 183.014C6.66145 182.987 5.77032 183.272 5.10366 182.782C3.8622 181.609 4.48463 178.789 6.46078 178.949C9.64778 178.97 12.8314 179.415 16.0252 179.089C15.5524 177.024 15.0524 174.939 14.9844 172.813C14.9096 172.266 15.3994 171.891 15.6477 171.466C15.93 171.446 16.498 171.409 16.7837 171.388C16.634 170.279 16.2837 169.198 16.2667 168.072C16.3415 166.507 18.5728 165.15 19.7938 166.364C20.5897 167.674 20.3788 169.307 20.4605 170.776C21.423 170.735 22.9196 170.616 23.1747 171.844C23.3618 174.133 22.8958 176.429 22.457 178.67C23.7631 178.619 25.0692 178.616 26.3787 178.629C26.1508 176.34 26.1134 174.014 26.4808 171.742C26.5624 170.966 27.0964 170.375 27.5488 169.79C27.4467 168.609 26.9399 167.068 28.0487 166.201C28.9093 165.609 30.433 165.13 31.1439 166.167C31.6949 167.286 31.5011 168.585 31.5555 169.796C31.8378 169.776 32.4024 169.742 32.6847 169.725C32.865 168.616 32.8786 167.446 33.3582 166.415C33.9228 165.205 35.8649 165.15 36.5282 166.276C36.8785 167.262 36.5009 168.327 36.4465 169.341C37.0758 169.548 37.9295 169.674 37.9567 170.5C38.3206 173.198 37.8104 175.936 37.5145 178.623C41.3784 178.65 45.2627 178.119 49.1129 178.589C49.4837 180.116 49.5789 181.742 49.215 183.279C48.5177 183.48 47.783 183.408 47.0687 183.422C47.2014 186.245 46.9599 189.068 47.0007 191.891C46.9701 195.173 47.1742 198.459 47.0245 201.745C51.9972 201.687 56.9665 201.887 61.9358 201.891C63.2759 197.149 64.701 192.432 65.8881 187.65C63.2385 187.024 60.4154 186.643 58.0515 185.218C56.776 183.918 57.7794 181.84 57.8406 180.259C54.9189 179.993 51.7863 179.065 49.9768 176.592C47.5755 173.647 47.3987 169.667 47.3715 166.038C47.5619 157.899 48.3034 149.712 50.5278 141.851C51.6401 138.055 52.2421 134.124 53.5414 130.382C54.7795 126.933 56.0481 123.495 57.4835 120.124C61.5446 110.951 66.9323 101.961 75.1021 95.8863C77.8164 93.9408 80.5714 91.9681 83.687 90.713C84.4829 86.9716 84.8979 83.1621 85.289 79.3595C79.9626 80.5976 74.5851 82.0975 69.0649 81.89C64.7962 81.6588 60.3848 80.1928 57.3576 77.067C54.2625 73.8834 53.0108 69.3665 52.7285 65.0401C52.487 61.0436 53.7863 57.2137 54.8101 53.4145C53.8067 53.2342 53.0108 52.622 52.3101 51.9179C49.3272 53.6628 47.8578 57.2477 47.8748 60.598C47.8442 65.4652 50.4836 69.7815 51.2387 74.5059C51.8305 77.8969 51.1537 81.4615 49.3952 84.4172C46.9837 88.5634 43.409 92.1449 39.0145 94.1517C34.9534 96.002 30.2528 95.6959 26.0692 94.434C21.2088 92.8184 17.049 89.3389 14.3892 84.9818C11.7328 80.5499 11.6511 74.9446 13.2497 70.1318C14.2837 66.9414 16.3517 63.8428 19.5489 62.5265C22.9332 61.0368 26.8991 61.8395 30.1814 60.047C27.8311 59.8225 25.3073 59.1559 23.7597 57.2375C20.9877 54.0709 20.7938 49.4724 21.7155 45.5507C22.906 40.3876 26.9569 36.1121 31.9058 34.3333C35.7084 32.9694 40.2424 32.2993 43.8919 34.4421C46.9667 36.4114 48.8442 39.7311 51.7455 41.9113C52.7183 41.8059 53.5278 41.0746 54.4325 40.7175C53.6842 36.6121 54.0176 32.3401 55.106 28.3266C56.3645 23.9049 59.1909 20.0649 62.565 17.0071C67.4731 12.4664 74.0716 10.1977 80.636 9.55149C86.1495 9.02429 92.1222 9.09572 97.0302 11.9868C102.945 8.2624 110.836 9.49367 116.441 13.2317C122.506 17.4425 127.132 23.8335 128.945 31.0136C129.751 34.0203 129.41 37.3502 127.751 40.0134C126.805 41.7481 125.118 43.1494 123.074 43.2276C123.346 46.9656 123.591 50.7275 123.264 54.4723C122.996 55.7444 124.574 56.326 124.649 57.5266C124.819 59.4076 123.173 60.6422 122.326 62.1048C121.591 67.591 119.591 73.227 115.411 77.0398C111.452 80.601 105.84 81.3765 100.71 81.1384C100.428 85.0566 100.34 89.0225 100.693 92.934C101.734 93.8388 103.03 94.417 104.112 95.2877C106.816 97.1822 109.22 99.4543 111.537 101.801C114.424 104.713 117.605 107.301 120.659 110.029C123.295 112.386 125.509 115.151 127.89 117.757C131.417 121.478 135.077 125.097 139.08 128.311C138.206 111.532 138.808 94.7299 138.281 77.9446C138.063 70.5706 138.907 63.2272 139.05 55.8634C139.145 48.4894 138.934 41.112 138.893 33.738C138.835 24.8913 138.801 16.0411 138.903 7.1944C138.995 6.06177 138.972 4.49378 140.162 3.92236C142.189 3.59244 144.254 3.88835 146.294 3.90196C150.818 4.17406 155.349 4.09923 159.876 4.17746C168.95 4.30331 178.025 4.48697 187.096 4.67064C200.018 4.36452 212.932 3.70128 225.857 3.77271C233.789 3.72509 241.711 4.16045 249.643 4.14004ZM261.925 5.25566C252.054 5.55838 242.184 5.28968 232.316 5.16724C222.779 5.05839 213.239 5.10941 203.708 5.45634C196.249 5.6162 188.797 6.18761 181.335 5.95633C171.92 5.68082 162.502 5.41212 153.083 5.38491C148.774 5.3543 144.468 5.72164 140.162 5.46315C140.016 11.7079 140.274 17.9561 140.223 24.2042C140.162 34.5305 140.56 44.8534 140.505 55.1797C140.495 62.8905 139.342 70.5638 139.764 78.2779C140.21 87.4682 139.951 96.6686 139.982 105.866C139.948 113.757 140.125 121.651 140.526 129.532C140.941 129.801 141.359 130.073 141.784 130.345C141.577 122.396 141.829 114.447 142.097 106.509C142.247 94.9544 142.135 83.3968 142.172 71.8427C142.131 65.1387 142.305 58.4348 142.638 51.7376C142.948 45.7446 142.546 39.7549 142.478 33.7618C142.431 26.8368 142.444 19.9084 142.274 12.98C142.322 11.5038 141.999 9.96985 142.509 8.54471C143.169 8.29982 143.859 8.16376 144.563 8.19097C150.349 8.18417 156.134 8.2488 161.92 8.07874C172.467 7.83044 183.005 8.5379 193.552 8.49709C202.178 8.48688 210.817 8.56852 219.429 7.9733C223.262 7.57875 227.119 7.38487 230.973 7.55834C239.024 7.69779 247.078 7.57194 255.129 7.50051C264.421 7.7352 273.703 8.2454 282.999 8.29302C288.557 8.36785 294.104 7.89166 299.662 8.03111C303.628 8.15356 307.597 8.13315 311.563 8.14676C315.651 8.12635 319.736 8.37124 323.825 8.33043C324.515 8.36104 325.658 8.29302 325.702 9.25898C326.046 22.5138 325.478 35.7788 325.627 49.037C325.899 61.2817 325.869 73.5331 325.842 85.7845C325.719 106.529 326.029 127.273 326.086 148.018C326.899 147.997 327.716 147.98 328.539 147.97C328.603 137.78 328.586 127.59 328.549 117.399C328.529 111.042 327.944 104.689 328.24 98.3319C328.991 90.6518 329.107 82.9274 329.233 75.2167C329.199 67.6285 329.389 60.0266 328.889 52.4485C328.522 47.1323 328.552 41.8025 328.79 36.4829C329.025 26.3879 329.284 16.2928 329.335 6.19783C329.338 5.46995 329.182 4.35092 328.233 4.35432C322.331 4.42575 316.434 4.83391 310.532 4.66384C294.329 3.89515 278.122 4.87132 261.925 5.25566ZM105.785 11.1467C105.778 11.3236 105.765 11.6773 105.755 11.8542C107.809 12.395 109.942 12.5922 111.975 13.2249C113.373 13.582 114.683 14.1976 116.043 14.667C115.795 13.8133 114.839 13.5582 114.152 13.1569C111.53 11.9834 108.676 11.1501 105.785 11.1467ZM61.2215 27.3368C61.6977 27.6531 62.2861 27.5783 62.8065 27.7688C62.7963 28.5749 62.3915 30.0408 61.3167 29.5953C61.0922 28.9456 61.3814 28.2041 60.963 27.6055C60.5957 28.4252 60.0344 29.6395 60.8746 30.3708C61.5684 31.0238 62.5208 30.2415 62.9698 29.6667C63.3915 28.8776 63.718 27.8198 63.2044 27.0001C62.5412 26.5443 61.8541 27.1565 61.2215 27.3368ZM255.782 29.7109C255.928 29.5783 256.221 29.3062 256.363 29.1735C256.721 28.6735 256.071 28.3334 255.796 28.0205C255 28.4286 255.136 29.2381 255.782 29.7109ZM34.3411 34.8333C31.6847 35.5747 28.9093 36.7754 27.3549 39.1767C28.2698 39.01 29.0215 38.425 29.8446 38.0339C32.9738 36.5135 36.3785 35.7176 39.7628 34.9999C39.7764 34.8367 39.8036 34.5067 39.8206 34.3435C37.9907 33.9965 36.12 34.3945 34.3411 34.8333ZM126.407 38.374C125.948 39.408 125.166 40.2617 124.754 41.3195C125.312 41.0712 125.815 40.7005 126.138 40.1733C127.084 38.7821 127.951 37.2074 127.931 35.4795C127.121 36.2652 126.894 37.3978 126.407 38.374ZM113.901 41.993C115.928 41.146 116.877 38.7549 117.38 36.7516L116.975 36.5781C115.965 38.391 115.098 40.2889 113.901 41.993ZM233.704 37.4182C233.895 38.9454 233.589 40.6393 234.289 42.0474C234.405 40.6495 234.316 39.2481 234.17 37.857C238.309 38.2583 242.466 38.1019 246.619 38.1019C247.33 38.0781 248.044 38.1767 248.728 38.3842C248.632 39.8229 248.323 41.2549 248.439 42.7038C248.864 42.3161 248.836 41.7073 248.945 41.1903C249.054 40.2821 249.248 39.3434 249.034 38.442C248.785 37.5441 247.683 37.6699 246.969 37.6427C242.544 37.7141 238.119 37.6597 233.704 37.4182ZM118.499 38.0611C117.713 41.1528 115.111 43.5337 112.105 44.4385C110.071 45.1528 107.87 45.2276 105.836 45.9283C104.673 46.2786 103.68 47.4282 103.88 48.6935C104.234 51.4349 105.384 54.0607 105.282 56.8634C105.221 58.7885 104.397 60.6252 103.231 62.132C101.935 63.7102 100.102 64.6795 98.469 65.853C97.5914 66.4992 96.7003 67.3189 96.5166 68.4482C95.901 71.6454 97.0302 74.8256 98.2275 77.7473C97.8636 78.0398 97.4928 78.3561 97.003 78.3867C93.6596 78.9105 90.2617 78.6418 86.9012 78.8935C86.4046 78.9309 86.6325 79.652 86.5169 79.9751C86.2788 83.3322 85.8128 86.6655 85.3094 89.9919C90.0168 88.2607 95.1833 89.7436 99.2989 92.2844C99.1152 88.6416 99.1152 84.992 99.3363 81.3527C99.3533 80.7608 99.5472 79.8153 100.346 79.9445C105.044 80.0602 110.176 79.6758 113.986 76.6113C118.438 72.9515 120.394 67.1591 121.152 61.6218C121.734 60.1898 123.309 59.2239 123.373 57.5538C122.795 56.6763 121.533 56.0301 121.812 54.8022C122.281 51.1798 122.098 47.5132 121.849 43.8807C121.798 43.3569 121.826 42.7276 121.329 42.4011C119.955 41.2753 119.264 39.6121 118.499 38.0611ZM192.015 40.3876C190.137 40.8059 189.277 42.8671 189.351 44.6324C189.351 49.2683 189.321 53.9077 189.413 58.547C189.413 60.2035 189.746 62.1864 191.345 63.0605C193.093 63.8802 195.083 63.4483 196.94 63.4109C199.895 63.2272 202.861 63.4483 205.817 63.2272C206.987 63.0979 208.194 62.649 208.936 61.6898C209.766 60.6218 210.062 59.2171 210.007 57.8872C209.865 54.9485 209.293 51.9893 209.848 49.0608C210.201 46.8636 210.742 44.3841 209.402 42.3977C208.579 40.8535 206.848 39.976 205.116 40.112C200.746 40.1223 196.375 40.1155 192.015 40.3876ZM54.3475 42.0304C55.1978 41.9453 56.1808 41.8807 56.7964 42.6052C58.5039 44.5541 59.1229 47.3942 58.4358 49.8873C58.0583 51.0846 57.0583 51.8975 56.2352 52.7852C57.378 52.5744 58.1399 51.5778 58.6977 50.6322C60.014 47.952 59.2998 44.5541 57.4018 42.3297C56.6774 41.4556 55.0822 40.8569 54.3475 42.0304ZM166.382 43.6902C166.063 46.2684 166.695 48.85 166.702 51.4349C166.988 55.9688 166.389 60.4824 166.168 65.0027C172.117 64.4176 178.114 65.0163 184.076 64.6898C184.185 63.4415 184.205 62.1932 184.232 60.9449C184.27 55.8838 184.743 50.8125 184.358 45.7582C183.902 45.731 183.447 45.7038 182.994 45.6732C182.984 45.0099 182.981 44.3432 182.977 43.68C177.447 43.595 171.906 43.3637 166.382 43.6902ZM229.082 44.4079C228.599 45.7956 228.64 47.2956 228.395 48.7343C227.847 52.1016 228.354 55.5335 227.759 58.9008C230.146 59.4654 232.609 59.1014 235.031 58.9926C241.058 58.6559 247.081 59.5606 253.112 59.2035C254.132 59.1593 255.091 58.4858 255.438 57.5164C256.357 55.0029 255.959 52.2717 255.605 49.6901C255.316 47.8908 255.357 46.0269 254.721 44.299C254.289 44.1868 253.864 43.9997 253.415 44.0303C246.629 44.7718 239.799 44.0575 232.993 44.2514C231.711 44.282 230.085 43.1698 229.082 44.4079ZM185.634 46.6323C185.6 52.656 185.317 58.6729 185.307 64.6931C185.358 65.5707 184.515 66.006 183.743 65.9686C180.209 66.0979 176.668 66.0537 173.131 66.0979C171.45 66.1421 169.757 65.9754 168.09 66.2543C168.192 66.4346 168.396 66.7951 168.498 66.9754C170.267 67.1489 172.032 66.7135 173.807 66.8394C177.777 66.8189 181.749 67.2237 185.705 67.0911C186.066 65.9822 186.025 64.8156 186.015 63.6694C186.107 57.6797 186.28 51.6764 186.008 45.6902C185.766 45.9623 185.641 46.2786 185.634 46.6323ZM278.635 47.0915C277.509 47.401 277.414 48.7309 277.298 49.6901C277.145 52.0812 277.251 54.4791 277.281 56.8702C277.36 59.2443 277.302 61.666 277.948 63.9721C278.877 64.4312 279.907 64.6081 280.938 64.6591C284.128 64.8462 287.332 64.8496 290.523 64.6591C291.4 64.6625 291.54 63.6217 291.577 62.9551C291.849 58.4416 291.791 53.9077 291.461 49.3976C291.404 48.6221 291.315 47.6527 290.533 47.248C289.07 46.4589 287.325 46.7071 285.727 46.6391C283.363 46.7752 280.955 46.5541 278.635 47.0915ZM94.8636 48.9826C92.5848 50.469 91.4759 53.6152 92.5814 56.1491C93.3024 58.0878 95.4861 59.5096 97.5472 58.8191C99.0234 58.1661 100.68 56.4246 99.7785 54.7308C99.1798 53.6084 98.4316 52.0234 96.9316 52.105C96.0609 52.0676 95.6459 53.088 95.6459 53.8226C95.7718 55.0913 96.9758 55.7716 97.8023 56.5845C98.0064 57.1355 97.1221 57.7103 96.6867 57.3022C94.9793 56.3702 93.7072 54.1356 94.7446 52.2716C95.2786 51.037 96.8058 50.469 98.0268 51.02C99.4179 51.4281 99.8805 52.8975 100.7 53.9247C100.693 52.4281 100.275 50.9009 99.3499 49.7105C98.2819 48.435 96.2785 48.1119 94.8636 48.9826ZM211.089 51.5506C211.035 51.6628 210.922 51.8839 210.864 51.9927C216.211 52.5199 221.558 51.6696 226.908 51.8601C226.827 51.7445 226.66 51.5098 226.578 51.3941C224.786 51.0812 222.953 51.2785 221.15 51.3567C217.803 51.6526 214.439 51.4655 211.089 51.5506ZM267.013 51.4792C263.836 51.5812 260.663 51.8499 257.486 51.8397C257.496 52.003 257.513 52.3329 257.523 52.4995C263.574 52.4485 269.605 51.8805 275.645 51.6152C275.7 51.5132 275.809 51.3091 275.863 51.2036C272.911 50.9962 269.958 51.3771 267.013 51.4792ZM103.68 57.8906C102.71 59.5504 101.795 61.3327 100.197 62.4857C99.4111 63.166 98.3057 63.5367 97.8159 64.5095C100.602 63.3905 103.36 61.0436 103.68 57.8906ZM239.997 59.9279C239.687 64.166 238.871 68.3461 238.534 72.5807C238.898 72.4651 239.082 72.2168 239.092 71.8392C239.687 68.0978 240.316 64.3496 240.422 60.5572C240.466 60.2239 240.323 60.0164 239.997 59.9279ZM197.827 65.7135C197.868 68.0128 197.266 70.2645 197.113 72.5433L197.518 72.8086C198.222 69.8903 198.62 66.8326 198.361 63.8394C197.582 64.1728 197.909 65.0639 197.827 65.7135ZM18.9945 67.7509C18.9299 69.1965 20.1135 70.4855 21.5047 70.7338C22.0727 70.9787 22.474 70.4889 22.838 70.1454C22.1339 69.6556 21.1713 69.9413 20.4911 69.4107C19.753 68.9005 19.5727 67.9108 19.753 67.0809C20.2428 65.887 21.5931 65.2612 22.8312 65.336C23.5727 65.3768 24.2257 66.2543 23.7563 66.9346C23.0625 67.1863 21.821 67.0128 22.0659 68.1284C22.9094 68.0604 23.838 67.9516 24.4434 67.2883C24.974 66.3734 24.3788 65.1285 23.4332 64.7782C21.5183 64.1455 18.8925 65.5843 18.9945 67.7509ZM283.087 66.1829C282.713 68.0672 282.407 69.9787 282.329 71.9039C282.465 71.8529 282.74 71.7508 282.877 71.6998C283.033 69.7747 283.421 67.8836 283.666 65.9686C283.519 66.023 283.23 66.1285 283.087 66.1829ZM56.1808 72.4243C56.208 72.9209 56.276 73.4344 56.5549 73.8664C57.4733 75.55 58.7181 77.0466 60.1603 78.3085C60.9664 78.9854 61.8745 79.6928 62.9834 79.6826C61.9664 78.3935 60.4086 77.6963 59.3746 76.4174C58.1399 75.2201 57.3814 73.6419 56.1808 72.4243ZM273.333 73.4821C272.455 73.5229 272.081 74.465 272.166 75.2303C272.169 79.2098 272.142 83.1893 272.217 87.1689C272.469 90.3389 272.285 93.5259 272.503 96.6993C272.509 97.621 273.081 98.689 274.142 98.6142C279.928 98.8081 285.723 98.553 291.512 98.5053C292.676 98.4237 293.951 98.4203 294.961 97.7503C295.727 97.189 295.665 96.1414 295.74 95.2945C295.832 91.8898 295.434 88.4851 295.628 85.0805C295.835 81.4547 295.849 77.7643 295.046 74.2065C294.869 73.1964 293.696 73.0841 292.873 73.0467C290.036 72.9583 287.203 73.1045 284.37 73.1692C280.693 73.3086 276.999 73.1896 273.333 73.4821ZM187.484 73.9719C185.872 74.5297 185.831 76.4106 185.681 77.8255C185.11 81.5941 185.457 85.4172 185.096 89.2028C186.79 88.1926 186.45 86.0498 186.743 84.3866C188.018 84.4138 189.324 84.3628 190.549 84.7879C190.685 85.7199 190.297 86.5668 189.828 87.3423C189.96 87.2743 190.229 87.1416 190.362 87.0736C191.814 84.9104 194.334 83.8662 196.066 81.9751C193.242 82.1213 190.416 82.0941 187.589 82.1179C187.712 81.9343 187.953 81.5669 188.076 81.3799C190.923 81.254 193.783 81.2744 196.637 81.2438C197.923 80.4411 199.684 79.3255 201.157 80.2676C200.525 81.4139 198.875 82.0465 198.885 83.4648C201.644 83.1587 204.422 83.3424 207.188 83.1451C207.181 83.3764 207.167 83.839 207.161 84.0703C205.344 84.1791 203.525 84.0907 201.708 84.1281C200.681 84.1247 199.678 84.7165 198.654 84.3968C198.212 84.1723 197.719 83.407 197.256 84.0056C195.797 85.3696 194.47 86.8933 192.861 88.094C192.331 88.5056 191.722 88.8457 191.338 89.4137C192.61 89.1042 193.923 89.179 195.219 89.0736C199.324 88.8763 203.422 88.4681 207.538 88.56C207.538 88.9647 207.365 89.5259 206.858 89.4783C204.467 89.6518 202.031 89.2845 199.674 89.8151C196.623 90.1586 193.525 89.9851 190.494 90.5089C189.858 90.4953 189.603 91.0939 189.338 91.5565C195.657 92.0395 202.001 91.3456 208.331 91.5327C208.276 91.6926 208.164 92.0089 208.106 92.1687C201.82 92.781 195.48 92.5837 189.174 92.5803C189.086 92.8694 188.998 93.1585 188.906 93.451C189.647 92.8932 190.6 93.1075 191.447 93.2197C191.6 93.6687 191.763 94.1177 191.919 94.57C192.671 94.383 193.443 94.3082 194.219 94.3422C198.804 94.3966 203.392 94.1823 207.977 94.2707C207.912 94.4272 207.783 94.7333 207.718 94.8898C202.786 95.4204 197.817 95.3421 192.865 95.3013C192.351 95.1993 191.967 95.4476 191.698 95.8557C193.001 96.2299 194.378 96.5632 195.457 97.4373C198.014 97.3115 200.596 97.5326 203.14 97.1482C204.385 96.951 205.647 96.9408 206.905 96.9612C206.851 97.1312 206.746 97.4714 206.691 97.6414C203.337 98.1822 199.923 98.4067 196.528 98.3795C196.589 98.9169 196.657 99.4577 196.736 99.9985C200.365 99.8352 203.997 99.757 207.63 99.7468C207.752 99.8318 207.99 100.002 208.113 100.09C208.446 100.743 207.565 100.655 207.167 100.689C203.674 100.641 200.178 100.805 196.688 100.954C196.559 101.328 196.426 101.696 196.307 102.077C200.31 102.175 204.324 102.022 208.317 102.444C208.354 95.9748 209.106 89.5361 209.201 83.0669C209.218 81.0329 209.555 79.0126 209.477 76.9786C207.337 76.9718 205.212 77.2847 203.072 77.2643C197.821 77.4412 192.555 77.1623 187.311 77.6214C187.508 76.4514 188.926 76.6453 189.811 76.5772C195.137 76.5636 200.463 76.448 205.79 76.346C205.746 75.5331 205.725 74.7201 205.746 73.9072C202.593 73.8766 199.44 74.2372 196.293 73.9446C193.361 73.9208 190.392 73.4855 187.484 73.9719ZM210.803 74.0127C210.582 76.5602 210.62 79.1248 210.46 81.6758C210.014 88.594 209.848 95.5292 209.191 102.43C209.715 102.424 210.239 102.417 210.769 102.41C210.844 92.8728 211.582 83.356 211.756 73.8222C211.518 73.8698 211.041 73.9651 210.803 74.0127ZM212.854 73.744C212.984 82.186 212.432 90.6212 212.484 99.0597C212.426 99.5665 212.671 99.791 213.218 99.7366C213.256 91.4443 213.439 83.1519 213.514 74.8596C213.592 74.346 213.426 73.8528 212.854 73.744ZM231.112 74.397C230.017 74.9038 228.997 73.6827 227.902 74.1147C226.84 74.448 226.126 75.4888 225.953 76.5534C225.592 79.3969 225.908 82.3152 225.184 85.1111C224.643 87.5634 224.691 90.0906 224.647 92.5871C224.534 95.4578 225.218 98.2775 225.215 101.145C225.174 101.866 225.956 102.182 226.544 102.291C230.136 102.91 233.793 102.543 237.415 102.515C240.843 102.509 244.289 102.461 247.69 101.964C248.966 101.73 250.391 101.369 251.18 100.247C251.945 99.0699 251.353 97.6244 251.33 96.3353C250.983 90.213 251.455 84.0805 251.748 77.965C251.785 77.0602 251.666 76.1521 251.313 75.3154C249.003 74.2372 246.415 73.9072 243.891 73.8698C241.503 73.8086 239.105 73.6725 236.724 73.931C234.854 74.1827 232.901 73.6181 231.112 74.397ZM14.362 82.8764C14.8518 84.0397 15.6783 85.0056 16.4299 86.0056C18.1646 88.3219 20.2258 90.4205 22.6781 91.9817C25.576 93.9544 29.1712 94.951 32.6677 94.6483C32.7765 94.5564 32.9942 94.3728 33.1031 94.2809C25.61 94.1449 18.5421 89.5838 14.879 83.1213C14.7497 83.0601 14.4912 82.9377 14.362 82.8764ZM214.79 85.2607C214.83 85.3798 214.905 85.6179 214.946 85.7369C217.871 85.7675 220.796 85.5805 223.725 85.6043C223.806 85.4648 223.966 85.1825 224.048 85.043C220.96 84.8968 217.875 85.1315 214.79 85.2607ZM187.511 85.6723C187.484 86.6825 187.607 87.6926 187.603 88.7062C186.644 89.6756 184.984 90.111 184.797 91.6551C185.828 91.3048 186.433 90.332 187.185 89.6144C188.277 88.5906 188.913 87.2063 189.511 85.8594C188.841 85.7845 188.178 85.7301 187.511 85.6723ZM252.928 86.7709L252.864 87.3525C256.319 87.3423 259.778 86.9172 263.234 87.2199C265.785 87.2947 268.322 87.7097 270.877 87.6246C270.897 87.5396 270.938 87.3695 270.958 87.2845C268.996 86.8355 266.955 87.0328 264.969 86.7913C260.962 86.3593 256.938 86.7233 252.928 86.7709ZM169.447 89.8423C169.11 90.5973 170.42 91.4137 170.804 90.5463C171.253 90.0395 170.583 89.5668 170.325 89.1722C170.025 89.3865 169.719 89.5906 169.447 89.8423ZM76.5443 96.3217C71.0444 100.226 66.8234 105.634 63.3643 111.366C62.0718 113.502 61.0888 115.804 60.1943 118.134C59.2726 120.59 57.8678 122.825 56.8576 125.243C56.0243 127.205 55.2862 129.205 54.5822 131.215C53.538 134.175 53.1366 137.307 52.2761 140.321C49.7455 149.106 48.8068 158.29 48.8918 167.415C48.9565 170.47 49.2047 173.878 51.4258 176.218C53.072 178.143 55.657 178.813 58.0889 179.01C59.4086 170.517 60.2623 161.956 61.8303 153.501C63.4017 144.702 64.9765 135.834 68.1431 127.437C68.3608 127.063 68.4594 126.219 69.0785 126.43C69.905 126.457 69.6159 127.454 69.3948 127.916C67.9628 131.467 67.0071 135.188 66.0921 138.902C64.4459 146.185 63.1364 153.545 62.0038 160.926C61.1059 167.96 60.1841 174.99 58.9936 181.98C58.9222 182.748 58.6433 183.578 58.8984 184.337C60.4698 185.208 62.2487 185.605 63.9697 186.085C69.405 187.486 75.0409 187.908 80.6394 187.769C86.6393 187.993 92.6494 188.041 98.639 187.602C107.05 187.065 115.482 186.007 123.598 183.66C122.38 176.368 121.183 169.051 120.812 161.657C120.741 161.103 120.863 160.388 120.275 160.089C114.455 155.905 108.938 151.287 103.925 146.154C102.418 144.559 100.704 143.161 99.2785 141.491C98.6799 140.97 99.7955 140.079 100.2 140.77C104.292 144.81 108.285 148.977 112.727 152.647C118.315 157.3 124.207 161.705 130.778 164.885C137.087 167.956 144.22 169.065 151.192 168.657C156.992 167.953 162.332 165.29 167.216 162.208C173.107 158.375 178.528 153.664 182.556 147.865C185.777 143.236 187.634 137.817 188.851 132.352C189.29 130.556 188.8 128.719 188.345 126.984C187.004 122.263 183.379 118.399 178.994 116.311C175.998 114.889 172.79 113.396 169.396 113.685C167.655 113.886 165.94 114.529 164.644 115.729C159.835 119.882 155.485 124.603 151.978 129.909C149.216 134.195 147.764 139.521 148.951 144.572C148.519 144.657 148.084 144.708 147.648 144.732C146.9 141.831 147.145 138.749 147.917 135.879C145.696 134.766 143.696 133.287 141.696 131.828C134.635 126.739 128.584 120.42 122.9 113.869C120.275 110.951 117.145 108.553 114.248 105.927C112.016 103.961 109.993 101.781 107.823 99.7536C104.993 97.1584 101.826 94.9204 98.4282 93.1245C95.2888 91.4171 91.7412 89.9851 88.0951 90.5803C83.7754 91.3048 80.051 93.8422 76.5443 96.3217ZM185.814 92.9885C184.743 94.1109 183.964 95.4714 183.093 96.7503C182.059 98.4543 180.892 100.158 180.488 102.145C180.267 103.597 180.318 105.09 180.675 106.519C179.028 108.781 177.501 111.128 175.77 113.328C178.801 114.614 181.773 116.121 184.358 118.182C185.552 115.532 186.947 112.978 188.066 110.294C188.297 109.277 189.44 109.121 190.123 108.509C192.515 106.41 194.566 103.801 195.576 100.757C195.746 100.111 195.882 98.8625 194.895 98.8761C192.94 99.9679 192.344 102.335 191.062 104.036C190.532 104.502 189.787 103.672 190.249 103.186C191.028 101.828 191.872 100.509 192.596 99.1244C192.848 98.5768 193.297 98.1754 193.746 97.7911C193.069 97.4441 192.378 97.1244 191.712 96.7639C190.409 98.4203 189.627 100.417 188.402 102.124C187.919 102.169 187.644 101.951 187.572 101.478C188.589 99.257 190.205 97.3115 190.913 94.9544C190.372 94.7299 189.725 94.0565 189.188 94.6687C187.919 96.002 187.27 97.7775 186.314 99.3284C186.015 99.9135 185.402 99.5223 185.008 99.3046C185.947 96.9067 187.63 94.8081 188.219 92.2776C187.389 92.3388 186.426 92.3218 185.814 92.9885ZM181.083 96.8455C180.008 98.7944 177.528 99.7672 176.903 101.992C176.256 102.335 175.43 102.665 175.331 103.502C175.654 104.665 176.644 103.709 177.114 103.196C176.964 102.675 177.256 102.237 177.532 101.845C177.831 102.403 178.144 102.968 178.474 103.515C179.025 102.713 178.035 102.022 177.597 101.451C178.372 100.57 179.147 99.689 179.984 98.8659C181.049 97.8353 181.644 96.4544 182.423 95.2197C181.447 95.1381 181.447 96.2197 181.083 96.8455ZM280.645 100.226C280.006 103.063 280.094 105.995 279.999 108.883C280.21 109.097 280.424 109.315 280.638 109.536C280.604 106.355 280.761 103.182 281.227 100.036C281.081 100.084 280.792 100.179 280.645 100.226ZM236.976 103.624C236.595 106.89 236.139 110.158 236.007 113.447C236.126 113.366 236.367 113.202 236.486 113.121C236.803 109.838 237.442 106.57 237.517 103.271C237.381 103.359 237.112 103.536 236.976 103.624ZM205.95 104.281C205.82 107.641 206.351 110.995 206.178 114.359C206.218 114.927 205.943 115.743 206.661 115.968C207.082 112.352 206.538 108.747 206.514 105.128C206.514 104.777 206.388 104.243 205.95 104.281ZM279.941 109.277C279.9 110.196 279.802 111.111 279.707 112.025C280.659 111.9 280.329 110.641 280.57 109.981C280.356 109.747 280.145 109.512 279.941 109.277ZM308.583 112.284C307.743 113.335 307.478 114.695 307.243 115.988C306.998 116.566 307.515 117.002 307.777 117.447C306.76 119.869 305.876 122.355 305.196 124.889C305.274 124.964 305.437 125.114 305.516 125.185C305.58 125.151 305.709 125.086 305.774 125.052C306.692 122.685 307.107 120.138 308.23 117.852C308.553 117.692 308.879 117.532 309.206 117.372C310.134 119.049 309.869 121.008 309.91 122.848C309.784 125.978 309.958 129.117 310.451 132.209C310.505 132.63 310.73 132.984 311.168 133.103C311.145 132.045 311.015 130.998 310.876 129.954C313.124 128.144 315.389 126.083 316.335 123.267C316.645 123.501 316.957 123.739 317.274 123.981C319.685 123.277 321.348 120.352 320.566 117.947C319.94 116.331 317.832 116.529 316.699 117.461C315.206 118.287 315.06 120.151 314.784 121.644C313.44 122.848 312.281 124.43 310.529 125.042C310.689 123.185 310.655 121.308 310.93 119.464C311.502 118.563 312.383 117.835 312.645 116.757C313.066 115.161 312.978 113.284 311.937 111.937C311.026 110.961 309.356 111.301 308.583 112.284ZM229.163 115.345C228.371 115.491 227.402 115.624 226.949 116.386C226.228 117.6 226.31 119.073 226.177 120.433C226.044 123.056 225.555 125.654 225.561 128.287C225.745 132.355 224.946 136.763 226.891 140.521C228.364 141.634 230.31 140.715 231.976 140.719C236.173 140.838 240.374 140.95 244.575 140.906C245.775 140.964 246.993 140.12 247.139 138.889C247.323 137.389 246.806 135.916 246.813 134.416C246.741 129.76 246.922 125.1 247.173 120.45C247.207 118.321 246.224 115.627 243.867 115.202C241.058 114.957 238.228 115.165 235.415 115.148C233.337 114.743 231.228 115.025 229.163 115.345ZM268.669 116.117C268.013 116.161 267.169 116.284 266.989 117.046C266.292 119.008 266.374 121.131 266.322 123.185C266.295 129.079 265.86 134.967 266.023 140.858C266.057 142.12 266.05 143.419 266.489 144.623C266.707 145.263 267.394 145.552 268.03 145.583C273.69 146.103 279.383 146.103 285.053 145.719C286.346 145.572 287.819 145.923 288.961 145.161C289.54 144.436 289.546 143.464 289.655 142.589C289.839 140.079 289.887 137.559 290.152 135.056C290.621 130.658 290.597 126.222 290.387 121.808C290.234 119.916 290.23 117.991 289.696 116.155C288.2 115.631 286.594 115.682 285.036 115.583C279.574 115.444 274.111 115.672 268.669 116.117ZM200.899 117.352C200.269 117.461 199.565 117.767 199.389 118.444C199.188 119.573 199.385 120.719 199.433 121.855C199.718 126.729 199.338 131.61 199.453 136.484C199.525 137.256 199.548 138.314 200.382 138.678C202.446 139.45 204.671 139.042 206.797 138.807C208.609 138.596 210.524 139.324 212.262 138.552C213.47 138.035 213.664 136.583 213.735 135.433C213.946 130.79 213.888 126.137 213.847 121.491C213.776 120.297 213.83 118.957 213.089 117.944C212.004 117.053 210.497 117.127 209.177 117.053C206.419 116.995 203.633 116.947 200.899 117.352ZM298.097 118.852C296.805 119.644 296.914 121.716 298.009 122.637C297.924 121.709 297.539 120.726 297.988 119.831C298.284 119.406 298.798 119.07 299.339 119.148C300.315 119.427 300.76 120.423 301.315 121.182C302.128 122.522 303.186 123.729 304.526 124.566C304.274 124.022 303.879 123.569 303.505 123.117C302.553 121.974 301.999 120.559 301.033 119.43C300.339 118.604 299.05 118.372 298.097 118.852ZM298.305 123.28C299.288 126.634 302.148 128.937 304.866 130.906C306.073 131.712 307.077 133.09 308.665 133.069C307.883 132.154 306.713 131.719 305.805 130.954C303.104 128.93 299.954 126.892 298.941 123.474C301.529 124.467 304.043 125.678 306.566 126.838C307.515 127.171 307.873 128.222 308.747 128.658C308.672 128.226 308.869 127.692 308.529 127.352C306.716 125.566 304.097 125.137 301.927 123.95C300.781 123.573 299.509 122.59 298.305 123.28ZM189.185 125.185C189.294 125.471 189.304 125.937 189.763 125.811C192.668 125.753 195.559 126.025 198.457 126.12C198.385 125.974 198.242 125.682 198.171 125.535C195.178 125.345 192.185 125.137 189.185 125.185ZM248.734 125.726C248.711 125.927 248.663 126.328 248.639 126.532C250.061 126.144 251.544 125.797 253.023 126.052C254.938 126.403 256.897 126.447 258.843 126.372C260.326 126.28 261.768 125.729 263.272 125.886C263.87 125.855 264.632 126.171 265.057 125.583C263.792 125.355 262.486 125.188 261.21 125.416C258.323 126.042 255.319 125.845 252.421 125.396C251.18 125.239 249.949 125.529 248.734 125.726ZM216.354 127.341C216.354 127.478 216.358 127.753 216.361 127.892C219.089 127.852 221.82 127.685 224.548 127.831C224.388 127.199 223.653 127.273 223.15 127.209C220.885 127.117 218.616 127.233 216.354 127.341ZM298.291 133.862C298.193 134.494 298.142 135.134 298.107 135.773C301.352 135.552 304.601 135.773 307.849 135.753C312.07 135.851 316.294 135.783 320.512 136.018C320.573 135.212 320.573 134.406 320.542 133.603C316.196 133.505 311.855 133.8 307.515 133.909C304.441 133.923 301.366 133.797 298.291 133.862ZM300.607 136.777C300.951 140.749 301.55 144.712 302.417 148.606C306.709 148.64 311.005 148.674 315.294 148.491C315.757 148.576 315.757 148.031 315.852 147.742C316.559 144.208 317.083 140.644 317.655 137.09C311.975 136.875 306.288 136.879 300.607 136.777ZM322.474 149.463C315.893 149.821 309.301 149.895 302.713 149.831C293.08 149.698 283.445 149.633 273.812 149.667C259.074 149.531 244.34 150.021 229.609 150.29C213.841 150.426 198.069 150.518 182.3 150.406C180.093 153.072 177.818 155.715 175.107 157.888C182.035 157.895 188.991 158.164 195.902 157.521C205.759 156.939 215.643 156.878 225.514 156.987C234.476 157.218 243.442 157.249 252.401 157.572C258.054 157.939 263.724 157.739 269.384 157.742C275.06 157.678 280.741 157.746 286.414 157.514C296.73 157.123 307.06 156.671 317.383 157.086C322.073 157.113 326.712 157.882 331.389 158.147C331.341 155.154 331.597 152.137 331.222 149.161C328.301 148.929 325.389 149.372 322.474 149.463ZM28.6746 167.371C28.5215 168.201 28.6406 169.048 28.7052 169.885C29.2222 169.83 29.7358 169.776 30.2494 169.721C30.2732 168.926 30.3276 168.13 30.2494 167.341C30.1099 166.531 28.9025 166.698 28.6746 167.371ZM34.5112 166.854C34.1098 167.708 34.0996 168.667 33.9942 169.592C34.4364 169.548 34.8785 169.511 35.3207 169.473C35.3751 168.562 35.3955 167.647 35.3479 166.739C35.1404 166.769 34.7221 166.827 34.5112 166.854ZM17.6374 168.041C17.5626 169.085 17.7905 170.123 18.0081 171.143C18.4537 171.113 18.8993 171.085 19.3449 171.058C19.0251 169.898 19.0625 168.691 18.9163 167.511C18.4945 166.946 17.6578 167.443 17.6374 168.041ZM28.2392 171.228C27.746 171.177 27.7154 171.803 27.6814 172.143C27.6134 174.279 27.5828 176.419 27.6474 178.558C30.4671 178.626 33.2833 178.568 36.103 178.612C36.6064 176.038 36.5962 173.402 36.9159 170.806C34.0214 170.909 31.1099 170.817 28.2392 171.228ZM16.3755 172.589C16.3585 173.072 16.3551 173.562 16.3517 174.055C18.1272 173.779 19.9163 173.623 21.6985 173.402C21.9911 173.051 22.0115 172.562 22.1441 172.15C20.202 171.929 18.3007 172.463 16.3755 172.589ZM16.6816 175.245C16.8993 176.476 17.0456 177.721 17.3109 178.949C18.5796 178.891 19.8482 178.796 21.1135 178.68C21.3244 177.327 21.4468 175.963 21.6101 174.609C19.9741 174.868 18.3041 174.881 16.6816 175.245ZM17.3517 180.136C13.8416 180.459 10.294 180.534 6.7941 180.112C5.81793 179.908 5.82814 181.021 5.85875 181.677C6.95056 181.956 8.07639 181.711 9.18521 181.708C14.515 181.609 19.8448 181.687 25.1747 181.81C32.8276 182.044 40.4873 182.072 48.1401 182.282C48.1367 181.408 48.2456 180.521 48.0517 179.663C47.0075 179.575 45.9599 179.602 44.9157 179.623C35.7288 179.983 26.5284 179.558 17.3517 180.136ZM8.6376 182.922C8.84848 189.296 9.18181 195.69 8.67161 202.058C11.6818 202.064 14.6953 202.041 17.7054 201.915C27.0318 201.673 36.3683 201.561 45.698 201.738C45.8069 197.996 45.5688 194.258 45.63 190.52C45.6334 188.146 45.8885 185.786 45.9259 183.412C41.0451 183.34 36.1642 183.483 31.2868 183.337C23.7393 183.106 16.1885 182.878 8.6376 182.922ZM277.567 215.292C257.71 215.574 237.847 215.547 217.99 215.755C218.096 226.05 218.187 236.346 218.147 246.645C223.439 246.74 228.735 246.591 234.031 246.625C242.775 246.693 251.513 246.189 260.248 245.985C265.22 245.972 270.197 246.046 275.169 245.931C278.853 246.203 282.557 246.067 286.251 246.233C295.842 246.465 305.434 246.764 315.029 246.767C314.971 236.213 315.141 225.659 314.954 215.108C302.492 215.084 290.029 215.166 277.567 215.292ZM260.095 247.271C260.836 248.747 261.697 250.373 263.34 250.992C265.588 251.852 268.152 251.876 270.445 251.162C272.251 250.597 273.438 248.951 274.06 247.24C269.407 247.332 264.751 247.233 260.095 247.271Z" fill="#0F5A8B"/>
<path d="M191.959 41.0289C195.772 40.8486 199.595 40.6853 203.422 40.7874C204.813 40.8758 206.387 40.5493 207.588 41.4472C208.983 42.471 209.809 44.2397 209.595 45.9743C209.36 48.5831 208.775 51.1851 209.057 53.8211C209.166 55.9605 209.813 58.2224 208.938 60.2869C208.347 61.8141 206.69 62.6474 205.112 62.644C201.823 62.7359 198.53 62.712 195.248 62.8957C194.197 62.9127 193.112 63.0114 192.092 62.7086C190.752 62.1678 190.119 60.6373 190.02 59.2836C189.782 55.9911 190.051 52.6885 189.925 49.3926C189.915 47.5593 189.793 45.7158 189.993 43.8893C190.139 42.7091 190.752 41.42 191.959 41.0289ZM204.792 44.9573C205.245 44.8859 205.921 45.1954 206.221 44.7158C206.724 44.2907 206.323 43.6648 206.16 43.1819C205.156 43.0968 204.585 44.056 204.792 44.9573ZM191.912 44.658C192.687 44.5424 192.84 43.7873 192.245 43.2941C191.932 43.6852 191.82 44.1376 191.912 44.658ZM201.83 50.9096C201.337 52.0082 200.918 53.1408 200.303 54.1816C199.544 53.4674 198.881 52.6647 198.241 51.8483C197.762 52.8551 197.357 53.9027 196.714 54.8211C196.792 53.8211 196.932 52.8279 196.915 51.8245C196.5 52.0116 196.282 52.3313 196.258 52.7803C196.065 53.7871 195.898 54.8687 196.374 55.8278C197.486 55.2088 197.636 53.8075 198.401 52.8823C198.983 53.7054 199.632 54.4775 200.357 55.1816C201.037 53.9367 201.717 52.6749 202.19 51.3347C202.102 51.2293 201.922 51.015 201.83 50.9096ZM205.319 59.9264C205.35 60.6033 205.823 61.0352 206.387 61.3209C206.486 60.9672 206.84 60.5896 206.598 60.2121C206.469 59.6135 205.7 59.9604 205.319 59.9264Z" fill="#0F5A8B"/>
<path d="M117.834 42.4058C118.528 42.1916 119.317 42.0895 120.015 42.3412C120.368 42.7154 120.253 43.3922 119.698 43.4977C118.307 43.8786 116.916 44.2629 115.62 44.9126C115.117 45.3207 114.59 44.3072 114.988 43.967C115.8 43.2392 116.814 42.7698 117.834 42.4058Z" fill="#0F5A8B"/>
<path d="M205.434 43.948C205.89 43.7643 206.036 43.9276 205.869 44.4344C205.407 44.6146 205.26 44.4514 205.434 43.948Z" fill="#0F5A8B"/>
<path d="M229.304 46.6206C229.365 45.8655 229.572 45.1343 229.855 44.4336C230.916 44.5492 231.926 44.9982 233.011 44.9166C238.338 44.7601 243.661 45.1615 248.987 45.0186C250.694 44.971 252.395 44.6241 254.109 44.7873C254.745 46.4642 254.732 48.277 255.004 50.0287C255.276 52.1715 255.592 54.396 255.031 56.5184C254.783 57.583 253.898 58.5795 252.739 58.5591C248.548 58.8074 244.354 58.4775 240.164 58.3585C236.242 58.219 232.324 58.6986 228.402 58.4741C228.81 56.4844 228.793 54.447 228.722 52.43C228.63 50.4709 229.113 48.5594 229.304 46.6206ZM250.752 47.3485C250.742 47.6342 250.725 48.209 250.715 48.4947C251.371 48.4641 251.745 48.1138 251.677 47.4471C251.446 47.4233 250.983 47.3723 250.752 47.3485ZM237.827 53.1749C237.909 52.3076 237.712 51.4947 236.746 51.3858C236.994 52.2055 236.936 53.3382 237.763 53.8245C238.65 53.2089 239.225 52.2463 240.021 51.5219C240.212 52.1953 240.399 52.8756 240.525 53.5728C240.841 53.6103 241.195 53.6477 241.164 53.1817C241.137 52.396 240.786 51.6851 240.412 51.0151C239.348 51.464 238.596 52.3518 237.827 53.1749ZM235.392 53.8552C236.457 53.9538 236.096 52.6545 236.28 51.9946C235.514 52.3212 235.31 53.0831 235.392 53.8552ZM246.337 54.2225C245.865 54.7735 246.643 55.5592 247.021 54.8449C247.477 54.396 246.752 53.8109 246.337 54.2225Z" fill="#0F5A8B"/>
<path d="M286.095 49.601C286.513 49.2643 287.125 49.965 286.632 50.2881C286.197 50.6725 285.605 49.9208 286.095 49.601Z" fill="#0F5A8B"/>
<path d="M287.436 49.8016C287.878 49.7064 288.338 49.5907 288.797 49.6962C288.457 50.2778 288.086 50.89 287.429 51.1587C286.838 50.8764 287.351 50.2268 287.436 49.8016Z" fill="#0F5A8B"/>
<path d="M119.107 50.0306C119.26 49.9693 119.569 49.8503 119.722 49.7891C120.773 50.6326 120.348 52.2652 120.219 53.4386C119.964 54.2856 119.729 55.5678 118.681 55.7107C117.763 55.3468 117.95 54.2617 117.971 53.4727C118.12 52.2856 118.28 50.9591 119.107 50.0306Z" fill="#0F5A8B"/>
<path d="M279.671 51.1523C278.797 51.3189 278.793 50.6353 278.889 50.0197C279.766 49.7441 279.667 50.5673 279.671 51.1523Z" fill="#0F5A8B"/>
<path d="M280.263 52.4784C281.083 50.6587 283.518 50.1383 285.072 51.3458C286.378 52.1791 286.321 54.0668 285.457 55.2028C284.964 55.611 284.372 55.8797 283.896 56.3049C282.8 56.0532 281.542 55.8933 280.681 55.0872C280.008 54.3899 280.28 53.3457 280.263 52.4784ZM282.426 51.5363C281.569 51.9512 280.97 52.873 280.977 53.8287C281.283 55.6178 284.12 55.9477 284.919 54.3525C285.97 52.8458 283.994 50.9648 282.426 51.5363Z" fill="#0F5A8B"/>
<path d="M281.957 52.725C282.331 52.1808 283.981 51.8237 283.498 52.8883C283.586 53.8508 284.63 52.9665 284.845 53.844C284.062 54.1569 283.243 54.5685 282.403 54.208C282.63 53.5855 282.566 53.0515 281.957 52.725ZM282.79 53.4631C283.236 53.7046 283.484 53.5991 283.539 53.1434C283.09 52.8951 282.838 53.0005 282.79 53.4631Z" fill="#0F5A8B"/>
<path d="M287.363 52.709C288.333 52.845 289.305 52.9573 290.275 53.1273C289.996 53.8212 289.271 53.9028 288.639 54.0389C288.567 53.9028 288.431 53.6273 288.36 53.4879C288.299 53.726 288.173 54.1987 288.112 54.4334C288.407 54.4674 288.996 54.5287 289.292 54.5593C288.85 54.9232 288.377 55.3144 287.765 55.1273C287.598 54.3246 287.584 53.5015 287.363 52.709Z" fill="#0F5A8B"/>
<path d="M278.514 54.0645C278.796 54.0679 279.361 54.0815 279.643 54.0883C279.62 54.357 279.572 54.891 279.551 55.1597C279.29 55.1563 278.766 55.1529 278.504 55.1495C278.511 54.7855 278.507 54.4216 278.514 54.0645Z" fill="#0F5A8B"/>
<path d="M285.309 57.1895C286.043 58.2268 285.581 59.6384 285.564 60.822C283.605 60.8731 281.632 60.788 279.673 60.8901C279.628 59.7642 279.407 58.5704 279.907 57.5126C281.7 57.4343 283.594 57.8629 285.309 57.1895ZM280.299 58.0806C280.282 58.7745 280.261 59.4683 280.251 60.1656C281.778 60.1146 283.305 60.1554 284.836 60.1758C284.928 59.4581 284.958 58.737 284.938 58.0194C283.39 57.9888 281.843 58.084 280.299 58.0806Z" fill="#0F5A8B"/>
<path d="M286.046 62.6152C286.305 62.6526 286.815 62.7207 287.073 62.7547C286.917 63.2411 286.563 63.5744 286.087 63.7479C285.999 63.3737 285.92 62.9928 286.046 62.6152Z" fill="#0F5A8B"/>
<path d="M187.934 75.5091C188.468 74.2064 190.063 74.6111 191.165 74.5465C195.903 74.6519 200.637 74.6213 205.372 74.5465C205.352 74.7234 205.307 75.0771 205.287 75.254C199.508 75.5941 193.719 75.4172 187.934 75.5091Z" fill="#0F5A8B"/>
<path d="M228.035 74.7516C228.838 74.3707 229.504 75.1904 230.263 75.3196C230.732 75.2176 231.195 75.0611 231.657 74.9149C233.188 74.3741 234.834 74.7856 236.416 74.602C239.12 74.2924 241.848 74.3809 244.562 74.5033C246.565 74.636 248.647 74.8639 250.453 75.806C251.259 76.1836 251.109 77.2141 251.13 77.9488C250.786 84.8466 250.198 91.7785 250.865 98.6763C251.028 100.387 249.116 101.03 247.783 101.329C243.123 102.078 238.385 101.85 233.685 102.003C231.171 102.02 228.59 102.18 226.147 101.503C225.457 100.499 226.028 99.1252 225.702 97.9858C225.018 95.0947 225.239 92.1118 225.266 89.1697C225.212 86.0677 226.372 83.1052 226.328 79.9964C226.481 78.2073 226.025 75.6666 228.035 74.7516ZM243.974 80.1495C243.161 81.578 242.045 82.8535 241.559 84.4453C240.202 83.6222 238.576 83.9793 237.096 84.1154C236.776 83.0133 236.579 81.8807 236.273 80.7753C236.072 80.3433 235.436 80.2209 235.151 80.646C235.831 81.8399 236.334 83.129 236.494 84.5065C235.494 84.9079 234.399 85.2922 233.773 86.231C233.6 86.4384 233.266 86.9656 232.981 86.5235C232.079 85.9282 231.521 84.7106 230.317 84.7242C230.226 84.8908 230.038 85.2208 229.947 85.3874C230.8 85.7446 231.708 86.0745 232.382 86.7411C233.433 87.537 232.984 88.9928 233.079 90.122C231.936 90.8465 229.855 90.8703 229.746 92.5505C230.817 91.9315 231.814 91.1186 233.038 90.8023C233.875 92.3159 235.416 93.1934 237.062 93.5777C237.395 95.6491 237.838 97.7035 238.208 99.7681L238.484 99.9926L238.848 99.8021C238.637 97.6831 238.174 95.5947 237.695 93.5233C239.089 93.5403 240.494 93.2104 241.616 92.3397C242.055 93.5845 242.569 94.809 243.188 95.979C243.361 96.462 243.79 96.6899 244.29 96.7375C243.654 95.0981 242.667 93.6083 242.208 91.8975C242.746 91.0642 243.433 90.2275 243.467 89.1901C243.61 88.6561 243.324 87.8092 244.028 87.6187C245.501 87.0269 247.11 87.5268 248.307 88.4724C248.198 88.0642 248.297 87.5098 247.837 87.3058C246.487 86.3704 244.746 86.5133 243.351 87.2615C242.984 86.35 242.494 85.4963 241.899 84.7174C243.035 82.6358 244.3 80.6358 245.508 78.6019C244.688 78.6937 244.371 79.5508 243.974 80.1495ZM247.32 98.7783C246.776 99.3667 247.664 100.016 248.106 100.285C248.007 99.8327 247.892 99.3837 247.633 98.9994C247.79 98.9382 248.099 98.8123 248.256 98.7511C248.242 99.1967 248.229 99.6456 248.218 100.098C248.392 99.8293 248.742 99.2919 248.919 99.0232C248.722 98.3157 247.722 98.1252 247.32 98.7783Z" fill="#0F5A8B"/>
<path d="M277.239 76.6424C278.722 76.4146 280.65 76.1935 281.704 77.5302C282.636 76.7241 283.929 76.8975 285.072 76.8567C285.211 77.9009 285.49 79.3975 284.357 79.9893C283.504 80.0879 282.708 79.5744 282.021 79.1356L281.735 79.1696C281.698 78.9315 281.616 78.4519 281.575 78.2138C281.262 79.309 280.946 80.4077 280.46 81.4451C280.735 81.7954 280.977 82.1729 281.235 82.5437C281.548 82.428 282.174 82.1933 282.487 82.0743C282.358 81.411 281.388 81.0743 281.633 80.343C282.126 79.605 283.065 80.2444 283.701 80.4383C286.208 81.2444 286.698 85.1116 284.545 86.5844C282.956 87.9959 279.813 87.6592 279.082 85.4892C278.534 87.6728 275.167 87.3769 274.402 85.5062C273.558 83.979 274.514 81.8906 276.198 81.4825C277.286 80.9417 278.98 82.3056 279.568 80.8022C278.694 79.9451 277.358 79.5233 276.861 78.3329C276.742 77.7309 277.014 77.1764 277.239 76.6424ZM277.905 78.2989C278.273 78.5744 278.776 78.4825 279.211 78.5812C279.66 78.7376 280.116 78.8669 280.582 78.9961C280.585 78.7274 280.592 78.19 280.596 77.9247C280.089 77.6186 279.477 77.605 278.912 77.6118C278.494 77.5472 277.745 77.7274 277.905 78.2989ZM282.085 78.8873C282.732 78.6594 283.33 78.7716 283.878 79.2274C284.119 78.8635 284.106 78.4485 284.024 78.0404C283.208 77.8601 282.514 78.1254 282.085 78.8873ZM278.494 79.292C279.004 79.7648 279.596 80.1662 280.296 80.2954C280.116 79.4723 279.191 79.3397 278.494 79.292ZM282.375 81.3974C282.344 82.2104 282.895 82.8056 283.375 83.3974C282.732 83.275 281.939 82.462 281.364 83.1627C281.13 83.5641 281.5 83.9892 281.579 84.394C281.83 84.3702 282.334 84.3191 282.585 84.2953C282.572 84.0777 282.545 83.6491 282.531 83.4348C282.766 83.479 283.238 83.5675 283.477 83.6117C283.177 84.2579 282.939 85.3599 281.98 85.1729C281.283 85.1967 280.987 84.4518 280.735 83.9348C280.851 83.4994 280.946 83.0539 281.055 82.6151C280.664 82.4927 280.279 82.3668 279.895 82.258C279.871 82.8838 279.64 83.479 279.599 84.1049C279.694 85.1048 280.422 85.979 281.327 86.3803C282.943 86.8701 284.912 85.4892 284.728 83.7375C284.905 82.3906 283.687 81.2818 282.375 81.3974ZM276.854 82.2852C277.082 82.6185 277.31 82.9518 277.541 83.2886C277.82 83.292 278.375 83.2954 278.654 83.2954C278.749 82.1321 277.677 82.0913 276.854 82.2852ZM275.205 83.4654C274.98 83.9586 275.143 84.5028 275.191 85.0164C275.681 85.4552 276.181 85.996 276.898 86.0198C278.147 86.2375 279.14 84.3668 278.062 83.5505C276.841 83.2171 276.586 84.564 276.273 85.4008C276.109 84.9722 275.548 84.5334 275.895 84.0606C276.082 83.3124 277.021 83.6015 277.562 83.4348C277.262 83.0641 276.966 82.6967 276.671 82.3328C276.167 82.6865 275.613 82.9926 275.205 83.4654Z" fill="#0F5A8B"/>
<path d="M201.419 78.736C203.623 78.3075 205.905 78.3925 208.143 78.3789C208.16 78.6204 208.191 79.1 208.208 79.3381C206.055 79.3993 203.902 79.3687 201.752 79.5081C201.63 79.3789 201.388 79.1204 201.266 78.9877L201.419 78.736Z" fill="#0F5A8B"/>
<path d="M187.398 79.422C190.943 79.4288 194.487 78.9866 198.027 79.1941C197.48 79.9662 196.419 79.9016 195.582 79.9764C193.201 80.0104 190.82 80.1431 188.443 80.2553C187.858 80.4016 187.616 79.8166 187.398 79.422Z" fill="#0F5A8B"/>
<path d="M201.477 81.6354C201.64 81.428 201.806 81.2239 201.977 81.0198C203.963 80.8293 205.963 80.7375 207.959 80.8055L208.112 81.2409L207.813 81.6593C205.704 81.7409 203.589 81.7035 201.477 81.6354Z" fill="#0F5A8B"/>
<path d="M288.578 85.1038C288.735 84.1549 289.809 84.4712 290.496 84.4508C291.7 84.4304 292.758 85.3521 292.928 86.5426C292.231 86.9337 291.741 86.097 291.224 85.7943C289.704 88.1752 287.609 90.1003 285.782 92.2329C282.292 91.6445 278.714 92.1683 275.194 92.0458C274.721 92.039 274.493 91.7839 274.5 91.2874C278.007 91.1513 281.524 91.1683 285.031 91.2703C287.112 89.5663 288.575 87.2398 290.544 85.4201C289.877 85.3317 289.228 85.2433 288.578 85.1038Z" fill="#0F5A8B"/>
<path d="M237.763 85.0775C238.801 84.734 240.08 84.4891 241.035 85.1625C242.617 86.1795 243.372 88.3971 242.423 90.0978C241.348 92.5977 238.049 93.3018 235.706 92.3222C234.138 91.6012 233.399 89.7917 233.743 88.1386C233.682 87.1999 234.556 86.4448 235.464 86.489C235.852 85.5605 236.93 85.4108 237.763 85.0775ZM237.828 85.5333C236.44 85.9686 236.314 88.0706 237.318 88.9413C238.583 90.1896 241.233 88.9856 240.872 87.1421C240.828 85.6727 239.063 84.8326 237.828 85.5333ZM234.539 87.4652C234.638 88.1897 234.763 88.9107 234.906 89.6318C235.066 89.676 235.386 89.7679 235.542 89.8121C235.362 88.9652 235.41 87.9278 234.539 87.4652Z" fill="#0F5A8B"/>
<path d="M197.141 87.2066C197.253 86.1454 198.549 86.2985 199.324 86.1454C202.447 86.1216 205.579 85.9515 208.695 86.1216C208.576 86.2883 208.334 86.6284 208.212 86.7985C204.521 86.9447 200.828 86.9787 197.141 87.2066Z" fill="#0F5A8B"/>
<path d="M237.849 86.1744C238.689 85.654 240.175 85.9975 240.243 87.1404C240.672 88.5145 238.716 89.3376 237.815 88.4669C237.254 87.8614 236.944 86.62 237.849 86.1744Z" fill="#0F5A8B"/>
<path d="M170.021 89.9596C169.542 90.9868 171.161 89.929 170.021 89.9596V89.9596Z" fill="#0F5A8B"/>
<path d="M275.352 95.4102C275.454 94.9374 275.719 94.7062 276.147 94.7096C279.522 94.6517 282.896 94.5021 286.27 94.6109C286.134 95.0735 285.845 95.3082 285.399 95.3184C283.236 95.3932 281.073 95.417 278.913 95.5089C277.726 95.5225 276.522 95.6925 275.352 95.4102Z" fill="#0F5A8B"/>
<path d="M308.712 113.189C309.045 112.352 310.011 111.747 310.912 112.033C311.518 112.325 311.865 112.978 312.001 113.618C312.457 115.526 311.919 117.628 310.6 119.08C310.27 118.447 309.957 117.808 309.617 117.189C310.28 116.495 310.678 115.563 310.501 114.594C309.477 115.298 309.242 116.706 308.117 117.335C307.763 115.934 308.147 114.478 308.712 113.189Z" fill="#0F5A8B"/>
<path d="M229.443 115.942C231.062 115.765 232.701 115.269 234.334 115.612C236.147 115.99 237.987 115.527 239.813 115.711C241.238 115.83 242.687 115.619 244.102 115.888C245.623 116.507 246.446 118.211 246.531 119.786C246.487 125.66 245.657 131.578 246.521 137.432C246.582 138.241 246.599 139.272 245.854 139.799C245.214 140.333 244.334 140.265 243.561 140.241C241.521 140.074 239.48 140.319 237.439 140.248C234.844 140.268 232.215 139.758 229.647 140.343C228.769 140.513 227.545 140.632 227.137 139.619C225.81 136.581 226.188 133.194 226.106 129.969C225.98 126.881 226.477 123.827 226.728 120.759C226.875 119.52 226.878 118.255 227.262 117.061C227.603 116.204 228.65 116.089 229.443 115.942ZM236.381 119.687C236.358 121.197 237.898 122.252 237.721 123.837C237.405 123.694 236.769 123.412 236.453 123.269C236.497 123.622 236.541 123.976 236.592 124.337C236.116 124.327 235.667 124.425 235.242 124.629C233.409 124.367 231.691 123.684 229.912 123.224C230.157 123.626 230.327 124.156 230.837 124.31C232.082 124.714 233.409 124.786 234.698 125.01C233.745 126.221 234.068 127.799 234.568 129.126C233.834 129.983 231.875 130.238 232.303 131.666C233.058 130.922 233.912 130.292 234.854 129.809C235.364 130.425 235.82 131.109 236.456 131.615C237.392 132.231 238.66 132.323 239.681 131.86C241.32 130.806 242.5 128.915 242.388 126.925C242.232 125.905 241.698 124.99 240.915 124.333C241.715 123.718 242.364 122.905 242.752 121.973C242.65 121.935 242.442 121.857 242.337 121.816C241.691 122.697 241.058 123.595 240.238 124.33C239.351 124.207 238.46 124.119 237.572 124.061C237.752 123.84 238.113 123.405 238.289 123.184C238.17 121.85 237.286 120.65 236.381 119.687ZM242.439 126.265C242.449 126.411 242.466 126.711 242.476 126.86C243.534 126.84 244.595 126.799 245.653 126.85C245.497 126.517 245.514 125.891 244.976 125.973C244.119 125.952 243.262 126.037 242.439 126.265ZM241.936 130.425C242.058 130.748 242.027 131.187 242.32 131.428C243.126 132.058 243.84 132.796 244.643 133.439C244.602 131.996 243.272 130.775 241.936 130.425ZM239.398 132.908C238.691 133.83 237.837 134.666 237.344 135.731C237.102 136.088 237.238 136.408 237.575 136.636C238.041 135.53 238.623 134.462 239.514 133.639C239.827 134.911 239.898 136.224 240.045 137.527C240.133 138.057 240.038 138.816 240.738 138.938C240.487 137.19 240.347 135.428 240.085 133.687C240.082 133.149 239.613 132.826 239.313 132.452C239.334 132.568 239.378 132.796 239.398 132.908ZM243.612 137.177C243.317 137.799 243.83 138.636 244.548 138.394C245.157 138.33 244.973 137.581 244.922 137.18C244.48 137.081 244.041 137.081 243.612 137.177Z" fill="#0F5A8B"/>
<path d="M316.86 117.952C317.475 117.391 318.343 117.401 319.122 117.289C319.598 117.786 320.19 118.343 320.094 119.112C320.016 121.051 318.747 123.462 316.526 123.36C316.683 121.782 318.183 120.809 318.35 119.248C318.23 119.32 317.986 119.462 317.863 119.531C317.594 120.622 316.696 121.758 315.441 121.292C315.455 120.065 315.911 118.769 316.86 117.952Z" fill="#0F5A8B"/>
<path d="M201.181 117.949C204.055 117.527 206.974 117.599 209.868 117.704C210.844 117.803 212.025 117.837 212.681 118.69C213.191 119.53 213.12 120.558 213.154 121.5C213.11 126.153 213.303 130.806 213.062 135.455C212.97 136.476 212.603 137.727 211.477 138.023C209.844 138.465 208.168 137.833 206.515 138.057C204.715 138.306 202.834 138.673 201.059 138.101C200.215 137.86 200.079 136.857 200.089 136.115C200.028 131.132 200.365 126.143 200.11 121.163C199.967 120.041 199.515 118.081 201.181 117.949ZM205.025 128.102C203.879 127.265 203.106 125.85 201.644 125.52C202.304 127.017 204.045 127.697 204.977 129.04C206.555 127.078 207.48 124.473 209.736 123.085C210.082 122.813 211.099 122.418 210.453 121.884C207.899 123.122 206.327 125.673 205.025 128.102Z" fill="#0F5A8B"/>
<path d="M269.541 119.305C270.014 119.543 270.048 120.036 270.007 120.512C270.96 120.594 271.919 120.675 272.878 120.573C272.541 121.641 272.439 122.76 272.398 123.876C271.038 123.832 269.677 123.805 268.32 123.852C268.603 122.305 269.065 120.801 269.541 119.305ZM269.813 121.209C269.443 121.774 269.262 122.434 269.055 123.073C269.926 123.022 270.803 122.873 271.671 123.073C271.613 122.981 271.497 122.794 271.439 122.703C271.463 122.369 271.504 121.706 271.524 121.376C270.95 121.311 270.385 121.22 269.813 121.209Z" fill="#0F5A8B"/>
<path d="M277.239 120.487C277.997 120.038 277.898 121.416 278.286 121.8C279.164 122.532 280.204 123.062 281.051 123.848C279.915 125.368 277.83 125.035 276.188 124.878C276.745 123.467 276.844 121.94 277.239 120.487ZM277.647 122.651C277.521 123.151 277.395 123.654 277.273 124.157C277.994 124.191 278.715 124.188 279.439 124.174C279.378 124.035 279.255 123.756 279.194 123.62C278.67 123.304 278.15 122.984 277.647 122.651Z" fill="#0F5A8B"/>
<path d="M282.978 120.884C284.712 121 286.372 120.408 288.076 120.248C288.845 121.438 288.736 123.122 288.95 124.544C286.869 124.993 284.774 125.418 282.644 125.568C282.471 124.023 282.359 122.34 282.978 120.884ZM283.461 121.918C283.427 122.802 283.403 123.687 283.403 124.578C284.869 124.367 286.325 124.092 287.777 123.802C287.733 122.976 287.671 122.153 287.607 121.33C286.223 121.527 284.842 121.738 283.461 121.918Z" fill="#0F5A8B"/>
<path d="M310.573 126.237C312.169 124.9 313.856 123.658 315.243 122.094C315.471 122.107 315.927 122.131 316.155 122.145C316.111 122.74 316.131 123.393 315.703 123.869C314.553 125.427 313.332 126.947 311.914 128.27C311.584 128.522 311.264 128.879 310.825 128.893C310.662 128.015 310.55 127.124 310.573 126.237Z" fill="#0F5A8B"/>
<path d="M238.531 125.126C239.525 125.235 240.797 125.011 241.484 125.929C241.923 127.249 241.545 128.779 240.63 129.817C239.926 130.667 238.98 131.715 237.746 131.361C236.11 130.827 235.253 129.15 234.834 127.599C234.372 126.32 235.936 125.64 236.532 124.793C235.62 126.038 235.729 128.456 237.477 128.875C238.552 129.279 239.31 128.208 239.518 127.3C239.593 126.402 238.511 126 238.531 125.126Z" fill="#0F5A8B"/>
<path d="M271.129 125.008C272.979 125.198 274.819 125.481 276.673 125.617C276.401 128.151 276.016 130.671 275.462 133.157C274.285 133.205 273.125 132.977 271.955 133.004C271.132 133.569 270.027 133.44 269.074 133.433C269.758 130.623 270.717 127.872 271.129 125.008ZM271.853 126.181C271.329 128.195 270.843 130.215 270.197 132.191C271.646 132.082 273.101 132.042 274.557 132.079C275.241 130.324 275.397 128.419 275.516 126.559C274.458 126.028 273.047 126.198 271.853 126.181Z" fill="#0F5A8B"/>
<path d="M236.539 126.912C236.373 125.912 237.291 125.214 238.213 125.197C238.556 126.041 239.335 127.187 238.471 127.976C237.743 128.939 236.481 127.847 236.539 126.912Z" fill="#0F5A8B"/>
<path d="M277.921 127.286C278.221 126.8 278.809 127.089 279.268 127.113C280.044 127.239 280.802 127.46 281.561 127.681C281.323 129.14 280.676 130.494 280.5 131.966C279.534 132.368 279.673 130.919 279.544 130.347C278.537 130.31 277.452 130.483 276.54 129.953C276.204 129.109 277.068 129.194 277.629 129.13C277.639 128.511 277.418 127.773 277.921 127.286ZM278.595 127.99C278.139 128.293 277.993 128.864 277.728 129.313C278.5 129.402 279.316 129.745 280.095 129.521C280.333 129.038 280.476 128.514 280.629 128.004C279.949 127.963 279.265 127.898 278.595 127.99Z" fill="#0F5A8B"/>
<path d="M285.025 127.516C285.161 127.594 285.426 127.744 285.559 127.822C285.831 128.944 285.78 130.226 286.579 131.158C287.103 130.271 287.412 129.291 287.565 128.278C288.436 128.009 288.453 129.145 288.208 129.686C287.844 130.662 287.501 132.002 286.399 132.345C285.049 131.165 284.844 129.196 285.025 127.516Z" fill="#0F5A8B"/>
<path d="M283.746 135.387C284.624 134.305 286.338 134.952 287.566 134.748C287.556 135.01 287.532 135.533 287.522 135.795C287.032 135.754 286.549 135.71 286.066 135.673C286.226 136.407 286.171 137.156 285.821 137.829C286.498 137.795 287.175 137.754 287.858 137.707C287.824 137.901 287.756 138.285 287.726 138.479C286.494 138.714 285.229 138.822 283.981 138.778C283.484 138.081 284.44 137.571 285.011 137.452C285.266 136.894 285.416 136.295 285.596 135.714C284.984 135.618 283.937 136.353 283.746 135.387Z" fill="#0F5A8B"/>
<path d="M276.599 134.92C278.303 135.161 280.201 134.75 281.756 135.644C282.497 137.022 282.262 138.695 282.303 140.209C280.412 140.967 278.307 140.644 276.426 141.406C276.905 139.27 276.62 137.08 276.599 134.92ZM277.586 136.019C277.62 137.308 277.63 138.597 277.616 139.889C278.83 139.872 280.065 139.852 281.239 139.488C281.137 138.44 281.626 137.063 280.711 136.28C279.711 135.92 278.626 136.042 277.586 136.019Z" fill="#0F5A8B"/>
<path d="M271.542 135.635C271.903 136.162 272.059 136.778 272.273 137.373C272.726 137.818 273.358 138.033 273.824 138.475C274.297 138.944 274.243 139.662 274.328 140.278C273.743 140.271 273.233 140.073 273.025 139.495C272.617 138.835 272.039 138.315 271.522 137.747C271.321 138.312 271.148 138.89 271.09 139.492C271.318 139.397 271.777 139.206 272.008 139.111C272.267 139.21 272.532 139.315 272.797 139.427C272.154 140.172 271.321 140.709 270.301 140.618C269.93 139.75 270.478 138.944 270.736 138.135C271.025 137.308 271.222 136.451 271.542 135.635Z" fill="#0F5A8B"/>
<path d="M11.8624 187.467C11.8692 186.12 14.4746 185.358 14.4576 187.08C13.9304 187.188 13.1787 187.063 13.0529 187.77C13.2059 188.396 13.8556 188.661 14.2433 189.124C13.393 190.678 11.3658 188.743 11.8624 187.467Z" fill="#0F5A8B"/>
<path d="M11.5261 197.005C11.4002 195.536 13.6723 194.022 14.5566 195.628C14.6246 196.458 13.3696 196.179 12.8492 196.383C12.856 196.808 12.873 197.233 12.9002 197.665C13.3968 197.791 13.89 197.913 14.3865 198.049C14.1587 198.349 14.043 198.825 13.6315 198.947C12.4886 199.322 11.3492 198.131 11.5261 197.005Z" fill="#0F5A8B"/>
</g>
<defs>
<clipPath id="clip0_1320_267831">
<rect width="348.292" height="264" fill="white" transform="translate(0.355469)"/>
</clipPath>
</defs>
</svg>
