<svg width="270" height="159" viewBox="0 0 270 159" fill="none" xmlns="http://www.w3.org/2000/svg">
<g clip-path="url(#clip0_835_312525)">
<path d="M108.919 6.49012C107.317 6.52643 105.754 6.57969 104.229 6.6499C103.666 6.67895 103.244 6.8823 103.04 7.39794C102.324 9.18817 102.364 12.0061 104.233 13.139C105.483 13.8943 106.938 14.6351 107.436 16.0949C107.988 17.729 106.825 19.3957 105.24 19.8315C103.87 20.2092 102.463 19.9731 101.019 19.1234C96.66 16.5597 94.9695 10.9239 95.4894 6.13788C95.6857 5.59077 95.8626 4.97224 96.0202 4.28229C96.2262 3.39868 96.8006 2.5199 97.7434 1.64597C99.3394 0.171663 101.393 0.211607 103.375 1.01049C105.878 2.02483 107.726 3.85138 108.919 6.49012Z" fill="#327765"/>
<path d="M174.092 7.05264C172.931 7.27051 171.727 7.34314 170.482 7.27052C169.81 7.22936 169.363 7.49323 169.14 8.06214C168.366 10.023 168.715 12.7683 170.729 13.9448C171.315 14.2886 171.858 14.6542 172.357 15.0415C173.528 15.9529 173.873 17.7613 172.914 18.9597C171.474 20.7535 169.126 20.5102 167.25 19.4172C163.069 16.977 161.451 11.4538 161.985 6.98001C162.194 5.96808 162.428 5.17526 162.687 4.60151C164.061 1.58027 166.868 1.13725 169.685 2.51352C171.627 3.46007 173.095 4.97311 174.092 7.05264Z" fill="#327765"/>
<path d="M75.5598 33.2761C76.3499 33.2398 77.1473 33.2507 77.9519 33.3088C79.2098 33.4008 80.0072 33.4517 80.3441 33.4613C94.4134 33.7954 109.015 34.1525 124.148 34.5326C127.565 34.6161 130.957 34.5652 134.375 34.7396C140.239 35.0337 146.03 34.9356 151.937 35.1971C155.438 35.3532 158.954 35.3024 162.393 35.415C168.17 35.6002 173.812 35.6038 179.614 35.8217C184.307 35.996 188.972 36.0771 193.611 36.065C195.847 36.0577 196.719 34.2239 197.108 32.3102C197.435 30.71 197.732 29.1098 197.999 27.5096L199.599 27.408C199.841 27.391 199.932 27.5 199.871 27.7348C199.44 29.4705 199.085 31.2438 198.806 33.0546C198.493 35.0991 197.465 36.7803 195.229 37.0019C193.364 37.187 191.477 36.9692 189.539 36.9183C177.414 36.6109 164.974 36.3325 152.221 36.0831C150.16 36.0432 148.018 36.1049 145.921 35.996C142.28 35.8071 138.704 35.6994 135.192 35.6728C131.295 35.6437 127.54 35.513 123.683 35.444C107.241 35.1535 91.3099 34.8352 75.8906 34.489C75.814 34.4871 75.7389 34.4679 75.6708 34.4329C75.6026 34.3979 75.5433 34.348 75.4972 34.2869C75.451 34.2258 75.4193 34.1551 75.4043 34.0801C75.3894 34.005 75.3916 33.9276 75.4107 33.8535L75.5598 33.2761Z" fill="#327765"/>
<path d="M126.562 43.2723C125.641 44.5121 125.76 46.1597 126.828 46.9525C127.897 47.7453 129.511 47.3829 130.433 46.1432C131.354 44.9034 131.235 43.2558 130.167 42.463C129.098 41.6702 127.484 42.0326 126.562 43.2723Z" fill="#327765"/>
<path d="M174.279 44.5456C173.252 45.6971 173.241 47.3616 174.254 48.2635C175.268 49.1654 176.922 48.963 177.949 47.8115C178.976 46.66 178.987 44.9955 177.974 44.0936C176.96 43.1917 175.306 43.3941 174.279 44.5456Z" fill="#327765"/>
<path d="M74.8632 116.908C74.742 117.019 74.5942 117.054 74.4197 117.013C72.5438 116.552 70.0353 116.367 68.7375 116.2C66.189 115.873 63.5678 115.851 61.0848 115.597C59.9505 115.481 58.809 115.386 57.6602 115.314C59.1168 110.574 60.0765 107.324 60.5395 105.564C60.9878 103.857 62.0809 103.083 63.8187 103.243C67.7207 103.604 71.6228 103.959 75.5249 104.307C76.9863 104.434 77.8043 105.52 77.4626 107.034C76.8421 109.811 75.9757 113.102 74.8632 116.908Z" fill="#327765"/>
<path d="M95.4897 6.14047C94.9698 10.9265 96.6603 16.5623 101.019 19.126C102.464 19.9757 103.871 20.2117 105.24 19.8341C106.825 19.3983 107.988 17.7316 107.436 16.0975C106.938 14.6377 105.484 13.8969 104.233 13.1416C102.364 12.0086 102.324 9.19076 103.041 7.40053C103.244 6.88489 103.666 6.68154 104.229 6.65249C105.754 6.58228 107.317 6.52902 108.919 6.49271C115.485 6.44671 122.156 6.44792 128.932 6.49634C129.873 6.5036 130.82 6.51691 131.775 6.53628C139.369 6.6888 146.962 6.77473 154.555 6.7941C155.505 6.79652 156.494 6.7941 157.522 6.78684C159.005 6.77716 160.493 6.84373 161.986 6.98656C161.452 11.4603 163.07 16.9835 167.25 19.4238C169.126 20.5168 171.475 20.7601 172.914 18.9662C173.874 17.7679 173.529 15.9595 172.358 15.048C171.859 14.6607 171.316 14.2952 170.729 13.9514C168.715 12.7749 168.366 10.0296 169.141 8.06869C169.364 7.49979 169.811 7.23591 170.482 7.27707C171.728 7.34969 172.931 7.27707 174.092 7.05919C185.772 7.2698 196.235 7.3388 205.481 7.26618C209.79 7.23228 212.782 9.03219 214.457 12.6659C214.926 13.6863 215.18 15.0117 215.569 16.1919C215.489 16.0878 215.41 16.0103 215.33 15.9595C215.213 15.882 215.151 15.9135 215.144 16.0539C215.108 16.9254 215.045 17.7655 214.955 18.574C214.181 25.6478 213.279 32.6235 212.479 39.6501C209.19 68.5431 205.882 97.4337 202.554 126.322C202.407 127.595 202.244 128.921 202.067 130.298C202.064 130.321 202.066 130.345 202.073 130.367C202.08 130.389 202.092 130.409 202.108 130.427C202.124 130.444 202.143 130.458 202.165 130.467C202.187 130.476 202.211 130.48 202.235 130.48C204.136 130.414 206.045 130.708 207.906 130.828C217.76 131.467 227.614 132.121 237.466 132.789C237.701 132.806 238.067 132.789 238.564 132.738C238.935 132.702 239.303 132.712 239.669 132.767L234.939 135.106C235.017 134.866 234.985 134.75 234.845 134.757L237.044 133.57C237.148 133.514 237.142 133.474 237.026 133.45C236.272 133.295 235.687 133.203 235.27 133.174C222.815 132.3 213.458 131.697 207.201 131.366C205.499 131.276 203.851 131.184 202.256 131.09C202.128 131.083 202.058 131.143 202.045 131.271C201.394 137.246 200.686 143.205 199.922 149.148C199.92 149.168 199.91 149.176 199.893 149.174H199.89C199.868 149.174 199.857 149.162 199.857 149.137C199.905 148.179 199.899 147.312 199.839 146.537C199.829 146.416 199.784 146.311 199.704 146.221C198.126 144.367 196.566 142.941 195.022 141.944C194.825 141.815 194.342 141.605 193.571 141.312C193.393 134.51 189.02 129.082 182.116 128.257C175.296 127.444 168.457 126.841 161.608 126.108C143.513 124.173 125.411 122.302 107.301 120.494C96.6421 119.43 85.9938 118.22 75.331 117.175C75.0086 117.143 74.8535 117.055 74.8656 116.91C75.9781 113.104 76.8446 109.813 77.465 107.036C77.8067 105.522 76.9888 104.436 75.5273 104.309C71.6252 103.96 67.7231 103.606 63.8211 103.245C62.0833 103.085 60.9902 103.859 60.5419 105.565C60.079 107.325 59.1192 110.575 57.6626 115.315L43.4297 113.932C43.6066 113.946 43.7678 113.927 43.9132 113.874C44.0198 113.835 44.0841 113.759 44.1059 113.645C44.633 110.624 45.4328 107.635 46.0291 104.69C46.9597 100.078 47.9728 95.2416 49.0683 90.1796C49.77 86.9477 50.3407 83.7885 51.0496 80.5639C51.7428 77.4192 52.4699 73.9598 53.2309 70.1857C56.3623 54.6631 59.856 37.6989 63.712 19.293C64.1446 17.2341 64.4173 14.9718 65.028 13.1235C66.435 8.85305 69.9396 6.02427 74.4948 6.01701C81.4919 6.00732 88.4902 6.04848 95.4897 6.14047ZM75.56 33.2735L75.411 33.8509C75.3918 33.925 75.3896 34.0024 75.4046 34.0775C75.4195 34.1525 75.4513 34.2232 75.4974 34.2843C75.5435 34.3454 75.6029 34.3953 75.671 34.4303C75.7391 34.4653 75.8143 34.4844 75.8909 34.4864C91.3101 34.8326 107.241 35.1509 123.683 35.4414C127.54 35.5104 131.295 35.6411 135.193 35.6702C138.705 35.6968 142.281 35.8045 145.921 35.9934C148.019 36.1023 150.16 36.0406 152.221 36.0805C164.975 36.3299 177.414 36.6083 189.539 36.9157C191.477 36.9666 193.364 37.1844 195.229 36.9992C197.465 36.7777 198.494 35.0964 198.806 33.052C199.085 31.2412 199.44 29.4679 199.871 27.7322C199.932 27.4973 199.841 27.3884 199.599 27.4053L197.999 27.507C197.924 27.2044 197.901 26.8582 197.93 26.4685C197.952 26.1586 197.937 25.8778 197.887 25.626C197.657 24.4676 195.847 23.9629 194.829 23.9484C184.672 23.7765 174.867 23.6094 165.414 23.4472C162.089 23.3916 159.114 23.2778 156.489 23.1059C155.898 23.0672 155.233 23.0502 154.493 23.055C149.159 23.0768 143.373 23.0333 137.134 22.9243C122.745 22.6677 109.872 22.3881 98.5144 22.0855C98.0757 22.0734 97.6189 22.0637 97.1438 22.0564C91.6591 21.9572 86.355 21.864 81.2314 21.7768C78.1594 21.726 75.3528 21.7478 74.5566 25.4553C74.2609 26.8377 73.9386 28.295 73.5896 29.8274C73.2212 31.4494 73.7932 32.4964 75.3055 32.9685C75.371 32.9879 75.4267 33.0242 75.4728 33.0774C75.5358 33.1525 75.5649 33.2178 75.56 33.2735ZM100.528 41.8361C99.9686 42.6786 99.8777 43.6627 99.8741 44.6504C99.8668 46.1126 100.333 47.3908 101.274 48.485C102.975 50.475 106.563 48.4306 108.025 47.1705C108.931 46.3934 109.543 45.58 109.861 44.7303C110.606 42.7222 111.14 36.7305 107.116 37.6747C104.706 38.2411 101.943 39.7009 100.528 41.8361ZM154.424 39.3959C151.949 40.5397 149.109 42.2465 148.619 45.028C148.303 46.8195 148.827 48.3761 150.189 49.6979C150.836 50.3297 151.567 50.3442 152.367 50.0792C154.53 49.3565 157.54 47.5009 158.064 45.0716C158.282 44.0524 158.363 43.0284 158.307 41.9995C158.191 39.7663 156.704 38.3464 154.424 39.3959ZM91.6028 43.6303C91.6174 43.4153 91.5896 43.1995 91.5207 42.9952C91.4519 42.7909 91.3435 42.6021 91.2016 42.4397C91.0598 42.2773 90.8873 42.1444 90.694 42.0485C90.5007 41.9527 90.2904 41.8958 90.0751 41.8812L80.4416 41.2252C80.2263 41.2105 80.0103 41.2383 79.8057 41.3071C79.6012 41.3758 79.4122 41.4841 79.2496 41.6259C79.087 41.7675 78.9539 41.9398 78.858 42.1329C78.762 42.326 78.7051 42.536 78.6904 42.7511L78.6835 42.8525C78.6688 43.0676 78.6967 43.2834 78.7655 43.4877C78.8344 43.692 78.9428 43.8807 79.0847 44.0431C79.2265 44.2056 79.399 44.3385 79.5923 44.4343C79.7856 44.5302 79.9959 44.5871 80.2112 44.6017L89.8446 45.2577C90.0599 45.2724 90.276 45.2445 90.4805 45.1758C90.6851 45.107 90.874 44.9987 91.0366 44.857C91.1993 44.7153 91.3323 44.543 91.4283 44.3499C91.5242 44.1569 91.5812 43.9468 91.5958 43.7318L91.6028 43.6303ZM126.831 46.9532C127.344 47.3339 128.012 47.4626 128.688 47.3108C129.364 47.159 129.992 46.7393 130.435 46.1439C130.654 45.8491 130.821 45.5201 130.926 45.1756C131.032 44.8311 131.073 44.4779 131.048 44.1362C131.024 43.7945 130.933 43.4709 130.782 43.1839C130.631 42.8969 130.423 42.6522 130.169 42.4637C129.656 42.083 128.988 41.9544 128.312 42.1062C127.636 42.258 127.007 42.6777 126.565 43.273C126.346 43.5678 126.179 43.8968 126.073 44.2413C125.968 44.5858 125.927 44.939 125.951 45.2808C125.976 45.6225 126.066 45.9461 126.217 46.233C126.368 46.52 126.577 46.7647 126.831 46.9532ZM174.258 48.2714C174.498 48.4858 174.785 48.6442 175.101 48.7376C175.417 48.8309 175.757 48.8574 176.1 48.8154C176.443 48.7734 176.783 48.6639 177.101 48.493C177.419 48.3221 177.708 48.0932 177.952 47.8194C178.196 47.5456 178.391 47.2323 178.524 46.8972C178.658 46.5622 178.728 46.2121 178.73 45.8668C178.732 45.5216 178.667 45.188 178.538 44.8851C178.409 44.5822 178.218 44.3159 177.977 44.1015C177.736 43.887 177.449 43.7286 177.133 43.6353C176.817 43.5419 176.478 43.5155 176.135 43.5574C175.792 43.5994 175.452 43.709 175.134 43.8799C174.816 44.0507 174.527 44.2796 174.282 44.5534C174.038 44.8272 173.844 45.1406 173.71 45.4756C173.577 45.8106 173.507 46.1608 173.505 46.506C173.502 46.8512 173.568 47.1848 173.697 47.4877C173.826 47.7906 174.017 48.0569 174.258 48.2714ZM88.2406 75.7633L93.1012 53.2493C93.1157 53.1864 93.0915 53.1488 93.0285 53.1367L92.9412 53.1149C92.9291 53.1149 92.9231 53.1198 92.9231 53.1295C91.2944 60.8084 89.6317 68.3736 87.9352 75.8251C87.918 75.8991 87.8753 75.9647 87.8146 76.01C87.754 76.0552 87.6794 76.0772 87.6044 76.072L68.2454 74.7139C68.2253 74.7124 68.2051 74.7152 68.186 74.7219C68.1669 74.7287 68.1493 74.7394 68.1343 74.7533C68.1194 74.7672 68.1073 74.7841 68.0989 74.8029C68.0905 74.8217 68.086 74.8421 68.0855 74.8628V74.9644C68.0844 75.0314 68.109 75.0962 68.1544 75.1455C68.1997 75.1948 68.2622 75.2249 68.3291 75.2295L87.4262 76.515C87.6443 76.5295 87.7292 76.6421 87.6807 76.8527L82.3984 100.896C82.3905 100.932 82.3698 100.964 82.3404 100.986C82.3109 101.008 82.2746 101.019 82.2384 101.015L61.4326 99.2978C61.4119 99.2962 61.3912 99.2989 61.3717 99.3058C61.3522 99.3127 61.3345 99.3235 61.3197 99.3376C61.3049 99.3517 61.2934 99.3688 61.2859 99.3876C61.2784 99.4064 61.2751 99.4265 61.2762 99.4466L61.2835 99.5556C61.2866 99.6077 61.308 99.657 61.3439 99.6948C61.3798 99.7327 61.4279 99.7567 61.4798 99.7626C63.5411 100.009 65.5116 99.9659 67.6056 100.275C68.752 100.444 70.0147 100.54 71.3938 100.561C74.124 100.601 76.8397 101.084 79.5409 101.262C84.2161 101.575 89.0428 101.959 94.021 102.417C96.5694 102.649 99.1288 102.769 101.677 103.016C108.825 103.706 115.994 104.185 123.148 104.806C125.402 105 127.819 105.194 130.398 105.387C134.426 105.689 138.508 106.077 142.605 106.339C144.132 106.436 145.604 106.551 147.019 106.684C149.292 106.902 151.495 107.091 153.628 107.25C161.568 107.853 169.577 108.475 177.655 109.117C177.684 109.119 177.713 109.112 177.739 109.097C177.765 109.082 177.786 109.06 177.8 109.033L177.971 108.685C177.986 108.653 177.976 108.636 177.942 108.634L153.755 106.666C153.702 106.661 153.649 106.645 153.602 106.619C153.555 106.593 153.514 106.557 153.482 106.514C153.449 106.47 153.426 106.421 153.415 106.368C153.403 106.316 153.403 106.261 153.414 106.208L158.547 81.6751C158.572 81.5557 158.64 81.4497 158.738 81.3773C158.837 81.3049 158.959 81.2713 159.081 81.2829C160.742 81.4354 162.431 81.5504 164.149 81.6279C165.865 81.7053 167.579 81.8131 169.29 81.9511C172.984 82.2488 176.652 82.5091 180.294 82.7318C181.099 82.7802 181.921 82.8964 182.759 83.0804C183.13 83.1627 183.325 83.0138 183.345 82.6337C183.376 82.0455 183.446 81.4753 183.555 80.9234C185.136 72.9636 186.689 65.1781 188.216 57.5669C188.231 57.5064 188.206 57.4689 188.143 57.4543L188.053 57.4398C188.053 57.4374 188.051 57.4374 188.049 57.4398C186.452 65.4335 184.859 73.4308 183.272 81.4318C183.248 81.5553 183.246 81.6799 183.268 81.8058C183.3 81.9704 183.265 82.1096 183.163 82.2234C183.135 82.2551 183.1 82.2801 183.061 82.2964C183.022 82.3128 182.979 82.3201 182.937 82.3178C175.766 81.87 169.054 81.4427 162.801 81.036C161.604 80.9561 160.394 80.7346 159.212 80.6765C158.963 80.6668 158.863 80.5397 158.914 80.2952L163.931 56.0091C163.936 55.9849 163.926 55.9752 163.902 55.98L163.778 55.9982C163.735 56.0079 163.708 56.0345 163.698 56.0781L158.602 80.3823C158.577 80.4961 158.508 80.5579 158.394 80.5675C157.905 80.6135 157.414 80.6232 156.922 80.5966C149.525 80.231 142.431 79.7662 135.64 79.2022C135.605 79.1992 135.571 79.189 135.541 79.1722C135.51 79.1555 135.483 79.1325 135.462 79.1048C135.441 79.0771 135.426 79.0453 135.418 79.0114C135.409 78.9776 135.408 78.9423 135.414 78.908L139.933 54.9633C139.938 54.9415 139.93 54.9282 139.908 54.9233L139.803 54.9052C139.773 54.8998 139.742 54.9063 139.717 54.9232C139.692 54.9402 139.674 54.9663 139.668 54.9959L135.08 78.9371C135.056 79.0702 134.976 79.1356 134.84 79.1332C132.542 79.0702 130.367 78.9637 128.314 78.8136C123.065 78.4287 117.633 78.0438 112.02 77.6589C111.992 77.6573 111.964 77.6497 111.939 77.6365C111.914 77.6234 111.892 77.6051 111.874 77.5827C111.857 77.5604 111.844 77.5346 111.837 77.507C111.83 77.4794 111.83 77.4508 111.835 77.4228C112.661 72.6053 113.55 67.8168 114.5 63.0574C115.106 60.0071 115.684 56.9677 116.234 53.9392C116.26 53.7891 116.351 53.7165 116.506 53.7214L188.267 56.4739C188.357 56.4763 188.399 56.4327 188.394 56.3432L188.387 56.1761C188.385 56.135 188.363 56.1132 188.322 56.1108L74.2004 51.7387C74.1778 51.7387 74.1562 51.7473 74.1399 51.7629C74.1236 51.7785 74.114 51.7997 74.1131 51.8222L74.1095 51.9275C74.107 51.988 74.1361 52.0195 74.1967 52.0219C79.267 52.2543 84.8244 52.4795 90.869 52.6973C91.3465 52.7143 91.8494 52.7506 92.3777 52.8063C92.8431 52.8571 93.3472 52.8874 93.8901 52.8971C100.356 53.0254 106.863 53.2384 113.409 53.5362C114.228 53.5749 114.993 53.6209 115.703 53.6741C115.736 53.6771 115.769 53.687 115.798 53.7032C115.827 53.7195 115.853 53.7416 115.873 53.7683C115.893 53.795 115.908 53.8256 115.915 53.8582C115.923 53.8907 115.924 53.9245 115.917 53.9574L111.482 77.4846C111.475 77.5248 111.453 77.5613 111.421 77.5873C111.388 77.6133 111.347 77.6271 111.304 77.6262C108.304 77.4955 105.25 77.3139 102.143 77.0815C101.6 77.0403 101.051 76.9968 100.496 76.9508C96.5331 76.624 92.5268 76.3335 88.4769 76.0793C88.4397 76.0771 88.4034 76.0668 88.3706 76.049C88.3378 76.0313 88.3092 76.0066 88.2867 75.9766C88.2643 75.9466 88.2485 75.912 88.2405 75.8752C88.2326 75.8384 88.2326 75.8002 88.2406 75.7633ZM182.203 87.3145C182.135 87.2758 182.092 87.2988 182.072 87.3835C181.832 88.4584 181.612 89.5344 181.411 90.6117C181.401 90.6553 181.418 90.6819 181.461 90.6916C181.505 90.7013 181.533 90.6855 181.545 90.6444C181.853 89.5526 182.072 88.4426 182.203 87.3145C182.518 86.2905 182.733 85.3379 182.847 84.4567C182.919 83.8999 182.87 83.889 182.697 84.424C182.428 85.2592 182.264 86.2227 182.203 87.3145ZM180.782 94.5662C180.692 94.525 180.631 94.5783 180.6 94.726C180.384 95.796 180.174 96.8636 179.971 97.9288C179.959 97.9869 179.982 98.022 180.04 98.0341H180.044C180.099 98.0462 180.133 98.0232 180.145 97.9651C180.371 96.8926 180.584 95.8141 180.785 94.7296C180.8 94.6594 180.799 94.6049 180.782 94.5662C181.075 93.3945 181.309 92.2119 181.483 91.0184C181.491 90.97 181.47 90.941 181.421 90.9313H181.418C181.372 90.924 181.344 90.9446 181.334 90.993C181.118 92.0848 180.903 93.179 180.687 94.2757C180.663 94.404 180.694 94.5008 180.782 94.5662ZM180.096 98.3065C180.099 98.2934 180.099 98.2799 180.096 98.2668C180.094 98.2537 180.089 98.2412 180.081 98.2301C180.074 98.219 180.064 98.2094 180.053 98.202C180.042 98.1946 180.03 98.1894 180.017 98.1868L180.009 98.1854C179.983 98.1801 179.955 98.1856 179.933 98.2005C179.911 98.2155 179.895 98.2387 179.89 98.2652L177.955 107.937C177.952 107.95 177.952 107.963 177.955 107.976C177.957 107.989 177.963 108.002 177.97 108.013C177.977 108.024 177.987 108.034 177.998 108.041C178.009 108.048 178.022 108.054 178.035 108.056L178.042 108.058C178.068 108.063 178.096 108.058 178.118 108.043C178.141 108.028 178.156 108.004 178.162 107.978L180.096 98.3065ZM111.519 116.067C117.648 116.651 122.592 117.054 126.351 117.276C129.766 117.482 132.688 116.429 135.116 114.117C135.8 113.466 136.26 112.667 136.498 111.72C137.232 108.797 133.909 108.1 131.917 107.987C121.592 107.406 110.91 106.829 99.8704 106.255C97.4565 106.129 95.171 106.6 93.0139 107.668C91.9633 108.187 90.5418 108.808 90.0074 109.861C88.6805 112.476 91.3707 113.776 93.4756 114.099C95.3782 114.387 97.3002 114.624 99.2415 114.811C103.281 115.196 107.214 115.657 111.519 116.067Z" fill="#FED5B9"/>
<path d="M82.7646 100.469L87.9233 76.9168C87.9457 76.816 88.0034 76.7265 88.0861 76.6645C88.1688 76.6026 88.271 76.5723 88.3741 76.5791L110.969 78.0098C111.019 78.013 111.068 78.0269 111.113 78.0505C111.157 78.0741 111.196 78.1069 111.227 78.1468C111.258 78.1866 111.28 78.2325 111.292 78.2815C111.304 78.3305 111.305 78.3815 111.296 78.431C109.764 86.1681 108.269 93.9403 106.81 101.748C106.754 102.057 106.736 102.383 106.755 102.724C106.762 102.845 106.707 102.904 106.588 102.899C104.579 102.812 102.617 102.684 100.702 102.517C94.7059 101.992 88.8673 101.499 83.1863 101.039C83.1194 101.034 83.0545 101.014 82.9959 100.981C82.9372 100.948 82.8863 100.904 82.8464 100.85C82.8065 100.796 82.7786 100.734 82.7645 100.668C82.7503 100.603 82.7504 100.535 82.7646 100.469Z" fill="#FED5B9"/>
<path d="M130.431 104.6C130.453 104.603 130.476 104.599 130.494 104.586C130.512 104.574 130.525 104.556 130.529 104.535L135.161 80.0488C135.179 79.9511 135.232 79.8633 135.31 79.8023C135.389 79.7413 135.487 79.7114 135.586 79.7184L158.104 81.2762C158.141 81.2791 158.176 81.2896 158.208 81.3071C158.24 81.3246 158.268 81.3486 158.289 81.3775C158.311 81.4064 158.326 81.4396 158.334 81.4747C158.341 81.5099 158.341 81.5462 158.333 81.5812C156.777 88.8172 155.208 96.1645 153.626 103.623C153.436 104.509 153.278 105.405 153.149 106.31C153.143 106.356 153.121 106.397 153.086 106.428C153.052 106.459 153.007 106.476 152.96 106.477C151.664 106.509 150.48 106.477 149.408 106.383C145.739 106.061 142.191 105.769 138.764 105.508C128.478 104.723 117.931 103.898 107.124 103.031C107.102 103.03 107.081 103.023 107.061 103.013C107.041 103.002 107.024 102.988 107.011 102.97C106.997 102.952 106.987 102.932 106.982 102.91C106.976 102.888 106.975 102.865 106.979 102.842C107.255 101.206 107.565 99.4726 107.909 97.6425C109.041 91.6484 110.157 85.6531 111.258 79.6566C111.326 79.2935 111.393 78.9328 111.461 78.5745C111.486 78.4503 111.554 78.3391 111.655 78.2616C111.755 78.1841 111.88 78.1457 112.007 78.1533L134.576 79.6748C134.625 79.6786 134.672 79.6926 134.716 79.7159C134.759 79.7393 134.797 79.7714 134.827 79.8101C134.856 79.8489 134.878 79.8934 134.889 79.9408C134.9 79.9882 134.901 80.0374 134.892 80.0851C133.35 88.1515 131.802 96.2856 130.246 104.487C130.244 104.497 130.244 104.508 130.246 104.518C130.248 104.528 130.252 104.537 130.257 104.546C130.263 104.554 130.271 104.562 130.279 104.567C130.288 104.573 130.297 104.576 130.308 104.578L130.431 104.6Z" fill="#FED5B9"/>
<path d="M215.566 16.1839L238.273 120.707C239.027 124.554 239.837 128.391 240.702 132.218C240.767 132.502 240.535 132.745 240.004 132.948C240.06 132.878 239.947 132.815 239.666 132.759C239.3 132.704 238.931 132.694 238.561 132.73C238.064 132.781 237.698 132.798 237.463 132.781C227.61 132.113 217.757 131.459 207.903 130.82C206.041 130.7 204.133 130.406 202.231 130.472C202.207 130.472 202.184 130.468 202.162 130.459C202.14 130.45 202.12 130.436 202.105 130.419C202.089 130.401 202.077 130.381 202.07 130.359C202.063 130.337 202.061 130.313 202.064 130.29C202.241 128.913 202.403 127.587 202.551 126.314C205.879 97.4257 209.187 68.5351 212.476 39.6421C213.276 32.6155 214.177 25.6398 214.952 18.566C215.041 17.7574 215.104 16.9174 215.141 16.0459C215.148 15.9055 215.21 15.874 215.326 15.9515C215.406 16.0023 215.486 16.0798 215.566 16.1839Z" fill="#FC791C"/>
<path d="M88.238 75.7512C88.23 75.7881 88.23 75.8262 88.238 75.8631C88.2459 75.8999 88.2617 75.9345 88.2841 75.9645C88.3066 75.9945 88.3352 76.0192 88.368 76.0369C88.4009 76.0547 88.4371 76.065 88.4743 76.0671C92.5242 76.3213 96.5305 76.6118 100.493 76.9387C101.048 76.9847 101.597 77.0282 102.14 77.0694C105.247 77.3018 108.301 77.4834 111.301 77.6141C111.344 77.615 111.385 77.6012 111.418 77.5752C111.451 77.5492 111.473 77.5127 111.48 77.4725L115.915 53.9453C115.921 53.9124 115.92 53.8786 115.913 53.846C115.905 53.8135 115.891 53.7829 115.87 53.7562C115.85 53.7295 115.825 53.7073 115.795 53.6911C115.766 53.6749 115.734 53.665 115.7 53.662C114.99 53.6088 114.226 53.5628 113.406 53.524C106.86 53.2263 100.354 53.0133 93.8875 52.8849C93.3446 52.8753 92.8405 52.845 92.3752 52.7942C91.8468 52.7385 91.3439 52.7022 90.8664 52.6852C84.8218 52.4673 79.2644 52.2422 74.1941 52.0098C74.1336 52.0074 74.1045 51.9759 74.1069 51.9154L74.1105 51.8101C74.1115 51.7876 74.1211 51.7664 74.1373 51.7508C74.1536 51.7352 74.1753 51.7265 74.1978 51.7266L188.319 56.0986C188.36 56.1011 188.382 56.1229 188.384 56.164L188.392 56.331C188.397 56.4206 188.354 56.4642 188.264 56.4618L116.504 53.7092C116.349 53.7044 116.258 53.777 116.231 53.9271C115.681 56.9556 115.103 59.995 114.497 63.0453C113.547 67.8047 112.659 72.5932 111.832 77.4107C111.827 77.4386 111.828 77.4673 111.835 77.4949C111.841 77.5225 111.854 77.5483 111.871 77.5706C111.889 77.593 111.911 77.6113 111.936 77.6244C111.962 77.6376 111.989 77.6452 112.018 77.6468C117.631 78.0317 123.062 78.4166 128.312 78.8015C130.365 78.9516 132.54 79.0581 134.838 79.1211C134.973 79.1235 135.053 79.0581 135.077 78.925L139.665 54.9838C139.672 54.9542 139.689 54.9281 139.714 54.9111C139.739 54.8942 139.77 54.8877 139.8 54.8931L139.905 54.9112C139.927 54.916 139.936 54.9294 139.931 54.9512L135.412 78.8959C135.406 78.9302 135.407 78.9654 135.415 78.9993C135.423 79.0332 135.438 79.065 135.46 79.0927C135.481 79.1204 135.508 79.1433 135.538 79.1601C135.569 79.1769 135.603 79.1871 135.637 79.1901C142.428 79.7541 149.522 80.2189 156.919 80.5845C157.411 80.6111 157.902 80.6014 158.392 80.5554C158.506 80.5457 158.575 80.484 158.599 80.3702L163.696 56.066C163.706 56.0224 163.732 55.9958 163.776 55.9861L163.9 55.9679C163.924 55.9631 163.933 55.9728 163.929 55.997L158.912 80.2831C158.861 80.5276 158.96 80.6547 159.21 80.6644C160.391 80.7225 161.602 80.944 162.798 81.0239C169.051 81.4306 175.763 81.8579 182.935 82.3057C182.977 82.308 183.019 82.3007 183.058 82.2843C183.097 82.268 183.132 82.243 183.16 82.2113C183.262 82.0975 183.297 81.9583 183.266 81.7937C183.244 81.6678 183.245 81.5431 183.269 81.4197C184.857 73.4187 186.449 65.4214 188.046 57.4277C188.049 57.4253 188.05 57.4253 188.05 57.4277L188.141 57.4422C188.204 57.4567 188.228 57.4943 188.214 57.5548C186.687 65.166 185.133 72.9515 183.553 80.9113C183.444 81.4632 183.374 82.0334 183.342 82.6216C183.323 83.0017 183.128 83.1506 182.757 83.0683C181.918 82.8843 181.097 82.7681 180.292 82.7197C176.649 82.497 172.981 82.2367 169.287 81.9389C167.576 81.801 165.863 81.6932 164.147 81.6158C162.428 81.5383 160.739 81.4233 159.079 81.2708C158.957 81.2592 158.834 81.2928 158.736 81.3652C158.637 81.4376 158.569 81.5436 158.544 81.663L153.411 106.196C153.4 106.249 153.401 106.303 153.412 106.356C153.424 106.409 153.447 106.458 153.479 106.502C153.511 106.545 153.552 106.581 153.6 106.607C153.647 106.633 153.699 106.649 153.753 106.654L177.94 108.622C177.974 108.624 177.983 108.641 177.969 108.673L177.798 109.021C177.784 109.048 177.763 109.07 177.737 109.085C177.711 109.1 177.682 109.107 177.653 109.105C169.574 108.463 161.566 107.841 153.626 107.238C151.493 107.078 149.29 106.89 147.016 106.672C145.601 106.539 144.13 106.424 142.603 106.327C138.506 106.065 134.423 105.677 130.395 105.375C127.816 105.182 125.4 104.988 123.146 104.794C115.991 104.173 108.822 103.694 101.675 103.004C99.1262 102.757 96.5669 102.637 94.0184 102.405C89.0402 101.947 84.2135 101.562 79.5383 101.25C76.8371 101.072 74.1214 100.589 71.3912 100.549C70.0121 100.528 68.7494 100.432 67.603 100.262C65.509 99.9538 63.5386 99.9974 61.4772 99.7505C61.4254 99.7446 61.3772 99.7206 61.3413 99.6827C61.3054 99.6449 61.284 99.5956 61.2809 99.5435L61.2737 99.4345C61.2725 99.4144 61.2758 99.3942 61.2833 99.3754C61.2908 99.3566 61.3023 99.3396 61.3171 99.3255C61.3319 99.3114 61.3497 99.3006 61.3691 99.2937C61.3886 99.2868 61.4093 99.2841 61.43 99.2857L82.2358 101.003C82.2721 101.007 82.3083 100.996 82.3378 100.974C82.3673 100.952 82.3879 100.92 82.3958 100.883L87.6781 76.8406C87.7266 76.63 87.6418 76.5174 87.4236 76.5029L68.3265 75.2174C68.2596 75.2128 68.1971 75.1827 68.1518 75.1334C68.1065 75.0841 68.0818 75.0193 68.0829 74.9523V74.8507C68.0834 74.83 68.088 74.8096 68.0963 74.7908C68.1047 74.772 68.1168 74.7551 68.1318 74.7412C68.1467 74.7273 68.1643 74.7166 68.1834 74.7098C68.2025 74.703 68.2227 74.7003 68.2429 74.7018L87.6018 76.0599C87.6769 76.0651 87.7514 76.0431 87.8121 75.9979C87.8727 75.9526 87.9155 75.887 87.9326 75.813C89.6292 68.3615 91.2918 60.7963 92.9205 53.1173C92.9205 53.1077 92.9265 53.1028 92.9387 53.1028L93.0259 53.1246C93.0889 53.1367 93.1132 53.1742 93.0986 53.2372L88.238 75.7512ZM87.9217 76.906L82.763 100.459C82.7488 100.524 82.7487 100.592 82.7628 100.658C82.777 100.723 82.8049 100.785 82.8448 100.839C82.8847 100.893 82.9356 100.938 82.9942 100.97C83.0529 101.003 83.1178 101.023 83.1847 101.029C88.8657 101.489 94.7043 101.981 100.7 102.507C102.615 102.674 104.577 102.801 106.586 102.888C106.705 102.893 106.761 102.835 106.753 102.714C106.734 102.372 106.752 102.047 106.808 101.737C108.267 93.9295 109.762 86.1573 111.294 78.4202C111.304 78.3707 111.302 78.3197 111.29 78.2707C111.279 78.2217 111.257 78.1758 111.226 78.136C111.195 78.0961 111.156 78.0634 111.111 78.0397C111.066 78.0161 111.017 78.0022 110.967 77.999L88.3725 76.5683C88.2694 76.5615 88.1672 76.5918 88.0845 76.6538C88.0018 76.7157 87.9441 76.8052 87.9217 76.906ZM130.428 104.587L130.304 104.566C130.294 104.564 130.284 104.56 130.276 104.555C130.267 104.549 130.26 104.542 130.254 104.533C130.248 104.525 130.244 104.515 130.242 104.505C130.24 104.495 130.24 104.485 130.242 104.475C131.798 96.2729 133.347 88.1388 134.888 80.0725C134.898 80.0247 134.897 79.9755 134.885 79.9281C134.874 79.8807 134.853 79.8362 134.823 79.7974C134.793 79.7587 134.755 79.7266 134.712 79.7033C134.669 79.68 134.621 79.6659 134.572 79.6621L112.003 78.1406C111.877 78.133 111.752 78.1714 111.651 78.2489C111.551 78.3264 111.482 78.4376 111.458 78.5618C111.39 78.9201 111.322 79.2808 111.254 79.644C110.154 85.6404 109.038 91.6357 107.906 97.6298C107.562 99.46 107.252 101.193 106.975 102.83C106.972 102.852 106.973 102.875 106.978 102.897C106.984 102.919 106.993 102.939 107.007 102.957C107.021 102.975 107.038 102.99 107.057 103C107.077 103.011 107.099 103.017 107.121 103.019C117.928 103.885 128.474 104.711 138.76 105.495C142.187 105.757 145.735 106.048 149.405 106.37C150.476 106.465 151.66 106.496 152.957 106.465C153.003 106.464 153.048 106.446 153.083 106.415C153.117 106.385 153.14 106.343 153.146 106.298C153.274 105.392 153.433 104.497 153.622 103.611C155.205 96.1518 156.774 88.8045 158.33 81.5686C158.338 81.5335 158.338 81.4972 158.33 81.4621C158.323 81.4269 158.308 81.3938 158.286 81.3648C158.264 81.3359 158.236 81.3119 158.205 81.2944C158.173 81.2769 158.137 81.2664 158.101 81.2635L135.583 79.7057C135.484 79.6988 135.385 79.7286 135.307 79.7896C135.228 79.8506 135.175 79.9384 135.157 80.0362L130.526 104.522C130.522 104.543 130.509 104.562 130.491 104.574C130.472 104.586 130.45 104.591 130.428 104.587Z" fill="#FC791C"/>
<path d="M234.841 134.746C227.829 138.152 220.837 141.596 213.864 145.077C209.36 147.329 204.757 149.366 200.26 151.628C200.042 151.74 199.803 151.826 199.544 151.886C199.069 152 198.873 152.184 198.955 152.438C197.518 152.339 196.346 151.754 195.44 150.684C194.07 149.074 193.378 147.245 193.364 145.197C193.357 144.156 193.424 142.857 193.567 141.301C194.338 141.594 194.822 141.804 195.018 141.933C196.562 142.93 198.123 144.356 199.7 146.21C199.78 146.3 199.825 146.405 199.835 146.526C199.896 147.301 199.902 148.168 199.853 149.126C199.853 149.15 199.864 149.163 199.886 149.163H199.889C199.906 149.165 199.916 149.157 199.919 149.137C200.682 143.194 201.39 137.235 202.042 131.26C202.054 131.132 202.124 131.071 202.253 131.079C203.847 131.173 205.495 131.265 207.197 131.355C213.455 131.686 222.811 132.289 235.266 133.163C235.683 133.192 236.268 133.284 237.022 133.439C237.139 133.463 237.145 133.503 237.04 133.559L234.841 134.746Z" fill="#FC791C"/>
<path d="M197.998 27.5014C197.732 29.1016 197.435 30.7017 197.108 32.3019C196.719 34.2156 195.846 36.0494 193.61 36.0567C188.971 36.0688 184.306 35.9877 179.614 35.8134C173.812 35.5955 168.169 35.5919 162.392 35.4067C158.953 35.2941 155.438 35.345 151.937 35.1888C146.029 34.9274 140.238 35.0254 134.374 34.7313C130.957 34.557 127.565 34.6078 124.147 34.5243C109.014 34.1442 94.4127 33.7871 80.3434 33.4531C80.0065 33.4434 79.2092 33.3925 77.9513 33.3005C77.1466 33.2424 76.3493 33.2316 75.5591 33.2679C75.564 33.2122 75.5349 33.1468 75.4719 33.0718C75.4258 33.0185 75.3701 32.9822 75.3047 32.9628C73.7923 32.4908 73.2203 31.4437 73.5887 29.8218C73.9377 28.2894 74.2601 26.832 74.5557 25.4497C75.3519 21.7421 78.1585 21.7203 81.2305 21.7712C86.3541 21.8583 91.6582 21.9515 97.143 22.0508C97.618 22.058 98.0748 22.0677 98.5135 22.0798C109.871 22.3824 122.744 22.6621 137.133 22.9187C143.372 23.0276 149.158 23.0712 154.493 23.0494C155.232 23.0445 155.897 23.0615 156.488 23.1002C159.113 23.2721 162.088 23.3859 165.414 23.4416C174.866 23.6038 184.671 23.7708 194.828 23.9427C195.846 23.9572 197.657 24.462 197.886 25.6204C197.937 25.8721 197.951 26.1529 197.929 26.4628C197.9 26.8526 197.923 27.1988 197.998 27.5014Z" fill="#EFC33B"/>
<path d="M100.529 41.8241C101.944 39.6889 104.707 38.2291 107.117 37.6626C111.141 36.7185 110.607 42.7101 109.862 44.7183C109.544 45.568 108.932 46.3814 108.026 47.1585C106.564 48.4185 102.976 50.463 101.275 48.473C100.334 47.3788 99.8678 46.1006 99.8751 44.6384C99.8787 43.6507 99.9696 42.6666 100.529 41.8241Z" fill="#EFC33B"/>
<path d="M148.616 45.0275C149.107 42.2459 151.946 40.5392 154.422 39.3954C156.701 38.3459 158.188 39.7658 158.305 41.999C158.36 43.0279 158.279 44.0519 158.061 45.0711C157.538 47.5004 154.527 49.356 152.364 50.0786C151.565 50.3437 150.834 50.3292 150.187 49.6974C148.825 48.3756 148.301 46.8189 148.616 45.0275Z" fill="#FDA567"/>
<path d="M182.199 87.3189C182.26 86.2271 182.425 85.2636 182.694 84.4284C182.866 83.8934 182.915 83.9043 182.843 84.4611C182.729 85.3423 182.514 86.2949 182.199 87.3189Z" fill="#FDA567"/>
<path d="M182.201 87.319C182.071 88.4471 181.851 89.5571 181.543 90.6489C181.531 90.6901 181.503 90.7058 181.46 90.6961C181.416 90.6864 181.399 90.6598 181.409 90.6162C181.61 89.5389 181.831 88.4629 182.071 87.388C182.09 87.3033 182.134 87.2803 182.201 87.319Z" fill="#FDA567"/>
<path d="M180.778 94.566C180.691 94.5007 180.659 94.4038 180.684 94.2755C180.899 93.1789 181.115 92.0846 181.331 90.9928C181.341 90.9444 181.368 90.9238 181.414 90.9311H181.418C181.467 90.9408 181.487 90.9698 181.48 91.0183C181.305 92.2117 181.071 93.3943 180.778 94.566Z" fill="#FDA567"/>
<path d="M180.779 94.5603C180.796 94.5991 180.797 94.6535 180.782 94.7237C180.581 95.8083 180.368 96.8868 180.142 97.9592C180.13 98.0173 180.096 98.0403 180.041 98.0282H180.037C179.979 98.0161 179.956 97.981 179.968 97.9229C180.172 96.8577 180.381 95.7901 180.597 94.7201C180.628 94.5724 180.689 94.5192 180.779 94.5603Z" fill="#FDA567"/>
<path d="M180.013 98.1854L180.006 98.184C179.951 98.173 179.897 98.2087 179.886 98.2638L177.952 107.935C177.941 107.99 177.976 108.044 178.031 108.055L178.039 108.056C178.094 108.067 178.147 108.032 178.158 107.976L180.093 98.305C180.104 98.25 180.068 98.1964 180.013 98.1854Z" fill="#FDA567"/>
<path d="M111.517 116.062C107.212 115.652 103.279 115.191 99.2396 114.806C97.2982 114.619 95.3763 114.382 93.4737 114.094C91.3688 113.771 88.6785 112.471 90.0055 109.856C90.5399 108.803 91.9614 108.182 93.012 107.663C95.1691 106.595 97.4546 106.125 99.8685 106.25C110.908 106.824 121.591 107.402 131.915 107.983C133.907 108.095 137.23 108.792 136.496 111.716C136.258 112.662 135.798 113.461 135.114 114.112C132.686 116.424 129.764 117.477 126.349 117.271C122.59 117.049 117.646 116.646 111.517 116.062Z" fill="#FDA567"/>
<path d="M90.0776 41.877L80.4441 41.221C79.5387 41.1594 78.7546 41.8425 78.6929 42.7469L78.686 42.8484C78.6243 43.7528 79.3082 44.5359 80.2137 44.5975L89.8471 45.2535C90.7526 45.3152 91.5366 44.632 91.5983 43.7276L91.6052 43.6262C91.667 42.7218 90.983 41.9387 90.0776 41.877Z" fill="#1474B4"/>
<path d="M43.4315 113.927L57.6643 115.311C58.8132 115.383 59.9547 115.478 61.089 115.594C63.572 115.848 66.1932 115.87 68.7416 116.197C70.0395 116.364 72.548 116.549 74.4239 117.01C74.5984 117.051 74.7462 117.016 74.8674 116.905C74.8553 117.05 75.0104 117.138 75.3328 117.17C85.9956 118.216 96.6439 119.425 107.303 120.489C125.413 122.297 143.515 124.169 161.61 126.103C168.459 126.836 175.297 127.439 182.118 128.253C189.021 129.077 193.395 134.506 193.573 141.307C193.43 142.864 193.362 144.162 193.369 145.203C193.384 147.251 194.076 149.08 195.445 150.69C196.352 151.76 197.524 152.345 198.961 152.444C199.208 152.379 199.438 152.321 199.651 152.27C199.884 152.217 200.108 152.137 200.324 152.03C204.941 149.779 209.602 147.611 214.197 145.312C221.09 141.865 228.005 138.461 234.941 135.101L239.671 132.763C239.952 132.818 240.065 132.881 240.009 132.951L196.114 156.667C195.758 156.924 195.376 157.167 194.969 157.397C194.588 157.613 194.167 157.729 193.704 157.746C191.964 157.809 190.221 157.718 188.476 157.474C187.72 157.361 187.004 157.179 186.244 157.096C171.479 155.445 156.709 153.848 141.935 152.306C139.53 152.054 137.12 151.793 134.704 151.522C124.808 150.406 115.008 149.335 105.304 148.308C104.981 144.653 104.646 141.026 104.297 137.429C103.879 133.079 103.828 130.649 101.857 127.715C99.8746 124.757 96.9154 123.071 92.9794 122.657C87.8097 122.114 82.6788 121.627 77.5868 121.193C75.42 121.007 73.0109 120.773 70.3594 120.492C66.5301 120.083 62.6122 119.727 58.6059 119.425C55.2104 119.171 52.0366 118.717 48.7938 118.463C44.6251 118.133 40.2141 117.73 35.5607 117.253C29.3658 116.618 23.3127 116.277 16.8998 115.572C15.2614 115.39 13.5127 115.347 11.6538 115.441C11.5277 115.449 11.4211 115.498 11.3338 115.59C10.7522 116.215 10.6213 117.718 11.6792 118.038C12.4669 118.275 13.2703 118.427 14.0895 118.495C19.5173 118.942 24.8396 119.537 30.2201 120.009C41.7337 121.026 53.4654 122.301 65.2407 123.347C74.0361 124.129 82.9212 124.93 91.896 125.751C96.0598 126.131 98.8337 128.003 100.218 131.368C100.676 132.482 101.014 134.411 101.232 137.156C101.52 140.756 101.804 144.368 102.083 147.992C87.6691 146.545 73.2981 145.055 58.9695 143.522C52.4862 142.827 46.003 142.13 39.5197 141.43C36.2041 141.075 32.0088 140.744 28.2606 140.312C26.7143 140.135 25.1729 140.077 23.6363 140.138C21.5956 139.847 19.5549 139.572 17.5142 139.313C14.5185 138.933 12.4924 138.58 11.4356 138.253C7.72746 137.101 4.75363 134.875 2.51418 131.575C-3.11353 123.274 2.05611 112.602 11.7156 111.175C13.7369 110.877 15.7328 111.149 17.8304 111.356C26.3665 112.206 34.9002 113.063 43.4315 113.927Z" fill="#1474B4"/>
<path d="M105.301 148.31L102.08 147.994C101.802 144.37 101.518 140.758 101.23 137.158C101.011 134.413 100.673 132.483 100.215 131.37C98.8314 128.005 96.0575 126.132 91.8937 125.752C82.9189 124.932 74.0338 124.13 65.2384 123.348C53.4631 122.303 41.7314 121.028 30.2178 120.011C24.8373 119.539 19.515 118.944 14.0872 118.497C13.268 118.429 12.4646 118.277 11.6769 118.039C10.619 117.72 10.7499 116.216 11.3315 115.592C11.4188 115.5 11.5254 115.45 11.6515 115.443C13.5104 115.349 15.2591 115.392 16.8975 115.574C23.3104 116.278 29.3635 116.62 35.5583 117.255C40.2118 117.732 44.6228 118.135 48.7915 118.464C52.0343 118.718 55.2081 119.172 58.6036 119.427C62.6099 119.729 66.5278 120.085 70.3571 120.494C73.0086 120.775 75.4177 121.009 77.5844 121.195C82.6765 121.628 87.8074 122.116 92.9771 122.658C96.9131 123.072 99.8723 124.758 101.855 127.717C103.825 130.651 103.876 133.08 104.294 137.43C104.643 141.028 104.979 144.654 105.301 148.31Z" fill="#6E85DE"/>
<path d="M196.113 156.672L240.008 132.956C240.539 132.753 240.771 132.509 240.706 132.226C239.841 128.399 239.031 124.562 238.278 120.715C244.315 120.959 250.289 121.546 256.2 122.476C259.737 123.033 263.064 123.999 266.183 125.374C267.456 125.935 268.594 126.773 269.597 127.887C271.633 130.149 269.743 132.143 267.761 133.232C265.735 134.348 263.665 135.34 261.552 136.21C258.151 137.606 254.578 138.967 250.831 140.291C237.416 145.026 223.616 149.319 209.99 153.81C206.987 154.798 204.463 155.485 202.417 155.869C200.992 156.136 198.891 156.403 196.113 156.672Z" fill="#C7C6BD"/>
<path d="M102.079 148.003L105.3 148.319C115.004 149.345 124.804 150.416 134.7 151.532C137.117 151.803 139.527 152.065 141.931 152.317C156.706 153.859 171.476 155.455 186.24 157.106C187 157.19 187.716 157.371 188.473 157.484C184.638 157.588 182.166 157.626 181.056 157.597C177.656 157.509 169.98 157.014 158.029 156.111C155.596 155.927 153.167 155.726 150.744 155.509C130.196 153.652 111.29 151.796 94.0265 149.942C78.1662 148.237 62.3615 146.287 46.6127 144.092C40.5414 143.247 34.4411 142.315 28.3117 141.296C26.7702 141.038 25.2106 140.515 23.6328 140.148C25.1694 140.088 26.7108 140.146 28.2571 140.322C32.0053 140.755 36.2006 141.085 39.5162 141.441C45.9995 142.141 52.4827 142.838 58.966 143.533C73.2946 145.065 87.6657 146.555 102.079 148.003Z" fill="#C7C6BD"/>
<path d="M234.845 134.75C234.986 134.743 235.018 134.859 234.94 135.099C228.004 138.459 221.089 141.863 214.196 145.31C209.601 147.609 204.94 149.777 200.323 152.028C200.107 152.135 199.883 152.214 199.65 152.268C199.437 152.319 199.207 152.377 198.96 152.442C198.877 152.188 199.074 152.004 199.549 151.89C199.808 151.83 200.047 151.744 200.265 151.632C204.762 149.37 209.364 147.333 213.869 145.081C220.842 141.6 227.834 138.156 234.845 134.75Z" fill="#FEFFFF"/>
</g>
<defs>
<clipPath id="clip0_835_312525">
<rect width="270" height="158" fill="white" transform="translate(0 0.34375)"/>
</clipPath>
</defs>
</svg>
