<svg width="320" height="269" viewBox="0 0 320 269" fill="none" xmlns="http://www.w3.org/2000/svg">
<g clip-path="url(#clip0_2529_160106)">
<path d="M59.6393 13.5282C64.8024 13.4141 69.7019 13.3218 74.3381 13.2513C78.2067 13.1911 85.1972 13.2564 95.3096 13.4473C95.409 13.4496 95.5037 13.4899 95.5743 13.56C95.6449 13.63 95.686 13.7244 95.6892 13.8238C95.6912 13.8528 95.6912 13.8818 95.6892 13.9109C95.6705 14.1681 95.5336 14.3112 95.2784 14.3403C92.2955 14.6784 89.3293 14.89 86.3796 14.975C77.8416 15.2177 68.196 15.336 59.4278 14.5332C59.2307 14.5145 58.8905 14.584 58.4072 14.7417C58.3097 14.7728 58.2132 14.7717 58.1178 14.7385C57.7361 14.6058 57.4675 14.3724 57.3119 14.0385C56.8701 13.0739 58.5348 10.7309 59.1539 10.0122C62.1928 6.47959 65.9505 4.30154 70.4269 3.47803C74.002 2.8184 78.4515 3.39403 80.3837 6.79801C80.4667 6.94321 80.5787 6.97121 80.7197 6.88201C83.8188 4.94044 87.2694 4.69152 90.1974 6.58331C91.1287 7.1828 92.1659 8.07164 93.3089 9.24986C93.5972 9.55064 93.563 9.80682 93.2062 10.0184C93.1626 10.0433 93.1139 10.063 93.0599 10.0775C92.6596 10.175 92.3184 10.0744 92.0363 9.77571C91.7189 9.43967 91.3891 9.0974 91.0468 8.74891C88.5203 6.19956 85.7064 5.90501 82.6053 7.86525C82.0224 8.23241 81.4613 8.70017 80.922 9.26853C80.4179 9.8006 79.7023 10.0806 79.0644 9.5579C78.4235 9.03517 78.7346 7.93059 78.6133 7.19005C78.1434 4.30881 73.5446 4.40215 71.3199 4.81598C66.8331 5.64986 61.9512 9.13474 59.462 13.2201C59.4429 13.2512 59.4326 13.2867 59.4321 13.3231C59.4316 13.3595 59.4409 13.3954 59.459 13.4269C59.4772 13.4584 59.5035 13.4845 59.5353 13.5023C59.567 13.5201 59.603 13.5291 59.6393 13.5282Z" fill="#0F5A8B"/>
<path d="M142.017 5.71158C145.693 10.1237 147.776 15.3717 148.268 21.4558C148.52 24.5766 147.895 28.718 146.04 31.3316C145.818 31.6449 145.528 31.732 145.169 31.593C144.675 31.4022 144.542 31.0651 144.768 30.5818C148.489 22.6008 145.3 13.3099 140.785 6.37433C140.598 6.08807 140.643 5.84537 140.919 5.64623L141.003 5.584C141.38 5.31019 141.718 5.35272 142.017 5.71158Z" fill="#0F5A8B"/>
<path d="M195.483 33.9796C196.458 34.0315 197.413 34.0398 198.349 34.0045C207.242 33.656 216.483 33.8054 225.226 34.0201C225.302 34.0216 225.374 34.0516 225.428 34.1041C225.482 34.1567 225.515 34.2278 225.518 34.3032L225.525 34.4526C225.529 34.5251 225.506 34.5966 225.459 34.6526C225.412 34.7086 225.345 34.745 225.273 34.7544C222.649 35.0925 219.861 35.2916 216.909 35.3518C210.026 35.4949 202.571 35.6101 195.835 34.9753C195.234 34.9162 194.422 35.162 193.903 34.8882C192.53 34.1663 194.736 31.142 195.368 30.4201C197.839 27.5969 200.811 25.8908 204.286 25.3017C206.93 24.8567 210.96 25.4915 212.316 28.2109C212.381 28.3375 212.472 28.3613 212.59 28.2825C216.744 25.5164 220.577 27.1966 223.477 30.5414C223.513 30.5815 223.539 30.6287 223.554 30.6799C223.569 30.7311 223.573 30.785 223.566 30.8381C223.559 30.8912 223.54 30.9422 223.511 30.9876C223.483 31.033 223.444 31.0719 223.4 31.1015L223.225 31.2135C223.103 31.2932 222.956 31.3251 222.811 31.3033C222.667 31.2815 222.537 31.2075 222.444 31.0953C221.729 30.2324 220.992 29.5406 220.235 29.0199C217.678 27.265 214.852 28.186 212.78 30.4388C212.136 31.1357 211.044 30.9459 210.845 29.9502C210.63 28.8768 210.863 27.8998 209.777 27.2028C207.298 25.6097 203.722 26.5525 201.23 27.934C198.747 29.3134 196.781 31.2332 195.331 33.6934C195.223 33.8738 195.274 33.9693 195.483 33.9796Z" fill="#0F5A8B"/>
<path d="M109.312 39.0622C110.051 40.0102 110.963 40.7456 112.05 41.2683C117.418 43.8384 123.949 45.4346 129.665 44.5198C131.712 44.1921 133.57 43.4277 135.237 42.2266C135.613 41.957 135.935 42.0099 136.205 42.3853L136.264 42.4662C136.461 42.74 136.441 42.9972 136.205 43.2379C134.344 45.139 131.189 46.1845 128.554 46.4458C123.146 46.981 117.853 45.9864 112.676 43.4619C110.875 42.5845 109.42 41.3741 108.31 39.8308C108.068 39.4906 108.127 39.2157 108.488 39.0062L108.618 38.9284C108.731 38.8631 108.864 38.8406 108.991 38.8652C109.119 38.8898 109.233 38.9598 109.312 39.0622Z" fill="#0F5A8B"/>
<path d="M267.679 161.147C271.179 159.124 274.9 158.096 278.843 158.063C280.069 158.051 281.672 158.262 282.577 159.186C283.315 159.942 282.91 160.966 282.07 161.43C281.135 161.944 280.122 162.303 279.033 162.506C273.999 163.444 269.629 164.323 265.924 165.145C265.812 165.17 265.707 165.221 265.618 165.295C265.529 165.369 265.459 165.462 265.414 165.568C262.352 172.578 260.498 179.962 258.678 187.386C258.67 187.415 258.68 187.434 258.709 187.442H258.712C258.754 187.456 258.783 187.443 258.799 187.401C262.296 178.863 270.981 172.488 279.497 169.965C284.111 168.599 289.469 168.182 294.015 169.986C294.861 170.322 296.685 171.075 296.498 172.164C296.46 172.382 296.34 172.578 296.163 172.709C295.986 172.841 295.765 172.899 295.546 172.871C295.303 172.84 295.058 172.819 294.812 172.808C294.136 172.78 292.926 173.72 292.319 174.028C286.921 176.754 281.955 179.601 277.935 184.072C276.224 185.974 274.547 187.996 272.907 190.136C272.887 190.162 272.873 190.193 272.868 190.226C272.863 190.258 272.866 190.292 272.877 190.323C272.888 190.354 272.907 190.381 272.932 190.403C272.957 190.425 272.987 190.44 273.019 190.448C278.983 191.739 286.236 194.919 288.663 200.933C288.694 201.009 288.748 201.073 288.818 201.117C288.887 201.16 288.968 201.179 289.049 201.173C295.112 200.685 301.057 201.117 306.884 202.467C307.123 202.523 307.347 202.604 307.556 202.71C307.76 202.812 307.747 202.87 307.519 202.884C303.984 203.085 300.312 203.231 296.501 203.32C294.356 203.37 292.29 203.461 290.303 203.594C281.085 204.216 272.009 205.086 263.074 206.204C261.112 206.449 259.117 206.738 257.088 207.072C257.067 207.076 257.047 207.084 257.03 207.096C257.012 207.107 256.997 207.122 256.986 207.14C256.975 207.158 256.968 207.177 256.965 207.198C256.962 207.218 256.964 207.239 256.97 207.259C257.791 210.157 258.519 212.952 259.154 215.644C259.328 216.388 259.393 217.045 258.98 217.742C258.509 218.528 258.073 219.309 257.673 220.085C257.337 220.738 256.83 221.121 256.151 221.233C229.241 225.651 203.571 229.826 179.142 233.757C176.752 234.14 174.327 234.524 171.867 234.908C170.929 235.055 170.228 235.045 169.764 234.877C168.955 234.586 168.456 233.903 168.267 232.826C167.514 228.499 166.721 223.88 165.887 218.968C165.879 218.92 165.86 218.876 165.832 218.837C165.804 218.799 165.767 218.768 165.725 218.747C164.153 217.954 162.674 217.164 161.288 216.376C157.898 214.451 154.538 213.112 151.207 212.359C148.929 211.842 146.35 211.386 143.468 210.99C132.908 209.533 123.104 208.578 111.862 207.887C110.016 207.773 107.946 207.617 105.654 207.418C101.827 207.084 98.1556 206.85 94.6396 206.718C90.4484 206.559 86.3257 206.543 82.203 205.909C78.4256 205.327 74.6358 204.664 70.9269 204.574C69.1098 204.53 66.6621 204.727 63.5838 205.165C63.4002 205.191 63.212 205.155 63.0486 205.062C62.5964 204.803 62.3827 204.533 62.4076 204.253C62.447 203.782 62.697 203.497 63.1575 203.398C66.2648 202.721 69.4137 202.398 72.604 202.427C72.6577 202.427 72.7099 202.409 72.7526 202.376C72.7953 202.344 72.8262 202.298 72.8405 202.246L75.031 193.992C75.0621 193.873 75.0175 193.803 74.8972 193.78C74.1898 193.641 73.3881 193.542 72.492 193.484C68.5466 193.229 64.3336 192.931 60.0429 192.694C59.3604 192.657 58.6852 192.654 58.0173 192.685C53.041 192.913 48.5552 192.915 44.5601 192.691C41.8365 192.54 39.7155 192.502 38.1971 192.579C33.228 192.831 28.3616 194.11 23.6477 194.813C23.5428 194.827 23.4362 194.822 23.3334 194.797C22.6178 194.627 22.2755 194.386 22.3066 194.072C22.344 193.722 22.4664 193.519 22.6738 193.463C25.7625 192.647 28.5649 191.937 31.0811 191.331C34.7132 190.456 38.4823 190.088 42.3882 190.227C42.5438 190.233 42.6631 190.17 42.7461 190.037C43.1651 189.373 43.6805 188.777 44.2925 188.248C48.6984 184.452 54.4048 182.015 60.2389 180.839C62.1722 180.451 63.9115 180.282 65.4569 180.332C65.5917 180.336 65.6166 180.287 65.5316 180.186C62.8495 176.906 60.6673 173.29 58.985 169.336C56.9594 164.575 55.2294 159.666 53.6114 154.78C53.3666 154.04 53.2443 153.272 53.2443 152.478C53.2448 152.32 53.3032 152.168 53.4082 152.051C53.5133 151.934 53.6576 151.86 53.8137 151.843C54.1746 151.804 54.5303 151.829 54.8809 151.918C63.5215 154.115 71.7514 160.092 77.7846 167.124C78.9504 168.482 79.8922 169.839 80.6099 171.194C80.7966 171.544 80.9293 171.524 81.0082 171.134C81.2135 170.145 81.4967 169.156 81.8576 168.166C81.9945 167.791 81.9603 167.431 81.7549 167.086C81.4355 166.553 81.1119 166.041 80.7841 165.549C76.4695 159.069 71.7857 152.501 66.7326 145.844C66.713 145.819 66.6871 145.799 66.6575 145.787C66.6279 145.775 66.5956 145.77 66.5639 145.774C66.5321 145.778 66.5019 145.791 66.4764 145.81C66.4509 145.83 66.4309 145.855 66.4183 145.885C66.1217 146.602 65.6954 147.221 65.1395 147.739C62.9739 149.762 60.4857 150.276 57.675 149.282C56.0052 148.691 54.8228 147.606 54.1279 146.028C54.0636 145.883 53.962 145.846 53.823 145.919C51.4064 147.172 49.1091 147.167 46.931 145.903C44.2894 144.376 44.0249 141.043 46.4114 139.12C46.652 138.927 46.6188 138.823 46.3118 138.806C45.0071 138.731 43.8652 138.503 42.8861 138.122C40.2724 137.104 39.0807 134.49 40.9321 132.076C41.851 130.881 43.1661 129.855 44.8774 128.999C44.9009 128.987 44.9213 128.97 44.9372 128.949C44.953 128.929 44.9637 128.904 44.9686 128.879C44.9734 128.853 44.9722 128.827 44.965 128.802C44.9578 128.776 44.9449 128.753 44.9272 128.734C44.1991 127.917 43.7314 127.003 43.5239 125.993C42.8736 122.822 45.674 120.93 48.5179 120.492C48.5656 120.485 48.6093 120.461 48.6416 120.425C48.6739 120.39 48.6929 120.344 48.6952 120.296C48.8322 117.726 49.4856 115.292 52.4539 115.264C53.5087 115.255 54.5013 115.697 55.385 116.235C55.408 116.249 55.4335 116.259 55.4601 116.263C55.4867 116.267 55.5138 116.265 55.5397 116.258C55.5656 116.252 55.5898 116.24 55.6108 116.224C55.6318 116.207 55.6492 116.187 55.6619 116.164C56.6451 114.387 57.9893 113.117 60.1705 113.295C62.6379 113.494 64.4705 114.763 65.9018 116.714C65.9299 116.754 65.9715 116.782 66.0191 116.792C66.0666 116.803 66.1167 116.797 66.1601 116.774C68.167 115.66 70.9176 115.258 72.4173 117.43C73.1682 118.517 73.4161 119.738 73.161 121.092C73.1381 121.21 73.1869 121.269 73.3072 121.267C75.1897 121.26 77.4984 121.799 78.1518 123.725C78.7337 125.439 77.8313 127.474 76.3502 128.398C76.3164 128.419 76.289 128.449 76.2714 128.485C76.2537 128.521 76.2464 128.561 76.2503 128.601C76.2542 128.641 76.2691 128.679 76.2934 128.71C76.3176 128.742 76.3502 128.767 76.3876 128.781C77.6674 129.279 78.6631 129.997 79.3746 130.937C81.1357 133.261 81.0082 136.189 78.3758 137.726C77.1976 138.413 75.6512 138.921 73.7366 139.251C73.6142 139.274 73.5779 139.342 73.6277 139.456C75.1865 143.047 72.9649 146.127 68.9947 145.679C68.8246 145.659 68.7945 145.715 68.9044 145.847C71.8251 149.397 74.7551 153.245 77.6944 157.394C79.526 159.979 81.1077 162.594 82.4394 165.241C82.4975 165.355 82.5421 165.35 82.5732 165.226L90.2151 136.441C90.242 136.333 90.241 136.226 90.212 136.118C89.9444 135.156 90.66 134.055 91.3757 133.492C92.6161 132.523 93.9084 132.282 95.2526 132.77C95.3667 132.811 95.4268 132.771 95.4331 132.648L95.5264 130.651C95.5326 130.537 95.4797 130.47 95.3677 130.452L91.8331 129.857C91.8069 129.853 91.7819 129.844 91.7598 129.829C91.7377 129.814 91.719 129.795 91.7049 129.772C91.6908 129.749 91.6816 129.724 91.6779 129.697C91.6743 129.671 91.6762 129.644 91.6837 129.618L97.2097 109.57C97.2355 109.478 97.2912 109.398 97.368 109.341C97.4447 109.285 97.538 109.256 97.6329 109.259L109.752 109.757C109.856 109.761 109.906 109.711 109.902 109.608L108.312 79.6938C108.305 79.5797 108.358 79.5216 108.47 79.5195L114.183 79.3764C114.324 79.3723 114.382 79.3017 114.357 79.1648C114.143 77.8922 113.8 73.6295 115.536 73.2685C117.382 72.8858 119.416 72.7583 121.311 72.6929C121.361 72.6919 121.41 72.6779 121.453 72.6523C121.496 72.6267 121.532 72.5903 121.557 72.5467C122.416 71.0656 124.98 70.9443 125.751 72.5249C125.801 72.6307 125.884 72.6888 126 72.6991C126.892 72.7759 127.796 72.8464 128.711 72.9107C130.711 73.0538 132.186 73.5361 132.23 75.708C132.25 76.7347 132.216 77.7605 132.127 78.7852C132.126 78.8025 132.128 78.8198 132.134 78.8361C132.14 78.8523 132.149 78.8671 132.161 78.8795C132.173 78.8919 132.188 78.9015 132.204 78.9078C132.22 78.9141 132.237 78.9168 132.255 78.9159C141.315 78.6711 150.395 78.4181 159.493 78.1567C160.266 78.1339 161.018 78.0665 161.748 77.9545C161.921 77.9275 162.048 77.8383 162.131 77.6869C163.038 76.0191 163.972 74.3099 164.935 72.5591C165.33 71.8373 166.148 72.0582 166.814 72.0613C167.019 72.0634 167.057 71.9845 166.926 71.8248C166.543 71.3612 165.974 71.0718 166.273 70.3406C166.29 70.2978 166.317 70.2593 166.352 70.2281C166.386 70.1969 166.427 70.1737 166.472 70.1602C167.178 69.9424 169.387 69.5347 169.736 70.5491C169.858 70.9017 169.786 71.1984 169.521 71.439C169.187 71.746 169.247 71.8933 169.701 71.8808L178.267 71.6163C178.821 71.5997 178.865 71.4411 178.398 71.1403C178.208 71.0189 178.015 70.9287 177.891 70.7233C177.598 70.2348 177.966 69.7588 178.46 69.6685C179.361 69.5067 180.199 69.5379 180.974 69.7619C181.079 69.7922 181.175 69.8466 181.254 69.9207C181.334 69.9949 181.395 70.0866 181.432 70.1887C181.47 70.2907 181.483 70.4002 181.47 70.5082C181.458 70.6162 181.42 70.7197 181.36 70.8105C181.261 70.9619 181.187 71.1258 181.139 71.3021C181.065 71.5676 181.159 71.662 181.422 71.5852C182.01 71.4172 182.919 71.3114 183.227 72.0053C183.947 73.6212 184.696 75.3128 185.474 77.0801C185.501 77.1436 185.547 77.1973 185.605 77.2345C185.663 77.2717 185.731 77.2905 185.8 77.2886L195.934 77.0335C195.954 77.0331 195.972 77.0288 195.99 77.0209C196.007 77.0131 196.023 77.0017 196.035 76.9877C196.048 76.9736 196.057 76.9571 196.063 76.9393C196.069 76.9214 196.07 76.9026 196.068 76.8841C195.95 75.6208 195.306 72.0208 197.191 71.6786C198.498 71.4421 199.753 71.3498 200.956 71.4016C201.12 71.4079 201.159 71.3415 201.072 71.2025L200.91 70.9349C200.878 70.8838 200.858 70.8268 200.849 70.7674C200.84 70.708 200.844 70.6475 200.86 70.5895C201.009 70.0523 201.364 69.7308 201.924 69.625C202.917 69.4383 204.911 69.5036 204.706 71.0283C204.702 71.0586 204.704 71.0894 204.713 71.1186C204.723 71.1478 204.738 71.1745 204.759 71.1969C204.78 71.2193 204.805 71.2367 204.834 71.2479C204.862 71.2591 204.893 71.2638 204.924 71.2616C206.004 71.1932 207.179 71.1683 208.449 71.1869C210.129 71.2087 210.636 72.2231 210.72 73.7415C210.768 74.6583 210.832 75.5783 210.913 76.5014C210.916 76.5267 210.928 76.5501 210.947 76.5669C210.966 76.5837 210.99 76.5925 211.016 76.5916L223.266 76.2805C223.357 76.2784 223.404 76.323 223.406 76.4143L224.492 110.165C224.496 110.27 224.551 110.324 224.657 110.326L235.709 110.516C235.783 110.517 235.853 110.546 235.906 110.598C235.959 110.649 235.989 110.719 235.992 110.793L236.471 126.295C236.475 126.415 236.537 126.472 236.658 126.466L244.773 125.974C245.048 125.958 245.189 126.087 245.196 126.363C245.32 131.161 245.337 136.077 245.245 141.112C245.243 141.224 245.299 141.281 245.413 141.283C249.685 141.328 253.927 141.494 258.14 141.781C258.297 141.793 258.419 141.732 258.504 141.597C258.574 141.485 258.56 141.382 258.46 141.289C258.398 141.229 258.325 141.184 258.242 141.155C256.57 140.589 255.513 140.206 255.072 140.007C252.84 138.999 250.873 137.662 249.172 135.996C248.373 135.215 247.635 133.65 248.388 132.611C249.088 131.65 250.678 131.808 251.658 132.16C254.699 133.253 257.466 135.057 259.96 137.571C260.047 137.658 260.114 137.644 260.162 137.53L263.918 128.42C264.001 128.223 263.943 128.082 263.746 127.997C260.999 126.814 254.303 123.14 255.296 119.247C255.547 118.262 256.303 117.72 257.564 117.623C261.046 117.352 264.764 120.906 265.956 123.871C265.962 123.888 265.974 123.904 265.99 123.915C266.005 123.926 266.023 123.932 266.042 123.933C266.061 123.933 266.08 123.928 266.096 123.918C266.112 123.909 266.125 123.894 266.133 123.877C267.311 121.38 268.685 118.841 270.256 116.26C270.359 116.09 270.311 116.012 270.109 116.027C269.84 116.045 269.583 115.989 269.338 115.859C267.095 114.649 265.033 113.155 263.149 111.375C262.573 110.831 260.691 109.048 261.758 108.229C264.366 106.232 268.946 112.38 270.044 114.101C270.303 114.507 270.45 114.932 270.483 115.373C270.502 115.643 270.592 115.669 270.754 115.451C271.915 113.873 273.081 112.258 274.251 110.607C274.509 110.246 274.851 109.962 275.15 109.639C275.256 109.525 275.235 109.443 275.088 109.393C274.003 109.028 272.967 108.498 271.979 107.803C269.552 106.089 266.699 103.609 266.534 100.382C266.487 99.4445 266.912 98.9104 267.81 98.7797C270.072 98.4437 272.135 100.503 273.517 102.103C273.6 102.198 273.677 102.193 273.75 102.087C274.538 100.932 275.373 100.181 276.255 99.8345C278.769 98.8534 281.008 99.1925 282.972 100.852C284.397 102.057 284.959 103.701 284.656 105.784C284.637 105.906 284.691 105.965 284.818 105.961C286.32 105.893 292.677 105.992 292.599 108.441C292.574 109.264 292.072 109.761 291.093 109.931C289.803 110.155 288.414 110.281 286.927 110.308C284.268 110.358 281.891 110.332 279.796 110.23C278.775 110.182 277.797 109.946 276.861 109.521C276.827 109.504 276.788 109.5 276.751 109.507C276.713 109.514 276.679 109.533 276.653 109.561C274.926 111.406 273.622 113.696 272.203 115.756C272.071 115.951 272.112 116.002 272.328 115.909C275.495 114.548 278.75 113.934 282.092 114.067C283.131 114.11 285.051 114.642 285.119 115.946C285.275 119.054 275.107 118.784 273.227 118.687C272.59 118.654 271.885 118.486 271.111 118.183C270.974 118.129 270.873 118.167 270.806 118.298L267.791 124.344C267.735 124.454 267.768 124.495 267.888 124.468C271.839 123.578 276.69 123.202 280.71 123.986C281.312 124.104 281.859 124.309 282.353 124.599C283.458 125.249 283.302 126.584 282.316 127.209C281.615 127.653 280.817 127.928 279.923 128.034C275.467 128.563 270.635 128.457 266.177 128.404C266.042 128.402 265.95 128.464 265.903 128.591L261.833 139.4C261.766 139.577 261.821 139.631 261.998 139.562C262.343 139.425 262.785 139.307 263.149 139.279C266.283 139.038 269.47 139.481 272.708 140.608C273.846 141.004 274.758 141.56 275.443 142.275C276.986 143.89 274.503 144.901 273.261 145.085C272.351 145.22 271.423 145.266 270.477 145.222C267.272 145.082 263.678 144.721 260.489 143.732C260.406 143.707 260.351 143.736 260.324 143.819C259.083 147.687 257.982 151.5 257.019 155.257C257.011 155.291 257.015 155.327 257.031 155.358C257.047 155.39 257.074 155.414 257.107 155.428C258.03 155.77 258.881 156.256 259.661 156.887C261.581 158.436 263.345 160.198 264.873 162.145C264.883 162.158 264.896 162.168 264.911 162.175C264.926 162.181 264.942 162.183 264.958 162.182C264.974 162.18 264.99 162.175 265.003 162.166C265.016 162.157 265.027 162.144 265.035 162.13C266.845 158.649 268.701 155.56 270.601 152.864C271.337 151.818 272.234 150.795 273.289 149.793C273.671 149.432 274.091 149.317 274.55 149.447C274.649 149.476 274.723 149.54 274.77 149.637C274.914 149.919 274.88 150.18 274.671 150.418C271.759 153.723 269.829 157.043 267.602 161.072C267.537 161.188 267.563 161.213 267.679 161.147ZM186.812 79.7685C186.735 79.7705 186.712 79.8068 186.743 79.8774L189.108 85.2634C189.125 85.304 189.154 85.3384 189.192 85.3622C189.229 85.3861 189.272 85.3982 189.316 85.3972C191.779 85.337 194.554 85.2582 197.643 85.1607C200.421 85.0736 202.409 86.3244 202.562 89.271C202.593 89.8476 202.619 90.499 202.64 91.225C202.961 102.474 203.318 114.494 203.71 127.284C203.718 127.537 203.699 127.869 203.651 128.28C203.639 128.386 203.685 128.434 203.791 128.426L222.933 127.25C222.948 127.249 222.962 127.242 222.973 127.231C222.983 127.219 222.989 127.204 222.989 127.188L220.982 79.0217C220.978 78.9097 220.921 78.8558 220.811 78.8599L186.812 79.7685ZM160.32 80.7392C160.329 80.7236 160.333 80.7059 160.333 80.688C160.333 80.6701 160.328 80.6526 160.319 80.6372C160.31 80.6218 160.297 80.609 160.281 80.6002C160.266 80.5913 160.248 80.5867 160.23 80.5868L111.706 81.9527C111.582 81.9548 111.523 82.0181 111.529 82.1425L114.034 131.338C114.034 131.361 114.04 131.382 114.049 131.402C114.058 131.422 114.071 131.44 114.087 131.455C114.103 131.47 114.122 131.482 114.143 131.49C114.164 131.498 114.186 131.501 114.208 131.5L142.51 130.517C142.61 130.513 142.658 130.461 142.656 130.361C142.644 130.003 142.631 129.645 142.619 129.288C142.196 116.375 141.771 103.464 141.343 90.5529C141.32 89.8352 141.577 89.0926 142.112 88.3251C142.946 87.1303 144.448 86.7133 145.846 86.676C149.631 86.5743 153.395 86.4551 157.137 86.3182C157.18 86.3163 157.222 86.3033 157.258 86.2804C157.295 86.2575 157.325 86.2255 157.346 86.1875L160.32 80.7392ZM186.379 106.96C184.577 90.1235 161.129 87.2236 154.197 101.975C151.96 106.736 152.227 112.856 155.311 117.29C160.233 124.375 170.059 125.56 177.561 122.206C183.569 119.518 187.088 113.581 186.379 106.96ZM273.109 105.861C273.231 105.953 273.284 105.923 273.268 105.771C273.184 104.968 273.078 104.107 272.564 103.45C271.575 102.19 270.022 100.152 268.647 99.8563C268.496 99.8231 268.444 99.8812 268.491 100.031C269.248 102.333 271.099 104.371 273.109 105.861ZM283.323 104.05C283.242 103.254 282.767 102.532 282.002 102.041C281.236 101.55 280.244 101.332 279.242 101.434C278.746 101.484 278.263 101.612 277.82 101.809C277.377 102.006 276.983 102.269 276.661 102.584C276.338 102.898 276.094 103.257 275.941 103.64C275.788 104.023 275.73 104.423 275.77 104.817C275.851 105.612 276.326 106.335 277.092 106.826C277.857 107.316 278.85 107.535 279.851 107.433C280.347 107.383 280.83 107.255 281.273 107.058C281.716 106.86 282.11 106.597 282.433 106.283C282.755 105.969 283 105.61 283.152 105.227C283.305 104.844 283.363 104.444 283.323 104.05ZM290.263 107.439C288.707 107.128 286.967 107.013 285.042 107.094C284.043 107.137 283.601 107.769 283.01 108.416C282.883 108.553 282.913 108.62 283.1 108.618C285.94 108.577 288.546 108.508 290.919 108.413C291.62 108.386 291.696 108.16 291.146 107.735C291.014 107.629 290.719 107.53 290.263 107.439ZM110.066 111.823C110.065 111.799 110.054 111.777 110.037 111.76C110.02 111.743 109.997 111.734 109.973 111.733L99.0113 111.223C98.989 111.221 98.9668 111.227 98.9487 111.241C98.9305 111.254 98.9174 111.273 98.9117 111.294L94.1978 128.224C94.1946 128.237 94.1941 128.25 94.1964 128.263C94.1986 128.276 94.2036 128.289 94.2109 128.3C94.2182 128.311 94.2277 128.32 94.2388 128.328C94.25 128.335 94.2625 128.34 94.2756 128.342L111 131.027C111.014 131.03 111.029 131.029 111.042 131.025C111.056 131.021 111.069 131.014 111.08 131.004C111.09 130.995 111.099 130.983 111.104 130.97C111.11 130.956 111.113 130.942 111.112 130.928L110.066 111.823ZM234.069 112.663C234.067 112.638 234.057 112.615 234.039 112.598C234.021 112.581 233.997 112.571 233.973 112.57L224.663 112.389C224.637 112.389 224.611 112.4 224.593 112.419C224.574 112.437 224.563 112.463 224.563 112.489L224.868 127.02C224.869 127.033 224.872 127.046 224.877 127.058C224.883 127.07 224.891 127.081 224.901 127.09C224.911 127.099 224.922 127.106 224.935 127.111C224.947 127.115 224.961 127.117 224.974 127.116L234.928 126.519C234.941 126.518 234.954 126.515 234.965 126.509C234.977 126.503 234.988 126.495 234.996 126.485C235.005 126.475 235.012 126.464 235.016 126.452C235.02 126.439 235.022 126.426 235.021 126.413L234.069 112.663ZM283.924 115.918C283.949 115.904 283.969 115.884 283.984 115.86C284 115.837 284.009 115.81 284.012 115.782C284.014 115.754 284.01 115.726 284 115.7C283.99 115.673 283.974 115.65 283.953 115.632C283.427 115.171 282.235 115.059 281.597 115.081C278.339 115.187 275.131 115.821 272.203 116.97C271.43 117.274 271.459 117.427 272.291 117.427C275.442 117.427 278.749 117.133 282.213 116.546C282.755 116.456 283.433 116.201 283.924 115.918ZM51.6169 137.897C51.6584 137.964 51.6858 138.039 51.6976 138.117C51.7094 138.195 51.7052 138.274 51.6855 138.351C51.6657 138.427 51.6307 138.499 51.5826 138.562C51.5345 138.624 51.4742 138.677 51.4054 138.716C50.0892 139.466 48.4557 139.945 47.4413 141.133C46.5576 142.166 46.7692 144.108 48.3934 144.313C50.4595 144.578 52.1148 143.392 53.7732 142.31C54.2814 141.976 54.8083 141.948 55.3539 142.226C56.5611 142.84 56.9314 143.663 56.4647 144.696C55.7677 146.239 57.6097 147.375 58.9134 147.521C61.2719 147.785 62.9573 146.775 63.9696 144.491C64.4954 143.305 62.4761 142.639 63.5838 141.379C64.4021 140.449 65.5285 140.67 66.3872 141.42C67.4545 142.35 70.037 144.587 71.4621 143.143C72.2462 142.35 72.1373 140.67 71.319 139.942C70.8118 139.491 69.981 139.021 70.0526 138.234C70.1272 137.387 70.6842 136.973 71.4807 136.899C72.9649 136.759 74.3993 136.497 75.7653 135.912C77.3988 135.215 78.3416 133.697 76.9539 132.135C76.3689 131.479 75.6616 130.967 74.8318 130.598C74.7094 130.544 74.586 130.54 74.4616 130.585C73.6464 130.881 72.968 130.981 72.2493 130.333C71.4807 129.64 71.5368 128.694 72.4515 128.193C73.8206 127.443 75.3017 126.503 75.9209 125.094C75.9731 124.975 75.9915 124.844 75.974 124.715C75.9564 124.586 75.9036 124.464 75.8213 124.362C75.1056 123.491 73.7335 123.585 72.7067 123.753C71.4683 123.958 70.7993 122.296 71.0576 121.326C71.4092 119.991 71.2785 117.67 69.2716 117.978C68.9231 118.032 68.6068 118.137 68.3226 118.295C67.3051 118.868 66.2254 120.336 64.931 119.334C64.5867 119.069 64.3077 118.713 64.0941 118.267C63.3909 116.802 61.5364 114.524 59.6913 116.014C58.7858 116.746 58.2507 117.713 57.7653 118.759C57.5578 119.207 57.257 119.499 56.8629 119.636C54.3426 120.51 53.9443 116.369 51.8099 117.097C51.697 117.135 51.6006 117.21 51.536 117.309C51.0216 118.111 50.8142 119.042 50.9137 120.1C50.9277 120.235 50.9947 120.36 51.1004 120.448C51.5547 120.812 52.1615 121.176 52.1428 121.839C52.1387 122.012 52.0668 122.176 51.9426 122.297C51.8185 122.417 51.6523 122.482 51.48 122.48C49.4327 122.455 47.4569 122.315 45.9073 123.871C45.5879 124.192 45.4593 124.64 45.5215 125.215C45.7165 127.03 46.485 128.047 47.8271 128.267C48.2845 128.342 48.8135 128.619 49.0437 129.039C49.2885 129.481 49.1744 129.792 48.7015 129.972C46.791 130.694 44.9023 131.307 43.2657 132.602C42.1549 133.479 41.2432 135.078 42.9452 135.962C43.526 136.263 44.2178 136.452 45.0206 136.528C46.8086 136.699 48.4225 136.686 49.8621 136.491C49.9631 136.477 50.0654 136.494 50.1545 136.541C50.7685 136.862 51.256 137.315 51.6169 137.897ZM264.686 126.31C264.811 126.167 264.903 126.009 264.963 125.837C265.005 125.721 265 125.605 264.951 125.489C263.818 122.83 261.98 120.791 259.437 119.375C258.831 119.037 258.189 118.862 257.511 118.852C257.449 118.851 257.389 118.864 257.333 118.89C257.277 118.916 257.228 118.954 257.188 119.001C257.149 119.049 257.121 119.105 257.107 119.164C257.092 119.224 257.091 119.286 257.103 119.347C257.474 121.161 258.578 122.713 260.112 123.896C261.431 124.914 262.76 125.961 264.098 127.035C264.262 127.166 264.373 127.131 264.431 126.929L264.515 126.628C264.548 126.509 264.605 126.404 264.686 126.31ZM266.864 126.556C266.814 126.656 266.844 126.703 266.954 126.699C270.153 126.556 273.37 126.481 276.606 126.475C278.069 126.475 279.562 126.36 280.993 126.12C281.313 126.067 281.619 125.952 281.911 125.778C281.946 125.758 281.974 125.728 281.992 125.692C282.009 125.657 282.016 125.616 282.012 125.576C282.007 125.536 281.991 125.498 281.966 125.467C281.94 125.435 281.906 125.412 281.868 125.399C280.936 125.092 279.92 124.923 278.819 124.891C274.995 124.779 271.298 124.972 267.474 125.704C267.337 125.73 267.238 125.806 267.175 125.931L266.864 126.556ZM194.127 142.845C194.158 142.833 194.186 142.814 194.208 142.789C194.231 142.764 194.246 142.734 194.254 142.702C194.659 141.084 195.916 140.023 197.59 140.125C197.976 140.15 198.358 140.166 198.738 140.172C213.177 140.456 228.19 140.786 243.777 141.161C243.833 141.163 243.86 141.137 243.858 141.081L243.248 128.454C243.24 128.255 243.136 128.161 242.937 128.171C229.956 128.841 216.527 129.603 202.652 130.458C202.422 130.47 202.107 130.509 201.706 130.573C201.352 130.627 201.031 130.662 200.745 130.679C185.179 131.554 169.911 132.406 154.94 133.233C154.235 133.271 153.526 133.306 152.812 133.339C152.711 133.343 152.66 133.396 152.66 133.498L152.691 138.856C152.691 138.968 152.747 139.03 152.859 139.042C158.327 139.679 163.617 140.269 168.731 140.813C170.713 141.025 172.925 141.675 174.067 143.445C174.193 143.64 174.368 143.768 174.59 143.828C176.093 144.239 177.565 144.53 179.005 144.702C180.215 144.845 181.264 144.506 182.443 144.497C183.667 144.485 184.881 144.327 186.087 144.024C186.693 143.872 187.26 144.03 187.832 143.872C188.266 143.751 188.695 143.722 189.12 143.784C190.909 144.04 192.456 143.479 194.127 142.845ZM111.177 134.036L111.162 132.96C111.162 132.852 111.109 132.79 111.003 132.776C106.794 132.135 102.497 131.495 98.1121 130.856C97.8922 130.823 97.6609 130.802 97.4182 130.794C97.2834 130.79 97.2139 130.856 97.2097 130.993L97.1444 132.81C97.1402 132.937 97.2014 133.007 97.328 133.022L150.818 138.828C150.965 138.842 151.037 138.776 151.032 138.629L150.902 133.554C150.901 133.525 150.894 133.497 150.882 133.471C150.87 133.445 150.853 133.421 150.831 133.402C150.809 133.383 150.784 133.369 150.757 133.36C150.729 133.352 150.7 133.349 150.671 133.352C149.392 133.482 148.178 133.478 147.031 133.339C146.031 133.219 145.012 133.174 143.972 133.205C133.258 133.535 123.52 133.874 114.755 134.223C113.61 134.268 112.493 134.283 111.404 134.266C111.255 134.264 111.179 134.188 111.177 134.036ZM250.859 134.556C253.08 136.385 255.961 137.876 258.933 139.291C259.099 139.37 259.168 139.319 259.141 139.139C259.129 139.066 259.098 139.008 259.048 138.965C257.503 137.658 255.919 136.424 254.297 135.262C252.971 134.312 251.69 133.653 250.454 133.286C249.95 133.135 249.838 133.281 250.118 133.725C250.313 134.034 250.56 134.311 250.859 134.556ZM155.283 156.731C155.457 156.563 155.683 156.504 155.961 156.554C156.879 156.725 157.747 156.884 158.596 156.392C159.215 156.035 159.851 155.75 160.507 155.537C160.56 155.52 160.606 155.488 160.639 155.444C160.673 155.4 160.692 155.346 160.694 155.291C160.727 154.417 161.223 153.969 162.181 153.947C164.888 153.884 167.453 153.843 169.876 153.822C169.921 153.822 169.965 153.807 170.001 153.779C170.037 153.751 170.063 153.711 170.075 153.667C170.67 151.397 171.293 149.08 171.945 146.715C172.253 145.605 172.349 144.385 171.254 143.704C170.908 143.488 170.19 143.318 169.101 143.193C144.759 140.43 120.143 137.617 95.2526 134.755C93.7186 134.578 92.4678 134.577 92.0011 136.363C89.543 145.818 87.0434 155.339 84.5024 164.927C84.269 165.808 84.1632 166.707 83.8676 167.562C83.654 168.179 83.4621 168.812 83.292 169.464C81.311 177.004 79.3518 184.533 77.4144 192.05C77.2837 192.557 77.4953 193.245 77.0628 193.571C76.9903 193.626 76.9377 193.705 76.9134 193.796L74.6358 202.405C74.6303 202.426 74.6293 202.447 74.633 202.468C74.6366 202.489 74.6448 202.509 74.6569 202.526C74.6691 202.544 74.6849 202.559 74.7033 202.569C74.7217 202.58 74.7422 202.587 74.7634 202.589C76.763 202.771 79.3248 203.092 82.4488 203.55C83.8085 203.746 85.1589 203.899 86.4999 203.917C97.692 204.073 107.223 204.655 118.586 205.417C125.531 205.884 132.304 206.609 139.523 207.489C144.536 208.102 149.358 208.625 153.889 209.885C153.927 209.895 153.967 209.89 154.001 209.87C154.035 209.851 154.059 209.82 154.069 209.782L160.208 186.552C160.237 186.447 160.242 186.338 160.224 186.231L155.183 157.043C155.173 156.987 155.177 156.93 155.195 156.875C155.212 156.821 155.242 156.772 155.283 156.731ZM266.631 141.678C264.876 141.458 263.06 141.376 261.183 141.432C261.166 141.433 261.15 141.436 261.135 141.443C261.12 141.45 261.106 141.46 261.095 141.472C261.084 141.484 261.076 141.499 261.07 141.514C261.065 141.53 261.063 141.546 261.064 141.563L261.067 141.653C261.072 141.715 261.098 141.774 261.14 141.818C261.183 141.863 261.24 141.892 261.301 141.899L273.093 143.171C273.172 143.18 273.219 143.145 273.233 143.066L273.249 142.972C273.251 142.96 273.246 142.953 273.233 142.951C271.01 142.374 268.809 141.95 266.631 141.678ZM241.767 152.528C243.201 152.945 243.347 153.94 243.73 155.456C246.082 164.796 248.426 173.904 250.762 182.778C250.764 182.794 250.772 182.809 250.785 182.82C250.798 182.83 250.814 182.835 250.831 182.834C250.847 182.832 250.862 182.824 250.873 182.811C250.883 182.798 250.888 182.782 250.887 182.765C251.182 176.997 251.742 171.735 252.666 165.431C253.765 157.967 255.495 150.754 258.056 143.623C258.065 143.598 258.067 143.571 258.063 143.545C258.059 143.519 258.048 143.495 258.031 143.474C258.015 143.453 257.993 143.437 257.969 143.426C257.944 143.416 257.917 143.412 257.891 143.414C257.727 143.431 257.56 143.439 257.39 143.439C248.184 143.443 238.979 143.347 229.775 143.15C219.261 142.923 208.732 142.767 198.225 142.378C197.294 142.344 196.423 142.68 196.345 143.688C196.102 146.887 195.817 150.055 195.49 153.194C195.483 153.243 195.505 153.268 195.555 153.268L241.191 152.45C241.385 152.446 241.579 152.472 241.767 152.528ZM194.148 145.051C194.149 145.028 194.144 145.005 194.133 144.985C194.122 144.965 194.106 144.948 194.086 144.936C194.067 144.924 194.044 144.917 194.021 144.917C193.998 144.916 193.976 144.922 193.956 144.933C192.269 145.847 190.564 145.838 188.753 145.384C188.6 145.344 188.52 145.404 188.514 145.564L188.218 153.231C188.214 153.339 188.267 153.392 188.377 153.39L193.719 153.293C193.825 153.291 193.88 153.237 193.884 153.131L194.148 145.051ZM174.518 145.838C174.489 145.828 174.459 145.825 174.429 145.827C174.398 145.83 174.369 145.839 174.342 145.853C174.315 145.867 174.292 145.887 174.273 145.91C174.254 145.934 174.24 145.961 174.232 145.99L172.153 153.558C172.148 153.579 172.147 153.602 172.151 153.624C172.156 153.646 172.165 153.667 172.179 153.685C172.193 153.703 172.211 153.717 172.231 153.727C172.252 153.737 172.274 153.741 172.296 153.741L178.224 153.626C178.269 153.625 178.313 153.609 178.347 153.581C178.382 153.553 178.405 153.514 178.414 153.471L179.808 146.883C179.837 146.749 179.783 146.682 179.646 146.684C177.907 146.695 176.198 146.413 174.518 145.838ZM181.892 146.106C181.885 146.104 181.877 146.104 181.869 146.105C181.861 146.107 181.853 146.11 181.847 146.115C181.84 146.119 181.834 146.125 181.83 146.132C181.825 146.139 181.822 146.147 181.821 146.155L180.15 153.443C180.145 153.46 180.145 153.478 180.149 153.495C180.153 153.513 180.161 153.529 180.172 153.543C180.183 153.557 180.197 153.568 180.213 153.575C180.229 153.583 180.247 153.586 180.265 153.586L186.5 153.489C186.542 153.489 186.581 153.473 186.61 153.444C186.64 153.414 186.656 153.375 186.656 153.334L186.721 146.015C186.723 145.891 186.664 145.847 186.544 145.885C185.067 146.337 183.516 146.411 181.892 146.106ZM60.0678 159.249C60.1048 159.156 60.1633 159.074 60.2384 159.008C60.3135 158.943 60.403 158.897 60.4996 158.872C60.5962 158.848 60.6972 158.848 60.7941 158.87C60.8911 158.893 60.9812 158.938 61.0572 159.003C61.1568 159.086 61.2491 159.179 61.3341 159.283C66.1798 165.141 70.929 171.652 75.5817 178.817C76.3699 180.032 77.0929 181.296 77.7504 182.607C77.8334 182.768 77.8977 182.761 77.9433 182.585L80.2894 173.866C80.2943 173.848 80.2952 173.828 80.2919 173.81C80.2887 173.791 80.2815 173.773 80.2707 173.757C76.3378 168.09 71.7473 163.331 66.4992 159.479C64.0163 157.655 61.2667 155.886 58.2507 154.171C57.1015 153.515 55.9108 152.988 54.6787 152.59C54.548 152.548 54.5013 152.594 54.5386 152.727C54.7481 153.496 54.9867 154.244 55.2543 154.97C57.1378 160.032 58.8771 164.49 60.4723 168.347C62.3163 172.802 64.8418 176.914 68.0488 180.681C70.5784 183.652 73.4285 186.197 76.0827 189.209C76.1719 189.311 76.232 189.296 76.2631 189.166C76.5494 187.923 76.8906 186.685 77.2868 185.45C77.3947 185.119 77.3459 184.801 77.1406 184.498C71.8054 176.626 66.4816 168.998 61.1692 161.613C60.8083 161.111 60.4723 160.588 60.1611 160.042C59.9993 159.758 59.9682 159.493 60.0678 159.249ZM162.592 155.568C162.575 155.568 162.558 155.573 162.543 155.58C162.528 155.588 162.514 155.599 162.503 155.612C162.493 155.625 162.485 155.641 162.481 155.657C162.477 155.674 162.476 155.691 162.48 155.708L176.547 226.693C176.552 226.72 176.567 226.743 176.589 226.758C176.61 226.773 176.636 226.779 176.662 226.774L256.696 215.34C256.799 215.325 256.839 215.267 256.814 215.165L241.701 154.765C241.602 154.369 241.347 154.174 240.936 154.18L162.592 155.568ZM256.895 156.915C256.569 156.817 256.507 156.906 256.708 157.179C257.9 158.807 259.782 160.244 261.242 161.492C261.545 161.751 261.581 161.718 261.351 161.392C260.262 159.864 258.983 158.481 257.514 157.245C257.334 157.093 257.127 156.983 256.895 156.915ZM175.271 228.955C175.289 228.935 175.303 228.912 175.312 228.886C175.321 228.86 175.324 228.833 175.322 228.806C175.319 228.779 175.311 228.753 175.298 228.729C175.285 228.706 175.268 228.685 175.246 228.669C174.788 228.321 174.505 227.862 174.397 227.294C170.049 204.437 165.596 181.135 161.039 157.388C161.032 157.352 161.016 157.318 160.993 157.289C160.97 157.261 160.941 157.238 160.907 157.224C160.873 157.209 160.837 157.203 160.8 157.205C160.763 157.208 160.728 157.219 160.697 157.239C159.44 158.018 158.223 158.363 157.047 158.272C156.904 158.259 156.845 158.323 156.87 158.464C160.466 177.826 163.997 196.957 167.461 215.856C167.629 216.78 167.912 217.683 168.006 218.61C168.082 219.352 168.187 220.078 168.32 220.788C169.038 224.64 169.723 228.473 170.377 232.288C170.424 232.566 170.585 232.694 170.859 232.674C171.512 232.624 172.107 232.702 172.558 232.135C173.46 231.009 174.365 229.949 175.271 228.955ZM252.894 187.408C252.841 187.784 252.707 188.223 252.383 188.428C252.277 188.497 252.24 188.591 252.271 188.711L254.704 198.055C254.762 198.281 254.801 198.278 254.82 198.046C255.292 192.398 256.596 187.006 258.015 181.387C259.519 175.434 261.468 169.804 263.862 164.498C263.905 164.402 263.88 164.333 263.787 164.289C263.204 164.009 262.824 163.807 262.648 163.682C260.387 162.091 258.27 160.438 256.298 158.723C256.21 158.648 256.157 158.667 256.139 158.779C254.664 167.765 253.676 176.406 253.174 184.704C253.124 185.538 253.03 186.439 252.894 187.408ZM281.759 159.977C281.774 159.972 281.788 159.963 281.799 159.951C281.81 159.938 281.817 159.923 281.82 159.907C281.823 159.891 281.821 159.874 281.815 159.858C281.809 159.843 281.8 159.829 281.787 159.818C280.903 159.118 279.148 159.161 278.081 159.273C274.275 159.68 270.692 160.864 267.334 162.827C266.786 163.146 266.82 163.226 267.434 163.066C270.981 162.143 274.449 161.417 277.838 160.888C279.143 160.685 280.45 160.381 281.759 159.977ZM269.668 190.395C269.848 189.819 270.274 189.676 270.598 189.243C274.123 184.492 277.957 179.89 282.91 176.704C285.837 174.821 288.955 173.165 292.263 171.738C292.62 171.585 292.608 171.468 292.226 171.39C284.425 169.778 276.211 172.466 269.805 177.152C266.55 179.532 263.7 182.364 261.693 185.777C258.949 190.444 257.256 195.921 256.21 201.325C256.142 201.68 256.031 202.013 255.877 202.324C255.809 202.463 255.794 202.608 255.834 202.76L256.326 204.642C256.365 204.792 256.459 204.849 256.609 204.813C258.517 204.345 260.578 203.983 262.791 203.727C262.92 203.713 263.004 203.643 263.043 203.519C264.462 199.091 266.724 194.993 269.341 191.064C269.484 190.852 269.593 190.629 269.668 190.395ZM67.0998 182.19C67.0793 182.168 67.0531 182.154 67.0244 182.147C66.9957 182.14 66.9657 182.142 66.938 182.152C64.7568 182.974 62.3423 183.4 60.0647 183.932C56.4055 184.791 52.8854 186.141 49.5042 187.983C48.185 188.703 46.9435 189.38 45.7798 190.015C45.4873 190.175 45.507 190.26 45.8389 190.27C48.1476 190.349 50.4802 190.367 52.8366 190.323C55.4223 190.273 58.008 189.981 60.6092 190.121C63.7788 190.291 67.2408 190.535 70.9954 190.852C72.5604 190.986 74.0882 191.285 75.6035 191.621C75.6494 191.63 75.6971 191.628 75.7417 191.613C75.7862 191.598 75.8261 191.572 75.8571 191.537C75.8882 191.503 75.9093 191.46 75.9183 191.415C75.9273 191.369 75.9239 191.322 75.9084 191.278C75.8088 190.992 75.6564 190.752 75.451 190.56C72.4744 187.738 69.6906 184.949 67.0998 182.19ZM161.216 212.639L163.289 204.851C163.365 204.564 163.379 204.275 163.329 203.983L161.114 191.235C161.111 191.222 161.104 191.211 161.095 191.203C161.085 191.195 161.073 191.191 161.06 191.19C161.048 191.19 161.036 191.194 161.025 191.201C161.015 191.209 161.008 191.22 161.005 191.232L156.179 210.265C156.156 210.355 156.169 210.451 156.215 210.531C156.261 210.612 156.336 210.671 156.425 210.697C158.034 211.164 159.621 211.815 161.185 212.651C161.188 212.653 161.191 212.654 161.194 212.654C161.198 212.654 161.201 212.653 161.204 212.652C161.207 212.651 161.209 212.649 161.212 212.647C161.214 212.645 161.215 212.642 161.216 212.639ZM286.271 201.397C286.292 201.395 286.312 201.388 286.33 201.376C286.348 201.365 286.363 201.348 286.372 201.329C286.382 201.31 286.387 201.289 286.386 201.267C286.385 201.246 286.378 201.225 286.367 201.207C283.041 196.042 277.247 194.044 271.74 192.025C271.696 192.009 271.648 192.008 271.604 192.023C271.559 192.038 271.521 192.067 271.494 192.106C269.221 195.516 267.301 199.157 265.735 203.027C265.672 203.181 265.723 203.247 265.887 203.226C272.608 202.368 279.402 201.758 286.271 201.397ZM164.082 209.477C163.793 210.812 163.438 212.085 163.071 213.392C163.053 213.453 163.055 213.519 163.077 213.579C163.098 213.639 163.139 213.691 163.192 213.728L165.128 215.038C165.269 215.133 165.319 215.098 165.28 214.932C164.853 213.107 164.522 211.29 164.287 209.484C164.236 209.085 164.167 209.083 164.082 209.477ZM175.868 231.647C175.855 231.664 175.847 231.684 175.845 231.705C175.843 231.727 175.848 231.748 175.859 231.767C175.87 231.786 175.886 231.8 175.905 231.809C175.925 231.819 175.947 231.822 175.968 231.818L255.454 219.179C255.469 219.177 255.483 219.171 255.495 219.163C255.507 219.155 255.518 219.145 255.526 219.132L256.213 218.028C256.224 218.011 256.23 217.991 256.23 217.971C256.23 217.951 256.224 217.931 256.214 217.914C256.203 217.897 256.187 217.884 256.169 217.875C256.151 217.867 256.131 217.864 256.111 217.866L178.162 228.903C178.136 228.907 178.113 228.92 178.096 228.94L175.868 231.647Z" fill="#0F5A8B"/>
<path d="M161.035 99.0476C167.585 93.6927 178.183 95.821 181.658 103.643C184.384 109.773 181.767 116.525 175.482 119.167C172.066 120.602 168.557 120.789 164.956 119.727C155.313 116.88 153.481 105.227 161.035 99.0476ZM163.805 103.108C164.67 102.072 163.528 100.995 162.376 101.328C162.185 101.383 162.013 101.491 161.879 101.639C160.678 102.974 160.046 104.67 159.433 106.584C159.116 107.57 159.277 108.815 160.572 108.793C161.2 108.78 161.564 108.046 161.701 107.526C162.195 105.67 162.896 104.197 163.805 103.108Z" fill="#0F5A8B"/>
<path d="M65.4188 127.085C68.4245 130.753 68.2939 135.361 62.9608 136.32C60.316 136.796 57.4098 136.345 55.5367 134.397C54.4456 133.262 53.9115 131.951 53.9343 130.464C53.9716 128.093 55.9039 126.326 57.9295 125.286C60.6458 123.895 63.5426 124.795 65.4188 127.085ZM58.029 128.143C57.1111 128.936 56.2461 129.891 56.4671 131.173C56.9773 134.101 59.7808 134.661 62.2638 133.974C65.8264 132.99 64.865 129.173 62.6714 127.443C61.0223 126.142 59.4012 126.954 58.029 128.143Z" fill="#0F5A8B"/>
<path d="M134.994 197.924L89.6001 192.407C89.5792 192.405 89.5591 192.398 89.5412 192.387C89.5233 192.376 89.508 192.361 89.4964 192.344C89.4848 192.326 89.4772 192.306 89.4742 192.286C89.4711 192.265 89.4727 192.244 89.4787 192.223L100.375 155.312C100.385 155.279 100.406 155.252 100.435 155.234C100.463 155.215 100.497 155.208 100.531 155.212L145.722 160.847C145.743 160.849 145.763 160.856 145.781 160.867C145.799 160.878 145.814 160.893 145.826 160.91C145.837 160.928 145.845 160.948 145.848 160.969C145.851 160.989 145.85 161.011 145.844 161.031L135.149 197.821C135.14 197.854 135.119 197.882 135.091 197.901C135.062 197.92 135.028 197.928 134.994 197.924ZM100.357 178.769C99.2115 178.884 95.3066 179.659 94.9457 180.851C93.9562 184.114 92.9823 187.375 92.024 190.633C92.0053 190.696 92.0291 190.731 92.0955 190.739L126.689 194.915C126.832 194.934 126.889 194.872 126.86 194.731C125.899 189.831 122.311 185.804 118.154 183.175C112.52 179.609 106.588 178.141 100.357 178.769Z" fill="#0F5A8B"/>
<path d="M239.548 207.519L191.41 213.512C191.354 213.518 191.298 213.503 191.253 213.469C191.207 213.436 191.177 213.386 191.167 213.331L183.898 174.752C183.893 174.721 183.893 174.69 183.9 174.66C183.907 174.63 183.92 174.602 183.939 174.578C183.957 174.553 183.981 174.533 184.007 174.518C184.034 174.502 184.064 174.493 184.094 174.49L231.859 170.427C231.913 170.422 231.968 170.437 232.011 170.47C232.055 170.503 232.085 170.55 232.096 170.604L239.734 207.254C239.741 207.284 239.741 207.315 239.734 207.345C239.728 207.374 239.716 207.402 239.699 207.427C239.681 207.452 239.659 207.473 239.633 207.489C239.607 207.505 239.578 207.515 239.548 207.519ZM234.849 205.972C231.682 198.608 223.844 194.373 216.015 194.544C210.769 194.656 206.162 196.468 202.194 199.98C199.027 202.783 196.737 206.685 196.142 210.91C196.139 210.932 196.141 210.954 196.148 210.975C196.155 210.996 196.166 211.015 196.182 211.03C196.197 211.046 196.216 211.058 196.236 211.065C196.257 211.072 196.279 211.075 196.301 211.072L234.675 206.274C234.868 206.251 234.926 206.151 234.849 205.972Z" fill="#0F5A8B"/>
<path d="M44.812 227.631C44.6471 225.356 44.7435 223.169 45.4903 221.187C46.262 219.143 47.9826 217.565 50.17 217.357C55.8143 216.825 55.3071 223.881 55.9636 227.422C56.0217 227.742 56.141 227.766 56.3214 227.494C56.6139 227.046 56.9271 226.618 57.2611 226.212C57.7714 225.587 58.6519 225.552 59.156 226.193C59.2867 226.359 59.4464 226.487 59.6352 226.576C59.7513 226.63 59.8665 226.628 59.9806 226.57C60.998 226.047 62.115 225.138 62.8338 226.728C62.9064 226.886 63.0205 226.925 63.1761 226.847C65.1239 225.867 68.1482 225.409 69.1284 227.852C69.2984 228.275 69.3109 228.691 69.1657 229.099C68.7736 230.198 67.6286 230.26 66.6329 230.089C66.5271 230.07 66.4379 230.022 66.3653 229.946C66.2844 229.857 66.272 229.757 66.328 229.647C66.3736 229.562 66.4442 229.512 66.5396 229.498C67.0354 229.421 67.4523 229.241 67.7904 228.959C67.9107 228.86 67.9792 228.732 67.9958 228.577C68.0725 227.878 67.7479 227.461 67.0219 227.326C65.4537 227.04 64.1126 227.892 62.8369 228.717C61.7292 229.432 60.9161 229.286 60.3975 228.278C60.3519 228.189 60.2834 228.166 60.1921 228.21C59.406 228.583 58.5586 228.662 57.65 228.446C57.5277 228.419 57.4229 228.45 57.3358 228.539C57.0402 228.847 56.8099 229.239 56.4148 229.442C55.1515 230.086 54.2212 229.249 53.994 228.029C53.7721 226.855 53.6124 225.547 53.5149 224.105C53.4215 222.715 53.073 219.659 51.648 218.956C51.0319 218.651 50.4002 218.678 49.7531 219.037C46.4673 220.857 46.6727 225.86 46.9434 229.022C47.0896 230.752 45.3129 230.322 44.6066 229.467C43.0384 227.562 41.6258 225.613 40.3688 223.62C40.2422 223.419 40.1665 223.438 40.1416 223.676C40.1126 223.966 40.1126 224.268 40.1416 224.581C40.2972 226.287 40.4818 227.836 40.6955 229.23C40.8013 229.923 40.6623 229.976 40.2785 229.389C39.4467 228.119 38.9354 226.544 38.7446 224.662C38.6637 223.875 38.6481 222.662 39.398 222.198C40.459 221.545 41.5854 222.895 42.1019 223.71C43.0125 225.139 43.8557 226.466 44.6315 227.69C44.7705 227.91 44.8307 227.89 44.812 227.631Z" fill="#0F5A8B"/>
<path d="M86.4828 236.518C86.601 236.721 86.6715 236.706 86.6944 236.471C86.9526 233.786 88.2626 230.566 91.455 231.123C92.3801 231.287 93.2119 231.782 93.9504 232.61C94.5447 233.276 94.7967 234.216 95.1016 235.056C95.2178 235.371 95.3319 235.371 95.4439 235.056C96.4489 232.265 98.8261 228.886 101.72 227.738C103.207 227.149 105.108 227.719 105.538 229.343C105.704 229.976 105.77 230.686 105.737 231.474C105.654 233.414 105.59 235.349 105.547 237.28C105.546 237.324 105.558 237.367 105.582 237.404C105.605 237.441 105.639 237.47 105.679 237.487C105.718 237.505 105.762 237.511 105.805 237.503C105.847 237.496 105.886 237.475 105.917 237.445C106.973 236.452 108.03 235.638 109.088 235.003C110.546 234.13 112.01 233.972 113.478 234.53C115.697 235.376 115.541 237.663 113.988 239.063C113.403 239.589 111.835 240.8 111.16 240.037C111.013 239.871 110.972 239.673 111.039 239.443C111.362 238.32 112.324 237.336 112.927 236.35C112.944 236.322 112.954 236.291 112.957 236.259C112.96 236.227 112.956 236.194 112.944 236.164C112.933 236.134 112.915 236.107 112.891 236.086C112.868 236.064 112.84 236.048 112.809 236.039C111.381 235.603 109.816 236.776 108.783 237.747C107.903 238.573 107.076 239.23 106.3 239.72C104.816 240.656 103.422 239.614 103.179 238.086C102.775 235.535 103.148 232.554 103.322 230.015C103.327 229.949 103.314 229.883 103.283 229.825C103.252 229.766 103.205 229.718 103.148 229.685C103.09 229.652 103.025 229.635 102.958 229.638C102.891 229.64 102.827 229.661 102.771 229.698C101.11 230.814 99.7761 232.264 98.7701 234.048C98.2266 235.01 97.7651 236.034 97.3855 237.119C96.953 238.348 96.1066 239.375 94.6971 238.799C94.1163 238.564 93.7232 238.058 93.5179 237.28C93.2607 236.312 93.0169 235.363 92.7867 234.433C92.6705 233.965 92.4641 233.547 92.1675 233.18C92.1032 233.101 92.0223 233.052 91.9248 233.033C90.0548 232.657 89.5196 236.251 89.2987 237.48C89.0809 238.687 88.3372 239.667 87.0086 239.144C86.4651 238.931 85.987 238.448 85.5742 237.697C84.7756 236.239 83.9853 234.753 83.2033 233.239C83.0643 232.969 82.8807 232.746 82.6525 232.57C82.6373 232.557 82.6192 232.549 82.5999 232.546C82.5807 232.543 82.561 232.545 82.5427 232.552C82.5245 232.559 82.5084 232.571 82.496 232.586C82.4836 232.601 82.4754 232.619 82.4721 232.638C82.1453 234.402 82.805 236.064 83.1784 237.713C83.2717 238.124 83.1659 238.183 82.861 237.89C81.5065 236.586 80.8852 235.018 80.9972 233.189C81.075 231.904 82.0333 230.914 83.2904 231.898C84.6968 232.999 85.5804 234.956 86.4828 236.518Z" fill="#0F5A8B"/>
<path d="M278.33 240.192C277.736 240.938 277.176 241.582 276.13 241.564C275.091 241.545 274.304 241.008 273.769 239.952C273.751 239.918 273.726 239.888 273.696 239.865C273.665 239.843 273.629 239.827 273.592 239.82C273.554 239.813 273.515 239.815 273.479 239.826C273.442 239.836 273.408 239.855 273.38 239.88C272.938 240.275 272.443 240.603 271.895 240.867C270.694 241.442 269.251 240.77 268.588 239.744C268.514 239.63 268.478 239.496 268.485 239.361C268.492 239.225 268.541 239.095 268.625 238.987C269.16 238.307 269.815 238.093 270.589 238.347C270.696 238.382 270.803 238.376 270.909 238.328C271.253 238.166 271.592 237.96 271.923 237.709C273.61 236.427 274.811 237.233 276.031 238.645C276.097 238.724 276.182 238.767 276.286 238.773C276.952 238.804 277.954 238.175 278.535 237.839C279.341 237.373 280.937 237.438 281.087 238.633C281.122 238.911 281.149 239.188 281.168 239.464C281.17 239.496 281.18 239.527 281.197 239.555C281.214 239.583 281.237 239.606 281.265 239.623C281.293 239.639 281.324 239.649 281.356 239.651C281.389 239.653 281.421 239.648 281.451 239.635C282.425 239.215 284.771 238.434 285.608 239.299C285.788 239.487 285.813 239.707 285.682 239.958C285.652 240.014 285.611 240.064 285.561 240.103C285.511 240.143 285.454 240.172 285.393 240.189C284.161 240.516 283.024 240.904 281.983 241.352C280.583 241.953 279.232 241.632 278.613 240.229C278.541 240.061 278.446 240.049 278.33 240.192Z" fill="#0F5A8B"/>
<path d="M36.158 239.671C35.0348 240.259 34.8356 241.843 33.7311 242.388C32.0197 243.231 30.9307 242.036 30.0408 240.748C30.0268 240.728 30.0085 240.711 29.9871 240.698C29.9657 240.685 29.9418 240.678 29.917 240.675C29.8921 240.673 29.867 240.676 29.8432 240.684C29.8195 240.693 29.7977 240.706 29.7795 240.723C29.3439 241.148 28.8636 241.512 28.3388 241.815C27.0258 242.565 25.4265 241.831 24.6766 240.692C24.6419 240.639 24.6199 240.578 24.6123 240.515C24.6048 240.452 24.6118 240.388 24.633 240.328C25.0718 239.13 25.9088 239.416 26.8827 239.494C27.0103 239.506 27.1378 239.467 27.2374 239.385C28.5349 238.337 29.7857 237.425 31.357 238.853C31.7345 239.197 32.0851 239.567 32.4087 239.961C32.4571 240.019 32.5239 240.06 32.5978 240.074C32.6716 240.089 32.7478 240.078 32.8132 240.042C33.8462 239.477 34.9155 238.938 36.0211 238.424C37.1879 237.885 38.221 238.589 38.417 239.818C38.4751 240.181 38.5352 240.54 38.5975 240.894C38.6022 240.92 38.6127 240.944 38.6282 240.965C38.6437 240.986 38.6637 241.003 38.6868 241.015C38.7099 241.027 38.7355 241.034 38.7615 241.034C38.7875 241.035 38.8134 241.03 38.837 241.019C39.7394 240.616 40.7267 240.304 41.7992 240.082C42.3924 239.96 42.8509 240.111 43.1745 240.536C43.2136 240.588 43.2404 240.647 43.253 240.711C43.2656 240.774 43.2636 240.839 43.2471 240.902C43.2306 240.965 43.2001 241.023 43.1579 241.072C43.1157 241.121 43.0628 241.161 43.0033 241.187C41.9226 241.662 40.8294 242.094 39.7238 242.484C37.2657 243.352 36.5159 241.868 36.4287 239.827C36.4204 239.634 36.3302 239.582 36.158 239.671Z" fill="#0F5A8B"/>
</g>
<defs>
<clipPath id="clip0_2529_160106">
<rect width="318.617" height="268.68" fill="white" transform="translate(0.691406 0.00390625)"/>
</clipPath>
</defs>
</svg>
