<svg width="226" height="265" viewBox="0 0 226 265" fill="none" xmlns="http://www.w3.org/2000/svg">
<path d="M24.4291 26.8226L6.76414 209.5C6.4705 212.56 8.71146 215.264 11.7561 215.558L197.184 233.486C200.244 233.779 202.949 231.539 203.243 228.494L220.908 45.8167C221.201 42.7567 218.96 40.0521 215.916 39.7584L30.4874 21.8307C27.4428 21.5371 24.7228 23.7626 24.4291 26.8226Z" fill="white"/>
<path d="M197.185 233.021C196.582 232.975 196.597 233.902 197.185 233.949C197.787 234.01 197.772 233.083 197.185 233.021Z" fill="#DDDDDD"/>
<path d="M108.457 28.9068C99.6476 28.0568 90.8383 27.2068 82.0135 26.3568C74.3324 25.6149 66.6359 24.8731 58.9548 24.1312C53.1283 23.5749 47.3018 23.003 41.4598 22.4467C38.2143 22.1376 34.9688 21.813 31.7232 21.5039C31.0741 21.4421 30.4096 21.3339 29.7605 21.3648C26.5149 21.473 24.2585 24.0385 23.9339 27.145C23.6867 29.6487 23.4548 32.1678 23.2076 34.6715C22.6976 40.0035 22.1721 45.3354 21.6621 50.6673C20.9511 58.0239 20.2402 65.3959 19.5293 72.7524C18.6947 81.4072 17.8602 90.0619 17.0256 98.7012C16.1447 107.881 15.2483 117.077 14.3674 126.257C13.5019 135.221 12.6364 144.185 11.7709 153.149C10.9982 161.139 10.2254 169.129 9.45269 177.12C8.84994 183.394 8.23175 189.684 7.62901 195.959C7.25809 199.715 6.90263 203.486 6.53171 207.241C6.46989 207.952 6.37716 208.663 6.3308 209.374C6.05261 212.759 8.41721 215.649 11.8018 216.02C13.7492 216.236 15.6965 216.39 17.6438 216.591C22.4812 217.055 27.334 217.534 32.1714 217.998C39.1725 218.678 46.1736 219.358 53.1901 220.038C61.6285 220.857 70.0669 221.676 78.4898 222.48C87.6237 223.361 96.7575 224.242 105.876 225.122C114.963 226.003 124.066 226.884 133.154 227.765C141.515 228.569 149.861 229.388 158.222 230.192C165.037 230.856 171.853 231.505 178.669 232.17C183.243 232.618 187.818 233.051 192.393 233.499C194 233.654 195.607 233.808 197.215 233.963C196.627 233.916 196.612 232.989 197.215 233.035C195.514 232.865 193.83 232.711 192.13 232.541C187.524 232.093 182.934 231.644 178.329 231.212C171.544 230.563 164.744 229.898 157.959 229.249C149.691 228.445 141.422 227.657 133.169 226.853C124.144 225.988 115.118 225.107 106.092 224.242C97.0203 223.361 87.9637 222.495 78.8917 221.614C70.4996 220.795 62.1076 219.991 53.7156 219.172C46.7454 218.492 39.7598 217.828 32.7896 217.148C27.8904 216.669 22.9912 216.205 18.092 215.726C16.021 215.525 13.9192 215.37 11.8482 215.123C8.88085 214.768 6.99536 212.249 7.25809 209.328C7.31991 208.57 7.41264 207.798 7.47446 207.04C7.84538 203.223 8.2163 199.421 8.58721 195.604C9.18996 189.36 9.7927 183.116 10.3954 176.872C11.1527 168.959 11.9255 161.062 12.6828 153.149C13.5482 144.262 14.3983 135.36 15.2637 126.474C16.1447 117.355 17.0256 108.237 17.9065 99.1185C18.7411 90.5101 19.5757 81.9172 20.4102 73.3088C21.1212 65.9523 21.8321 58.6112 22.543 51.2546C23.0685 45.8918 23.5785 40.5289 24.104 35.1661C24.3512 32.5387 24.614 29.8959 24.8612 27.2686C25.1549 24.3013 27.4113 22.0603 30.5023 22.2921C30.9814 22.323 31.445 22.3848 31.9087 22.4312C35.2006 22.7558 38.4925 23.0649 41.7844 23.3894C47.6109 23.9458 53.4374 24.5176 59.2639 25.074C66.9141 25.8158 74.5488 26.5577 82.199 27.2995C90.9156 28.1495 99.6322 28.9841 108.333 29.8341C117.467 30.715 126.601 31.596 135.735 32.4769C144.544 33.3269 153.353 34.1769 162.163 35.027C169.921 35.7843 177.695 36.5261 185.453 37.2834C191.45 37.8707 197.462 38.4425 203.458 39.0298C206.982 39.3698 210.506 39.7098 214.029 40.0498C214.632 40.1116 215.25 40.158 215.853 40.2198C218.836 40.5753 220.675 43.1408 220.412 46.0463C220.196 48.4109 219.949 50.7755 219.732 53.1401C219.238 58.3021 218.728 63.4486 218.233 68.6105C217.538 75.8125 216.842 83.0299 216.147 90.2319C215.328 98.7631 214.493 107.279 213.674 115.81C212.793 124.913 211.912 134.016 211.031 143.119C210.166 152.067 209.3 161 208.435 169.948C207.662 177.985 206.874 186.037 206.101 194.074C205.483 200.487 204.865 206.886 204.247 213.299C203.86 217.333 203.458 221.367 203.072 225.401C202.995 226.282 202.902 227.147 202.825 228.028C202.531 230.995 200.275 233.236 197.184 233.02C197.771 233.082 197.771 234.009 197.184 233.947C200.676 234.195 203.381 231.629 203.736 228.229C203.814 227.41 203.891 226.575 203.968 225.756C204.355 221.784 204.741 217.812 205.127 213.856C205.746 207.458 206.364 201.059 206.982 194.676C207.77 186.593 208.543 178.526 209.331 170.443C210.212 161.402 211.078 152.361 211.959 143.335C212.839 134.155 213.736 124.99 214.617 115.81C215.451 107.217 216.27 98.6394 217.105 90.0465C217.8 82.7981 218.511 75.5498 219.207 68.3169C219.701 63.1704 220.196 58.0239 220.706 52.8774C220.922 50.5746 221.17 48.2873 221.371 45.9845C221.664 42.5999 219.3 39.6789 215.915 39.2925C215.39 39.2307 214.849 39.1843 214.323 39.138C210.892 38.8134 207.461 38.4734 204.03 38.1489C198.065 37.577 192.083 36.9897 186.118 36.4179C178.298 35.6606 170.493 34.9033 162.673 34.146C153.802 33.296 144.946 32.4305 136.075 31.5805C126.864 30.6841 117.653 29.7877 108.457 28.9068Z" fill="#DDDDDD"/>
<path d="M39.1329 63.2732L28.9648 168.406L189.341 183.917L199.509 78.7841L39.1329 63.2732Z" fill="#EEEEEE"/>
<path d="M28.9727 167.957C29.1272 168.112 29.2818 168.266 29.4363 168.421C29.4518 168.282 29.4672 168.127 29.4827 167.988C29.4054 167.988 29.3281 167.988 29.2508 167.988C29.1427 167.988 29.0499 167.957 28.9727 167.957Z" fill="#DDDDDD"/>
<path d="M39.5771 63.4669C39.5771 63.4051 39.5926 63.3432 39.5926 63.2969C39.438 63.4514 39.2835 63.606 39.1289 63.7605C39.2835 63.776 39.438 63.7914 39.5771 63.8069C39.5926 63.6832 39.5926 63.5751 39.5771 63.4669Z" fill="#DDDDDD"/>
<path d="M122.198 70.8709C114.439 70.1136 106.666 69.3718 98.9073 68.6145C91.6744 67.919 84.426 67.2081 77.1931 66.5126C71.073 65.9253 64.9528 65.3226 58.8327 64.7353C54.428 64.3026 50.0388 63.8853 45.6342 63.4525C43.5632 63.2516 41.4768 62.9889 39.4059 62.8498C39.3131 62.8498 39.2204 62.8344 39.1277 62.8189C38.8649 62.788 38.6795 63.0507 38.664 63.2825C38.324 66.7908 37.984 70.2991 37.644 73.8073C36.8403 82.1685 36.0212 90.5296 35.2176 98.8907C34.2439 108.998 33.2702 119.106 32.2811 129.213C31.4311 137.976 30.5811 146.724 29.7465 155.487C29.4683 158.361 29.1902 161.236 28.912 164.126C28.7883 165.486 28.541 166.877 28.5101 168.237C28.5101 168.299 28.4947 168.361 28.4947 168.407C28.4638 168.67 28.7265 168.855 28.9583 168.871C30.3956 169.01 31.8175 169.149 33.2548 169.288C37.1494 169.659 41.0441 170.045 44.9387 170.416C50.6879 170.972 56.4526 171.529 62.2019 172.085C69.2184 172.765 76.2504 173.445 83.2669 174.125C90.9326 174.867 98.5982 175.609 106.264 176.351C114.022 177.108 121.796 177.85 129.554 178.607C136.787 179.303 144.036 180.014 151.269 180.709C157.389 181.296 163.509 181.899 169.629 182.486C174.034 182.919 178.423 183.336 182.828 183.769C184.898 183.97 186.985 184.233 189.056 184.372C189.149 184.372 189.241 184.387 189.334 184.403C189.597 184.434 189.751 184.264 189.767 184.063C189.612 184.526 188.809 184.495 188.87 183.939C188.87 183.877 188.886 183.815 188.886 183.769C188.886 183.661 188.886 183.553 188.901 183.445C187.619 183.321 186.336 183.197 185.053 183.074C181.158 182.703 177.264 182.316 173.369 181.945C167.62 181.389 161.855 180.833 156.106 180.276C149.089 179.596 142.057 178.916 135.041 178.236C127.375 177.494 119.71 176.753 112.044 176.011C104.286 175.253 96.5118 174.512 88.7534 173.754C81.5205 173.059 74.2722 172.348 67.0392 171.652C60.9191 171.065 54.799 170.462 48.6788 169.875C44.2742 169.442 39.885 169.025 35.4803 168.592C34.1203 168.453 32.7602 168.33 31.3847 168.191C30.7666 168.129 30.102 168.005 29.4683 167.99C29.4529 168.129 29.4374 168.283 29.422 168.422C29.2674 168.268 29.1129 168.113 28.9583 167.959C29.0511 167.974 29.1438 167.99 29.2365 167.99C29.3138 167.99 29.3911 167.99 29.4683 167.99C29.7929 164.62 30.1174 161.267 30.442 157.898C31.2457 149.536 32.0648 141.175 32.8684 132.814C33.8421 122.707 34.8157 112.599 35.8049 102.492C36.6549 93.7287 37.5049 84.9813 38.3395 76.2183C38.6177 73.3437 38.8958 70.4691 39.174 67.579C39.2668 66.6826 39.344 65.7862 39.4368 64.9053C39.4677 64.5653 39.5604 64.1789 39.5759 63.808C39.4213 63.7926 39.2668 63.7771 39.1277 63.7616C39.2822 63.6071 39.4368 63.4525 39.5913 63.298C39.5913 63.3598 39.5759 63.4216 39.5759 63.468C39.5913 63.5762 39.5913 63.6844 39.5759 63.808C40.8586 63.9316 42.1414 64.0553 43.4087 64.1789C47.3033 64.5498 51.198 64.9362 55.0926 65.3071C60.8418 65.8635 66.6065 66.4199 72.3557 66.9763C79.3723 67.6563 86.4043 68.3363 93.4208 69.0163C101.086 69.7582 108.752 70.5 116.418 71.2418C124.176 71.9991 131.95 72.741 139.708 73.4982C146.941 74.1937 154.19 74.9046 161.422 75.6001C167.543 76.1874 173.663 76.7901 179.783 77.3774C184.188 77.8102 188.577 78.2275 192.981 78.6602C194.341 78.7993 195.701 78.9229 197.077 79.062C197.695 79.1238 198.36 79.2475 198.993 79.2629C199.009 79.1238 199.024 78.9693 199.04 78.8302C199.194 78.9847 199.349 79.1393 199.503 79.2938C199.411 79.2784 199.318 79.2629 199.225 79.2629C199.148 79.2629 199.071 79.2629 198.993 79.2629C198.669 82.6321 198.344 85.9858 198.02 89.355C197.216 97.7161 196.397 106.077 195.593 114.438C194.62 124.546 193.646 134.653 192.657 144.761C191.807 153.524 190.957 162.271 190.122 171.034C189.844 173.909 189.566 176.783 189.288 179.674C189.164 180.925 188.948 182.193 188.901 183.46C189.04 183.475 189.195 183.491 189.334 183.506C189.659 183.537 189.813 183.831 189.767 184.094C189.782 184.063 189.782 184.016 189.798 183.97C190.138 180.462 190.478 176.953 190.818 173.445C191.621 165.084 192.44 156.723 193.244 148.362C194.218 138.254 195.191 128.147 196.181 118.039C197.031 109.276 197.881 100.529 198.715 91.766C198.993 88.8913 199.272 86.0167 199.55 83.1267C199.673 81.7666 199.921 80.3757 199.952 79.0157C199.952 78.9538 199.967 78.892 199.967 78.8457C199.998 78.5829 199.735 78.3975 199.503 78.382C198.066 78.2429 196.644 78.1038 195.207 77.9647C191.312 77.5938 187.418 77.2074 183.523 76.8365C177.774 76.2801 172.009 75.7238 166.26 75.1674C159.243 74.4874 152.211 73.8073 145.195 73.1273C137.529 72.3546 129.864 71.6127 122.198 70.8709Z" fill="#DDDDDD"/>
<path d="M189.333 183.46C189.194 183.445 189.039 183.43 188.9 183.414C188.9 183.522 188.885 183.63 188.885 183.739C188.885 183.8 188.869 183.862 188.869 183.909C188.823 184.465 189.611 184.496 189.766 184.032C189.812 183.8 189.657 183.491 189.333 183.46Z" fill="#DDDDDD"/>
<path d="M199.502 79.2644C199.348 79.1099 199.193 78.9553 199.039 78.8008C199.023 78.9399 199.008 79.0944 198.992 79.2335C199.069 79.2335 199.147 79.2335 199.224 79.2335C199.317 79.249 199.409 79.2644 199.502 79.2644Z" fill="#DDDDDD"/>
<path d="M39.8371 180.954C39.8371 180.954 38.2916 177.152 33.9642 177.368C29.6368 177.585 27.6432 183.257 30.1623 187.708C32.7587 192.282 38.3689 196.038 38.3689 196.038C38.3689 196.038 44.5972 193.426 48.0282 189.439C51.3665 185.544 50.4855 179.594 46.2818 178.558C42.0781 177.523 39.8371 180.954 39.8371 180.954Z" fill="#EEEEEE"/>
<path d="M30.0539 180.814C30.0229 180.844 30.0693 180.736 30.0539 180.814V180.814Z" fill="#DDDDDD"/>
<path d="M31.6016 178.715C31.617 178.715 31.617 178.715 31.6016 178.715C31.6325 178.699 31.6325 178.699 31.6016 178.715Z" fill="#DDDDDD"/>
<path d="M37.2725 194.663C37.2261 194.632 37.3497 194.725 37.2725 194.663V194.663Z" fill="#DDDDDD"/>
<path d="M46.8086 179.223C46.8086 179.223 46.824 179.223 46.824 179.238C46.8395 179.223 46.8395 179.223 46.8086 179.223Z" fill="#DDDDDD"/>
<path d="M49.125 181.602C49.1405 181.617 49.1405 181.617 49.125 181.602V181.602Z" fill="#DDDDDD"/>
<path d="M47.7515 179.766L47.767 179.781C47.7515 179.781 47.7206 179.751 47.7515 179.766Z" fill="#DDDDDD"/>
<path d="M48.5078 180.523L48.5233 180.539C48.5233 180.554 48.5233 180.554 48.5078 180.523Z" fill="#DDDDDD"/>
<path d="M38.1836 195.62C38.199 195.62 38.23 195.604 38.2609 195.589C38.3845 195.604 38.4927 195.62 38.6163 195.635C38.5545 195.589 38.4927 195.543 38.4309 195.512C38.3536 195.543 38.2609 195.589 38.1836 195.62Z" fill="#DDDDDD"/>
<path d="M40.3164 181.078C40.3628 181.032 40.3937 181.001 40.3164 181.078V181.078Z" fill="#DDDDDD"/>
<path d="M39.4219 181.141C39.4373 181.172 39.4373 181.202 39.4219 181.141V181.141Z" fill="#DDDDDD"/>
<path d="M46.16 179.009C46.7473 179.148 46.9946 178.251 46.4073 178.112C45.82 177.973 45.5727 178.87 46.16 179.009Z" fill="#DDDDDD"/>
<path d="M39.4375 180.724C39.7157 180.755 40.0093 180.801 40.2875 180.832C40.1793 180.585 40.0712 180.337 39.9321 180.105C39.9012 180.136 39.8702 180.167 39.8393 180.214C39.7002 180.368 39.5611 180.538 39.4375 180.724Z" fill="#DDDDDD"/>
<path d="M46.4058 178.111C46.993 178.25 46.7458 179.146 46.1585 179.007C46.3594 179.054 46.5603 179.115 46.7612 179.193C46.7767 179.193 46.823 179.224 46.8385 179.224C46.8385 179.224 46.8231 179.224 46.8231 179.208C46.854 179.224 46.854 179.224 46.8385 179.224C46.8849 179.239 46.9158 179.255 46.9622 179.27C47.0549 179.316 47.1476 179.363 47.2249 179.409C47.3949 179.502 47.5494 179.61 47.704 179.718C47.7194 179.734 47.7349 179.749 47.7503 179.749C47.7349 179.734 47.7658 179.765 47.7658 179.765L47.7503 179.749C47.7813 179.78 47.8122 179.796 47.8431 179.826C47.9203 179.888 47.9976 179.966 48.0749 180.043C48.214 180.166 48.3376 180.306 48.4613 180.46C48.4767 180.476 48.5231 180.537 48.5231 180.537L48.5076 180.522C48.5231 180.537 48.5231 180.553 48.5231 180.537C48.5385 180.568 48.5695 180.584 48.5849 180.615C48.6467 180.692 48.6931 180.769 48.7549 180.862C48.8631 181.032 48.9558 181.202 49.0486 181.387C49.064 181.418 49.0795 181.465 49.1104 181.511C49.1258 181.526 49.1413 181.588 49.1567 181.619C49.1567 181.635 49.1876 181.696 49.1876 181.712C49.2031 181.758 49.234 181.82 49.2495 181.866C49.8213 183.458 49.7131 185.143 49.1258 186.735C48.9867 187.121 48.7858 187.538 48.554 187.94C48.3222 188.342 48.0594 188.728 47.7658 189.053C47.1012 189.841 46.3594 190.537 45.5712 191.186C44.1494 192.36 42.542 193.396 40.9038 194.292C40.1002 194.725 39.281 195.142 38.4465 195.513C38.5083 195.56 38.5701 195.606 38.6319 195.637C38.5083 195.621 38.4001 195.606 38.2765 195.59C38.2456 195.606 38.2147 195.621 38.1992 195.621C38.1374 195.652 38.1683 195.637 38.1992 195.621C38.1992 195.621 38.1992 195.621 38.2147 195.621C38.2919 195.59 38.3692 195.544 38.4465 195.513C38.1528 195.312 37.8746 195.111 37.5965 194.895C37.5192 194.833 37.4419 194.771 37.3646 194.71C37.3492 194.694 37.3183 194.679 37.3028 194.663C37.241 194.617 37.3801 194.725 37.3028 194.663C37.2565 194.632 37.2101 194.586 37.1637 194.555C36.9628 194.4 36.7619 194.23 36.561 194.076C36.1128 193.705 35.6646 193.334 35.2473 192.948C34.2273 192.036 33.2536 191.062 32.3727 189.996C31.5227 188.976 30.6417 187.786 30.1626 186.565C29.6835 185.359 29.4826 184.169 29.5908 182.871C29.6217 182.562 29.6372 182.392 29.7145 182.067C29.7763 181.789 29.8535 181.511 29.9463 181.233C29.9926 181.109 30.039 180.97 30.0854 180.846C30.0854 180.831 30.0854 180.831 30.1008 180.816C30.0854 180.846 30.1317 180.738 30.1008 180.816C30.1008 180.816 30.1008 180.816 30.1008 180.8C30.1163 180.769 30.1317 180.738 30.1472 180.692C30.1781 180.63 30.209 180.553 30.2399 180.491C30.3636 180.244 30.5027 179.996 30.6727 179.765C30.7654 179.641 30.8117 179.579 30.8581 179.502C30.9508 179.394 31.0281 179.285 31.1208 179.193C31.2136 179.1 31.3063 179.007 31.399 178.915C31.4454 178.868 31.4918 178.822 31.5381 178.791C31.5536 178.775 31.5845 178.76 31.6 178.729C31.6154 178.729 31.6309 178.698 31.6463 178.683C31.6463 178.683 31.6309 178.683 31.6309 178.698C31.6618 178.683 31.6618 178.683 31.6463 178.683C31.8627 178.528 32.0791 178.374 32.3109 178.265C32.5582 178.142 32.6973 178.08 33.0063 177.987C33.13 177.956 33.2691 177.91 33.3927 177.895C33.4545 177.879 33.5164 177.879 33.5627 177.864C33.5627 177.864 33.6091 177.864 33.64 177.848C33.6245 177.848 33.6245 177.848 33.64 177.848C33.6555 177.848 33.6709 177.848 33.64 177.848C33.6709 177.848 33.7173 177.833 33.7327 177.833C34.0573 177.802 34.3818 177.802 34.7064 177.817C35.0464 177.833 35.2628 177.864 35.5873 177.941C35.881 178.003 36.1591 178.095 36.4373 178.204C36.4528 178.219 36.4837 178.219 36.4992 178.235C36.4837 178.235 36.4837 178.235 36.5146 178.25C36.5146 178.25 36.4992 178.25 36.4992 178.235C36.5146 178.235 36.5301 178.25 36.5301 178.25C36.5919 178.281 36.6692 178.312 36.731 178.343C36.8546 178.405 36.9628 178.466 37.0865 178.528C37.2874 178.652 37.4883 178.775 37.6737 178.93C37.6583 178.915 37.6583 178.915 37.6892 178.945L37.6737 178.93C37.6892 178.945 37.751 178.992 37.7665 179.007C37.8128 179.038 37.8592 179.085 37.8901 179.115C37.9828 179.193 38.0756 179.27 38.1528 179.363C38.3074 179.502 38.4465 179.656 38.5701 179.811C38.601 179.842 38.6319 179.888 38.6628 179.919C38.6628 179.935 38.6938 179.966 38.7247 179.996C38.7092 179.981 38.7092 179.981 38.7247 179.996C38.7401 180.012 38.7401 180.027 38.7247 179.996C38.7401 180.012 38.771 180.058 38.7865 180.074C38.8174 180.105 38.8483 180.151 38.8638 180.182C38.9565 180.306 39.0492 180.445 39.1265 180.584C39.2347 180.754 39.3274 180.924 39.4047 181.109C39.4047 181.125 39.4201 181.125 39.4201 181.14C39.4201 181.125 39.4047 181.109 39.3892 181.078C39.5438 181.449 40.0074 181.542 40.2393 181.186C40.2547 181.156 40.2856 181.125 40.3011 181.094C40.3011 181.078 40.3165 181.078 40.332 181.063C40.332 181.063 40.3165 181.063 40.3165 181.078C40.3629 181.047 40.3938 180.986 40.4247 180.939C40.6411 180.676 40.9038 180.414 41.1666 180.182C41.2438 180.12 41.3211 180.043 41.4138 179.981C41.352 180.027 41.4911 179.919 41.4138 179.981C41.4293 179.966 41.4602 179.95 41.4757 179.935C41.522 179.888 41.5838 179.857 41.6302 179.826C41.8466 179.687 42.0629 179.548 42.2948 179.425C42.4029 179.363 42.5266 179.301 42.6502 179.255C42.6502 179.255 42.6811 179.239 42.712 179.224C42.6811 179.239 42.6966 179.224 42.712 179.224C42.7275 179.224 42.743 179.208 42.712 179.224C42.743 179.208 42.7739 179.193 42.7739 179.193C42.8511 179.162 42.9284 179.131 43.0057 179.115C43.2993 179.007 43.6084 178.93 43.9175 178.884C44.0566 178.853 44.1803 178.837 44.3812 178.837C44.5666 178.822 44.7676 178.822 44.953 178.822C45.3857 178.837 45.7567 178.899 46.1894 178.992C45.5712 178.868 45.8185 177.972 46.4058 178.111C44.953 177.755 43.4539 177.864 42.0939 178.482C41.2747 178.853 40.5329 179.425 39.9302 180.105C40.0693 180.336 40.1929 180.584 40.2856 180.831C40.0074 180.8 39.7138 180.754 39.4356 180.723C39.5592 180.537 39.6983 180.383 39.8374 180.213C39.8683 180.182 39.8993 180.151 39.9302 180.105C39.5129 179.378 38.9256 178.745 38.2765 178.235C36.5455 176.89 34.0882 176.457 32.0636 177.354C30.1317 178.219 28.9881 180.275 28.6944 182.299C28.5244 183.458 28.6017 184.648 28.8953 185.777C29.2199 187.013 29.8381 188.126 30.5645 189.161C31.9554 191.155 33.7173 192.901 35.5873 194.462C36.221 194.988 36.8855 195.513 37.5501 195.992C37.7201 196.116 37.8746 196.224 38.0447 196.348C38.2301 196.471 38.4156 196.502 38.6165 196.41C39.8065 195.9 40.9656 195.297 42.0784 194.648C44.1803 193.427 46.2358 192.005 47.9049 190.228C48.7704 189.316 49.4504 188.296 49.914 187.137C50.3159 186.117 50.5322 184.988 50.5168 183.891C50.4859 181.851 49.6049 179.749 47.7967 178.667C47.3794 178.435 46.9003 178.235 46.4058 178.111Z" fill="#DDDDDD"/>
<path d="M36.4828 178.248C36.4828 178.248 36.4983 178.248 36.4983 178.264C36.4674 178.233 36.4674 178.233 36.4828 178.248Z" fill="#DDDDDD"/>
<path d="M42.6975 179.238C42.6666 179.238 42.6821 179.238 42.6975 179.238C42.713 179.223 42.7284 179.223 42.6975 179.238Z" fill="#DDDDDD"/>
<path d="M38.7249 179.994C38.694 179.963 38.7094 179.979 38.7249 179.994C38.7249 180.01 38.7403 180.025 38.7249 179.994Z" fill="#DDDDDD"/>
<path d="M37.6586 178.93L37.674 178.945C37.6431 178.93 37.6431 178.93 37.6586 178.93Z" fill="#DDDDDD"/>
<path d="M41.3992 179.996C41.3373 180.043 41.4764 179.934 41.3992 179.996V179.996Z" fill="#DDDDDD"/>
<path d="M64.7603 54.3719C69.7938 49.3383 69.7938 41.1773 64.7603 36.1437C59.7267 31.1101 51.5656 31.1101 46.5321 36.1437C41.4985 41.1773 41.4985 49.3383 46.5321 54.3719C51.5656 59.4055 59.7267 59.4055 64.7603 54.3719Z" fill="#EEEEEE"/>
<path d="M68.3549 47.624C68.123 47.5622 67.8449 47.7013 67.783 47.9486C67.7367 48.1958 67.8603 48.4431 68.1076 48.5204C68.3394 48.5822 68.6176 48.4431 68.6794 48.1958C68.7413 47.9486 68.6021 47.6858 68.3549 47.624Z" fill="#DDDDDD"/>
<path d="M62.8666 34.0087C60.5175 32.4942 57.6737 31.7523 54.8919 31.9223C52.1873 32.0769 49.5754 33.0814 47.4426 34.7351C45.2789 36.4043 43.6871 38.7534 42.8834 41.3653C42.0797 44.0081 42.1106 46.8827 42.9916 49.4946C43.857 52.0755 45.4953 54.332 47.6744 55.9702C49.8845 57.6393 52.6509 58.5666 55.4173 58.6284C58.1219 58.6902 60.8266 57.8866 63.083 56.3875C65.3548 54.8729 67.1012 52.6783 68.1058 50.1437C68.3531 49.51 68.554 48.8609 68.7086 48.1964C68.6467 48.4436 68.3686 48.5827 68.1367 48.5209C67.8895 48.4591 67.7658 48.1964 67.8122 47.9491C67.2403 50.4837 65.9267 52.771 63.9948 54.502C63.083 55.3211 62.032 56.0166 60.8729 56.5575C59.8065 57.052 58.4774 57.4384 57.3337 57.593C54.7219 57.9484 52.0482 57.4384 49.7454 56.202C47.5199 54.9965 45.7271 53.1419 44.5834 50.901C44.0271 49.8037 43.6252 48.5982 43.4089 47.3309C43.208 46.1563 43.177 44.7499 43.347 43.5753C43.5325 42.2462 43.9343 40.948 44.5062 39.7734C45.078 38.6143 45.7889 37.5943 46.6699 36.6824C48.4163 34.8588 50.6572 33.6069 53.13 33.0969C55.6337 32.5714 58.3847 32.8651 60.7184 33.916C63.0366 34.9669 64.9839 36.6824 66.2822 38.8307C67.5958 41.0098 68.214 43.5135 68.0595 46.0636C68.0131 46.7281 67.9358 47.3 67.7967 47.9491C67.8585 47.7018 68.1367 47.5627 68.3686 47.6245C68.6158 47.6863 68.7549 47.9491 68.6931 48.1964C69.2959 45.4608 69.0486 42.6171 67.9513 40.0516C66.9003 37.5788 65.1076 35.4615 62.8666 34.0087Z" fill="#DDDDDD"/>
<path d="M48.8945 52.7722L54.8601 53.3441L60.8257 53.9159C60.8257 53.9159 61.7376 48.0276 57.8429 46.0184C59.3266 45.3693 60.4239 43.9475 60.5784 42.232C60.8257 39.6819 58.9557 37.4255 56.4211 37.1782C53.8865 36.9309 51.6146 38.801 51.3673 41.3356C51.1973 43.0665 52.001 44.6584 53.3301 45.5857C49.1263 46.8066 48.8945 52.7722 48.8945 52.7722Z" fill="white"/>
<path d="M52.9453 46.2186H52.9608C52.9762 46.2032 52.9762 46.2032 52.9453 46.2186Z" fill="#DDDDDD"/>
<path d="M51.9531 46.8049L51.9686 46.7895C51.984 46.774 51.9531 46.8049 51.9531 46.8049Z" fill="#DDDDDD"/>
<path d="M57.41 45.8789C57.41 45.8944 57.41 45.9098 57.3945 45.9253C57.3945 45.9098 57.41 45.8944 57.41 45.8789Z" fill="#DDDDDD"/>
<path d="M51.0742 47.6873L51.0897 47.6719C51.0742 47.7028 51.0742 47.7028 51.0742 47.6873Z" fill="#DDDDDD"/>
<path d="M57.3944 45.9258C57.3944 45.9412 57.3944 45.9567 57.3789 45.9876C57.3944 45.9721 57.3944 45.9567 57.3944 45.9258Z" fill="#DDDDDD"/>
<path d="M60.3906 53.7926C60.3906 53.7463 60.3906 53.7617 60.3906 53.7926C60.5452 53.6844 60.6843 53.5608 60.8388 53.4526C60.6997 53.4372 60.5606 53.4217 60.4215 53.4062C60.4061 53.499 60.4061 53.6072 60.3906 53.6999C60.3906 53.7463 60.3906 53.7772 60.3906 53.7926Z" fill="#DDDDDD"/>
<path d="M59.8203 48.875C59.8203 48.8905 59.8358 48.8905 59.8358 48.9059C59.8358 48.875 59.8203 48.875 59.8203 48.875Z" fill="#DDDDDD"/>
<path d="M59.1412 47.6868C59.1257 47.6714 59.1566 47.7178 59.1412 47.6868V47.6868Z" fill="#DDDDDD"/>
<path d="M60.378 50.9645V50.98C60.3625 50.9182 60.378 50.9336 60.378 50.9645Z" fill="#DDDDDD"/>
<path d="M49.3582 52.7722C49.3582 52.6331 49.3736 52.4941 49.3891 52.355C49.2191 52.3395 49.0645 52.324 48.8945 52.3086C49.0491 52.4631 49.2036 52.6177 49.3582 52.7722Z" fill="#DDDDDD"/>
<path d="M50.1602 49.3105C50.1756 49.2641 50.1756 49.2796 50.1602 49.3105V49.3105Z" fill="#DDDDDD"/>
<path d="M57.578 46.4022L57.5625 46.3867C57.578 46.4022 57.578 46.4022 57.578 46.4022Z" fill="#DDDDDD"/>
<path d="M57.4407 45.7875C57.4253 45.8029 57.4098 45.8338 57.4098 45.8647V45.8802C57.4098 45.8957 57.4098 45.9111 57.3944 45.9266C57.3944 45.942 57.3944 45.9575 57.3789 45.9884C57.3789 46.0038 57.3789 46.0038 57.3789 46.0193C57.3789 46.0348 57.3789 46.0657 57.3789 46.0811C57.3789 46.0966 57.3789 46.0966 57.3789 46.112C57.3789 46.1275 57.3789 46.1429 57.3944 46.1584C57.3944 46.1738 57.4098 46.1893 57.4098 46.1893C57.4098 46.2048 57.4253 46.2202 57.4253 46.2357C57.4253 46.2357 57.4253 46.2511 57.4407 46.2511C57.4562 46.282 57.4716 46.2975 57.4871 46.3129C57.5026 46.3284 57.518 46.3439 57.5489 46.3593L57.5644 46.3748C57.7035 46.4675 57.8889 46.4675 58.0589 46.3902C58.2908 46.282 58.5226 46.1584 58.7389 46.0193C58.5226 45.8647 58.2908 45.7257 58.0589 45.5866C57.858 45.5093 57.5798 45.5711 57.4407 45.7875Z" fill="#DDDDDD"/>
<path d="M53.0982 45.9867C53.1291 45.7086 53.1754 45.4149 53.2063 45.1367C52.9436 45.214 52.6809 45.3222 52.4336 45.4304C52.65 45.6313 52.8663 45.8167 53.0982 45.9867Z" fill="#DDDDDD"/>
<path d="M49.6204 48.2743C49.0486 49.4025 48.6931 50.6389 48.5231 51.8753C48.4768 52.1689 48.4459 52.4626 48.4304 52.7562C48.415 53.019 48.6468 53.189 48.8941 53.2199C50.6405 53.3899 52.3869 53.5599 54.1333 53.7299C55.5551 53.869 56.977 54.0081 58.4143 54.1472C59.218 54.2244 60.0371 54.3017 60.8407 54.379C61.0262 54.3944 61.258 54.2245 61.2889 54.039C61.3971 53.2972 61.428 52.5244 61.3816 51.7826C61.3044 50.3144 60.9798 48.7843 60.1762 47.5325C59.8052 46.9606 59.3261 46.4506 58.7697 46.0488C58.5534 46.1879 58.3216 46.3115 58.0897 46.4197C57.9197 46.497 57.7343 46.497 57.5952 46.4043C57.6106 46.4043 57.6106 46.4197 57.6261 46.4197C57.8116 46.5124 57.9815 46.6206 58.1515 46.7288C58.1979 46.7597 58.2443 46.7906 58.2752 46.8215C58.2907 46.837 58.3679 46.8988 58.3525 46.8834C58.3834 46.8988 58.507 47.007 58.5534 47.0534C58.6925 47.177 58.8316 47.3161 58.9552 47.4552C59.017 47.517 59.0788 47.5943 59.1407 47.6716C59.1407 47.687 59.1561 47.687 59.1561 47.687C59.1407 47.6716 59.1716 47.7025 59.1561 47.687C59.1561 47.687 59.1561 47.7025 59.1716 47.7025C59.2025 47.7488 59.2334 47.7797 59.2643 47.8261C59.4807 48.1198 59.6507 48.4443 59.8052 48.7843C59.8207 48.8152 59.8361 48.8461 59.8361 48.877C59.8361 48.877 59.8361 48.877 59.8516 48.908C59.8516 48.8925 59.8361 48.8925 59.8361 48.877C59.8361 48.877 59.8671 48.9389 59.8671 48.9698C59.898 49.0471 59.9289 49.1398 59.9598 49.2171C60.0216 49.3871 60.0834 49.5571 60.1298 49.7425C60.2225 50.0671 60.2998 50.4071 60.3462 50.7471C60.3616 50.8244 60.3771 50.9016 60.3771 50.9789C60.3771 50.948 60.3771 50.948 60.3771 50.9944V50.9789C60.3771 50.9944 60.3771 51.0098 60.3771 51.0253C60.3771 51.0716 60.3925 51.118 60.3925 51.1798C60.408 51.3344 60.4234 51.4889 60.4389 51.6435C60.4698 52.1535 60.4698 52.679 60.4389 53.2044C60.4389 53.2817 60.4234 53.3744 60.4234 53.4517C60.5625 53.4672 60.7016 53.4826 60.8407 53.4981C60.6862 53.6063 60.5471 53.7299 60.3925 53.8381C60.3925 53.8072 60.408 53.7917 60.3925 53.8381C60.3925 53.8072 60.3925 53.7763 60.408 53.7453C60.4234 53.6526 60.4234 53.5444 60.4389 53.4517C58.8316 53.2971 57.2243 53.1426 55.617 52.9881C54.1951 52.849 52.7732 52.7099 51.3359 52.5708C50.6868 52.509 50.0532 52.4471 49.4041 52.3853C49.3886 52.5244 49.3732 52.6635 49.3732 52.8026C49.2186 52.6481 49.0641 52.4935 48.9095 52.339C49.0795 52.3544 49.2341 52.3699 49.4041 52.3853C49.4041 52.3235 49.4195 52.2771 49.4195 52.2153C49.4195 52.1689 49.4195 52.1226 49.435 52.0762C49.3886 52.2153 49.435 52.0762 49.4504 52.0144C49.4659 51.9062 49.4814 51.7826 49.5123 51.6744C49.5586 51.3962 49.6204 51.1335 49.6823 50.8553C49.7595 50.5462 49.8368 50.2525 49.945 49.9589C49.9914 49.8043 50.0532 49.6498 50.115 49.4952C50.1304 49.4489 50.1459 49.418 50.1614 49.3716C50.1614 49.3562 50.1768 49.3407 50.1768 49.3252V49.3407C50.1923 49.2943 50.1923 49.3098 50.1768 49.3252C50.2077 49.248 50.2386 49.1707 50.285 49.0934C50.4396 48.7689 50.6096 48.4443 50.795 48.1507C50.8877 48.0116 50.9805 47.857 51.0887 47.7334C51.0732 47.7488 51.0732 47.7488 51.1041 47.7179L51.0887 47.7334C51.1041 47.7179 51.1196 47.7025 51.135 47.687C51.1659 47.6561 51.1968 47.6097 51.2278 47.5788C51.2896 47.5016 51.3514 47.4397 51.4132 47.3625C51.5523 47.2079 51.7069 47.0688 51.8769 46.9297C51.9078 46.8988 51.9541 46.8679 51.9851 46.837L51.9696 46.8525C51.9696 46.8525 52.016 46.8215 51.9851 46.837C52.0005 46.8215 52.0314 46.8061 52.0469 46.7906C52.1241 46.7288 52.2169 46.667 52.3096 46.6206C52.4951 46.497 52.696 46.3888 52.8969 46.2961C52.9123 46.2961 52.9742 46.2652 52.9896 46.2497H52.9742C52.9896 46.2343 53.0051 46.2343 52.9896 46.2497C53.036 46.2343 53.0824 46.2033 53.1442 46.1879C53.2524 46.1415 53.376 46.1106 53.4842 46.0797C53.886 45.9561 53.9169 45.4615 53.5923 45.2297C52.9742 44.7815 52.4641 44.1633 52.1551 43.4369C51.8614 42.7569 51.7687 41.9223 51.8769 41.2269C52.0932 39.805 52.9742 38.6459 54.2569 38.0277C54.5197 37.904 54.906 37.7804 55.246 37.7186C55.4315 37.6877 55.4933 37.6722 55.6942 37.6568C55.8951 37.6413 56.0806 37.6413 56.2815 37.6568C56.9615 37.7031 57.6415 37.9195 58.2288 38.2904C59.3879 39.0168 60.1298 40.3459 60.1607 41.706C60.1916 43.4215 59.187 44.936 57.6261 45.6315C57.5334 45.6779 57.4561 45.7706 57.4252 45.8633C57.4406 45.8324 57.4406 45.817 57.4561 45.7861C57.5797 45.5697 57.8734 45.5079 58.0897 45.6161C58.3216 45.7397 58.5534 45.8788 58.7697 46.0488C60.068 45.1988 60.918 43.7924 61.0571 42.2314C61.2116 40.5778 60.5007 38.8777 59.2025 37.8422C57.8425 36.7604 55.9879 36.3895 54.3342 36.9768C52.7423 37.5331 51.4905 38.8468 51.0578 40.485C50.5787 42.2933 51.1505 44.1633 52.4487 45.4461C52.696 45.3224 52.9433 45.2297 53.2214 45.1524C53.1905 45.4306 53.1442 45.7242 53.1132 46.0024C52.8814 45.8324 52.6651 45.647 52.4487 45.4461C51.2123 46.0179 50.2541 47.0534 49.6204 48.2743Z" fill="#DDDDDD"/>
<path d="M57.4102 46.1562C57.4102 46.1717 57.4256 46.1872 57.4256 46.1872C57.4102 46.1872 57.4102 46.1717 57.4102 46.1562Z" fill="#DDDDDD"/>
<path d="M57.3945 46.1094C57.3945 46.1248 57.3945 46.1403 57.41 46.1557C57.41 46.1403 57.3945 46.1248 57.3945 46.1094Z" fill="#DDDDDD"/>
<path d="M57.4569 46.2655C57.4569 46.2655 57.4569 46.25 57.4414 46.25C57.4414 46.25 57.4414 46.25 57.4569 46.2655Z" fill="#DDDDDD"/>
<path d="M77.9489 38.4418L77.6862 41.1155C77.6553 41.4555 77.9026 41.7646 78.2426 41.7955L187.184 52.3358C187.524 52.3667 187.833 52.1194 187.864 51.7794L188.127 49.1057C188.158 48.7657 187.911 48.4566 187.571 48.4257L78.6289 37.8854C78.2889 37.8545 77.9953 38.1018 77.9489 38.4418Z" fill="#DDDDDD"/>
<path d="M77.2224 45.9995L76.9596 48.6732C76.9287 49.0132 77.176 49.3223 77.516 49.3532L186.458 59.8934C186.798 59.9243 187.107 59.6771 187.138 59.3371L187.401 56.6634C187.431 56.3234 187.184 56.0143 186.844 55.9833L77.9024 45.4431C77.5624 45.3967 77.2533 45.644 77.2224 45.9995Z" fill="#DDDDDD"/>
<path d="M76.4958 53.5431L76.2331 56.2168C76.2022 56.5568 76.4495 56.8659 76.7895 56.8968L185.731 67.437C186.071 67.4679 186.38 67.2207 186.411 66.8807L186.674 64.207C186.705 63.8669 186.458 63.5578 186.118 63.5269L77.1758 52.9712C76.8358 52.9403 76.5267 53.203 76.4958 53.5431Z" fill="#DDDDDD"/>
<path d="M75.6951 189.794C76.1433 185.158 72.7587 181.047 68.1222 180.598C63.4858 180.15 59.3748 183.535 58.9266 188.171C58.4784 192.808 61.863 196.919 66.4995 197.367C67.674 197.475 68.8177 197.352 69.8841 197.012L72.5733 199.345L72.4187 195.682C74.2115 194.322 75.4479 192.221 75.6951 189.794Z" fill="#EEEEEE"/>
<path d="M72.8814 199.023C72.6033 198.776 72.3251 198.529 72.0469 198.281C72.0623 198.637 72.0778 198.992 72.0932 199.348C72.356 199.239 72.6187 199.131 72.8814 199.023Z" fill="#DDDDDD"/>
<path d="M67.6562 180.599C67.6562 180.877 67.8726 181.032 68.1199 181.063C68.3672 181.094 68.5835 180.831 68.5835 180.599C68.5835 180.336 68.3672 180.166 68.1199 180.135C67.8572 180.104 67.6562 180.367 67.6562 180.599Z" fill="#DDDDDD"/>
<path d="M69.543 197.336C69.6202 197.398 69.6821 197.46 69.7593 197.521C69.8366 197.506 69.9139 197.475 69.9912 197.46C69.8366 197.413 69.6975 197.382 69.543 197.336Z" fill="#DDDDDD"/>
<path d="M75.3997 192.639C76.0024 191.279 76.2806 189.795 76.157 188.311C75.9561 185.638 74.5342 183.18 72.3396 181.65C71.0878 180.785 69.6196 180.275 68.105 180.12C68.3523 180.151 68.5686 180.321 68.5686 180.584C68.5686 180.816 68.3523 181.078 68.105 181.047C69.7432 181.217 71.3814 181.928 72.6178 183.041C73.8542 184.154 74.7042 185.591 75.0751 187.214C75.477 188.945 75.2606 190.892 74.426 192.53C74.0088 193.365 73.4524 194.107 72.7724 194.756C72.6024 194.911 72.4324 195.065 72.2469 195.204C72.0769 195.343 71.9378 195.451 71.9378 195.699C71.9378 195.838 71.9533 195.977 71.9533 196.116C71.9842 196.827 72.0151 197.553 72.046 198.264C72.3242 198.512 72.6024 198.759 72.8805 199.006C72.6178 199.114 72.3551 199.222 72.0923 199.331C72.0769 198.975 72.0614 198.62 72.046 198.264C71.4432 197.723 70.825 197.182 70.2068 196.672C69.8977 196.425 69.5423 196.611 69.2177 196.703C68.8468 196.796 68.4759 196.858 68.0895 196.904C67.6877 196.935 67.2704 196.951 66.8686 196.935C66.5286 196.92 66.2658 196.889 65.9567 196.827C64.7976 196.626 63.7776 196.209 62.8039 195.544C61.923 194.941 61.1193 194.091 60.5475 193.18C59.9448 192.221 59.5739 191.186 59.4193 190.027C59.4193 190.011 59.4039 189.903 59.4039 189.888C59.4039 189.81 59.3884 189.749 59.3884 189.671C59.3729 189.517 59.3729 189.347 59.3575 189.192C59.3575 188.899 59.3575 188.605 59.3884 188.296C59.4348 187.739 59.543 187.168 59.713 186.596C60.0375 185.545 60.6093 184.54 61.3203 183.721C62.0775 182.871 62.9276 182.222 63.9631 181.727C64.9522 181.264 66.1113 181.001 67.224 181.001C67.5177 181.001 67.8268 181.017 68.1204 181.047C67.8731 181.017 67.6568 180.862 67.6568 180.584C67.6568 180.352 67.8731 180.089 68.1204 180.12C66.1422 179.935 64.1176 180.429 62.4485 181.527C60.7948 182.608 59.5275 184.231 58.8938 186.101C58.2447 188.002 58.2602 190.15 58.9711 192.036C59.6511 193.875 60.9339 195.451 62.5876 196.502C64.504 197.708 66.8377 198.125 69.0477 197.692C69.295 197.646 69.5268 197.584 69.7587 197.522C69.6814 197.461 69.6196 197.399 69.5423 197.337C69.6968 197.383 69.8359 197.414 69.9905 197.461C69.9132 197.492 69.8359 197.507 69.7587 197.522C70.4696 198.141 71.1805 198.759 71.8914 199.377C71.9996 199.47 72.1233 199.578 72.2314 199.671C72.5096 199.918 73.0351 199.763 73.0196 199.346C72.9733 198.28 72.9269 197.213 72.8805 196.147C72.8805 196.07 72.8805 195.977 72.8651 195.9C72.7878 195.961 72.7105 196.023 72.6333 196.101C72.7105 195.961 72.7878 195.838 72.8651 195.699C72.8651 195.761 72.8651 195.838 72.8805 195.9C73.9469 195.019 74.8433 193.921 75.3997 192.639Z" fill="#DDDDDD"/>
<path d="M72.6328 196.085C72.7101 196.024 72.7874 195.962 72.8646 195.884C72.8646 195.823 72.8646 195.745 72.8492 195.684C72.7874 195.823 72.7101 195.962 72.6328 196.085Z" fill="#DDDDDD"/>
<path d="M115.319 194.056L102.461 183.918L101.982 188.848C98.4117 188.369 86.6505 187.782 85.4141 200.594C85.4141 200.594 90.1896 196.096 101.209 196.869L100.761 201.552L115.319 194.056Z" fill="#EEEEEE"/>
<path d="M88.4139 193.531C88.3985 193.547 88.3985 193.547 88.4139 193.531V193.531Z" fill="#DDDDDD"/>
<path d="M100.547 201.136C100.531 201.136 100.531 201.152 100.516 201.152C100.747 201.291 100.979 201.415 101.211 201.554C101.242 201.291 101.257 201.028 101.288 200.75C101.227 200.781 101.165 200.812 101.103 200.843C100.933 200.935 100.732 201.028 100.547 201.136Z" fill="#DDDDDD"/>
<path d="M85.0742 200.254C85.337 200.362 85.5997 200.47 85.8624 200.579C85.8933 200.239 85.9397 199.899 85.9861 199.559C85.9397 199.59 85.8933 199.62 85.8624 199.651C85.5997 199.837 85.3215 200.038 85.0742 200.254Z" fill="#DDDDDD"/>
<path d="M115.644 193.73L115.629 193.715C115.644 193.73 115.66 193.73 115.66 193.746L115.644 193.73Z" fill="#DDDDDD"/>
<path d="M86.033 200.672C85.9711 200.734 85.9866 200.703 86.033 200.672V200.672Z" fill="#DDDDDD"/>
<path d="M115.582 194.445L115.566 194.461C115.566 194.445 115.566 194.445 115.582 194.445Z" fill="#DDDDDD"/>
<path d="M115.66 193.75C115.676 193.765 115.707 193.796 115.722 193.827C115.768 193.905 115.784 193.997 115.784 194.075C115.784 193.951 115.753 193.827 115.66 193.75Z" fill="#DDDDDD"/>
<path d="M100.746 196.855C100.73 196.995 100.715 197.149 100.699 197.288C100.869 197.304 101.039 197.304 101.209 197.319C101.055 197.165 100.9 197.01 100.746 196.855Z" fill="#DDDDDD"/>
<path d="M89.0168 199.005C88.9241 199.036 89.0941 198.974 89.0168 199.005V199.005Z" fill="#DDDDDD"/>
<path d="M114.996 194.382L114.981 194.366C114.811 194.243 114.641 194.104 114.486 193.98C114.208 194.119 113.93 194.258 113.652 194.413C112.493 195.016 111.333 195.603 110.159 196.206C108.752 196.932 107.362 197.643 105.955 198.369C104.75 198.987 103.529 199.621 102.323 200.239C101.983 200.409 101.643 200.595 101.303 200.765C101.272 201.027 101.257 201.29 101.226 201.568C100.994 201.429 100.762 201.306 100.53 201.167C100.546 201.167 100.546 201.151 100.561 201.151C100.747 201.043 100.948 200.95 101.133 200.857C101.195 200.827 101.257 200.796 101.319 200.765C101.427 199.667 101.535 198.57 101.643 197.457C101.659 197.256 101.674 197.071 101.705 196.87C101.736 196.607 101.473 196.422 101.241 196.406C97.8104 196.175 94.2867 196.376 90.9638 197.349C89.2329 197.859 87.5328 198.555 86.0337 199.575C85.9874 199.915 85.941 200.255 85.9101 200.595C85.6474 200.487 85.3846 200.378 85.1219 200.27C85.3692 200.038 85.6474 199.853 85.9101 199.652C85.9565 199.621 86.0028 199.59 86.0337 199.559C86.1574 198.802 86.3119 198.045 86.5437 197.303C86.8374 196.345 87.1465 195.587 87.6565 194.706C87.8729 194.335 88.1201 193.965 88.3674 193.625C88.3829 193.609 88.4292 193.547 88.4447 193.532C88.4292 193.547 88.4447 193.547 88.4447 193.532C88.4601 193.516 88.5065 193.455 88.522 193.439C88.5838 193.362 88.6611 193.269 88.7229 193.192C88.8465 193.037 88.9856 192.883 89.1247 192.744C89.4029 192.45 89.6965 192.172 90.0056 191.925C90.0829 191.863 90.1602 191.801 90.222 191.739C90.2375 191.724 90.2529 191.724 90.2684 191.708C90.222 191.739 90.2684 191.708 90.2838 191.693L90.2684 191.708C90.2684 191.708 90.2684 191.708 90.2838 191.708C90.3147 191.677 90.3611 191.646 90.392 191.615C90.5466 191.507 90.7011 191.384 90.8711 191.275C91.1802 191.075 91.5048 190.874 91.8448 190.704C92.0148 190.611 92.1848 190.534 92.3548 190.456C92.4321 190.425 92.5248 190.379 92.6021 190.348C92.6484 190.333 92.6793 190.317 92.7257 190.286C92.7257 190.286 92.7257 190.286 92.7412 190.286C92.7257 190.286 92.7257 190.302 92.7566 190.286C92.803 190.271 92.7721 190.286 92.7412 190.286C92.7566 190.286 92.7875 190.271 92.7875 190.271C93.4676 189.993 94.1476 189.776 94.8585 189.606C95.1985 189.529 95.5385 189.452 95.8785 189.39C96.0485 189.359 96.2185 189.328 96.3885 189.313C96.4194 189.313 96.4658 189.297 96.4967 189.297C96.4349 189.297 96.5276 189.297 96.4967 189.297C96.4967 189.297 96.5122 189.297 96.5276 189.297C96.6203 189.282 96.7131 189.282 96.8058 189.266C97.4395 189.189 98.0731 189.158 98.7068 189.143C99.7113 189.127 100.731 189.174 101.736 189.297C101.829 189.313 101.921 189.313 101.999 189.328C102.261 189.359 102.447 189.081 102.462 188.864C102.586 187.52 102.725 186.16 102.849 184.815C102.617 184.63 102.385 184.444 102.138 184.259C102.4 184.151 102.663 184.043 102.926 183.934C102.911 184.135 102.88 184.336 102.864 184.553C102.849 184.645 102.849 184.738 102.833 184.831C103.019 184.985 103.22 185.124 103.405 185.279C104.425 186.083 105.461 186.902 106.481 187.705C107.717 188.679 108.953 189.653 110.19 190.626C111.256 191.476 112.323 192.311 113.404 193.161C113.76 193.439 114.115 193.717 114.471 193.995C114.672 193.887 114.888 193.779 115.089 193.686C115.244 193.609 115.444 193.609 115.584 193.702C115.182 193.377 114.78 193.068 114.378 192.744C113.358 191.94 112.323 191.121 111.303 190.317C110.066 189.344 108.83 188.37 107.593 187.396C106.527 186.546 105.461 185.712 104.379 184.862C103.853 184.444 103.343 184.043 102.818 183.625L102.802 183.61C102.478 183.347 102.045 183.517 102.014 183.934C101.875 185.372 101.736 186.809 101.597 188.246C101.597 188.277 101.597 188.308 101.581 188.339C101.72 188.354 101.86 188.37 101.999 188.385C101.844 188.54 101.69 188.694 101.535 188.849C101.55 188.679 101.566 188.509 101.581 188.339C100.747 188.246 99.9122 188.2 99.0777 188.2C97.7176 188.2 96.3576 188.324 95.0285 188.617C93.5448 188.926 92.0766 189.467 90.7784 190.255C89.3256 191.136 88.0738 192.342 87.1465 193.764C86.0028 195.51 85.3692 197.566 85.0755 199.621C85.0292 199.946 84.9828 200.27 84.9519 200.61C84.9055 201.027 85.4773 201.197 85.7401 200.935C85.7864 200.888 85.8328 200.857 85.8792 200.811C85.941 200.765 86.0028 200.718 86.0492 200.672L86.0337 200.687C86.0492 200.672 86.0492 200.672 86.0646 200.657C86.111 200.626 86.1574 200.595 86.2037 200.548C86.7446 200.162 87.3165 199.822 87.9192 199.513C88.1201 199.405 88.321 199.312 88.522 199.219C88.6301 199.173 88.7383 199.127 88.8465 199.065C88.8929 199.049 88.9547 199.018 89.0011 199.003C89.0011 199.003 89.0011 199.003 89.0165 199.003C88.9238 199.034 89.0938 198.972 89.0165 199.003C89.0629 198.987 89.1092 198.972 89.1402 198.957C89.6656 198.74 90.1911 198.555 90.732 198.385C92.0766 197.967 93.5294 197.658 94.8739 197.488C96.8058 197.241 98.7531 197.21 100.7 197.318C100.716 197.179 100.731 197.025 100.747 196.886C100.901 197.04 101.056 197.195 101.21 197.349C101.04 197.334 100.87 197.334 100.7 197.318C100.577 198.539 100.469 199.76 100.345 200.981C100.33 201.182 100.314 201.367 100.283 201.568C100.252 201.939 100.7 202.109 100.979 201.97C101.458 201.723 101.937 201.476 102.416 201.228C103.575 200.626 104.734 200.038 105.909 199.436C107.315 198.709 108.706 197.998 110.112 197.272C111.318 196.654 112.539 196.02 113.744 195.402C114.332 195.093 114.95 194.83 115.506 194.49C115.522 194.49 115.522 194.475 115.537 194.475C115.537 194.475 115.537 194.475 115.553 194.475C115.383 194.567 115.151 194.521 114.996 194.382Z" fill="#DDDDDD"/>
<path d="M115.663 193.749C115.647 193.733 115.632 193.733 115.632 193.718C115.616 193.703 115.601 193.687 115.585 193.687C115.446 193.594 115.245 193.579 115.091 193.672C114.89 193.78 114.674 193.888 114.473 193.981C114.643 194.104 114.813 194.244 114.967 194.367L114.983 194.383C115.153 194.522 115.369 194.568 115.555 194.444L115.57 194.429C115.585 194.414 115.616 194.398 115.632 194.383C115.694 194.321 115.74 194.244 115.755 194.151V194.135C115.755 194.12 115.755 194.104 115.755 194.074C115.755 193.981 115.74 193.888 115.694 193.826C115.709 193.795 115.678 193.764 115.663 193.749Z" fill="#DDDDDD"/>
<path d="M115.582 194.442C115.69 194.38 115.752 194.272 115.767 194.148C115.752 194.241 115.706 194.318 115.644 194.38C115.628 194.411 115.597 194.427 115.582 194.442Z" fill="#DDDDDD"/>
<path d="M101.983 188.386C101.844 188.371 101.705 188.355 101.566 188.34C101.55 188.51 101.535 188.68 101.52 188.85C101.674 188.695 101.829 188.541 101.983 188.386Z" fill="#DDDDDD"/>
<path d="M90.2388 191.707L90.2543 191.691C90.2388 191.707 90.1925 191.753 90.2388 191.707Z" fill="#DDDDDD"/>
<path d="M96.4806 189.281C96.4187 189.297 96.5269 189.281 96.4806 189.281V189.281Z" fill="#DDDDDD"/>
<path d="M92.7246 190.269C92.6782 190.284 92.6937 190.284 92.7246 190.269V190.269Z" fill="#DDDDDD"/>
<path d="M102.925 183.918C102.662 184.026 102.399 184.134 102.137 184.243C102.369 184.428 102.6 184.613 102.848 184.799C102.863 184.706 102.863 184.613 102.879 184.521C102.879 184.32 102.909 184.119 102.925 183.918Z" fill="#DDDDDD"/>
<path d="M29.1262 203.334L28.6471 208.264L27.6116 208.156L27.9979 204.137L27.1016 204.045L27.1943 203.133L29.1262 203.334Z" fill="#DDDDDD"/>
<path d="M32.8834 207.739L32.7907 208.666L29.3906 208.342L29.4679 207.6L31.3689 205.977C31.8016 205.606 31.9098 205.359 31.9252 205.112C31.9561 204.725 31.7398 204.478 31.2607 204.432C30.8743 204.401 30.5343 204.524 30.287 204.833L29.5761 204.231C29.9779 203.705 30.6425 203.412 31.4461 203.489C32.4507 203.582 33.0689 204.215 32.9762 205.112C32.9298 205.591 32.7598 206.023 32.0798 206.595L30.9361 207.569L32.8834 207.739Z" fill="#DDDDDD"/>
<path d="M36.6686 208.094L36.5759 209.022L33.1758 208.697L33.2531 207.955L35.154 206.333C35.5868 205.962 35.6949 205.714 35.7104 205.467C35.7413 205.081 35.5249 204.833 35.0458 204.787C34.6594 204.756 34.3195 204.88 34.0722 205.189L33.3612 204.586C33.7631 204.061 34.4276 203.767 35.2313 203.844C36.2359 203.937 36.8541 204.571 36.7613 205.467C36.715 205.946 36.545 206.379 35.8649 206.951L34.7213 207.924L36.6686 208.094Z" fill="#DDDDDD"/>
<path d="M40.5492 207.846C40.4719 208.727 39.8073 209.423 38.5246 209.299C37.9064 209.237 37.2573 208.99 36.8555 208.604L37.35 207.769C37.6591 208.078 38.1228 208.295 38.5864 208.341C39.1119 208.387 39.4519 208.186 39.4828 207.785C39.5137 207.398 39.3128 207.12 38.4937 207.043L37.35 206.935L37.8446 204.184L40.5801 204.446L40.4874 205.358L38.6173 205.173L38.4628 206.1L38.8337 206.131C40.1783 206.27 40.6419 206.981 40.5492 207.846Z" fill="#DDDDDD"/>
<path d="M43.3616 204.398L44.3662 204.491L43.8561 209.715L42.8516 209.622L43.3616 204.398Z" fill="#DDDDDD"/>
<path d="M45.1522 206.038L46.1567 206.131L45.7858 209.918L44.7812 209.825L45.1522 206.038ZM45.1367 204.879C45.1676 204.539 45.4458 204.292 45.8167 204.323C46.1877 204.354 46.4195 204.632 46.3886 204.972C46.3577 205.343 46.0795 205.575 45.7085 205.544C45.3376 205.513 45.1058 205.219 45.1367 204.879Z" fill="#DDDDDD"/>
<path d="M48.3532 208.664L47.8278 209.143L47.735 210.102L46.7305 210.009L47.2405 204.785L48.245 204.878L47.9514 207.83L49.5587 206.454L50.7487 206.562L49.1569 208.031L50.5169 210.364L49.296 210.241L48.3532 208.664Z" fill="#DDDDDD"/>
<path d="M54.3348 209.145L51.7229 208.898C51.7693 209.377 52.1093 209.701 52.6348 209.748C53.0057 209.779 53.2685 209.686 53.5312 209.47L54.0103 210.15C53.6548 210.52 53.1448 210.69 52.5266 210.629C51.3366 210.52 50.6411 209.609 50.7493 208.48C50.8575 207.352 51.723 206.61 52.7739 206.703C53.7939 206.796 54.5048 207.63 54.3812 208.836C54.3812 208.929 54.3503 209.052 54.3348 209.145ZM51.7693 208.249L53.4694 208.419C53.4385 207.94 53.1448 207.584 52.6966 207.553C52.2484 207.507 51.893 207.77 51.7693 208.249Z" fill="#DDDDDD"/>
<path d="M23.8703 29.4048L3.26884 36.8541C0.703324 37.7814 -0.641246 40.6251 0.301504 43.206L6.4371 60.1755C7.25621 62.4474 9.55899 63.7456 11.8463 63.3902C13.4073 62.8647 15.5401 62.231 33.375 55.6936C35.9406 54.7663 37.2851 51.9226 36.3424 49.3416L30.2222 32.3721C29.2949 29.7912 26.4512 28.462 23.8703 29.4048Z" fill="#1CA3FD"/>
<path d="M36.142 61.4746C36.142 61.4746 33.3756 53.7316 33.2365 53.1289L27.75 55.8799L36.142 61.4746Z" fill="#6F64FE"/>
<path d="M13.9492 47.303L16.8393 55.355C17.8902 55.2159 18.663 55.2932 19.173 55.4014C19.7294 55.525 20.3166 55.4941 20.8576 55.2932L26.9159 53.1295C30.2232 51.9395 30.5014 48.1685 28.6778 43.0683C28.2296 41.801 26.5604 41.4147 25.2931 41.8783L21.0739 43.3929C21.0739 43.3929 21.043 39.6219 18.8021 37.6282C16.5611 35.6345 14.9692 38.2155 15.4793 39.3283C16.3756 41.2601 16.2829 43.2847 15.8193 44.6757C15.4947 45.5875 13.9492 47.303 13.9492 47.303Z" fill="#F5F6F8"/>
<path d="M12.5878 46.4226L8.47679 47.8908C7.96678 48.0763 7.6886 48.6481 7.87405 49.1581L10.965 57.782C11.1505 58.292 11.7223 58.5702 12.2323 58.3847L16.3433 56.9165C16.8534 56.731 17.1315 56.1592 16.9461 55.6492L13.8551 47.0253C13.6696 46.4999 13.0978 46.2371 12.5878 46.4226Z" fill="#9AB4FF"/>
<path d="M199.252 80.2785L217.412 82.9522C220.209 83.3695 222.806 81.4377 223.223 78.6403L225.943 60.2026C226.36 57.4053 224.429 54.8088 221.631 54.3915L199.252 51.0996C196.455 50.6824 193.859 52.6142 193.441 55.4116L190.721 73.8493C190.366 76.3066 191.819 78.6249 194.075 79.4131L192.777 88.2378L199.252 80.2785Z" fill="#F81E6A"/>
<path d="M207.258 74.299C207.258 74.299 212.327 72.4599 215.217 69.4153C218.03 66.4479 217.566 61.6569 214.259 60.6678C210.951 59.6632 209.019 62.3215 209.019 62.3215C209.019 62.3215 207.938 59.2305 204.476 59.2305C201.014 59.2305 199.19 63.6815 201.029 67.3289C202.93 71.0689 207.258 74.299 207.258 74.299Z" fill="white"/>
<path d="M44.255 144.31L41.5349 125.873C41.1176 123.075 38.5212 121.143 35.7239 121.561L13.3452 124.852C10.5478 125.27 8.61596 127.866 9.03324 130.664L11.7533 149.101C12.1706 151.899 14.767 153.83 17.5643 153.413L35.7239 150.739L42.2149 158.714L40.9167 149.889C43.1731 149.086 44.6259 146.783 44.255 144.31Z" fill="#F81E6A"/>
<path d="M25.9544 132.782C25.9544 132.782 24.0226 130.14 20.7152 131.129C17.4078 132.133 16.9442 136.909 19.757 139.876C22.6471 142.921 27.7163 144.76 27.7163 144.76C27.7163 144.76 32.0437 141.545 33.9292 137.79C35.7683 134.142 33.9446 129.691 30.4827 129.691C27.0363 129.691 25.9544 132.782 25.9544 132.782Z" fill="white"/>
<path d="M165.421 31.0877H184.292C187.197 31.0877 189.546 28.7385 189.546 25.833V6.68436C189.546 3.77884 187.197 1.42969 184.292 1.42969H161.032C158.126 1.42969 155.777 3.77884 155.777 6.68436V25.833C155.777 28.3831 157.601 30.5158 160.012 30.9949V40.1597L165.421 31.0877Z" fill="#1CA3FD"/>
<path d="M172.67 24.567C177.459 24.567 181.34 20.6852 181.34 15.8968C181.34 11.1083 177.459 7.22656 172.67 7.22656C167.882 7.22656 164 11.1083 164 15.8968C164 20.6852 167.882 24.567 172.67 24.567Z" fill="#FABA50"/>
<path d="M168.929 12.2945C168.929 12.2945 168.449 11.3826 167.368 11.5372C166.286 11.6917 165.915 13.1754 166.672 14.2263C167.429 15.3082 168.929 16.1118 168.929 16.1118C168.929 16.1118 170.428 15.3082 171.185 14.2263C171.927 13.1754 171.556 11.6917 170.489 11.5372C169.408 11.3826 168.929 12.2945 168.929 12.2945Z" fill="#F81E6A"/>
<path d="M174.848 11.5372C173.766 11.6917 173.395 13.1754 174.153 14.2263C174.91 15.3082 176.409 16.1118 176.409 16.1118C176.409 16.1118 177.908 15.3082 178.665 14.2263C179.407 13.1754 179.036 11.6917 177.97 11.5372C176.888 11.3826 176.409 12.2945 176.409 12.2945C176.409 12.2945 175.93 11.3826 174.848 11.5372Z" fill="#F81E6A"/>
<path d="M175.573 18.0742C175.573 18.0897 175.573 18.0897 175.573 18.0742C175.542 18.1206 175.557 18.1051 175.573 18.0742Z" fill="#21223F"/>
<path d="M175.604 18.043C175.589 18.0585 175.589 18.074 175.574 18.074C175.574 18.074 175.574 18.0894 175.558 18.0894C175.558 18.0894 175.558 18.074 175.574 18.074C175.543 18.1203 175.558 18.1049 175.558 18.0894C175.543 18.1049 175.527 18.1203 175.512 18.1512C175.404 18.2749 175.295 18.3831 175.172 18.4912C174.801 18.8312 174.337 19.0785 173.858 19.2176C172.653 19.5885 171.231 19.4031 170.242 18.584C170.087 18.4603 169.948 18.3212 169.809 18.1667C169.793 18.1512 169.778 18.1203 169.747 18.1049L169.732 18.0894C169.732 18.0894 169.732 18.0894 169.732 18.074C169.716 18.0585 169.716 18.043 169.701 18.0276C169.531 17.7803 169.129 18.0121 169.299 18.2594C169.747 18.9549 170.566 19.434 171.339 19.6658C172.699 20.0676 174.229 19.8049 175.342 18.924C175.574 18.7385 175.805 18.5067 175.975 18.2594C176.161 18.0276 175.759 17.7958 175.604 18.043Z" fill="#21223F"/>
<path d="M108.795 264.641C142.98 264.641 170.692 262.275 170.692 259.356C170.692 256.437 142.98 254.07 108.795 254.07C74.6106 254.07 46.8984 256.437 46.8984 259.356C46.8984 262.275 74.6106 264.641 108.795 264.641Z" fill="#E0E0E0"/>
<path d="M169.21 248.305L177.154 242.911L170.508 233.422L161.652 239.14L169.21 248.305Z" fill="#FEB6B9"/>
<path d="M171.914 244.704C169.828 246.435 168.143 245.431 167.355 244.194C166.567 242.958 165.779 241.861 164.589 242.772C162.765 244.163 163.383 247.301 161.328 250.345C159.288 253.405 154.157 254.75 155.64 257.609C157.139 260.484 162.317 258.397 166.196 256.512C170.091 254.626 180.677 248.166 180.523 246.852C180.368 245.539 176.613 238.275 174.851 239.542C173.104 240.81 174.001 242.989 171.914 244.704Z" fill="#F81E6A"/>
<path d="M166.302 256.727C170.197 254.841 180.799 248.304 180.645 246.975C180.598 246.558 180.289 245.568 179.516 244.332C169.718 253.497 159.24 256.387 155.453 257.129C155.499 257.283 155.592 257.546 155.685 257.716C157.184 260.591 162.423 258.612 166.302 256.727Z" fill="white"/>
<path d="M161.87 249.108C161.592 249.046 161.268 249.185 161.206 249.495C161.144 249.773 161.283 250.097 161.592 250.159C162.489 250.345 163.369 250.53 164.266 250.7C164.544 250.762 164.869 250.623 164.93 250.314C164.992 250.035 164.853 249.711 164.544 249.649C163.648 249.479 162.767 249.294 161.87 249.108Z" fill="#FFE1ED"/>
<path d="M162.455 247.284C162.177 247.207 161.853 247.377 161.791 247.671C161.729 247.964 161.884 248.258 162.177 248.335C162.981 248.567 163.769 248.783 164.573 249.015C164.851 249.092 165.175 248.922 165.237 248.629C165.299 248.335 165.145 248.042 164.851 247.964C164.063 247.732 163.259 247.501 162.455 247.284Z" fill="#FFE1ED"/>
<path d="M163.088 245.694C162.81 245.617 162.485 245.787 162.424 246.081C162.362 246.374 162.516 246.668 162.81 246.745C163.629 246.993 164.448 247.24 165.267 247.472C165.546 247.549 165.87 247.379 165.932 247.085C165.994 246.792 165.839 246.498 165.546 246.421C164.726 246.189 163.907 245.942 163.088 245.694Z" fill="#FFE1ED"/>
<path d="M128.331 113.336C128.331 113.336 103.959 118.931 95.9375 135.807C95.9375 135.807 108.193 165.064 111.856 181.786C115.998 200.641 139.273 217.78 157.139 242.276C157.139 242.276 168.035 238.366 174.062 230.948C174.062 230.948 168.452 209.728 158.592 195.046C150.277 182.667 144.033 180.858 141.05 175.557C138.439 170.936 146.939 122.794 128.331 113.336Z" fill="#0F5A8B"/>
<path d="M124.051 163.753C124.097 163.32 123.649 162.934 123.232 162.934C122.753 162.934 122.459 163.305 122.413 163.753C121.887 169.038 122.846 174.401 124.654 179.378C126.462 184.4 129.105 189.068 131.995 193.534C134.87 197.985 137.945 202.328 141.098 206.594C144.343 210.983 147.682 215.31 151.113 219.56C154.482 223.733 157.944 227.844 161.498 231.878C161.931 232.373 162.364 232.867 162.797 233.346C163.09 233.671 163.647 233.64 163.956 233.346C164.28 233.022 164.249 232.527 163.956 232.187C160.432 228.215 157.001 224.181 153.647 220.07C150.247 215.913 146.924 211.678 143.725 207.382C140.572 203.147 137.497 198.851 134.576 194.462C131.701 190.134 128.95 185.652 126.972 180.846C124.994 176.039 123.757 170.862 123.927 165.654C123.943 165.02 123.989 164.386 124.051 163.753Z" fill="#0C446A"/>
<path d="M47.8532 43.9432C48.235 43.0389 46.8423 41.5873 44.7427 40.701C42.6431 39.8147 40.6315 39.8293 40.2498 40.7337C39.8681 41.638 41.2607 43.0896 43.3603 43.9759C45.4599 44.8622 47.4715 44.8476 47.8532 43.9432Z" fill="#FEB6B9"/>
<path d="M36.5758 27.7765C38.4149 31.1147 46.6369 46.8478 46.6369 46.8478L50.0988 44.5914L38.0594 26.2773L36.9312 27.0192C36.5912 27.081 36.4058 27.4674 36.5758 27.7765Z" fill="#56759B"/>
<path d="M40.8261 25.5681L38.3687 26.0627C38.0287 26.1245 37.8433 26.5109 38.0133 26.82C39.8524 30.1582 48.0744 45.8913 48.0744 45.8913L51.5363 43.6349L41.707 25.9699C41.5525 25.6608 41.1815 25.5063 40.8261 25.5681Z" fill="#263A5F"/>
<path d="M43.315 52.9533C43.315 52.9533 45.9578 54.9779 48.3379 55.7815C48.3379 55.7815 60.13 77.3257 71.0566 87.325C81.9678 97.3244 86.8206 96.4589 89.6798 95.4234C94.6254 93.6306 100.931 77.9748 100.931 77.9748L90.4989 68.7018L85.8624 74.1729C85.8624 74.1729 67.5175 68.13 54.489 51.1914C54.489 51.1914 54.4117 43.7112 52.7116 39.7702C51.0116 35.8138 47.967 36.602 47.2715 41.6094L42.4187 41.7639C42.4187 41.7639 42.3877 40.7748 44.3814 40.6512C46.3751 40.5275 46.6688 38.4411 46.2515 37.7611C45.8342 37.0656 42.2487 36.9729 40.425 37.622C38.6013 38.2711 37.9676 40.5275 38.5086 42.1812C38.5086 42.1812 37.4731 44.7776 39.8222 46.4158C39.8222 46.4158 38.5858 48.7341 41.2595 50.2023C41.2286 50.2023 41.1359 51.9642 43.315 52.9533Z" fill="#FEB6B9"/>
<path d="M57.61 54.9648C56.0336 56.8967 54.0244 59.184 51.6289 61.4714C55.8945 68.5652 63.6683 80.5736 71.0403 87.3274C81.9515 97.3268 86.8043 96.4613 89.6635 95.4258C94.609 93.6331 100.915 77.9772 100.915 77.9772L90.4826 68.7043L85.8461 74.1753C85.8307 74.1753 70.2521 69.0443 57.61 54.9648Z" fill="#1474B4"/>
<path d="M51.599 48.4247C51.8308 47.7292 51.9854 46.9256 51.7072 46.2301C51.4444 45.5037 50.8108 45.0555 50.0689 44.901C49.2962 44.7464 48.508 44.8392 47.7353 44.901C46.808 44.9783 45.8652 45.0555 44.9379 45.1637C43.8715 45.2874 42.7897 45.4265 41.7233 45.581C41.476 45.6119 41.3524 45.921 41.4142 46.1374C41.4915 46.4001 41.7233 46.4928 41.9706 46.4465C43.6397 46.1992 45.3088 45.9983 46.978 45.8592C47.7198 45.7974 48.4771 45.7046 49.2344 45.7201C49.7598 45.7201 50.378 45.7974 50.718 46.2456C51.1199 46.8019 50.919 47.5901 50.7335 48.1774C50.5326 48.7338 51.3981 48.9811 51.599 48.4247Z" fill="#FE949E"/>
<path d="M50.5466 50.7429C49.882 51.3147 49.0165 51.6548 48.1665 51.8402C46.9919 52.103 45.7555 52.0566 44.5655 52.0257C43.9782 52.0102 43.9782 52.9221 44.5655 52.9375C46.8374 52.9839 49.3256 52.9684 51.1648 51.4075C51.582 51.052 51.953 50.6193 52.1075 50.0938C52.2466 49.5838 52.1539 48.9965 51.783 48.6101C51.412 48.2392 50.8711 48.1465 50.3766 48.1774C49.7893 48.2238 49.202 48.3319 48.6147 48.4247C47.2238 48.6256 45.8328 48.8265 44.4264 49.0274C44.1791 49.0583 44.0555 49.3674 44.1173 49.5838C44.1946 49.8465 44.4264 49.9393 44.6737 49.8929C45.771 49.7383 46.8683 49.5683 47.9656 49.4138C48.522 49.3365 49.0629 49.2592 49.6193 49.182C50.0211 49.1201 50.4693 49.012 50.8557 49.1047C51.1648 49.1665 51.3193 49.4138 51.2729 49.7229C51.2111 50.1556 50.8402 50.4956 50.5466 50.7429Z" fill="#FE949E"/>
<path d="M50.4413 41.2093C50.4413 41.1938 50.4567 41.1783 50.4413 41.2093C50.4258 41.2247 50.4258 41.2402 50.4413 41.2093Z" fill="#FE949E"/>
<path d="M50.6407 40.3278C50.6407 40.3742 50.6407 40.4206 50.6253 40.4669C50.6253 40.4669 50.6253 40.4978 50.6253 40.5133C50.6253 40.4669 50.6253 40.4978 50.6253 40.5133C50.6253 40.5442 50.6253 40.5442 50.6253 40.5133C50.6253 40.5287 50.6253 40.5287 50.6253 40.5442C50.6098 40.6369 50.5944 40.7451 50.5635 40.8378C50.5326 40.9306 50.5016 41.0233 50.4707 41.1315C50.4553 41.1469 50.4553 41.1779 50.4398 41.1933C50.4398 41.1933 50.4398 41.2088 50.4244 41.2242C50.4398 41.1933 50.4398 41.2088 50.4244 41.2242C50.4089 41.2397 50.4089 41.2551 50.4244 41.2242C50.4244 41.2397 50.4089 41.2551 50.4089 41.2551C50.3935 41.286 50.378 41.3015 50.378 41.3324C50.2853 41.5024 50.1925 41.6724 50.0844 41.827C50.0535 41.9042 50.0689 41.8579 50.0844 41.827C50.0689 41.8424 50.0534 41.8733 50.038 41.8888C50.0071 41.9197 49.9762 41.9661 49.9453 41.997C49.868 42.0742 49.7907 42.1515 49.7134 42.2133C49.5434 42.3679 49.5434 42.6924 49.7134 42.847C49.8989 43.017 50.1616 43.017 50.3471 42.847C51.058 42.1979 51.4908 41.286 51.5371 40.3278C51.5526 40.096 51.3208 39.8642 51.0889 39.8796C50.8417 39.8796 50.6562 40.0651 50.6407 40.3278Z" fill="#FE949E"/>
<path d="M50.0843 41.8281C50.0533 41.8899 50.0688 41.859 50.0843 41.8281V41.8281Z" fill="#FE949E"/>
<path d="M50.3015 45.2125C50.9197 44.0225 50.2396 42.6316 49.1423 41.9979C48.5396 41.6424 47.8596 41.5033 47.1641 41.4261C46.4068 41.3333 45.6495 41.3179 44.8922 41.3333C43.9649 41.3643 43.0531 41.457 42.1413 41.627C41.894 41.6734 41.7703 41.967 41.8322 42.1834C41.9094 42.4306 42.1413 42.5388 42.3885 42.4925C43.2386 42.3379 44.104 42.2606 44.985 42.2297C45.8041 42.2143 46.6541 42.2143 47.4578 42.3688C48.1223 42.4925 48.8023 42.7088 49.2505 43.2343C49.5905 43.6361 49.776 44.2543 49.5287 44.7489C49.2505 45.2743 50.0233 45.738 50.3015 45.2125Z" fill="#FE949E"/>
<path d="M45.9414 38.4414V38.4569C45.9569 38.4414 45.9414 38.4414 45.9414 38.4414Z" fill="#FE949E"/>
<path d="M45.707 38.0234C45.7379 38.0543 45.7534 38.0698 45.707 38.0234V38.0234Z" fill="#FE949E"/>
<path d="M45.8945 38.256C45.8945 38.2715 45.9099 38.2715 45.9099 38.2869C45.879 38.2251 45.8945 38.2406 45.8945 38.256Z" fill="#FE949E"/>
<path d="M45.832 38.1484C45.832 38.1639 45.8475 38.1639 45.8475 38.1639C45.832 38.1484 45.832 38.1484 45.832 38.1484Z" fill="#FE949E"/>
<path d="M43.5449 41.0079C43.823 40.8998 44.1012 40.8225 44.3949 40.7297C45.1522 40.467 46.0022 40.1425 46.5122 39.4779C47.0531 38.7824 46.9449 37.8088 46.234 37.2833C45.5849 36.8042 44.6576 36.7578 43.8849 36.7887C42.9421 36.8197 41.9839 36.9742 41.0875 37.2369C40.5312 37.3915 40.763 38.2724 41.3348 38.1179C42.0767 37.917 42.803 37.7779 43.5294 37.7315C43.9312 37.7006 44.3485 37.6851 44.7503 37.7315C44.9976 37.7624 45.3995 37.8551 45.6004 37.9633C45.6313 37.9788 45.6622 37.9942 45.6931 38.0251C45.6931 38.0251 45.724 38.0406 45.7395 38.056L45.724 38.0406C45.7704 38.087 45.7549 38.0715 45.7395 38.056C45.7858 38.087 45.8167 38.1333 45.8476 38.1642C45.8476 38.1642 45.8476 38.1642 45.8631 38.1797C45.8631 38.1642 45.8476 38.1642 45.8476 38.1642C45.8476 38.1797 45.894 38.2415 45.9095 38.2724C45.894 38.2415 45.894 38.2415 45.9249 38.3033C45.9249 38.3033 45.9095 38.2879 45.9095 38.2724C45.9095 38.2879 45.9249 38.3188 45.9249 38.3188C45.9404 38.3651 45.9404 38.3961 45.9558 38.4424C45.9558 38.4424 45.9558 38.4424 45.9558 38.4579V38.4424C45.9558 38.4424 45.9558 38.5197 45.9558 38.5661C45.9558 38.5506 45.9558 38.5352 45.9558 38.597C45.9558 38.597 45.9558 38.5815 45.9558 38.5661C45.9558 38.5815 45.9558 38.6279 45.9404 38.6279C45.9249 38.6588 45.9249 38.7052 45.9095 38.7361V38.7515C45.894 38.8288 45.9404 38.7052 45.9095 38.7515C45.9095 38.7515 45.9095 38.767 45.894 38.767C45.8786 38.7979 45.8476 38.8288 45.8322 38.8752C45.8322 38.8752 45.8013 38.9215 45.7858 38.937L45.8013 38.9215C45.7704 38.9524 45.7704 38.9524 45.7858 38.937C45.7549 38.9679 45.724 39.0143 45.6931 39.0452C45.2449 39.4934 44.5494 39.7406 43.9003 39.9416C43.5603 40.0497 43.2358 40.1425 42.9112 40.3125C42.293 40.637 41.8448 41.1779 41.7521 41.8734C41.7212 42.1207 41.9839 42.3216 42.2003 42.3216C42.4785 42.3216 42.6176 42.1052 42.6485 41.8734C42.6794 41.657 42.8494 41.4561 43.0194 41.317C43.1121 41.2398 43.2048 41.1779 43.313 41.1161C43.3749 41.0852 43.4367 41.0543 43.4985 41.0234C43.5294 41.0079 43.5294 41.0079 43.5449 41.0079C43.5294 41.0079 43.5294 41.0079 43.5449 41.0079Z" fill="#FE949E"/>
<path d="M45.8939 38.7529C45.8784 38.8302 45.9248 38.7066 45.8939 38.7529V38.7529Z" fill="#FE949E"/>
<path d="M45.803 38.9219L45.7875 38.9373C45.772 38.9528 45.772 38.9528 45.803 38.9219Z" fill="#FE949E"/>
<path d="M81.5657 256.683L85.6613 245.834L75.9402 241.738L72.6328 253.159L81.5657 256.683Z" fill="#FEB6B9"/>
<path d="M73.8394 247.719C71.552 247.734 70.1611 250.609 66.6838 251.83C63.2064 253.035 58.3072 251.042 57.7817 254.225C57.2563 257.425 62.65 258.862 66.8847 259.681C71.1193 260.5 83.4678 261.706 84.1478 260.546C84.8124 259.387 86.1724 251.335 84.0087 251.289C81.845 251.243 81.2423 253.53 78.5531 253.654C75.8485 253.777 75.0912 251.969 75.2149 250.516C75.323 249.063 75.3385 247.703 73.8394 247.719Z" fill="#F81E6A"/>
<path d="M57.7818 254.209C57.2254 257.717 62.6501 259.046 66.9002 259.866C71.1503 260.685 83.5451 261.797 84.2097 260.638C84.4106 260.283 84.6888 259.278 84.8433 257.903C71.5057 259.34 61.3982 255.368 57.9208 253.684C57.859 253.854 57.8127 254.024 57.7818 254.209Z" fill="white"/>
<path d="M67.055 251.104C66.8386 251.336 66.8541 251.645 67.055 251.876C67.6577 252.556 68.2604 253.236 68.8632 253.916C69.0486 254.133 69.435 254.117 69.6359 253.916C69.8523 253.685 69.8369 253.376 69.6359 253.144C69.0332 252.464 68.4305 251.784 67.8277 251.104C67.6268 250.887 67.2404 250.887 67.055 251.104Z" fill="#FFE1ED"/>
<path d="M69.1557 249.851C69.0321 249.82 68.8466 249.835 68.7384 249.913C68.6148 249.99 68.5221 250.098 68.4911 250.237C68.4602 250.376 68.4602 250.546 68.553 250.655C69.0475 251.319 69.5575 251.968 70.0521 252.633C70.1448 252.756 70.2221 252.849 70.3767 252.88C70.5003 252.911 70.6857 252.895 70.7939 252.818C70.9176 252.741 71.0103 252.633 71.0412 252.494C71.0721 252.355 71.0721 252.185 70.9794 252.076C70.4848 251.412 69.9748 250.763 69.4803 250.098C69.3875 249.974 69.2948 249.882 69.1557 249.851Z" fill="#FFE1ED"/>
<path d="M70.6077 248.956C70.4841 248.925 70.2986 248.941 70.1904 249.018C69.9586 249.157 69.8195 249.513 69.9895 249.76C70.4995 250.44 71.0095 251.135 71.5195 251.815C71.6123 251.939 71.705 252.032 71.8441 252.063C71.9677 252.094 72.1532 252.078 72.2614 252.001C72.4932 251.862 72.6323 251.506 72.4623 251.259C71.9523 250.579 71.4423 249.884 70.9323 249.204C70.8395 249.095 70.7468 249.003 70.6077 248.956Z" fill="#FFE1ED"/>
<path d="M90.5739 123.367C90.5739 123.367 82.2437 150.784 80.6982 167.831C79.1527 184.878 76.9581 212.418 69.2461 241.736C69.2461 241.736 79.1527 247.702 88.7193 247.702C88.7193 247.702 101.64 229.96 106.802 213.037C111.16 198.772 112.365 182.529 114.606 179.19C119.15 172.406 146.629 150.645 139.891 120.879C139.875 120.894 108.718 118.947 90.5739 123.367Z" fill="#0F5A8B"/>
<path d="M116.337 122.379C111.762 128.314 107.929 134.774 104.714 141.543C101.469 148.375 98.8416 155.499 96.647 162.732C94.2669 170.63 92.3969 178.651 90.7278 186.734C89.0432 194.894 87.5595 203.1 86.014 211.276C84.4376 219.622 82.8612 227.967 81.3003 236.313C81.0993 237.349 80.9139 238.369 80.713 239.404C80.512 240.424 82.0885 240.872 82.2894 239.837C83.8503 231.522 85.4267 223.223 86.9877 214.908C88.5332 206.732 90.0323 198.541 91.6551 190.366C93.2624 182.314 95.0242 174.308 97.2652 166.41C99.3516 159.038 101.855 151.775 104.993 144.774C108.053 137.973 111.685 131.436 116.074 125.409C116.615 124.667 117.171 123.925 117.728 123.198C118.006 122.843 117.774 122.287 117.434 122.086C117.047 121.838 116.615 122.024 116.337 122.379Z" fill="#0C446A"/>
<path d="M116.91 36.6523L102.058 44.8744C102.058 44.8744 88.4572 51.1645 87.2981 75.3824C86.139 99.6002 90.59 123.385 90.59 123.385C90.59 123.385 123.107 125.163 139.876 120.913C139.876 120.897 152.611 53.5291 116.91 36.6523Z" fill="#1474B4"/>
<path d="M89.3711 115.563C90.0357 120.431 90.592 123.367 90.592 123.367C90.592 123.367 114.47 124.681 131.857 122.363C131.918 122.193 131.996 122.007 132.058 121.837C138.054 104.296 136.431 84.2665 136.431 84.2665L122.522 66.6016H108.458C108.458 66.6016 116.278 89.0112 106.758 101.947C100.854 109.968 93.853 113.801 89.3711 115.563Z" fill="#0F5A8B"/>
<path d="M135.456 105.948L152.179 112.331C154.76 113.32 157.634 112.022 158.623 109.456L165.099 92.4869C166.088 89.906 164.79 87.0314 162.224 86.0422L141.623 78.1757C139.042 77.1866 136.167 78.4848 135.178 81.0503L128.703 98.0198C127.837 100.292 128.734 102.795 130.712 104.032L127.59 112.161L135.456 105.948Z" fill="#F81E6A"/>
<path d="M148.545 90.925C148.545 90.925 148.174 87.7567 144.882 87.0303C141.59 86.304 138.917 90.1522 139.89 94.016C140.895 97.9879 144.326 101.96 144.326 101.96C144.326 101.96 149.534 101.28 152.934 98.9924C156.242 96.7669 156.813 92.115 153.862 90.4613C150.941 88.8076 148.545 90.925 148.545 90.925Z" fill="white"/>
<path d="M103.651 105.209L120.93 106.167C123.588 106.307 125.86 104.282 126.014 101.624L126.988 84.0824C127.127 81.4242 125.102 79.1523 122.444 78.9977L101.147 77.8232C98.489 77.6841 96.2171 79.7087 96.0626 82.3669L95.0889 99.9083C94.9653 102.242 96.5262 104.297 98.7053 104.854L98.2417 113.246L103.651 105.209Z" fill="#FABA50"/>
<path d="M103.852 98.9649L110.621 99.3358L117.39 99.7067C117.637 95.1321 114.361 92.5202 112.429 91.392C113.789 90.9283 114.809 89.661 114.902 88.131C115.01 86.1064 113.465 84.3909 111.455 84.2827C109.431 84.1745 107.715 85.72 107.607 87.7291C107.53 89.2592 108.395 90.6192 109.709 91.2374C107.669 92.1492 104.114 94.3902 103.852 98.9649Z" fill="white"/>
<path d="M100.837 122.118L119.847 124.544C122.768 124.915 125.457 122.844 125.828 119.923L128.301 100.62C128.672 97.6991 126.601 95.01 123.68 94.6391L100.235 91.6563C97.3137 91.2853 94.6246 93.3563 94.2537 96.2773L91.7809 115.58C91.4563 118.161 93.0173 120.542 95.3973 121.33L94.2228 130.572L100.837 122.118Z" fill="#6F64FE"/>
<path d="M110.683 103.169C110.683 103.169 109.493 99.9703 105.876 100.032C102.26 100.109 100.452 104.777 102.445 108.563C104.485 112.442 109.076 115.719 109.076 115.719C109.076 115.719 114.33 113.694 117.298 110.464C120.172 107.311 119.6 102.319 116.123 101.346C112.646 100.357 110.683 103.169 110.683 103.169Z" fill="white"/>
<path d="M124.592 123.059C137.775 129.952 139.567 130.755 140.881 131.42C143.045 132.053 145.44 131.095 146.522 129.009L154.636 113.399C155.872 111.035 154.945 108.114 152.58 106.893L133.633 97.0325C131.268 95.7962 128.347 96.7235 127.126 99.0881L119.012 114.698C117.884 116.861 118.564 119.504 120.512 120.864C119.352 123.151 117.652 126.443 117.652 126.443L124.592 123.059Z" fill="#FABA50"/>
<path d="M143.338 108.653C143.276 105.717 140.386 106.304 139.923 107.401C139.135 109.318 137.635 110.585 136.322 111.172C135.441 111.574 133.2 111.605 133.2 111.605L129.352 119.008C130.14 119.672 130.603 120.275 130.866 120.708C131.144 121.187 131.562 121.589 132.056 121.836L137.62 124.726C140.649 126.302 143.539 124 145.981 119.317C146.584 118.142 145.765 116.705 144.59 116.102L140.726 114.093C140.711 114.109 143.385 111.589 143.338 108.653Z" fill="#F5F6F8"/>
<path d="M129.32 108.174C128.748 107.88 128.053 108.096 127.759 108.668L123.818 116.241C123.525 116.813 123.741 117.508 124.313 117.802L127.728 119.579C128.3 119.873 128.996 119.657 129.289 119.085L133.23 111.512C133.524 110.94 133.308 110.245 132.736 109.951L129.32 108.174Z" fill="#9AB4FF"/>
<path d="M138.16 135.158L133.245 117.153C132.504 114.417 129.675 112.81 126.955 113.552L105.087 119.518C102.351 120.259 100.744 123.088 101.486 125.808L106.416 143.844C107.157 146.579 109.986 148.186 112.706 147.445L130.448 142.592L137.851 149.732L135.502 141.108C137.65 140.042 138.825 137.569 138.16 135.158Z" fill="#F81E6A"/>
<path d="M125.71 136.126C129.012 132.825 129.012 127.472 125.71 124.171C122.409 120.869 117.056 120.869 113.755 124.171C110.454 127.472 110.454 132.825 113.755 136.126C117.056 139.428 122.409 139.428 125.71 136.126Z" fill="#FABA50"/>
<path d="M123.601 124.696C122.55 124.819 122.333 125.808 122.333 125.808C122.333 125.808 121.653 125.067 120.68 125.499C119.706 125.932 119.737 127.4 120.711 128.204C121.7 129.023 123.323 129.409 123.323 129.409C123.323 129.409 124.528 128.266 124.961 127.045C125.378 125.87 124.652 124.572 123.601 124.696Z" fill="#F81E6A"/>
<path d="M116.57 126.627C115.519 126.751 115.302 127.74 115.302 127.74C115.302 127.74 114.622 126.998 113.649 127.431C112.675 127.864 112.706 129.332 113.679 130.136C114.669 130.955 116.291 131.341 116.291 131.341C116.291 131.341 117.497 130.198 117.93 128.977C118.347 127.787 117.62 126.488 116.57 126.627Z" fill="#F81E6A"/>
<path d="M117.574 132.918C117.574 132.902 117.574 132.902 117.574 132.918C117.59 132.933 117.605 132.933 117.574 132.918Z" fill="#21223F"/>
<path d="M122.784 131.851C122.552 132.222 122.243 132.562 121.887 132.809C120.852 133.551 119.446 133.768 118.255 133.289C118.07 133.211 117.885 133.119 117.715 133.01C117.668 132.979 117.622 132.949 117.575 132.918C117.591 132.933 117.606 132.933 117.56 132.902C117.56 132.902 117.575 132.902 117.575 132.918L117.56 132.902C117.297 132.67 116.911 133.057 117.174 133.289C117.838 133.876 118.843 134.123 119.708 134.108C121.053 134.061 122.367 133.412 123.139 132.299C123.294 132.068 123.448 131.82 123.526 131.558C123.634 131.218 123.108 131.078 123 131.419C123 131.434 122.985 131.449 122.985 131.449C122.985 131.465 122.969 131.48 122.969 131.48C122.969 131.48 122.969 131.496 122.954 131.496C122.907 131.619 122.846 131.743 122.784 131.851Z" fill="#21223F"/>
<path d="M97.2064 35.7858C101.039 37.9959 102.044 44.8579 102.044 44.8579C112.538 42.4005 116.896 36.6358 116.896 36.6358C116.896 36.6358 105.753 23.7619 105.537 23.4219C105.552 23.4373 93.3891 33.5912 97.2064 35.7858Z" fill="#FEB6B9"/>
<path d="M99.275 37.7178C103.293 36.2342 105.179 30.5313 106.121 30.5313C106.848 30.5313 110.526 36.4505 112.844 40.237C115.642 38.3206 116.894 36.6515 116.894 36.6515C116.894 36.6515 105.751 23.7775 105.534 23.4375C105.534 23.4375 100.62 27.5485 98.0231 31.1031C96.694 33.0041 96.0603 34.7969 97.204 35.786C98.0077 36.2651 98.7031 36.9296 99.275 37.7178Z" fill="#FE949E"/>
<path d="M99.324 13.6707C92.5547 9.76062 83.6836 15.4635 83.6836 15.4635C83.6836 15.4635 85.1673 22.6655 85.3527 23.5928C85.5382 24.5046 84.2709 27.642 84.2245 28.5693C84.1782 29.4966 85.6927 29.1411 85.7391 30.0066C86.0791 36.3431 89.0619 40.1604 91.9211 40.7941C99.1076 42.386 104.084 32.3248 102.74 26.9156C107.206 24.9373 106.093 17.5654 99.324 13.6707Z" fill="#FEB6B9"/>
<path d="M95.6688 28.7894C95.7432 27.6565 94.7885 26.6716 93.5364 26.5894C92.2843 26.5072 91.209 27.3589 91.1346 28.4918C91.0603 29.6246 92.015 30.6096 93.2671 30.6918C94.5192 30.774 95.5945 29.9222 95.6688 28.7894Z" fill="#F995B0"/>
<path d="M87.7952 20.457C87.7643 20.4725 87.7797 20.4725 87.7952 20.457V20.457Z" fill="#180205"/>
<path d="M89.0452 20.2998C88.9834 20.2844 89.0761 20.2998 89.0452 20.2998V20.2998Z" fill="#180205"/>
<path d="M86.9446 19.899C86.7437 20.0381 86.6509 20.3008 86.7746 20.5172C86.8982 20.7181 87.1919 20.8108 87.3928 20.6872C87.501 20.6253 87.5937 20.5635 87.7173 20.5017C87.7482 20.4862 87.7637 20.4708 87.7946 20.4708C87.7791 20.4708 87.7791 20.4863 87.7946 20.4708C87.8101 20.4708 87.81 20.4708 87.8255 20.4553C87.8873 20.4399 87.9337 20.409 87.9955 20.3935C88.1192 20.3626 88.2273 20.3317 88.351 20.3008C88.3664 20.3008 88.3819 20.3008 88.3819 20.3008H88.3664C88.3973 20.3008 88.3973 20.3008 88.3819 20.3008C88.4128 20.3008 88.4283 20.3008 88.4592 20.2853C88.521 20.2853 88.5983 20.2699 88.6601 20.2699C88.7837 20.2699 88.9074 20.2699 89.031 20.2853H89.0464C88.9846 20.2699 89.0928 20.2853 89.0464 20.2853C89.0774 20.2853 89.1083 20.3008 89.1392 20.3008C89.201 20.3162 89.2628 20.3317 89.3246 20.3472C89.4174 20.3781 89.5719 20.4244 89.6337 20.4399C89.6337 20.4399 89.6801 20.4708 89.6956 20.4708C89.7265 20.4863 89.7574 20.5017 89.7728 20.5172C89.8347 20.5481 89.8965 20.579 89.9583 20.6253C90.1747 20.749 90.4528 20.6717 90.5765 20.4553C90.7001 20.239 90.6229 19.9608 90.4065 19.8371C89.3556 19.2035 87.9491 19.2189 86.9446 19.899Z" fill="#180205"/>
<path d="M88.7675 21.8914C88.3811 21.9378 88.1338 22.5714 88.2265 23.2978C88.3193 24.0242 88.7056 24.5651 89.1075 24.5187C89.4938 24.4724 89.7411 23.8387 89.6484 23.1124C89.5557 22.386 89.1538 21.8296 88.7675 21.8914Z" fill="#180205"/>
<path d="M91.6246 32.1523L86.9727 32.5078C87.359 34.1924 87.9 35.6452 88.5336 36.8506C90.8982 36.1706 91.6246 32.1523 91.6246 32.1523Z" fill="#F5F6F8"/>
<path d="M101.965 22.9569C101.98 22.9569 101.98 22.9414 101.996 22.9414C101.98 22.9569 101.965 22.9569 101.965 22.9569Z" fill="#FE949E"/>
<path d="M100.96 23.7458C100.929 23.7922 100.976 23.7149 100.96 23.7458V23.7458Z" fill="#FE949E"/>
<path d="M101.457 23.2676C101.41 23.283 101.488 23.2212 101.457 23.2676V23.2676Z" fill="#FE949E"/>
<path d="M100.636 24.3181C100.605 24.3644 100.651 24.2717 100.636 24.3181V24.3181Z" fill="#FE949E"/>
<path d="M100.961 23.745C100.93 23.7914 100.976 23.7141 100.961 23.745C100.992 23.6986 101.007 23.6832 101.038 23.6523C101.116 23.5595 101.208 23.4668 101.301 23.3895C101.347 23.3432 101.409 23.2968 101.456 23.2659C101.409 23.2968 101.502 23.235 101.456 23.2659C101.456 23.2659 101.456 23.2659 101.471 23.2659C101.502 23.2505 101.517 23.235 101.548 23.2195C101.656 23.1423 101.765 23.0805 101.873 23.0186C101.904 23.0032 101.935 22.9877 101.966 22.9723H101.95C101.966 22.9723 101.966 22.9568 101.981 22.9568C101.997 22.9568 101.997 22.9568 101.981 22.9568C101.981 22.9568 101.981 22.9568 101.966 22.9568C102.027 22.9259 102.089 22.9104 102.167 22.8795C102.398 22.8023 102.553 22.555 102.476 22.3232C102.398 22.0913 102.167 21.9213 101.919 22.0141C100.745 22.4004 99.8019 23.4359 99.601 24.6568C99.5701 24.8269 99.601 24.9814 99.7246 25.105C99.8328 25.2132 100.018 25.275 100.173 25.2287C100.25 25.1978 100.327 25.1823 100.42 25.1669C100.451 25.1669 100.482 25.1514 100.528 25.1514C100.544 25.1514 100.544 25.1514 100.559 25.1514C100.575 25.1514 100.575 25.1514 100.575 25.1514C100.59 25.1514 100.59 25.1514 100.575 25.1514C100.575 25.1514 100.575 25.1514 100.559 25.1514C100.714 25.136 100.868 25.136 101.038 25.1514C101.054 25.1514 101.069 25.1514 101.085 25.1514H101.069C101.085 25.1514 101.085 25.1514 101.085 25.1514C101.1 25.1514 101.1 25.1514 101.085 25.1514C101.085 25.1514 101.085 25.1514 101.069 25.1514C101.1 25.1514 101.146 25.1669 101.177 25.1669C101.255 25.1823 101.332 25.1978 101.394 25.2287C101.425 25.2441 101.456 25.2441 101.486 25.2596C101.502 25.2596 101.502 25.2596 101.517 25.275C101.456 25.2441 101.564 25.2905 101.517 25.275C101.517 25.275 101.533 25.275 101.533 25.2905C101.61 25.3214 101.687 25.3678 101.749 25.4141C101.95 25.5378 102.259 25.4605 102.367 25.2441C102.476 25.0278 102.429 24.7496 102.197 24.6259C101.734 24.3632 101.208 24.2241 100.683 24.2396C100.683 24.255 100.667 24.255 100.667 24.2705C100.652 24.3014 100.636 24.3323 100.636 24.3478C100.636 24.3478 100.636 24.3478 100.636 24.3632C100.606 24.425 100.59 24.4868 100.575 24.5487C100.544 24.6723 100.513 24.7959 100.482 24.9196C100.296 24.7341 100.111 24.5487 99.9255 24.3632C100.173 24.2859 100.436 24.2396 100.698 24.2396C100.745 24.1314 100.806 24.0387 100.868 23.9305C100.884 23.8532 100.93 23.7914 100.961 23.745Z" fill="#FE949E"/>
<path d="M100.466 24.887C100.482 24.7634 100.513 24.6398 100.559 24.5161C100.575 24.4543 100.605 24.3925 100.621 24.3307V24.3152C100.605 24.3616 100.636 24.2689 100.621 24.3152C100.636 24.2843 100.652 24.2534 100.652 24.2379C100.652 24.2225 100.667 24.2225 100.667 24.207C100.405 24.2225 100.142 24.2534 99.8945 24.3307C100.095 24.5161 100.281 24.7016 100.466 24.887Z" fill="#FE949E"/>
<path d="M101.502 25.2453C101.44 25.2143 101.564 25.2607 101.502 25.2453V25.2453Z" fill="#FE949E"/>
<path d="M87.0659 28.3038C86.9731 28.3347 86.8804 28.3657 86.7722 28.3811C86.7258 28.3966 86.6795 28.3966 86.6331 28.412C86.6177 28.412 86.5867 28.412 86.5713 28.4275C86.6022 28.4275 86.6022 28.4275 86.5558 28.4275C86.3704 28.4429 86.1849 28.4584 85.9995 28.4429C85.9531 28.4429 85.9067 28.4275 85.8758 28.4275C85.8758 28.4275 85.8758 28.4275 85.8913 28.4275C85.8449 28.4275 85.8295 28.4275 85.8758 28.4275C85.8758 28.4275 85.8758 28.4275 85.8913 28.4275C85.8758 28.4275 85.8449 28.4275 85.8295 28.412C85.7367 28.3966 85.644 28.3811 85.5513 28.3502C85.4585 28.3193 85.3658 28.3038 85.2885 28.2575C85.2731 28.2575 85.2576 28.242 85.2267 28.242C85.2422 28.2575 85.2422 28.2575 85.2113 28.2266C85.2113 28.2266 85.2267 28.2266 85.2267 28.242C85.2267 28.242 85.2113 28.242 85.2113 28.2266C85.1649 28.1957 85.1185 28.1802 85.0722 28.1493C84.8558 28.0411 84.5776 28.0875 84.454 28.3193C84.3458 28.5202 84.3922 28.8293 84.624 28.9375C85.4585 29.3702 86.4476 29.463 87.3595 29.1693C87.5913 29.092 87.7613 28.8602 87.6686 28.6129C87.5449 28.3966 87.3131 28.2266 87.0659 28.3038Z" fill="#FE949E"/>
<path d="M85.2108 28.242C85.2108 28.242 85.1953 28.242 85.1953 28.2266C85.2262 28.2575 85.2262 28.2575 85.2108 28.242Z" fill="#FE949E"/>
<path d="M108.549 33.2971C109.831 34.1007 112.752 31.8289 113.865 30.9479C114.978 30.067 109.476 23.8387 110.79 19.2949C112.103 14.7512 113.247 5.69458 105.396 6.71461C105.396 6.71461 108.224 -0.441021 94.5311 0.0689917C89.5855 0.254451 83.6663 0.996288 79.9107 6.31278C75.7997 12.1393 78.3189 20.8404 84.779 20.9331C84.779 20.9331 83.4653 18.924 85.969 17.2703C88.4727 15.6166 94.5156 14.1484 94.5156 14.1484C94.5156 14.1484 94.1138 19.9749 97.3284 23.7305C97.3284 23.7305 98.5803 20.2068 102.011 20.5313C105.442 20.8404 103.943 25.7551 102.691 26.9296C102.722 26.9142 106.679 32.1534 108.549 33.2971Z" fill="#180205"/>
<path d="M114.64 148.064C115.598 149.486 117.654 148.806 117.654 148.806C117.654 148.806 118.906 149.949 120.25 149.331C121.595 148.713 121.857 147.6 121.857 147.6C121.857 147.6 123.557 147.909 124.145 146.503C124.145 146.503 125.582 146.735 126.293 144.664C127.004 142.593 128.889 134.17 128.889 134.17C128.889 134.17 142.938 108.252 146.987 89.4588C148.548 82.2104 147.497 75.9821 146.353 72.0256C142.845 60.6972 133.665 46.7878 121.95 39.5703C121.95 39.5703 108.473 54.4534 106.773 66.6164C106.773 66.6164 116.927 76.1057 126.958 86.6615C126.958 86.6615 122.986 111.868 121.966 133.304C121.966 133.304 115.135 136.473 113.558 137.616C111.966 138.76 112.739 140.97 115.521 140.707C115.505 140.692 113.682 146.642 114.64 148.064Z" fill="#1474B4"/>
<path d="M121.902 133.305L128.548 135.67C128.749 134.758 128.888 134.155 128.888 134.155C128.888 134.155 130.557 131.064 132.922 126.242C129.537 125.732 125.936 124.697 122.598 123.398C122.335 126.706 122.119 130.029 121.964 133.259C121.949 133.274 121.933 133.29 121.902 133.305Z" fill="#1994E6"/>
<path d="M77.3476 237.486C77.2395 237.44 77.4558 237.532 77.3476 237.486V237.486Z" fill="#7B7BAF"/>
<path d="M83.1733 239.526C82.1069 239.233 81.056 238.893 80.0205 238.522C79.495 238.336 78.985 238.151 78.475 237.95C78.2277 237.857 77.9805 237.764 77.7486 237.656C77.6405 237.61 77.5168 237.563 77.4086 237.517C77.3777 237.502 77.3623 237.502 77.3468 237.502C77.2386 237.455 77.455 237.548 77.3468 237.502C77.3314 237.502 77.3159 237.486 77.285 237.471C77.2077 237.44 77.1304 237.409 77.0532 237.378C75.9095 236.883 74.7967 236.358 73.684 235.786C73.3131 235.585 72.7876 235.678 72.5712 236.08C72.3703 236.451 72.4631 236.992 72.8649 237.192C76.8523 239.263 81.0869 240.824 85.4606 241.814C86.697 242.092 87.9489 242.324 89.2007 242.509C89.618 242.571 90.0971 242.401 90.2053 241.937C90.298 241.551 90.0817 240.994 89.6335 240.933C87.4698 240.593 85.3061 240.129 83.1733 239.526Z" fill="#7B7BAF"/>
<path d="M156.335 235.801C156.32 235.816 156.289 235.816 156.273 235.832C156.32 235.816 156.335 235.801 156.335 235.801Z" fill="#6767A5"/>
<path d="M169.814 226.096C168.361 227.749 166.707 229.233 164.976 230.593C164.791 230.748 164.667 230.84 164.404 231.026C164.157 231.211 163.91 231.397 163.647 231.582C163.184 231.922 162.72 232.247 162.241 232.556C161.283 233.189 160.309 233.792 159.304 234.349C158.763 234.642 158.222 234.92 157.682 235.199C157.403 235.338 157.125 235.461 156.847 235.585C156.723 235.647 156.6 235.693 156.461 235.755C156.414 235.77 156.368 235.786 156.337 235.817C156.337 235.817 156.322 235.817 156.275 235.848C156.291 235.832 156.322 235.832 156.337 235.817C156.322 235.817 156.182 235.879 156.152 235.894C155.765 236.049 155.441 236.45 155.58 236.899C155.703 237.285 156.167 237.64 156.584 237.47C158.717 236.59 160.742 235.492 162.673 234.24C164.667 232.942 166.584 231.489 168.345 229.898C169.257 229.063 170.138 228.197 170.957 227.27C171.236 226.946 171.297 226.436 170.957 226.111C170.664 225.802 170.123 225.756 169.814 226.096Z" fill="#6767A5"/>
<path d="M114.638 148.065C115.596 149.487 117.651 148.807 117.651 148.807C117.651 148.807 118.903 149.951 120.248 149.332C121.593 148.714 121.855 147.601 121.855 147.601C121.855 147.601 123.555 147.911 124.143 146.504C124.143 146.504 125.58 146.736 126.291 144.665C127.002 142.594 128.887 134.171 128.887 134.171C128.887 134.171 129.444 133.136 130.371 131.327C127.481 130.539 124.683 129.643 122.195 128.777C122.103 130.292 122.01 131.791 121.948 133.275C121.948 133.275 115.117 136.443 113.54 137.587C111.949 138.73 112.721 140.94 115.503 140.678C115.503 140.693 113.68 146.643 114.638 148.065Z" fill="#FEB6B9"/>
<path d="M51.6289 61.4714C52.3244 62.6305 53.128 63.9287 53.9935 65.3042C56.1418 63.5114 58.8 61.0386 60.9328 58.4113C59.8046 57.3294 58.6918 56.1858 57.61 54.9648C56.0336 56.9122 54.009 59.184 51.6289 61.4714Z" fill="#1994E6"/>
<path d="M133.864 37.1619C126.6 32.1236 118.842 32.0309 114.592 34.8437C108.518 38.8465 99.4616 42.6021 95.9688 49.9586C95.9688 49.9586 110.095 43.4984 118.935 45.3067C127.775 47.1149 139.706 57.9642 139.706 57.9642C139.706 57.9642 145.023 53.8378 139.706 47.8876C139.722 47.8876 141.128 42.2002 133.864 37.1619Z" fill="#1994E6"/>
<path d="M129.118 42.3858C128.222 42.154 127.294 41.9531 126.382 41.7985C126.089 41.7521 125.795 41.8758 125.718 42.1849C125.641 42.4476 125.811 42.8031 126.104 42.8494C129.288 43.3749 132.363 44.4258 135.207 45.9404C136.011 46.3732 136.814 46.8523 137.572 47.3623C137.819 47.5168 138.174 47.4086 138.314 47.1614C138.468 46.8986 138.36 46.5741 138.113 46.4195C135.377 44.6113 132.317 43.2358 129.118 42.3858Z" fill="#1474B4"/>
</svg>
