<svg width="268" height="267" viewBox="0 0 268 267" fill="none" xmlns="http://www.w3.org/2000/svg">
<g clip-path="url(#clip0_1136_336756)">
<path d="M105.7 28.4364C105.289 28.7953 104.676 28.8794 103.861 28.6887C104.012 28.6384 104.097 28.569 104.116 28.4806C104.135 28.3956 104.102 28.3436 104.017 28.3246C102.805 28.0385 101.896 27.3111 101.289 26.1425C100.067 23.7862 100.647 21.1646 103.151 19.9578C103.822 19.6336 104.58 19.5356 105.424 19.6639C106.144 19.7749 106.803 20.0749 107.403 20.5638C108.926 21.8035 109.333 23.4533 108.626 25.5131C108.154 26.8881 107.179 27.8625 105.7 28.4364Z" fill="#0B0E1D"/>
<path d="M157.554 37.8216L157.208 37.819C157.073 35.7228 156.419 33.8857 155.245 32.3079C153.587 30.0782 151.435 28.8029 148.787 28.4822C146.972 28.262 145.276 28.4995 143.7 29.1948C141.782 30.0392 140.27 31.4297 139.162 33.3664C138.433 34.6356 138.034 36.0557 137.963 37.6265C137.833 40.5203 138.776 42.959 140.792 44.9425C140.846 44.9928 140.904 44.9998 140.967 44.9633L144.641 42.8437C144.869 42.7137 144.993 42.783 145.016 43.0518L145.029 43.2104C145.039 43.323 145.019 43.4353 144.971 43.5346C144.922 43.6339 144.848 43.7162 144.756 43.7722L141.809 45.5719C141.781 45.5887 141.758 45.6121 141.741 45.6401C141.725 45.6681 141.715 45.6999 141.713 45.7328C141.711 45.7656 141.718 45.7987 141.731 45.8291C141.745 45.8595 141.765 45.8864 141.791 45.9074C143.173 47.0119 144.782 47.6786 146.618 47.9074C146.445 47.9751 146.382 48.0817 146.431 48.2273C142.35 47.8112 139.037 44.8385 137.934 40.9295C136.467 35.7306 139.271 30.1623 144.605 28.5134C148.29 27.3742 152.116 28.3469 154.779 31.1506C156.47 32.9295 157.395 35.1532 157.554 37.8216Z" fill="#0B0E1D"/>
<path d="M146.643 40.7122C146.556 40.6931 146.405 40.6455 146.188 40.5692C145.897 40.4686 145.727 40.4001 145.678 40.3637C143.896 38.9836 143.166 37.2948 143.488 35.2974C143.743 33.7135 145.101 32.3221 146.768 32.036C148.545 31.7343 149.962 32.342 151.02 33.8592C151.691 34.8214 151.87 35.9484 151.556 37.2402C151.147 38.9255 150.18 40.0646 148.656 40.6576C148.614 40.6741 148.579 40.706 148.56 40.7467C148.541 40.7874 148.538 40.8337 148.552 40.8761C148.94 42.069 148.772 43.1162 148.047 44.0178C147.997 44.0809 147.933 44.1319 147.86 44.1672C147.787 44.2025 147.707 44.2212 147.627 44.2219C147.546 44.2227 147.466 44.2055 147.392 44.1715C147.319 44.1376 147.254 44.0877 147.202 44.0256C146.685 43.4084 146.457 42.6862 146.515 41.8592C146.539 41.5289 146.44 41.2194 146.705 40.8839C146.775 40.7937 146.754 40.7365 146.643 40.7122Z" fill="#0B0E1D"/>
<path d="M157.563 38.195C157.346 41.843 155.805 44.6458 152.941 46.6033C152.922 46.501 152.827 46.4299 152.655 46.3901L153.511 45.7087C153.524 45.6979 153.535 45.6839 153.541 45.668C153.548 45.6521 153.551 45.6347 153.549 45.6173C153.548 45.5999 153.542 45.583 153.533 45.5681C153.523 45.5533 153.51 45.5408 153.495 45.5318L150.681 43.8881C150.438 43.7477 150.269 43.5266 150.174 43.2249C150.172 43.218 150.167 43.1599 150.158 43.0507C150.139 42.7663 150.258 42.6857 150.515 42.8088C151.742 43.3931 152.964 44.071 154.182 44.8426C154.23 44.8734 154.288 44.884 154.344 44.8724C154.4 44.8607 154.449 44.8276 154.481 44.7802C154.673 44.4889 154.851 44.2418 155.014 44.039C156.415 42.2652 157.151 40.2366 157.222 37.9531C157.307 38.3242 157.42 38.4048 157.563 38.195Z" fill="#0B0E1D"/>
<path d="M67.2073 53.3703C67.2172 53.3599 67.2241 53.3471 67.2274 53.3331C67.2307 53.3192 67.2301 53.3047 67.2258 53.2912C67.2215 53.2778 67.2136 53.2659 67.203 53.2569C67.1924 53.2479 67.1795 53.2422 67.1657 53.2403C65.1683 52.9126 64.0317 50.9854 63.8445 49.0712C63.7162 47.7587 64.0985 46.6429 64.9914 45.724C67.1423 43.5107 70.7366 44.3898 71.7977 47.2012C72.3725 48.7175 72.0058 50.2676 71.1241 51.6018C70.5502 52.4704 69.8584 52.9958 69.0487 53.1779C68.9568 53.1969 68.9082 53.2541 68.903 53.3495C68.8961 53.4691 68.923 53.633 68.9836 53.8411C69.2983 54.9126 68.9576 55.9399 68.1462 56.6837C68.109 56.7181 68.0652 56.7446 68.0175 56.7616C67.9697 56.7786 67.919 56.7858 67.8685 56.7826C67.8179 56.7794 67.7685 56.7661 67.7232 56.7432C67.678 56.7204 67.6378 56.6887 67.6052 56.6499C67.1197 56.0795 66.8787 55.418 66.8822 54.6655C66.8848 54.1297 66.864 53.7162 67.2073 53.3703Z" fill="#0B0E1D"/>
<path d="M174.028 46.2578L174.036 57.5738C174.019 57.1924 173.887 57.0485 173.641 57.1421V46.2786C173.786 46.2977 173.915 46.2908 174.028 46.2578Z" fill="#0B0E1D"/>
<path d="M58.5409 48.5885C57.9341 51.7615 58.684 54.6284 60.7906 57.1893C61.0056 57.4511 61.2319 57.5127 61.4694 57.374C62.7594 56.6197 63.9115 55.96 64.9258 55.3948C65.1755 55.2578 65.3177 55.3393 65.3524 55.6392L65.3706 55.7797C65.3931 55.9704 65.309 56.1273 65.1183 56.2504C63.9757 56.9942 62.9406 57.5994 62.013 58.0658C61.9855 58.0797 61.9619 58.1003 61.9443 58.1256C61.9266 58.1509 61.9155 58.1802 61.9119 58.2108C61.9083 58.2414 61.9123 58.2724 61.9236 58.3011C61.9349 58.3298 61.9531 58.3553 61.9765 58.3753C63.133 59.341 64.423 59.9808 65.8465 60.2946C68 60.7714 70.1135 60.5044 72.1872 59.4936C72.8877 59.152 73.4512 58.768 73.8777 58.3414C73.9419 58.2773 73.935 58.2227 73.8569 58.1776C72.3849 57.3124 71.3142 56.6241 70.645 56.1126C70.594 56.0743 70.5549 56.0213 70.532 55.9593C70.509 55.8973 70.5031 55.8288 70.5149 55.7615L70.5383 55.6418C70.5459 55.598 70.5672 55.5587 70.6006 55.5269C70.634 55.495 70.6786 55.4716 70.7309 55.4585C70.7831 55.4454 70.8416 55.4429 70.9016 55.4512C70.9616 55.4596 71.0216 55.4785 71.0767 55.5066C72.4083 56.1863 73.563 56.8633 74.5409 57.5378C74.6138 57.5881 74.6779 57.5794 74.7334 57.5118L75.6463 56.4039L76.156 56.4143C74.2245 59.211 71.5596 60.7134 68.1612 60.9214C68.0728 60.9266 68.0286 60.9726 68.0286 61.0593C67.9922 64.553 67.9861 66.9709 68.0104 68.3129C68.0364 69.7433 67.9124 70.7212 67.6385 71.2465C67.2431 72.0094 66.6554 72.5183 65.8751 72.7732C65.4573 72.9084 64.7186 72.9717 63.6593 72.9631C59.7754 72.9301 55.5726 72.9292 51.0507 72.9605C49.9549 72.9674 49.1876 73.0922 48.749 73.335C48.0606 73.7164 47.576 74.2773 47.2951 75.0177C47.1668 75.3558 47.1087 76.0485 47.1209 77.0957C47.1382 78.7255 47.146 80.6744 47.1443 82.9423C47.1443 83.0324 47.1894 83.0818 47.2795 83.0905C49.1521 83.2492 50.3666 84.8564 49.9323 86.6666C49.6185 87.9687 48.6926 88.6952 47.1547 88.846C47.1269 88.8495 47.1131 88.866 47.1131 88.8955C47.1304 96.4429 47.1304 103.628 47.1131 110.451C47.1113 111.873 47.2431 112.846 47.5084 113.371C47.8777 114.1 48.4776 114.584 49.3081 114.825C49.7086 114.941 50.436 114.996 51.4902 114.989C59.7988 114.939 66.4421 114.944 71.42 115.005C71.4371 115.005 71.4535 114.999 71.4665 114.989C71.4795 114.978 71.4883 114.963 71.4914 114.946C71.4945 114.929 71.4916 114.911 71.4833 114.896C71.4751 114.881 71.4619 114.869 71.446 114.862C67.7607 113.442 64.2314 110.589 62.9622 106.786C61.8231 103.369 63.2379 99.5301 67.0611 98.8513C67.9219 98.6978 69.2171 98.7992 69.9506 98.768C71.7676 98.6865 72.723 97.7685 72.8166 96.0138C72.8704 94.9908 72.8998 94.4542 72.905 94.4039C73.2536 90.3129 76.4785 89.1633 80.104 89.5249C88.2705 90.3363 96.5696 90.1603 105.001 88.9969C108.223 88.553 111.579 88.0857 115.069 87.5951C119.678 86.9475 123.633 90.0346 125.441 94.058C127.064 97.6679 127.173 101.899 126.018 105.663C125.708 106.677 125.006 108.26 123.912 110.412C121.654 114.859 118.142 121.67 113.376 130.844C113.363 130.867 113.357 130.894 113.358 130.921C113.359 130.948 113.366 130.974 113.38 130.997C113.394 131.02 113.414 131.039 113.437 131.052C113.46 131.065 113.487 131.072 113.514 131.072L119.038 131.065C119.149 131.065 119.196 131.01 119.181 130.901C118.936 129.144 119.081 127.482 119.615 125.915C120.144 124.365 121.023 123.016 122.252 121.868C124.234 120.02 126.701 119.156 129.654 119.275C129.743 119.279 129.787 119.235 129.787 119.145L129.789 115.205C129.968 114.9 130.095 114.564 130.169 114.198L130.232 119.239C130.232 119.275 130.244 119.311 130.268 119.338C130.291 119.366 130.324 119.384 130.359 119.39C135.345 120.175 138.726 124.362 138.827 129.384C138.772 129.308 138.717 129.285 138.663 129.314C138.62 129.34 138.579 129.383 138.541 129.442C138.529 129.424 138.516 129.405 138.502 129.384C138.486 129.362 138.478 129.337 138.476 129.309C138.372 127.085 137.638 125.087 136.273 123.317C134.862 121.488 133.02 120.322 130.746 119.819C129.899 119.632 129.095 119.736 128.203 119.756C127.454 119.774 126.822 119.86 126.307 120.016C124.44 120.585 122.897 121.601 121.68 123.065C120.61 124.351 119.943 125.927 119.678 127.793C119.395 129.78 119.665 131.691 120.489 133.528C120.725 134.055 121.066 134.382 121.514 134.511C122.093 134.677 122.863 134.871 123.823 135.093C123.961 135.127 124.112 135.101 124.242 135.023L125.862 134.042C126.117 133.888 126.285 133.949 126.367 134.225C126.37 134.238 126.378 134.265 126.39 134.305C126.472 134.576 126.383 134.766 126.125 134.877L125.056 135.34C125.036 135.348 125.019 135.362 125.008 135.38C124.996 135.397 124.99 135.418 124.991 135.44C124.991 135.461 124.998 135.481 125.011 135.499C125.024 135.516 125.041 135.528 125.061 135.535L132.091 138.131C132.248 138.188 132.417 138.209 132.584 138.192C132.751 138.174 132.913 138.119 133.056 138.029L134.476 137.143C134.792 136.947 134.795 136.752 134.486 136.557L131.698 134.805C131.584 134.733 131.516 134.632 131.496 134.5C131.461 134.271 131.45 134.147 131.464 134.128C131.534 134.033 131.633 133.965 131.743 133.938C131.854 133.911 131.967 133.926 132.062 133.98L135.641 136.022C135.668 136.037 135.701 136.041 135.733 136.034C135.765 136.027 135.795 136.009 135.818 135.983C137.259 134.334 138.136 132.41 138.45 130.212L138.52 130.482C138.541 130.56 138.59 130.585 138.666 130.557L138.749 130.524C138.716 131.118 138.607 131.703 138.421 132.279C137.535 135.046 135.784 137.098 133.168 138.433C133.154 138.44 133.142 138.451 133.134 138.465C133.127 138.478 133.123 138.494 133.124 138.51C133.125 138.525 133.13 138.54 133.139 138.552C133.148 138.564 133.161 138.573 133.176 138.578C135.126 139.294 136.94 139.904 138.616 140.407C141.532 141.28 144.294 141.522 147.831 141.686C147.906 141.69 147.943 141.654 147.943 141.58L147.919 130.266C147.919 130.219 147.901 130.174 147.868 130.14C147.835 130.107 147.79 130.087 147.743 130.087L145.189 130.074C145.303 129.859 145.28 129.639 145.118 129.416L148.122 129.403C148.188 129.402 148.253 129.415 148.314 129.44C148.375 129.465 148.43 129.502 148.477 129.548C148.524 129.594 148.561 129.65 148.586 129.71C148.611 129.771 148.624 129.836 148.624 129.902L148.655 141.587C148.656 141.642 148.677 141.695 148.714 141.735C148.751 141.776 148.802 141.801 148.856 141.806C151.975 142.09 154.735 143.185 157.137 145.091C157.532 145.404 158.037 145.541 158.653 145.502C158.83 145.491 158.917 145.397 158.916 145.218L158.913 139.561C158.913 139.518 158.93 139.476 158.961 139.445C158.992 139.415 159.033 139.397 159.077 139.397L164.356 139.4C164.392 139.4 164.426 139.386 164.452 139.362C164.478 139.337 164.493 139.303 164.494 139.267L164.546 138.016C164.671 138.093 164.787 138.093 164.895 138.016L164.955 139.218C164.96 139.308 165.007 139.353 165.098 139.353L171.979 139.408L168.609 139.431C168.578 139.431 168.548 139.44 168.522 139.456C168.496 139.473 168.475 139.496 168.462 139.524C168.449 139.552 168.444 139.583 168.447 139.614C168.45 139.645 168.462 139.675 168.481 139.699C168.506 139.73 168.559 139.756 168.643 139.777L159.464 139.795C159.447 139.795 159.429 139.799 159.413 139.806C159.397 139.813 159.382 139.823 159.37 139.835C159.357 139.848 159.348 139.863 159.341 139.879C159.335 139.895 159.331 139.913 159.332 139.931C159.356 142.296 159.361 144.478 159.347 146.477C159.344 146.863 159.385 147.152 159.472 147.343C159.735 147.933 159.987 148.505 160.786 148.5C162.252 148.49 165.131 148.491 169.423 148.503C169.416 148.661 169.467 148.801 169.576 148.924L160.692 148.903C160.61 148.903 160.589 148.939 160.627 149.01C162.317 152.14 163.053 155.42 162.835 158.851C162.641 161.891 161.967 165.099 160.814 168.477C159.777 171.511 158.535 174.303 157.087 176.851C155.524 179.603 153.55 182.784 151.584 185.665C151.518 185.761 151.425 185.808 151.306 185.806L148.705 185.777C148.692 185.777 148.68 185.779 148.668 185.784C148.656 185.788 148.645 185.795 148.636 185.804C148.627 185.812 148.62 185.823 148.614 185.834C148.609 185.846 148.606 185.858 148.606 185.871L148.596 195.182C148.62 194.426 148.5 194.091 148.237 194.178L148.203 185.923C148.201 185.822 148.154 185.772 148.063 185.772L145.165 185.785C145.138 185.785 145.112 185.779 145.088 185.766C145.064 185.754 145.043 185.736 145.027 185.715C145.011 185.693 144.999 185.667 144.994 185.641C144.989 185.614 144.989 185.586 144.996 185.559C145.693 182.773 146.089 180.006 144.887 177.327C144.877 177.305 144.871 177.281 144.871 177.256C144.871 177.232 144.877 177.207 144.887 177.185C144.898 177.163 144.913 177.143 144.932 177.127C144.95 177.111 144.972 177.1 144.996 177.093C146.812 176.586 147.867 174.584 148.023 172.805C148.19 170.888 147.548 168.727 145.847 167.681C144.814 167.046 143.519 167.187 142.515 167.858C141.051 168.838 140.187 170.479 139.87 172.238C139.864 172.272 139.844 172.303 139.816 172.324C139.788 172.345 139.754 172.354 139.719 172.349L136.895 171.991C136.876 171.988 136.858 171.982 136.841 171.973C136.825 171.963 136.811 171.951 136.799 171.935C136.788 171.92 136.78 171.902 136.775 171.884C136.77 171.865 136.77 171.846 136.772 171.827L137.28 168.656C137.285 168.626 137.283 168.595 137.274 168.566C137.266 168.537 137.251 168.509 137.231 168.486C137.211 168.463 137.186 168.444 137.158 168.431C137.13 168.419 137.1 168.412 137.069 168.412L128.544 168.42C128.464 168.42 128.419 168.461 128.408 168.544C128.351 169.007 128.326 169.384 128.333 169.673C128.362 170.922 127.758 171.504 126.52 171.421C126.243 171.402 125.02 171.401 122.851 171.418C122.226 171.424 121.8 171.33 121.571 171.137C120.814 170.508 120.791 169.283 120.921 168.355C120.935 168.258 120.893 168.215 120.796 168.227C119.929 168.338 118.96 168.381 117.888 168.357C117.81 168.356 117.733 168.375 117.666 168.413C117.598 168.452 117.542 168.508 117.503 168.576C117.24 169.028 117.092 169.274 117.059 169.314C115.711 171.024 114.838 172.166 114.44 172.74C113.332 174.331 112.429 175.937 111.732 177.556C111.721 177.582 111.716 177.61 111.719 177.638C111.721 177.666 111.73 177.693 111.746 177.717C111.761 177.74 111.783 177.76 111.807 177.773C111.832 177.786 111.86 177.793 111.888 177.793H115.862C115.879 177.793 115.896 177.796 115.911 177.803C115.926 177.81 115.94 177.82 115.951 177.833C115.962 177.846 115.97 177.861 115.975 177.877C115.98 177.894 115.981 177.911 115.979 177.928L115.688 179.962L115.324 179.827L115.537 178.42C115.54 178.4 115.539 178.38 115.533 178.36C115.527 178.341 115.517 178.323 115.504 178.308C115.491 178.292 115.474 178.28 115.456 178.272C115.437 178.263 115.417 178.259 115.397 178.258L111.86 178.225C111.784 178.224 111.709 178.207 111.64 178.175C111.571 178.144 111.51 178.098 111.462 178.041C111.414 177.984 111.379 177.918 111.36 177.846C111.341 177.775 111.338 177.701 111.352 177.629C111.434 177.201 111.609 176.734 111.878 176.23C112.863 174.371 113.969 172.603 115.196 170.927C115.204 170.916 115.207 170.903 115.206 170.891C115.206 170.878 115.201 170.865 115.193 170.856C115.185 170.846 115.174 170.839 115.161 170.835C115.149 170.832 115.135 170.833 115.124 170.838C114.336 171.197 113.691 171.157 113.186 170.716C112.489 170.108 112.57 168.526 112.663 167.665C112.752 166.845 113.213 166.433 114.047 166.427C115.098 166.419 115.881 166.422 116.398 166.438C116.418 166.439 116.439 166.434 116.457 166.426C116.475 166.417 116.492 166.405 116.504 166.389C116.517 166.373 116.526 166.354 116.53 166.334C116.534 166.314 116.533 166.294 116.528 166.274C115.926 163.952 115.915 161.554 116.494 159.078C116.504 159.038 116.498 158.996 116.478 158.96C116.459 158.924 116.426 158.895 116.388 158.88C113.248 157.637 111.048 155.42 109.789 152.23C109.699 152.001 109.584 151.857 109.443 151.798C109.196 151.694 108.981 151.769 108.798 152.022C107.524 153.804 106.257 155.567 104.999 157.312C104.95 157.379 104.929 157.461 104.939 157.543C106.35 168.239 107.946 178.902 109.727 189.53C109.743 189.629 109.701 189.685 109.602 189.699L109.532 189.71C109.428 189.724 109.367 189.678 109.35 189.574C107.606 178.988 106.004 168.375 104.546 157.736C104.534 157.649 104.486 157.607 104.401 157.611L101.836 157.715C101.895 157.666 101.934 157.622 101.953 157.582C101.979 157.534 101.965 157.485 101.912 157.437C101.839 157.371 101.743 157.346 101.623 157.361L104.325 157.161C104.416 157.154 104.505 157.128 104.584 157.083C104.664 157.039 104.733 156.977 104.785 156.903L108.518 151.707C108.648 151.526 108.721 151.307 108.728 151.08C108.739 150.758 108.747 150.109 108.754 149.135C108.758 148.719 108.704 148.068 108.593 147.182C108.465 146.166 108.443 145.168 108.528 144.188C108.649 142.784 108.712 141.912 108.715 141.574C108.738 139.884 108.748 139 108.746 138.922C108.746 138.821 108.696 138.769 108.596 138.766C108.161 138.75 107.99 138.599 107.896 138.131C107.813 137.72 107.772 137.009 107.774 135.998C107.782 132.305 107.808 129.483 107.852 127.533C107.854 127.437 107.893 127.362 107.971 127.306C111.332 124.916 111.134 118.097 107.48 116.003C104.934 114.544 102.523 116.693 101.579 119.002C101.381 119.484 101.221 119.961 101.098 120.433C101.095 120.443 101.09 120.454 101.083 120.463C101.076 120.471 101.068 120.479 101.057 120.484C101.047 120.489 101.036 120.492 101.025 120.493C101.013 120.493 101.002 120.491 100.991 120.487L98.2159 119.306C98.1635 119.284 98.1222 119.241 98.1008 119.187C98.0794 119.133 98.0797 119.073 98.1014 119.018C98.2107 118.733 98.4404 118.106 98.7906 117.135C99.0221 116.49 98.9805 116.1 98.788 115.452C97.9376 112.589 96.0884 110.139 93.2094 109.241C92.8297 109.124 92.2965 109.091 91.9298 109.091C87.3368 109.108 82.8504 109.107 78.4707 109.088C78.4156 109.087 78.3617 109.104 78.3175 109.137C78.2733 109.17 78.2412 109.217 78.2262 109.27C77.6775 111.257 77.9844 113.397 78.6892 115.382C78.7187 115.465 78.7039 115.54 78.645 115.608C76.5574 117.982 74.7273 120.524 73.1547 123.236C73.075 123.167 72.9536 123.129 72.7906 123.122C74.0078 120.755 75.6307 118.607 77.3316 116.531C77.3923 116.455 77.3749 116.409 77.2796 116.394C76.3572 116.239 75.6038 116.087 75.0195 115.936C74.4768 115.797 73.7148 115.728 72.7334 115.728C65.6506 115.731 58.5687 115.728 51.4876 115.717C50.325 115.715 49.2899 115.775 48.3953 115.273C47.0446 114.517 46.371 113.384 46.3744 111.876C46.3848 106.185 46.3909 98.5253 46.3927 88.8955C46.3927 88.814 46.3545 88.7602 46.2782 88.7342C44.7871 88.195 44.1057 87.1573 44.234 85.6211C44.338 84.371 45.0307 83.5587 46.312 83.1841C46.3918 83.1599 46.4308 83.1061 46.4291 83.0229C46.3961 82.0415 46.3848 79.8473 46.3952 76.4403C46.4005 74.4741 47.1148 73.1893 48.5383 72.5859C49.1608 72.3224 50.4499 72.1958 52.4057 72.2062C56.2011 72.2253 60.0017 72.2314 63.8075 72.2244C64.7715 72.2227 65.4356 72.1516 65.7997 72.0112C66.4932 71.7424 66.9614 71.1963 67.2041 70.3727C67.2856 70.0987 67.3212 69.4763 67.3108 68.5053C67.2952 66.9518 67.2952 64.4307 67.3108 60.9422C67.3108 60.9195 67.3017 60.8976 67.2856 60.8815C67.2695 60.8654 67.2477 60.8564 67.2249 60.8564C66.1794 60.8495 65.1885 60.6345 64.2522 60.2114C60.9458 58.7134 58.9085 56.2279 58.1404 52.755C57.8456 51.4182 57.863 50.0207 58.1924 48.5625C58.3433 48.6475 58.4594 48.6561 58.5409 48.5885ZM49.1209 85.9514C49.1209 85.414 48.9074 84.8987 48.5275 84.5188C48.1475 84.1388 47.6322 83.9254 47.0949 83.9254C46.5575 83.9254 46.0422 84.1388 45.6623 84.5188C45.2823 84.8987 45.0689 85.414 45.0689 85.9514C45.0689 86.4887 45.2823 87.004 45.6623 87.384C46.0422 87.7639 46.5575 87.9774 47.0949 87.9774C47.6322 87.9774 48.1475 87.7639 48.5275 87.384C48.9074 87.004 49.1209 86.4887 49.1209 85.9514ZM109.079 141C109.074 141.265 109.113 141.272 109.196 141.02C110.406 137.429 113.178 134.984 116.895 134.435C118.108 134.257 119.281 134.256 120.411 134.433C120.423 134.435 120.436 134.433 120.447 134.428C120.459 134.423 120.468 134.415 120.475 134.404C120.482 134.393 120.486 134.381 120.486 134.368C120.486 134.355 120.483 134.342 120.476 134.331C120.048 133.657 119.709 132.873 119.459 131.98C119.45 131.948 119.431 131.919 119.404 131.899C119.377 131.879 119.344 131.868 119.311 131.868L112.996 131.847C112.906 131.847 112.841 131.89 112.801 131.975C111.818 134.045 110.754 136.092 109.61 138.115C109.313 138.637 109.154 139.091 109.131 139.478C109.116 139.766 109.098 140.273 109.079 141ZM159.001 146.425C158.871 146.079 158.869 145.728 158.362 145.811C158.342 145.814 158.323 145.822 158.306 145.834C158.29 145.846 158.277 145.861 158.267 145.879C158.258 145.897 158.253 145.917 158.253 145.937C158.252 145.957 158.257 145.977 158.265 145.996C158.397 146.271 158.605 146.453 158.89 146.542C159.007 146.58 159.045 146.541 159.001 146.425ZM109.043 151.348C109.045 151.395 109.066 151.426 109.108 151.442C109.144 151.456 109.193 151.449 109.254 151.421C109.335 151.385 109.371 151.323 109.36 151.236C109.327 150.924 109.275 150.645 109.204 150.399C109.154 150.225 109.117 150.228 109.092 150.407C109.056 150.655 109.039 150.968 109.043 151.348ZM122.034 166.331C122.081 166.316 122.132 166.314 122.18 166.327C122.229 166.34 122.273 166.367 122.307 166.404C122.468 166.579 122.683 166.669 122.952 166.675C123.536 166.683 125.032 166.675 127.438 166.651C127.525 166.649 127.602 166.677 127.67 166.734C127.965 166.986 128.256 167.112 128.544 167.114C131.172 167.142 134.064 167.138 137.22 167.104C137.242 167.103 137.264 167.098 137.284 167.088C137.304 167.079 137.322 167.064 137.336 167.047C137.35 167.03 137.36 167.009 137.365 166.988C137.37 166.966 137.37 166.943 137.365 166.922C137.022 165.215 136.23 163.745 134.988 162.511C133.334 160.864 131.292 160.022 128.861 159.985C124.868 159.925 122.57 159.899 121.969 159.907C120.271 159.933 118.615 159.674 116.999 159.13C116.986 159.125 116.973 159.124 116.959 159.125C116.946 159.126 116.933 159.13 116.921 159.136C116.91 159.142 116.899 159.151 116.891 159.162C116.883 159.172 116.877 159.184 116.874 159.197C116.304 161.494 116.143 164.539 117.235 166.706C117.365 166.962 117.585 167.092 117.893 167.093C119.027 167.098 119.973 167.088 120.731 167.062C121.077 167.049 121.264 167.013 121.475 166.747C121.645 166.534 121.831 166.395 122.034 166.331ZM115.501 170.253C116.221 169.53 116.796 168.698 116.929 167.782C116.936 167.729 116.933 167.675 116.918 167.624C116.902 167.573 116.876 167.525 116.841 167.485C116.806 167.444 116.762 167.412 116.713 167.389C116.664 167.367 116.611 167.356 116.557 167.356L114.427 167.361C114.385 167.361 114.345 167.377 114.315 167.407C114.286 167.436 114.269 167.476 114.268 167.517C114.254 168.559 114.27 169.3 114.315 169.738C114.39 170.453 114.978 170.773 115.501 170.253ZM127.277 170.854C127.338 170.853 127.396 170.828 127.44 170.786C127.484 170.744 127.51 170.686 127.514 170.625L127.654 168.082C127.656 168.048 127.652 168.015 127.64 167.984C127.629 167.952 127.611 167.924 127.588 167.899C127.565 167.875 127.538 167.856 127.507 167.843C127.476 167.83 127.443 167.824 127.41 167.824L123.295 167.845C123.232 167.845 123.171 167.87 123.126 167.914C123.081 167.958 123.055 168.018 123.053 168.082L122.999 170.682C122.998 170.715 123.004 170.747 123.016 170.778C123.028 170.808 123.046 170.836 123.07 170.859C123.093 170.882 123.12 170.9 123.15 170.912C123.181 170.924 123.213 170.93 123.246 170.929L127.277 170.854Z" fill="#0B0E1D"/>
<path d="M209.037 57.446C209.037 58.3641 208.672 59.2446 208.023 59.8938C207.373 60.543 206.493 60.9077 205.575 60.9077C204.657 60.9077 203.776 60.543 203.127 59.8938C202.478 59.2446 202.113 58.3641 202.113 57.446C202.113 56.5279 202.478 55.6475 203.127 54.9983C203.776 54.3491 204.657 53.9844 205.575 53.9844C206.493 53.9844 207.373 54.3491 208.023 54.9983C208.672 55.6475 209.037 56.5279 209.037 57.446ZM206.802 57.4486C206.802 57.1148 206.67 56.7946 206.434 56.5585C206.198 56.3225 205.878 56.1898 205.544 56.1898C205.21 56.1898 204.89 56.3225 204.654 56.5585C204.418 56.7946 204.285 57.1148 204.285 57.4486C204.285 57.7825 204.418 58.1026 204.654 58.3387C204.89 58.5748 205.21 58.7074 205.544 58.7074C205.878 58.7074 206.198 58.5748 206.434 58.3387C206.67 58.1026 206.802 57.7825 206.802 57.4486Z" fill="#0B0E1D"/>
<path d="M173.631 65.2635C173.807 65.2964 173.944 65.2019 174.039 64.98L174.068 79.3701C174.067 79.4389 174.09 79.5059 174.132 79.5608C174.173 79.6158 174.232 79.6557 174.299 79.6744C176.168 80.2137 178 80.6723 179.794 81.0502C182.881 81.7004 185.507 82.3055 187.675 82.8656C187.69 82.8697 187.705 82.8702 187.721 82.8671C187.736 82.864 187.75 82.8574 187.762 82.8477C187.774 82.8381 187.784 82.8258 187.791 82.8117C187.797 82.7976 187.8 82.7822 187.8 82.7668L187.779 80.4937C188.034 80.9445 188.172 80.7139 188.195 79.8019L188.221 82.9644C188.221 83.0036 188.233 83.0419 188.257 83.0737C188.28 83.1055 188.313 83.1291 188.351 83.1413C192.593 84.4859 196.622 87.3337 198.374 91.4274C200.263 95.8348 200.181 100.314 198.13 104.866C194.296 113.368 189.862 121.83 184.827 130.249C184.666 130.518 184.328 130.771 183.813 131.009C183.733 131.045 183.693 131.107 183.693 131.193L183.688 139.258C183.688 139.293 183.702 139.326 183.726 139.35C183.75 139.375 183.783 139.388 183.818 139.388L191.706 139.396C191.743 139.396 191.779 139.411 191.805 139.437C191.832 139.464 191.846 139.499 191.846 139.537L191.836 147.857C191.834 147.966 191.875 147.983 191.958 147.909C193.677 146.327 195.5 144.911 197.428 143.659C197.468 143.632 197.502 143.597 197.525 143.554C197.548 143.512 197.56 143.465 197.56 143.417C197.55 135.221 197.547 130.142 197.553 128.179C197.554 127.345 197.673 126.73 197.909 126.335C198.278 125.718 198.905 125.388 199.789 125.344C200.823 125.294 203.827 125.281 208.804 125.305C210.255 125.312 210.979 124.583 210.975 123.118C210.956 116.949 210.956 110.775 210.975 104.598C211.09 104.827 211.208 104.783 211.332 104.468C211.347 110.434 211.357 116.398 211.36 122.361C211.362 123.403 211.27 124.113 211.084 124.491C210.546 125.596 209.547 125.779 208.304 125.773C205.766 125.763 203.227 125.759 200.689 125.763C199.829 125.765 199.247 125.837 198.941 125.979C198.31 126.277 197.996 126.863 197.997 127.737C198.008 132.522 198.01 137.668 198.005 143.173C198.005 143.264 198.044 143.287 198.122 143.24C202.552 140.643 207.338 139.621 212.478 140.174C212.586 140.184 212.625 140.235 212.596 140.327L212.507 140.598C212.469 140.716 212.51 140.782 212.629 140.795C213.656 140.922 214.547 141.138 215.303 141.443C216.661 141.993 217.901 142.777 219.025 143.797C219.978 144.665 220.886 145.774 221.748 147.123C225.105 152.387 226.229 158.66 226.824 164.923C227.187 168.715 227.585 172.359 228.018 175.857C229.039 184.07 230.459 192.242 232.278 200.374C231.21 199.967 230.225 199.391 229.321 198.647C229.165 198.604 228.996 198.516 228.814 198.382C226.846 196.896 225.097 195.176 223.566 193.222C223.446 193.071 223.24 192.775 222.947 192.333C222.633 191.859 222.415 191.562 222.294 191.441C222.235 191.383 222.205 191.395 222.205 191.477L222.242 201.128C222.242 201.173 222.26 201.216 222.291 201.248C222.323 201.28 222.366 201.298 222.411 201.298L226.967 201.279C227.051 201.278 227.092 201.319 227.092 201.404L227.108 208.143L226.466 209.781C226.434 209.861 226.375 209.903 226.289 209.909L218.471 210.291C212.465 210.294 206.458 210.317 200.45 210.359C199.94 210.362 199.579 210.417 199.368 210.522C197.62 211.405 195.86 212.261 194.088 213.089L193.683 212.827L199.287 210.145C199.336 210.123 199.376 210.087 199.405 210.041C199.434 209.996 199.449 209.944 199.449 209.89L199.48 202.91C199.48 202.653 199.35 202.525 199.09 202.525L192.333 202.559C192.437 202.531 192.478 202.461 192.455 202.348C192.436 202.26 192.382 202.215 192.294 202.213L190.231 202.145L199.227 202.047C199.292 202.046 199.353 202.024 199.399 201.987C199.445 201.949 199.472 201.898 199.475 201.844L199.49 201.537C199.497 201.428 199.557 201.372 199.67 201.37L203.09 201.3C203.121 201.299 203.151 201.286 203.173 201.263C203.194 201.241 203.207 201.21 203.207 201.178C203.201 199.761 203.2 197.237 203.201 193.604C203.201 193.348 203.178 193.086 203.131 192.819C203.117 192.732 203.07 192.704 202.988 192.736C200.474 193.708 198.093 194.057 195.844 193.781C192.655 193.393 190.542 191.604 189.503 188.416C189.134 187.284 188.921 186.276 188.863 185.394C188.751 183.679 188.765 182.059 188.905 180.533C188.976 179.746 189.029 179.193 189.064 178.874C189.065 178.855 189.063 178.836 189.057 178.818C189.051 178.8 189.042 178.783 189.029 178.769C189.016 178.755 189.001 178.744 188.983 178.737C188.966 178.729 188.947 178.725 188.928 178.725C187.042 178.73 185.995 178.738 185.787 178.749C185.345 178.773 185.044 178.711 184.884 178.564C184.82 178.503 184.777 178.43 184.754 178.343C184.7 178.144 184.732 177.921 184.848 177.675C186.203 174.806 187.982 172.335 190.023 169.747C190.035 169.732 190.043 169.715 190.047 169.697C190.052 169.679 190.052 169.66 190.048 169.641C190.044 169.623 190.037 169.606 190.026 169.591C190.015 169.576 190.001 169.564 189.984 169.555C189.66 169.382 189.359 169.142 189.082 168.837C186.562 166.049 185.714 162.515 186.138 158.814C186.563 155.095 188.055 151.851 190.614 149.084C190.716 148.973 190.692 148.918 190.541 148.918L179.589 148.912L179.391 148.507L190.96 148.509C191.28 148.509 191.441 148.35 191.441 148.031L191.433 139.966C191.433 139.918 191.414 139.873 191.38 139.839C191.347 139.805 191.301 139.786 191.253 139.786L176.53 139.771C177.172 139.776 177.435 139.659 177.318 139.42L183.053 139.412C183.214 139.412 183.294 139.332 183.292 139.173L183.266 131.284C183.267 131.267 183.262 131.25 183.254 131.234C183.245 131.219 183.233 131.206 183.218 131.197C183.203 131.188 183.186 131.183 183.169 131.182C183.151 131.181 183.134 131.185 183.118 131.193L182.028 131.766C182.005 131.779 181.978 131.786 181.951 131.787C181.924 131.788 181.898 131.783 181.873 131.772C181.849 131.761 181.828 131.745 181.811 131.724C181.795 131.704 181.784 131.68 181.779 131.654C181.651 130.964 181.587 130.243 181.589 129.492C181.589 125.596 181.94 121.903 182.291 118.117C182.294 118.076 182.306 118.037 182.325 118.002C182.345 117.967 182.371 117.936 182.403 117.911C185.313 115.604 185.316 110.34 182.601 107.924C180.806 106.325 178.629 106.899 177.204 108.665C176.582 109.437 176.139 110.349 175.875 111.401C175.87 111.422 175.86 111.442 175.846 111.459C175.832 111.476 175.815 111.49 175.796 111.499C175.776 111.509 175.755 111.514 175.733 111.515C175.711 111.515 175.69 111.511 175.67 111.503L172.967 110.33C172.903 110.302 172.85 110.253 172.817 110.19C172.784 110.127 172.774 110.054 172.788 109.984C173.118 108.325 173.459 106.97 173.058 105.414C172.408 102.897 170.112 101.024 167.657 100.395C167.005 100.227 165.885 100.141 164.296 100.137C162.847 100.132 161.72 100.109 160.915 100.067C159.166 99.977 157.409 99.7386 155.646 99.352C154.682 99.1404 153.701 98.8119 152.702 98.3663C152.68 98.3568 152.656 98.3529 152.632 98.3547C152.609 98.3565 152.586 98.364 152.566 98.3766C152.546 98.3892 152.529 98.4064 152.518 98.4268C152.506 98.4473 152.5 98.4702 152.499 98.4937C152.458 100.46 152.255 102.73 152.681 104.834C152.877 105.805 152.988 106.357 153.014 106.489C153.022 106.529 153.021 106.571 153.012 106.612C153.002 106.652 152.983 106.69 152.957 106.723L149.839 110.652L149.464 110.507C150.484 109.076 151.414 107.901 152.255 106.98C152.466 106.748 152.549 106.519 152.502 106.293C152.084 104.339 151.934 102.363 152.052 100.364C152.128 99.0685 152.167 98.4087 152.169 98.3845C152.173 98.316 152.157 98.2484 152.124 98.1905C152.09 98.1325 152.041 98.0869 151.982 98.0594C151.375 97.782 151.068 97.6406 151.061 97.6354C145.877 94.6497 143.645 90.1235 144.367 84.0567C144.369 84.0341 144.367 84.0112 144.36 83.9894C144.353 83.9677 144.342 83.9477 144.326 83.9308C144.311 83.9138 144.292 83.9003 144.272 83.891C144.251 83.8818 144.228 83.8771 144.205 83.8773L124.171 83.8591C124.093 83.8591 124.017 83.8293 123.961 83.7763C123.905 83.7232 123.873 83.651 123.872 83.5756L123.846 76.8006C123.845 76.7399 123.803 76.7087 123.722 76.7069C121.974 76.6514 120.451 76.2214 119.152 75.4169C116.191 73.5842 114.514 70.9289 114.122 67.4507C114.118 67.4168 114.101 67.3856 114.076 67.3631C114.05 67.3406 114.018 67.3283 113.984 67.3285L96.2208 67.3701C96.1941 67.3703 96.1683 67.3786 96.1468 67.394C96.1253 67.4094 96.1094 67.4311 96.1012 67.4559C95.6695 68.7147 94.8728 69.5019 93.7111 69.8174C91.4276 70.4364 89.2299 68.6705 89.3912 66.2986C89.5914 63.3857 93.2299 62.1919 95.2143 64.1867C95.8888 64.8647 96.2312 65.7403 96.2416 66.8135C96.2416 66.8968 96.2832 66.9384 96.3665 66.9384L113.987 66.941C114.019 66.941 114.049 66.9285 114.072 66.9061C114.095 66.8837 114.108 66.8533 114.109 66.8213C114.203 62.83 115.902 59.8313 119.207 57.8252C121.142 56.6523 123.742 56.2622 125.956 56.7147C130.471 57.6406 133.875 61.638 133.943 66.3116C133.993 69.8296 132.635 72.6488 129.87 74.7693C128.275 75.9917 126.434 76.6376 124.348 76.7069C124.314 76.7083 124.282 76.7229 124.259 76.7477C124.235 76.7725 124.223 76.8055 124.223 76.8396L124.286 83.2531C124.287 83.3085 124.309 83.3614 124.349 83.4004C124.388 83.4393 124.441 83.4612 124.497 83.4612L144.408 83.4378C144.486 83.4378 144.536 83.3996 144.556 83.3233C145.711 78.8916 148.772 75.6016 153.251 74.5379C156.27 73.8201 159.917 74.4078 162.848 75.4976C163.942 75.905 165.454 76.5058 167.383 77.2999C169.43 78.1426 171.337 78.7824 173.524 79.4768C173.538 79.4812 173.553 79.4823 173.567 79.4798C173.582 79.4773 173.595 79.4715 173.607 79.4626C173.619 79.4538 173.629 79.4422 173.635 79.4289C173.642 79.4155 173.646 79.4007 173.646 79.3857L173.631 65.2635ZM121.612 71.651L121.615 71.7498C121.619 71.8449 121.598 71.9387 121.554 72.0211C121.51 72.1036 121.444 72.1716 121.365 72.218L118.309 73.9865C118.279 74.0048 118.253 74.0302 118.234 74.0606C118.215 74.091 118.204 74.1255 118.201 74.1612C118.198 74.1968 118.204 74.2326 118.218 74.2656C118.232 74.2986 118.253 74.3277 118.281 74.3506C119.985 75.755 121.956 76.4156 124.192 76.3324C126.342 76.2544 128.297 75.553 130.057 74.2284C130.07 74.2185 130.08 74.2056 130.087 74.1908C130.094 74.1761 130.097 74.1599 130.096 74.1437C130.095 74.1275 130.09 74.1118 130.081 74.098C130.072 74.0842 130.061 74.0727 130.047 74.0645C128.576 73.2375 127.472 72.5621 126.733 72.0385C126.626 71.9622 126.621 71.7975 126.718 71.5444C126.733 71.501 126.76 71.475 126.798 71.4663C126.927 71.4366 127.049 71.421 127.152 71.421C127.255 71.421 127.336 71.4366 127.389 71.4663L130.681 73.3753C130.705 73.3901 130.734 73.3961 130.762 73.3923C130.791 73.3886 130.817 73.3752 130.837 73.3545C132.448 71.6727 133.35 69.7256 133.542 67.5132C133.674 66.0134 133.48 64.5838 132.96 63.2245C132.391 61.7385 131.56 60.4928 130.468 59.4871C128.197 57.3978 125.583 56.5734 122.627 57.0138C119.407 57.4923 116.863 59.4949 115.477 62.4C115.004 63.3918 114.697 64.4754 114.556 65.651C114.208 68.5639 115.308 71.0918 117.144 73.3207C117.19 73.3757 117.253 73.4131 117.323 73.4264C117.393 73.4397 117.465 73.4281 117.526 73.3935L121.17 71.3961C121.453 71.2418 121.6 71.3268 121.612 71.651ZM95.3236 66.5613C95.3236 65.8887 95.0564 65.2438 94.5809 64.7682C94.1053 64.2927 93.4603 64.0255 92.7878 64.0255C92.1153 64.0255 91.4703 64.2927 90.9947 64.7682C90.5192 65.2438 90.252 65.8887 90.252 66.5613C90.252 67.2338 90.5192 67.8788 90.9947 68.3543C91.4703 68.8299 92.1153 69.097 92.7878 69.097C93.4603 69.097 94.1053 68.8299 94.5809 68.3543C95.0564 67.8788 95.3236 67.2338 95.3236 66.5613ZM157.389 79.4091C158.661 78.1174 160.088 77.0338 161.67 76.1582C162.313 75.8045 162.275 75.6623 161.555 75.7316C161.415 75.7455 161.162 75.8729 160.796 76.114C159.792 76.7798 158.84 77.5002 157.94 78.2752C155.494 80.3818 153.916 82.9835 153.207 86.0801C152.224 90.3766 153.62 94.5925 155.381 98.4651C155.468 98.6558 155.547 98.7555 155.62 98.7642C155.673 98.7702 155.726 98.7608 155.773 98.7368C155.82 98.7128 155.86 98.6752 155.888 98.628C155.916 98.5807 155.932 98.5257 155.933 98.4686C155.935 98.4115 155.922 98.3546 155.896 98.3038C154.935 96.4365 154.217 94.4677 153.74 92.3975C152.753 88.1096 153.55 84.2908 156.13 80.941C156.723 80.1712 157.142 79.6605 157.389 79.4091ZM155.529 82.8942C154.572 84.4997 154.051 86.1668 153.966 87.8955C153.872 89.7802 154.144 91.6926 154.78 93.6328C155.104 94.6211 155.654 95.8496 156.429 97.3181C156.875 98.1643 157.258 98.7815 157.579 99.1699C157.607 99.2048 157.66 99.2466 157.732 99.2921C157.805 99.3376 157.895 99.3856 157.997 99.4326C158.094 99.4759 158.193 99.4959 158.294 99.4924C158.426 99.4872 158.452 99.4317 158.372 99.326C156.607 97.0113 155.415 94.4772 154.796 91.7239C154.239 89.2531 154.335 86.6419 155.321 84.3688C156.694 81.2011 159.425 78.6549 162.478 77.084C162.593 77.0251 162.628 76.9358 162.582 76.8162C162.565 76.7676 162.533 76.7321 162.486 76.7095C162.353 76.6454 162.221 76.6488 162.091 76.7199C159.244 78.2717 157.057 80.3298 155.529 82.8942ZM165.919 99.456C164.589 98.088 163.784 96.5509 163.503 94.8448C163.056 92.1174 163.31 89.4785 164.265 86.928C164.281 86.8862 164.285 86.8334 164.275 86.7738C164.266 86.7142 164.244 86.6494 164.211 86.5847C164.193 86.5518 164.167 86.5284 164.132 86.5145C163.994 86.459 163.912 86.4633 163.888 86.5275C163.122 88.5457 162.758 90.6072 162.798 92.7122C162.848 95.2245 163.573 97.7083 165.238 99.5262C165.356 99.6545 165.495 99.71 165.657 99.6927L165.82 99.6745C166.008 99.6554 166.041 99.5826 165.919 99.456ZM215.641 173.578C215.637 173.594 215.629 173.609 215.619 173.622C215.608 173.634 215.595 173.645 215.58 173.652C215.566 173.66 215.55 173.664 215.533 173.664C215.517 173.665 215.5 173.662 215.485 173.656L212.51 172.421C212.489 172.413 212.47 172.4 212.454 172.384C212.439 172.368 212.426 172.349 212.418 172.328C212.409 172.307 212.405 172.285 212.405 172.262C212.405 172.239 212.41 172.216 212.419 172.195C212.908 171.042 213.293 169.822 213.576 168.535C213.602 168.412 213.553 168.365 213.43 168.392C210.45 169.069 207.612 168.974 204.918 168.109C200.01 166.538 196.523 162.468 195.48 157.425C195.105 155.61 195.059 153.857 195.342 152.166C195.397 151.833 195.318 151.797 195.103 152.057C192.728 154.905 191.212 158.455 190.437 162.135C189.958 164.411 190.211 166.55 191.196 168.551C191.234 168.628 191.248 168.715 191.237 168.801C191.226 168.886 191.19 168.967 191.134 169.032C188.97 171.564 187.097 174.276 185.514 177.17C185.33 177.503 185.21 177.785 185.155 178.015C185.097 178.253 185.191 178.368 185.436 178.361L189.287 178.26C189.316 178.259 189.345 178.265 189.371 178.276C189.398 178.288 189.421 178.305 189.441 178.327C189.46 178.349 189.474 178.374 189.483 178.402C189.491 178.43 189.494 178.46 189.49 178.489C188.944 182.678 188.484 189.563 192.72 192.26C193.579 192.806 194.466 193.15 195.384 193.292C197.324 193.589 199.215 193.478 201.058 192.959C203.07 192.394 205.063 191.575 207.038 190.502C207.059 190.49 207.083 190.483 207.108 190.481C207.133 190.479 207.156 190.482 207.177 190.491C207.198 190.5 207.216 190.513 207.228 190.53C207.24 190.547 207.246 190.567 207.246 190.587V190.671C207.242 190.809 207.218 190.889 207.173 190.91L203.735 192.473C203.61 192.53 203.548 192.621 203.55 192.746L203.568 193.474C203.568 193.497 203.574 193.519 203.585 193.539C203.597 193.558 203.613 193.575 203.632 193.586C203.652 193.598 203.674 193.605 203.697 193.606C203.72 193.606 203.743 193.602 203.763 193.591C204.843 193.043 205.918 192.548 206.988 192.104C207.001 192.098 207.015 192.096 207.028 192.097C207.042 192.097 207.056 192.101 207.068 192.108C207.08 192.114 207.091 192.123 207.099 192.134C207.107 192.145 207.113 192.158 207.116 192.171L207.134 192.255C207.158 192.369 207.116 192.451 207.006 192.502L203.875 193.963C203.79 194.003 203.717 194.067 203.667 194.147C203.616 194.227 203.589 194.32 203.589 194.416L203.623 201.126C203.624 201.172 203.642 201.217 203.676 201.249C203.709 201.282 203.753 201.3 203.8 201.3L221.631 201.295C221.682 201.295 221.732 201.274 221.769 201.238C221.805 201.201 221.826 201.152 221.826 201.1L221.839 180.715C221.839 180.628 221.874 180.557 221.945 180.502C222.904 179.763 223.554 178.79 223.896 177.584C224.619 175.024 224.135 171.792 222.016 170.062C221.22 169.414 220.36 169.171 219.436 169.334C217.397 169.693 216.135 171.649 215.641 173.578Z" fill="#0B0E1D"/>
<path d="M124.034 60.4689C125.299 60.4585 126.376 60.9821 127.264 62.0398C128.013 62.9344 128.296 64.0285 128.114 65.322C127.888 66.9293 126.801 68.7654 125.084 69.1191C125.059 69.1242 125.035 69.1348 125.014 69.1502C124.993 69.1656 124.975 69.1853 124.963 69.2081C124.95 69.2308 124.942 69.2561 124.941 69.282C124.939 69.308 124.942 69.334 124.952 69.3584C125.375 70.4819 125.215 71.5543 124.473 72.5756C124.366 72.7229 124.25 72.7966 124.127 72.7966C124.004 72.7984 123.887 72.7264 123.776 72.5808C123.018 71.5717 122.843 70.5019 123.251 69.3714C123.259 69.3468 123.263 69.3206 123.26 69.2947C123.258 69.2687 123.25 69.2436 123.237 69.2211C123.224 69.1986 123.206 69.1792 123.184 69.1643C123.163 69.1493 123.139 69.1393 123.113 69.1347C121.391 68.807 120.275 66.9865 120.026 65.3844C119.825 64.0927 120.092 62.9943 120.827 62.0892C121.697 61.0177 122.766 60.4776 124.034 60.4689Z" fill="#0B0E1D"/>
<path d="M156.365 106.916C156.357 108.121 156.868 109.101 157.508 109.106C158.147 109.11 158.672 108.137 158.68 106.932C158.688 105.727 158.177 104.746 157.538 104.742C156.899 104.737 156.374 105.711 156.365 106.916Z" fill="#0B0E1D"/>
<path d="M81.9626 115.88C81.9626 117.095 82.4808 118.08 83.12 118.08C83.7592 118.08 84.2773 117.095 84.2773 115.88C84.2773 114.665 83.7592 113.68 83.12 113.68C82.4808 113.68 81.9626 114.665 81.9626 115.88Z" fill="#0B0E1D"/>
<path d="M128.159 132.059C128.173 132.046 128.182 132.029 128.187 132.011C128.192 131.992 128.191 131.973 128.186 131.954C128.18 131.936 128.169 131.92 128.155 131.907C128.141 131.894 128.123 131.886 128.104 131.883C127.387 131.74 126.801 131.427 126.349 130.941C125.761 130.315 125.354 129.684 125.126 129.048C124.32 126.798 125.121 124.45 127.355 123.453C129.361 122.561 131.652 123.57 132.622 125.469C133.332 126.858 133.087 128.58 132.338 129.916C131.818 130.847 131.074 131.479 130.104 131.812C130.057 131.829 130.017 131.861 129.991 131.903C129.965 131.945 129.954 131.995 129.961 132.044C130.125 133.251 130.12 134.379 129.176 135.284C129.119 135.339 129.046 135.372 128.967 135.378C128.889 135.384 128.81 135.363 128.744 135.318C128.107 134.879 127.899 133.753 127.852 133.014C127.824 132.606 127.927 132.288 128.159 132.059Z" fill="#0B0E1D"/>
<path d="M218.224 132.819C216.388 134.804 215.163 137.324 214.549 140.377C214.511 140.562 214.392 140.634 214.192 140.59L213.285 140.398C213.134 140.365 213.069 140.269 213.09 140.112C214.018 132.809 218.349 126.083 226.226 125.225C228.762 124.949 231.267 125.17 233.558 126.273C233.743 126.363 233.736 126.432 233.537 126.481C233.378 126.521 233.078 126.554 232.64 126.58C229.954 126.741 227.225 127.39 224.453 128.528C222.027 129.523 219.951 130.953 218.224 132.819Z" fill="#0B0E1D"/>
<path d="M219.701 143.846C218.73 142.938 217.651 141.916 216.431 141.412C216.175 141.306 215.733 141.119 215.105 140.85C215.017 140.812 214.98 140.746 214.996 140.652C215.551 137.386 216.963 134.662 219.232 132.481C220.798 130.977 222.585 129.814 224.593 128.99C227.514 127.792 230.538 127.104 233.664 126.925C233.888 126.912 234.08 126.808 234.291 126.754C234.379 126.729 234.461 126.743 234.535 126.795C236.758 128.316 238.312 130.358 239.196 132.92C239.202 132.939 239.204 132.96 239.2 132.98C239.196 133 239.186 133.018 239.173 133.033C239.159 133.048 239.142 133.059 239.123 133.065C239.104 133.072 239.083 133.073 239.063 133.068C237.879 132.819 236.705 132.757 235.542 132.884C230.681 133.407 225.183 135.656 222.049 139.396C221.024 140.619 220.327 142.046 219.958 143.677C219.941 143.755 219.901 143.815 219.838 143.857C219.79 143.891 219.744 143.888 219.701 143.846Z" fill="#0B0E1D"/>
<path d="M52.2062 132.273L52.2088 141.863C52.2088 141.891 52.2145 141.918 52.2256 141.944C52.2368 141.97 52.2531 141.993 52.2737 142.012C52.2942 142.031 52.3184 142.045 52.3449 142.055C52.3713 142.064 52.3994 142.068 52.4273 142.065C59.094 141.587 65.4971 142.429 71.6367 144.593C76.1647 146.188 79.9254 149.233 81.8318 153.644C82.8912 156.096 83.3602 158.688 83.2388 161.42C83.1088 164.401 82.0034 167.027 79.9228 169.298C79.6905 169.553 79.4633 169.73 79.2414 169.829C79.2102 169.843 79.183 169.864 79.1618 169.891C79.1406 169.918 79.126 169.951 79.119 169.986C79.112 170.021 79.1128 170.057 79.1214 170.093C79.13 170.129 79.1461 170.163 79.1686 170.193L81.2518 172.958C81.2882 173.008 81.3255 172.999 81.3636 172.932L89.6367 158.24C89.722 158.086 89.7667 157.913 89.7668 157.738L89.7824 143.345C89.9644 143.451 90.0893 143.38 90.1569 143.132L90.1647 157.738C90.1647 157.758 90.1687 157.777 90.1765 157.796C90.1842 157.814 90.1956 157.831 90.2099 157.844C90.2243 157.858 90.2412 157.869 90.2598 157.876C90.2784 157.883 90.2982 157.887 90.3181 157.886L92.2583 157.829C92.1023 157.921 92.0598 158.006 92.1309 158.084C92.1898 158.148 92.2575 158.182 92.3337 158.188L90.2843 158.266C90.2217 158.268 90.1608 158.286 90.1075 158.319C90.0542 158.351 90.0103 158.396 89.98 158.45L81.7486 173.08C81.6805 173.199 81.6488 173.337 81.6576 173.474C81.6664 173.612 81.7152 173.744 81.798 173.855C82.6354 174.982 83.3246 176.184 83.8656 177.462C83.635 177.42 83.5266 177.439 83.5405 177.517C81.9401 174.538 80.0511 171.736 77.8734 169.111C77.8162 169.042 77.8014 168.964 77.8292 168.877C77.9193 168.591 78.0962 168.128 78.3597 167.488C78.9059 166.162 79.0706 164.703 78.8539 163.114C78.2748 158.867 76.6632 155.15 74.019 151.961C73.7815 151.677 73.6835 151.72 73.7251 152.089C74.2609 156.77 72.7733 161.402 69.4286 164.682C65.7225 168.312 60.2609 169.623 55.2076 168.349C55.1834 168.343 55.1581 168.343 55.134 168.35C55.11 168.356 55.0881 168.369 55.0704 168.387C55.0526 168.404 55.0397 168.426 55.0327 168.45C55.0258 168.474 55.0251 168.499 55.0307 168.523C55.3185 169.796 55.7069 171.063 56.1958 172.326C56.2253 172.402 56.2028 172.455 56.1282 172.484L52.9657 173.74C52.8894 173.77 52.8348 173.747 52.8018 173.673C52.4351 172.838 52.0996 171.933 51.556 171.145C50.5417 169.675 48.8668 168.861 47.1633 169.639C45.478 170.409 44.4767 172.471 44.2609 174.287C44.0476 176.102 44.4134 177.765 45.3584 179.275C45.6731 179.777 46.162 180.214 46.6172 180.554C46.7212 180.632 46.7732 180.736 46.7732 180.866L46.7992 200.313C46.7992 200.335 46.8083 200.357 46.8243 200.373C46.8404 200.389 46.8623 200.398 46.885 200.398L65.335 200.424C65.3743 200.424 65.412 200.409 65.4398 200.382C65.4676 200.354 65.4832 200.317 65.4832 200.279L65.4754 194.536C65.4753 194.479 65.4591 194.422 65.4287 194.374C65.3984 194.326 65.355 194.287 65.3038 194.263L62.0008 192.705C61.9002 192.657 61.8777 192.566 61.9332 192.432L61.9618 192.365C61.9895 192.3 62.0372 192.284 62.1048 192.315L65.2024 193.73C65.407 193.824 65.5067 193.759 65.5015 193.535L65.4884 193.075C65.4861 192.971 65.4558 192.871 65.4007 192.785C65.3456 192.698 65.2679 192.629 65.1764 192.586L61.9852 191.059C61.8604 190.998 61.83 190.908 61.8942 190.788L61.9306 190.718C61.9381 190.704 61.9482 190.692 61.9604 190.682C61.9726 190.672 61.9866 190.664 62.0016 190.66C62.0166 190.655 62.0323 190.653 62.0478 190.655C62.0633 190.657 62.0783 190.661 62.0918 190.669C63.7147 191.543 65.3966 192.267 67.1373 192.841C69.0203 193.459 70.9336 193.668 72.8773 193.467C76.2973 193.114 78.1101 190.965 79.0984 187.87C79.2076 187.909 79.3281 187.914 79.4599 187.886C78.703 191.095 76.456 193.436 73.2024 193.85C71.4442 194.073 69.7364 193.969 68.0788 193.538C67.4841 193.383 66.8261 193.192 66.1048 192.963C66.0797 192.955 66.053 192.953 66.0271 192.958C66.0011 192.963 65.9766 192.973 65.9553 192.989C65.9341 193.005 65.9169 193.026 65.9049 193.05C65.8929 193.074 65.8866 193.1 65.8864 193.127L65.876 200.307C65.876 200.385 65.9158 200.424 65.9956 200.424L69.5847 200.414C69.6281 200.414 69.6698 200.431 69.7005 200.462C69.7313 200.493 69.7485 200.534 69.7485 200.578L69.7433 209.777C69.7434 209.843 69.7614 209.907 69.7954 209.963C69.8293 210.019 69.8779 210.064 69.9358 210.094L79.1192 214.9C78.9492 214.928 78.8209 215.003 78.7342 215.124C75.8786 213.676 73.0351 212.203 70.2037 210.705C69.8136 210.499 69.4486 210.394 69.1087 210.391C63.205 210.349 54.8174 210.346 43.9462 210.383C43.6939 210.383 43.3272 210.445 43.0671 210.56C39.367 212.196 35.1494 213.954 30.4143 215.831C24.0085 218.372 19.634 224.131 17.8707 230.718C16.4853 235.887 14.7706 242.73 12.7263 251.246C12.7224 251.262 12.7222 251.279 12.7257 251.295C12.7292 251.312 12.7364 251.327 12.7467 251.34C12.7569 251.353 12.7701 251.364 12.785 251.371C12.8 251.378 12.8164 251.382 12.833 251.382L23.5846 251.376C23.5985 251.538 23.6488 251.669 23.7355 251.769L12.4949 251.785C12.2781 251.785 12.1966 251.68 12.2504 251.47C13.2179 247.607 14.1663 243.759 15.0957 239.925C15.2656 239.23 15.3488 238.512 15.3453 237.772C15.2898 224.893 15.276 212.014 15.3037 199.137L15.3479 200.276C15.3497 200.316 15.3731 200.336 15.4182 200.336L15.5274 200.333C15.569 200.332 15.5872 200.312 15.582 200.274C15.5508 199.975 15.569 199.698 15.6366 199.441L15.7016 237.301C15.7016 237.407 15.7242 237.412 15.7693 237.317C15.9227 236.981 15.9643 236.406 16.0293 236.167C16.3622 234.901 16.8 233.214 17.3427 231.106C17.5837 230.171 17.8299 229.362 18.0814 228.679C18.5287 227.459 18.8252 226.667 18.9708 226.305C19.1009 225.982 19.2604 225.433 19.4494 224.656C21.0827 217.951 23.2335 209.518 25.9019 199.358C27.8811 191.821 29.4546 185.158 30.4351 177.933C31.0298 173.541 31.1919 169.228 30.9214 164.994C30.7914 162.939 30.7619 161.504 30.833 160.687C31.0948 157.743 31.96 154.987 33.4286 152.419C36.0528 147.831 40.4845 144.765 45.5951 143.293C47.5231 142.736 49.4182 142.375 51.2804 142.208C51.3394 142.203 51.394 142.175 51.4335 142.132C51.473 142.089 51.4945 142.032 51.4936 141.974L51.491 140.799C51.4893 140.653 51.4147 140.58 51.2674 140.58L29.8915 140.578L29.6939 140.221L51.322 140.242C51.3462 140.242 51.3702 140.237 51.3926 140.228C51.415 140.219 51.4354 140.205 51.4525 140.188C51.4697 140.171 51.4833 140.151 51.4926 140.128C51.5019 140.106 51.5066 140.082 51.5066 140.058L51.491 132.429L52.2062 132.273ZM20.9552 222.492C20.6171 223.588 20.7151 223.631 21.2491 222.622C21.5213 222.104 21.7883 221.412 22.0502 220.547C25.5057 209.115 28.5842 197.198 31.2855 184.794C31.2985 184.734 31.2975 184.672 31.2826 184.613C31.2677 184.554 31.2394 184.499 31.1997 184.453C31.1737 184.424 31.1434 184.391 31.1087 184.354C30.989 184.236 30.9119 184.259 30.8772 184.422C28.1238 197.329 24.8165 210.019 20.9552 222.492Z" fill="#0B0E1D"/>
<path d="M239.351 148.366C240.69 151.615 241.526 155.06 241.861 158.699C242.062 160.88 242.214 163.35 242.316 166.109C242.436 169.406 242.701 172.293 243.021 175.773C243.189 177.587 243.27 179.079 243.263 180.249C243.235 185.529 241.893 190.502 239.237 195.17C239.095 195.419 239.027 195.4 239.034 195.113C239.194 188.623 239.13 182.064 238.844 175.438C238.699 172.044 238.399 168.456 237.947 164.673C237.522 161.127 236.757 157.74 235.653 154.512C233.445 148.062 228.607 141.477 220.782 142.993C220.761 142.997 220.739 142.995 220.718 142.988C220.698 142.981 220.68 142.969 220.666 142.952C220.652 142.936 220.643 142.916 220.639 142.895C220.635 142.874 220.637 142.852 220.644 142.832C221.445 140.574 223.094 138.644 225.057 137.289C228.567 134.865 232.394 133.532 236.54 133.289C237.174 133.253 237.972 133.34 238.933 133.549C239.286 133.627 239.496 133.781 239.562 134.01C239.947 135.322 240.169 136.768 240.228 138.348C240.344 141.49 240.038 144.656 239.31 147.849C239.268 148.027 239.282 148.2 239.351 148.366Z" fill="#0B0E1D"/>
<path d="M234.508 199.432L232.776 200.311C232.629 199.791 232.429 198.921 232.176 197.7C230.357 188.921 228.972 180.381 228.022 172.08C227.885 170.88 227.564 167.694 227.06 162.522C226.949 161.37 226.693 159.817 226.293 157.861C225.211 152.579 223.491 148.048 220.142 144.189C220.115 144.158 220.096 144.122 220.086 144.082C220.076 144.043 220.075 144.002 220.084 143.962C220.092 143.923 220.109 143.885 220.134 143.853C220.159 143.821 220.191 143.796 220.228 143.778C220.942 143.429 221.72 143.246 222.56 143.229C229.182 143.089 233.135 148.784 235.112 154.371C236.256 157.611 237.04 161.043 237.463 164.665C238.623 174.621 238.766 184.701 238.605 194.714C238.599 195.132 238.579 195.558 238.542 195.991C238.527 196.179 238.445 196.357 238.311 196.493C237.17 197.644 235.902 198.624 234.508 199.432Z" fill="#0B0E1D"/>
<path d="M194.769 168.992C194.764 170.213 195.267 171.204 195.892 171.206C196.517 171.209 197.027 170.221 197.031 169C197.036 167.779 196.533 166.787 195.908 166.785C195.283 166.783 194.773 167.771 194.769 168.992Z" fill="#0B0E1D"/>
<path d="M72.2637 169.058C72.2574 170.27 72.7739 171.256 73.4173 171.259C74.0608 171.262 74.5876 170.282 74.594 169.07C74.6003 167.858 74.0838 166.872 73.4403 166.869C72.7968 166.866 72.2701 167.846 72.2637 169.058Z" fill="#0B0E1D"/>
<path d="M179.904 194.428C178.04 195.715 175.922 196.258 173.55 196.059C173.434 195.991 173.318 195.979 173.202 196.023C171.636 195.913 170.247 195.397 169.035 194.473C170.261 193.933 171.535 193.552 172.858 193.328C172.931 193.316 172.969 193.274 172.973 193.201L173.038 191.131C173.041 191.035 173 190.966 172.913 190.923C170.902 189.915 169.991 188.234 170.182 185.88C170.29 184.565 170.916 183.507 172.062 182.704C174.125 181.258 176.775 181.872 178.154 183.937C178.816 184.927 179.036 186.048 178.814 187.3C178.512 189.011 177.593 190.219 176.055 190.923C176.006 190.944 175.966 190.98 175.939 191.024C175.913 191.069 175.901 191.119 175.906 191.17L176.099 193.193C176.104 193.249 176.129 193.302 176.169 193.341C176.209 193.381 176.262 193.405 176.317 193.409C177.536 193.506 178.732 193.846 179.904 194.428Z" fill="#0B0E1D"/>
<path d="M102.245 30.9413V30.7618C102.245 30.4722 102.12 30.3908 101.87 30.5173C100.312 31.3045 99.09 31.9954 98.2058 32.5902C98.1277 32.6422 98.0575 32.6335 97.9951 32.5641C96.9548 31.3834 96.2794 30.3812 95.9691 29.5576C95.8893 29.3496 95.7446 28.9317 95.5348 28.3041C95.3648 27.803 95.2677 27.3712 95.2435 27.0089C95.0562 24.2494 95.6596 21.529 97.514 19.4042C99.2357 17.4293 101.439 16.317 104.123 16.0674C106.5 15.8437 109.111 16.6682 110.921 18.2806C112.481 19.6669 113.73 21.5706 114.201 23.6122C114.96 26.9031 114.117 29.8975 111.673 32.5954C111.649 32.6225 111.615 32.6397 111.579 32.6435C111.543 32.6474 111.507 32.6376 111.478 32.6162C110.384 31.8325 109.185 31.1389 107.881 30.5355C107.643 30.4246 107.524 30.5 107.522 30.7618C107.522 30.7913 107.523 30.8156 107.524 30.8346C107.542 31.0982 107.675 31.3054 107.925 31.4562L110.786 33.1909C110.864 33.2378 110.873 33.2976 110.814 33.3704C110.198 34.1636 108.781 34.7046 107.766 35.0427C106.899 35.3305 106.106 35.4926 105.387 35.529C103.023 35.6504 100.872 34.9525 98.9314 33.4354C98.9084 33.4174 98.8902 33.394 98.8785 33.3672C98.8668 33.3405 98.8619 33.3113 98.8642 33.2822C98.8665 33.2531 98.876 33.225 98.8918 33.2005C98.9076 33.1759 98.9293 33.1557 98.9548 33.1415L101.961 31.4094C102.149 31.3002 102.243 31.1441 102.245 30.9413ZM103.865 28.6864C103.546 29.9243 103.822 30.9768 104.692 31.8437C104.712 31.8634 104.736 31.8789 104.763 31.889C104.789 31.8992 104.817 31.904 104.846 31.903C104.874 31.902 104.902 31.8954 104.928 31.8834C104.954 31.8714 104.977 31.8544 104.996 31.8333C105.87 30.8572 106.106 29.7241 105.704 28.4341C107.183 27.8602 108.158 26.8858 108.63 25.5108C109.337 23.451 108.93 21.8012 107.407 20.5615C106.807 20.0726 106.148 19.7726 105.428 19.6617C104.584 19.5333 103.826 19.6313 103.155 19.9555C100.65 21.1623 100.071 23.7839 101.293 26.1402C101.9 27.3088 102.809 28.0362 104.021 28.3223C104.106 28.3413 104.139 28.3934 104.12 28.4783C104.101 28.5667 104.016 28.6361 103.865 28.6864Z" fill="#1474B4"/>
<path d="M157.211 37.8147C157.228 37.8615 157.233 37.9066 157.226 37.9499C157.155 40.2334 156.419 42.262 155.018 44.0358C154.855 44.2386 154.678 44.4857 154.485 44.777C154.453 44.8244 154.404 44.8575 154.348 44.8692C154.292 44.8809 154.234 44.8702 154.186 44.8394C152.969 44.0679 151.747 43.3899 150.519 42.8056C150.262 42.6825 150.144 42.7631 150.163 43.0475C150.171 43.1567 150.176 43.2148 150.178 43.2217C150.274 43.5234 150.443 43.7445 150.685 43.8849L153.499 45.5286C153.515 45.5376 153.528 45.5501 153.537 45.565C153.546 45.5798 153.552 45.5967 153.554 45.6141C153.555 45.6315 153.552 45.6489 153.546 45.6648C153.539 45.6807 153.528 45.6947 153.515 45.7055L152.659 46.3869C150.785 47.507 148.772 48.0124 146.62 47.9031C144.784 47.6743 143.175 47.0076 141.793 45.9031C141.767 45.8821 141.747 45.8552 141.733 45.8248C141.72 45.7944 141.714 45.7614 141.715 45.7285C141.717 45.6956 141.727 45.6638 141.744 45.6358C141.76 45.6078 141.784 45.5844 141.812 45.5676L144.758 43.7679C144.85 43.7119 144.925 43.6296 144.973 43.5303C145.021 43.431 145.041 43.3187 145.031 43.2061L145.018 43.0475C144.996 42.7787 144.871 42.7094 144.644 42.8394L140.969 44.9591C140.906 44.9955 140.848 44.9885 140.795 44.9382C138.778 42.9547 137.835 40.516 137.965 37.6222C138.036 36.0514 138.436 34.6313 139.164 33.3622C140.272 31.4254 141.785 30.0349 143.702 29.1905C145.278 28.4952 146.974 28.2577 148.789 28.4779C151.437 28.7986 153.59 30.0739 155.247 32.3036C156.421 33.8814 157.076 35.7185 157.211 37.8147ZM146.709 40.881C146.443 41.2165 146.542 41.526 146.519 41.8563C146.46 42.6834 146.689 43.4055 147.206 44.0228C147.257 44.0849 147.322 44.1347 147.396 44.1687C147.469 44.2026 147.549 44.2198 147.63 44.2191C147.711 44.2184 147.791 44.1997 147.863 44.1644C147.936 44.1291 148 44.078 148.051 44.015C148.776 43.1134 148.944 42.0661 148.555 40.8732C148.541 40.8308 148.544 40.7845 148.563 40.7438C148.583 40.7032 148.617 40.6713 148.659 40.6548C150.183 40.0618 151.15 38.9226 151.559 37.2373C151.873 35.9456 151.694 34.8186 151.023 33.8563C149.966 32.3392 148.548 31.7315 146.771 32.0332C145.104 32.3192 143.746 33.7107 143.492 35.2945C143.169 37.2919 143.899 38.9807 145.681 40.3609C145.73 40.3973 145.9 40.4658 146.191 40.5663C146.408 40.6426 146.56 40.6903 146.646 40.7094C146.757 40.7336 146.778 40.7909 146.709 40.881Z" fill="#1474B4"/>
<path d="M75.6488 56.3992L74.7359 57.5071C74.6804 57.5747 74.6163 57.5834 74.5434 57.5331C73.5656 56.8587 72.4108 56.1816 71.0792 55.5019C71.0241 55.4739 70.9641 55.4549 70.9041 55.4466C70.8441 55.4382 70.7856 55.4407 70.7334 55.4538C70.6811 55.467 70.6366 55.4904 70.6031 55.5222C70.5697 55.554 70.5484 55.5934 70.5408 55.6372L70.5174 55.7568C70.5056 55.8242 70.5115 55.8926 70.5345 55.9546C70.5574 56.0166 70.5966 56.0696 70.6475 56.1079C71.3167 56.6194 72.3874 57.3077 73.8594 58.1729C73.9375 58.218 73.9444 58.2726 73.8802 58.3368C73.4537 58.7633 72.8902 59.1473 72.1897 59.4889C70.116 60.4998 68.0025 60.7668 65.849 60.29C64.4255 59.9761 63.1355 59.3363 61.9791 58.3706C61.9556 58.3506 61.9374 58.3251 61.9261 58.2964C61.9148 58.2677 61.9108 58.2367 61.9144 58.2061C61.918 58.1755 61.9291 58.1462 61.9468 58.1209C61.9644 58.0956 61.988 58.0751 62.0155 58.0611C62.9431 57.5947 63.9782 56.9896 65.1208 56.2457C65.3115 56.1226 65.3956 55.9657 65.3731 55.775L65.3549 55.6346C65.3202 55.3346 65.178 55.2531 64.9283 55.3901C63.914 55.9553 62.7619 56.615 61.4719 57.3693C61.2344 57.508 61.0081 57.4464 60.7931 57.1846C58.6865 54.6237 57.9366 51.7568 58.5434 48.5838C59.2612 45.6484 60.8304 43.514 63.2508 42.1807C64.7697 41.345 66.3544 40.9254 68.0051 40.9219C72.3068 40.9089 75.8178 43.814 77.1182 47.8816C78.0736 50.8638 77.5838 53.703 75.6488 56.3992ZM67.2066 53.3641C66.8633 53.71 66.8841 54.1235 66.8815 54.6593C66.8781 55.4118 67.1191 56.0732 67.6046 56.6437C67.6372 56.6824 67.6773 56.7142 67.7226 56.737C67.7678 56.7598 67.8172 56.7732 67.8678 56.7764C67.9184 56.7795 67.9691 56.7724 68.0168 56.7554C68.0645 56.7384 68.1083 56.7119 68.1455 56.6775C68.957 55.9336 69.2977 54.9063 68.983 53.8348C68.9223 53.6267 68.8954 53.4629 68.9023 53.3433C68.9075 53.2479 68.9561 53.1907 69.048 53.1716C69.8577 52.9896 70.5495 52.4642 71.1234 51.5955C72.0051 50.2613 72.3718 48.7113 71.797 47.195C70.7359 44.3836 67.1416 43.5045 64.9908 45.7178C64.0978 46.6367 63.7155 47.7524 63.8438 49.065C64.0311 50.9792 65.1676 52.9063 67.165 53.234C67.1788 53.2359 67.1917 53.2417 67.2024 53.2507C67.213 53.2597 67.2209 53.2715 67.2252 53.285C67.2295 53.2984 67.23 53.3129 67.2267 53.3269C67.2235 53.3408 67.2165 53.3537 67.2066 53.3641Z" fill="#1474B4"/>
<path d="M121.17 71.3958L117.526 73.3932C117.465 73.4277 117.393 73.4394 117.323 73.4261C117.253 73.4128 117.19 73.3754 117.144 73.3204C115.308 71.0915 114.208 68.5635 114.556 65.6506C114.697 64.4751 115.004 63.3914 115.477 62.3997C116.863 59.4946 119.407 57.492 122.627 57.0134C125.583 56.573 128.197 57.3975 130.468 59.4868C131.56 60.4924 132.391 61.7382 132.96 63.2241C133.48 64.5835 133.674 66.013 133.542 67.5128C133.35 69.7252 132.448 71.6723 130.837 73.3542C130.817 73.3749 130.791 73.3882 130.762 73.392C130.734 73.3958 130.705 73.3898 130.681 73.375L127.389 71.466C127.336 71.4362 127.255 71.4207 127.152 71.4207C127.049 71.4207 126.927 71.4362 126.798 71.466C126.76 71.4747 126.733 71.5007 126.718 71.544C126.621 71.7972 126.626 71.9619 126.733 72.0382C127.472 72.5618 128.576 73.2371 130.047 74.0642C130.061 74.0723 130.072 74.0838 130.081 74.0976C130.09 74.1114 130.095 74.1271 130.096 74.1433C130.097 74.1595 130.094 74.1757 130.087 74.1905C130.08 74.2053 130.07 74.2182 130.057 74.228C128.297 75.5527 126.342 76.254 124.192 76.3321C121.956 76.4153 119.985 75.7547 118.281 74.3503C118.253 74.3274 118.232 74.2982 118.218 74.2653C118.204 74.2323 118.198 74.1965 118.201 74.1608C118.204 74.1251 118.215 74.0907 118.234 74.0603C118.253 74.0299 118.279 74.0045 118.309 73.9862L121.365 72.2176C121.444 72.1713 121.51 72.1032 121.554 72.0208C121.598 71.9383 121.619 71.8445 121.615 71.7495L121.612 71.6507C121.6 71.3264 121.453 71.2415 121.17 71.3958ZM124.13 72.7924C124.253 72.7924 124.368 72.7187 124.476 72.5713C125.218 71.5501 125.377 70.4777 124.954 69.3542C124.945 69.3298 124.941 69.3037 124.943 69.2778C124.945 69.2518 124.953 69.2266 124.965 69.2038C124.978 69.1811 124.995 69.1613 125.016 69.146C125.037 69.1306 125.061 69.12 125.087 69.1149C126.803 68.7612 127.891 66.925 128.117 65.3177C128.299 64.0243 128.015 62.9302 127.266 62.0356C126.379 60.9779 125.302 60.4543 124.036 60.4647C122.769 60.4733 121.7 61.0134 120.829 62.085C120.094 62.99 119.827 64.0884 120.028 65.3802C120.278 66.9822 121.394 68.8028 123.116 69.1305C123.141 69.135 123.166 69.1451 123.187 69.16C123.208 69.175 123.226 69.1944 123.239 69.2169C123.252 69.2394 123.261 69.2645 123.263 69.2905C123.265 69.3164 123.262 69.3426 123.253 69.3672C122.846 70.4976 123.021 71.5674 123.779 72.5765C123.89 72.7222 124.007 72.7941 124.13 72.7924Z" fill="#1474B4"/>
<path d="M149.629 68.4852C149.579 69.3298 150.204 70.054 151.026 70.1028C151.848 70.1516 152.554 69.5065 152.604 68.662C152.655 67.8174 152.029 67.0932 151.208 67.0444C150.386 66.9956 149.679 67.6407 149.629 68.4852Z" fill="#1474B4"/>
<path d="M81.0996 78.4491C81.9485 78.4491 82.6366 77.761 82.6366 76.9121C82.6366 76.0632 81.9485 75.375 81.0996 75.375C80.2507 75.375 79.5625 76.0632 79.5625 76.9121C79.5625 77.761 80.2507 78.4491 81.0996 78.4491Z" fill="#1474B4"/>
<path d="M197.876 120.54C198.704 120.54 199.376 119.869 199.376 119.04C199.376 118.211 198.704 117.539 197.876 117.539C197.047 117.539 196.375 118.211 196.375 119.04C196.375 119.869 197.047 120.54 197.876 120.54Z" fill="#1474B4"/>
<path d="M138.542 129.436L138.451 130.206C138.137 132.404 137.26 134.328 135.819 135.977C135.796 136.003 135.766 136.021 135.734 136.029C135.702 136.036 135.669 136.031 135.642 136.016L132.064 133.974C131.969 133.92 131.855 133.905 131.745 133.932C131.634 133.96 131.535 134.027 131.465 134.123C131.452 134.142 131.462 134.266 131.497 134.495C131.517 134.626 131.585 134.728 131.699 134.799L134.487 136.552C134.796 136.746 134.793 136.941 134.477 137.137L133.057 138.024C132.914 138.113 132.752 138.168 132.585 138.186C132.418 138.204 132.249 138.183 132.092 138.125L125.062 135.53C125.042 135.523 125.025 135.51 125.012 135.493C124.999 135.476 124.992 135.455 124.992 135.434C124.991 135.413 124.997 135.392 125.009 135.374C125.02 135.356 125.037 135.342 125.057 135.335L126.126 134.872C126.384 134.761 126.473 134.57 126.391 134.299C126.379 134.26 126.371 134.233 126.368 134.219C126.286 133.943 126.118 133.882 125.863 134.037L124.243 135.017C124.113 135.096 123.962 135.121 123.824 135.088C122.864 134.866 122.094 134.671 121.515 134.505C121.067 134.377 120.726 134.049 120.49 133.522C119.666 131.686 119.396 129.774 119.679 127.787C119.944 125.921 120.611 124.345 121.681 123.059C122.898 121.596 124.441 120.579 126.308 120.011C126.823 119.855 127.455 119.768 128.204 119.751C129.096 119.73 129.9 119.626 130.748 119.813C133.021 120.316 134.863 121.482 136.274 123.311C137.639 125.081 138.373 127.079 138.477 129.303C138.479 129.331 138.487 129.356 138.503 129.379C138.517 129.4 138.53 129.419 138.542 129.436ZM128.16 132.055C127.927 132.284 127.825 132.602 127.853 133.009C127.9 133.748 128.108 134.874 128.745 135.314C128.811 135.359 128.889 135.38 128.968 135.373C129.047 135.367 129.12 135.334 129.177 135.28C130.121 134.375 130.126 133.246 129.962 132.039C129.955 131.991 129.966 131.941 129.992 131.899C130.018 131.856 130.058 131.824 130.105 131.808C131.074 131.475 131.819 130.843 132.339 129.912C133.088 128.575 133.333 126.853 132.623 125.465C131.653 123.566 129.361 122.557 127.356 123.449C125.122 124.445 124.321 126.794 125.127 129.043C125.354 129.68 125.762 130.311 126.35 130.937C126.802 131.422 127.387 131.736 128.105 131.878C128.124 131.881 128.142 131.89 128.156 131.903C128.17 131.915 128.181 131.932 128.186 131.95C128.192 131.968 128.193 131.988 128.188 132.006C128.183 132.025 128.173 132.042 128.16 132.055Z" fill="#1474B4"/>
<path d="M180.091 180.166C180.332 180.587 180.756 181.18 181.362 181.945C182.593 183.496 183.136 185.425 182.991 187.731C182.892 189.311 182.442 190.71 181.641 191.929C181.636 191.939 181.429 192.186 181.022 192.67C180.744 192.998 180.565 193.37 180.483 193.786L179.906 194.423C178.734 193.84 177.538 193.501 176.32 193.404C176.264 193.399 176.211 193.376 176.171 193.336C176.131 193.297 176.106 193.244 176.101 193.188L175.909 191.164C175.903 191.114 175.915 191.063 175.942 191.019C175.968 190.975 176.009 190.939 176.057 190.917C177.595 190.213 178.515 189.006 178.816 187.294C179.038 186.042 178.818 184.922 178.156 183.932C176.777 181.866 174.127 181.253 172.065 182.699C170.919 183.502 170.292 184.56 170.184 185.874C169.994 188.229 170.904 189.91 172.915 190.917C173.002 190.961 173.043 191.03 173.04 191.125L172.975 193.196C172.971 193.268 172.933 193.311 172.86 193.323C171.538 193.547 170.263 193.928 169.037 194.467C166.317 192.201 165.171 189.377 165.599 185.994C166.088 182.121 168.879 179.097 172.637 178.254C174.884 177.751 177.088 178.164 179.248 179.492C179.591 179.702 179.872 179.926 180.091 180.166Z" fill="#1474B4"/>
<path d="M170.7 217.783C170.369 218.279 169.916 218.716 169.342 219.094C168.392 219.718 167.881 220.06 167.808 220.119C166.563 221.145 165.376 222.278 164.248 223.518C162.921 224.975 161.778 226.431 160.817 227.888C159.648 229.661 158.45 231.8 157.22 234.304C156.069 236.651 154.85 239.337 153.564 242.361C152.303 245.321 151.063 248.329 149.844 251.386L96.6506 251.396C96.6143 251.396 96.5785 251.388 96.5457 251.372C96.5129 251.357 96.484 251.334 96.4611 251.306C96.4382 251.278 96.4219 251.245 96.4132 251.21C96.4046 251.174 96.404 251.138 96.4113 251.102C96.9627 248.515 97.6189 245.994 98.3801 243.539C100.96 235.222 104.978 227.906 110.435 221.591C112.075 219.694 114.284 217.573 117.062 215.227C118.287 214.19 119.546 213.24 120.838 212.376C122.374 211.348 123.694 210.487 124.799 209.791C124.972 209.681 125.173 209.622 125.379 209.622C134.762 209.575 144.247 209.566 153.831 209.594C154.473 209.595 154.991 209.698 155.387 209.901C160.403 212.494 165.507 215.122 170.7 217.783Z" fill="#1474B4"/>
<path d="M218.469 210.289C221 210.284 223.534 210.279 226.068 210.273C226.563 210.273 227.034 210.362 227.483 210.539C228.385 210.892 229.086 211.181 229.587 211.405C235.285 213.943 238.482 215.365 239.179 215.67C241.813 216.828 244.206 218.695 246.36 221.27C248.68 224.044 250.308 227.271 251.244 230.952C254.2 242.569 255.927 249.34 256.425 251.264C256.43 251.284 256.43 251.304 256.426 251.324C256.422 251.343 256.413 251.362 256.401 251.377C256.389 251.393 256.374 251.406 256.356 251.415C256.339 251.423 256.32 251.428 256.3 251.428L184.773 251.402C184.71 251.402 184.649 251.381 184.6 251.342C184.551 251.304 184.517 251.25 184.503 251.189L180.404 233.478C180.398 233.455 180.388 233.434 180.375 233.42C180.362 233.406 180.347 233.4 180.334 233.402L180.263 233.415C180.137 233.443 180.083 233.498 180.102 233.579L184.196 251.218C184.201 251.238 184.201 251.26 184.196 251.28C184.191 251.301 184.182 251.32 184.169 251.337C184.156 251.354 184.14 251.367 184.121 251.376C184.102 251.385 184.081 251.389 184.061 251.389L158.677 251.381C158.657 251.381 158.637 251.377 158.619 251.368C158.601 251.359 158.585 251.346 158.573 251.329C158.561 251.313 158.553 251.295 158.549 251.275C158.545 251.255 158.546 251.234 158.552 251.215C159.631 247.459 160.856 243.909 162.23 240.565C165.322 233.038 170.386 226.492 176.919 221.837C177.116 221.696 177.317 221.574 177.66 221.457C178.032 221.329 178.178 221.028 178.435 220.853C179.63 220.056 180.65 219.456 181.496 219.054C185.69 217.063 189.887 215.074 194.087 213.087C195.859 212.259 197.618 211.403 199.366 210.521C199.578 210.415 199.938 210.36 200.448 210.357C206.456 210.315 212.463 210.293 218.469 210.289Z" fill="#1474B4"/>
<path d="M180.094 180.172C182.733 182.573 183.734 185.514 183.098 188.994C182.775 190.767 181.905 192.367 180.486 193.792C180.568 193.376 180.747 193.004 181.025 192.676C181.432 192.193 181.639 191.946 181.644 191.935C182.445 190.716 182.895 189.317 182.994 187.738C183.139 185.432 182.597 183.503 181.366 181.951C180.759 181.186 180.335 180.593 180.094 180.172Z" fill="#1474B4"/>
<path d="M149.844 251.391C151.063 248.334 152.302 245.326 153.563 242.366C154.849 239.343 156.068 236.657 157.22 234.309C158.449 231.806 159.648 229.667 160.816 227.893C161.777 226.437 162.92 224.98 164.247 223.524C165.376 222.284 166.562 221.151 167.807 220.125C167.88 220.066 168.392 219.724 169.342 219.1C169.916 218.722 170.368 218.285 170.699 217.789L177.149 221.056C177.162 221.062 177.173 221.072 177.182 221.084C177.19 221.096 177.194 221.11 177.195 221.124C177.197 221.139 177.194 221.153 177.188 221.166C177.181 221.179 177.172 221.19 177.16 221.199C170.034 226.275 164.831 232.983 161.552 241.321C160.249 244.64 159.146 247.936 158.244 251.209C158.234 251.248 158.211 251.282 158.18 251.307C158.148 251.331 158.11 251.344 158.07 251.344L149.844 251.391Z" fill="#1474B4"/>
<path d="M146.432 48.2303C146.384 48.0847 146.446 47.978 146.619 47.9104C148.771 48.0196 150.784 47.5142 152.658 46.3941C152.83 46.434 152.925 46.5051 152.944 46.6074C151.375 47.6495 149.657 48.2034 147.79 48.2693C147.742 48.2707 147.696 48.291 147.662 48.326C147.629 48.3609 147.61 48.4078 147.61 48.4566L147.639 60.6412C147.64 60.6973 147.662 60.7509 147.702 60.7903C147.741 60.8298 147.794 60.8519 147.85 60.8519L173.472 60.8415C173.495 60.8415 173.518 60.837 173.539 60.8282C173.56 60.8195 173.58 60.8066 173.596 60.7905C173.612 60.7743 173.625 60.7551 173.633 60.7339C173.642 60.7128 173.647 60.6901 173.647 60.6672L173.642 57.1458C173.888 57.0522 174.02 57.1961 174.037 57.5775L174.045 60.7141C174.045 60.8146 174.093 60.8649 174.19 60.8649L187.977 60.8467C188.029 60.8467 188.078 60.8673 188.115 60.9038C188.152 60.9404 188.172 60.99 188.172 61.0418L188.188 68.4176C188.188 68.5043 188.232 68.5476 188.32 68.5476C195.564 68.5216 202.315 68.5155 208.573 68.5294C209.726 68.5311 210.523 68.9412 210.965 69.7596C211.208 70.2052 211.33 70.995 211.332 72.1289C211.348 82.9135 211.348 93.6946 211.332 104.472C211.209 104.788 211.09 104.831 210.976 104.602C210.955 93.9946 210.964 83.386 211.002 72.7765C211.005 71.4657 210.965 70.6629 210.882 70.3682C210.601 69.3781 209.83 68.8797 208.567 68.8727C201.944 68.8363 195.239 68.8285 188.453 68.8493C188.274 68.8493 188.185 68.9386 188.185 69.1172L188.196 79.8064C188.173 80.7184 188.034 80.949 187.779 80.4982L187.777 61.3409C187.777 61.3043 187.762 61.2692 187.736 61.2434C187.711 61.2175 187.676 61.203 187.639 61.203L174.219 61.2394C174.193 61.2394 174.167 61.2446 174.144 61.2547C174.12 61.2648 174.098 61.2796 174.08 61.2982C174.062 61.3168 174.048 61.3389 174.038 61.3632C174.028 61.3875 174.023 61.4135 174.024 61.4397L174.039 64.9845C173.944 65.2065 173.808 65.301 173.631 65.268L173.634 61.3565C173.634 61.2663 173.589 61.2212 173.498 61.2212L147.587 61.255C147.493 61.255 147.403 61.2175 147.337 61.1507C147.27 61.0838 147.233 60.9932 147.233 60.8987L147.231 53.3877C147.231 53.3615 147.225 53.3356 147.215 53.3114C147.205 53.2873 147.191 53.2653 147.172 53.247C147.154 53.2286 147.132 53.2141 147.108 53.2043C147.084 53.1945 147.059 53.1896 147.033 53.19L105.077 53.1952C105.002 53.1952 104.93 53.1656 104.877 53.1129C104.823 53.0602 104.794 52.9888 104.794 52.9143L104.781 36.0248C104.781 35.9873 104.766 35.9513 104.739 35.9246C104.712 35.8978 104.676 35.8825 104.638 35.8818C100.851 35.822 97.3735 33.5151 95.7662 30.0898C95.4802 29.4812 95.2218 28.7981 94.9912 28.0404C94.9783 27.9967 94.9515 27.9584 94.9149 27.9312C94.8783 27.904 94.8339 27.8894 94.7883 27.8896C85.5348 27.9104 77.7333 27.926 71.3839 27.9364C70.6193 27.9381 70.0679 28.0057 69.7298 28.1392C69.1507 28.3646 68.6955 28.7366 68.3644 29.255C68.1424 29.6035 68.0297 30.2155 68.0263 31.0911C68.0107 34.9542 68.0124 38.0777 68.0315 40.4618C68.0315 40.5693 68.0861 40.6247 68.1953 40.6282C71.9769 40.7617 74.8048 42.5207 76.6791 45.9052C78.4918 49.1822 78.2188 53.2992 76.1589 56.4176L75.6492 56.4072C77.5842 53.711 78.074 50.8718 77.1186 47.8896C75.8182 43.822 72.3072 40.9169 68.0055 40.9299C66.3548 40.9334 64.7701 41.353 63.2512 42.1887C60.8308 43.522 59.2616 45.6564 58.5438 48.5918C58.4623 48.6594 58.3462 48.6508 58.1953 48.5658C59.168 44.1367 62.7051 41.0677 67.1862 40.6542C67.2729 40.6455 67.3163 40.5979 67.3163 40.5112C67.2851 34.6161 67.2686 31.4422 67.2668 30.9897C67.2616 29.3096 67.8772 28.1826 69.1134 27.6087C69.6838 27.3417 70.7007 27.209 72.1641 27.2108C76.074 27.2142 82.9036 27.2246 92.6531 27.242C93.3241 27.242 94.0124 27.2316 94.7181 27.2108C94.8083 27.209 94.8508 27.1631 94.8456 27.0729C94.8066 26.2901 94.7649 25.411 94.8898 24.5632C95.605 19.7179 99.1447 16.2433 104.071 15.7621C107.974 15.3798 111.649 17.5618 113.537 20.8883C115.452 24.2589 115.223 28.4071 112.978 31.6217C111.185 34.1843 108.624 35.6174 105.293 35.9208C105.211 35.9277 105.171 35.9711 105.171 36.0508L105.207 52.649C105.207 52.6821 105.22 52.7139 105.243 52.7373C105.266 52.7607 105.297 52.7739 105.329 52.7739H147.134C147.197 52.7739 147.228 52.7427 147.228 52.6802V48.4176C147.228 48.3222 147.179 48.2719 147.082 48.2667L146.432 48.2303ZM102.245 30.9481C102.243 31.1509 102.149 31.307 101.961 31.4162L98.9548 33.1483C98.9293 33.1625 98.9076 33.1827 98.8918 33.2073C98.876 33.2318 98.8665 33.2599 98.8642 33.289C98.8619 33.3181 98.8668 33.3473 98.8785 33.3741C98.8903 33.4008 98.9084 33.4242 98.9314 33.4422C100.872 34.9594 103.023 35.6572 105.387 35.5359C106.106 35.4995 106.899 35.3373 107.766 35.0495C108.781 34.7114 110.198 34.1705 110.814 33.3772C110.873 33.3044 110.864 33.2446 110.786 33.1978L107.925 31.463C107.675 31.3122 107.542 31.105 107.524 30.8415C107.523 30.8224 107.522 30.7981 107.522 30.7686C107.524 30.5068 107.643 30.4314 107.881 30.5424C109.185 31.1457 110.384 31.8393 111.478 32.623C111.507 32.6444 111.543 32.6542 111.579 32.6504C111.615 32.6465 111.649 32.6293 111.673 32.6022C114.117 29.9043 114.96 26.9099 114.201 23.6191C113.73 21.5775 112.481 19.6737 110.921 18.2875C109.111 16.675 106.5 15.8505 104.123 16.0742C101.439 16.3239 99.2357 17.4361 97.514 19.411C95.6596 21.5358 95.0562 24.2563 95.2435 27.0157C95.2678 27.3781 95.3649 27.8098 95.5348 28.3109C95.7446 28.9385 95.8893 29.3564 95.9691 29.5645C96.2795 30.3881 96.9548 31.3902 97.9951 32.571C98.0575 32.6403 98.1278 32.649 98.2058 32.597C99.09 32.0023 100.312 31.3113 101.87 30.5242C102.12 30.3976 102.245 30.4791 102.245 30.7686V30.9481Z" fill="#0B0E1D"/>
<path d="M105.701 28.4375C106.104 29.7275 105.868 30.8606 104.994 31.8367C104.975 31.8578 104.951 31.8748 104.926 31.8868C104.9 31.8988 104.872 31.9054 104.843 31.9064C104.815 31.9074 104.787 31.9026 104.76 31.8924C104.734 31.8823 104.71 31.8668 104.69 31.8471C103.819 30.9802 103.544 29.9277 103.863 28.6898C104.678 28.8805 105.291 28.7964 105.701 28.4375Z" fill="#0B0E1D"/>
<path d="M157.557 37.8229H173.846C173.896 37.8229 173.944 37.8429 173.98 37.8785C174.015 37.9141 174.035 37.9624 174.035 38.0128L174.03 46.2599C173.918 46.2928 173.788 46.2997 173.643 46.2807V38.2963C173.643 38.268 173.631 38.2409 173.611 38.2209C173.591 38.2009 173.564 38.1896 173.536 38.1896L157.567 38.1974C157.425 38.4072 157.312 38.3266 157.227 37.9556C157.233 37.9122 157.228 37.8671 157.211 37.8203L157.557 37.8229Z" fill="#0B0E1D"/>
<path d="M149.836 110.653C148.645 112.276 147.626 114.015 146.78 115.868C146.758 115.917 146.749 115.97 146.753 116.023C146.757 116.076 146.775 116.128 146.804 116.172C146.834 116.217 146.874 116.253 146.921 116.278C146.968 116.303 147.021 116.316 147.074 116.315L150.848 116.279C150.879 116.279 150.911 116.285 150.94 116.298C150.969 116.311 150.995 116.33 151.015 116.354C151.036 116.378 151.052 116.406 151.06 116.436C151.069 116.466 151.071 116.498 151.066 116.529C150.811 118.247 150.678 119.946 150.666 121.626C150.627 126.63 152.299 131.322 158.117 131.533C160.123 131.605 162.071 131.289 163.961 130.583C165.504 130.006 166.917 129.374 168.2 128.687C168.221 128.677 168.245 128.67 168.268 128.669C168.292 128.668 168.315 128.672 168.336 128.681C168.357 128.69 168.374 128.704 168.388 128.72C168.401 128.737 168.41 128.757 168.413 128.778L168.426 128.856C168.434 128.906 168.431 128.955 168.415 128.996C168.4 129.037 168.375 129.066 168.343 129.08L164.902 130.604C164.857 130.625 164.838 130.658 164.845 130.703L164.959 131.691C164.965 131.738 164.987 131.752 165.027 131.733L168.164 130.315C168.182 130.307 168.203 130.303 168.223 130.305C168.244 130.307 168.264 130.314 168.283 130.327C168.301 130.339 168.316 130.355 168.328 130.375C168.34 130.395 168.348 130.417 168.351 130.44L168.361 130.526C168.364 130.549 168.361 130.572 168.352 130.592C168.342 130.612 168.328 130.628 168.309 130.638C167.194 131.215 166.096 131.698 165.014 132.087C164.981 132.098 164.953 132.119 164.933 132.148C164.913 132.176 164.902 132.21 164.902 132.245L164.894 138.016C164.787 138.093 164.671 138.093 164.546 138.016L164.541 131.064C164.541 130.82 164.427 130.742 164.2 130.83C161.318 131.949 157.454 132.523 154.58 131.059C153.638 130.579 152.931 130.027 152.457 129.403C151.285 127.858 150.601 126.081 150.403 124.074C150.182 121.811 150.286 119.236 150.624 116.924C150.65 116.742 150.571 116.652 150.387 116.653C148.969 116.662 147.867 116.662 147.082 116.653C145.93 116.64 146.468 115.439 146.772 114.895C147.275 113.992 147.792 113.107 148.322 112.24C148.331 112.226 148.335 112.209 148.335 112.193C148.336 112.176 148.331 112.16 148.324 112.146C148.316 112.132 148.304 112.12 148.29 112.112C148.276 112.103 148.26 112.099 148.244 112.099L130.296 112.136C130.206 112.136 130.161 112.18 130.161 112.269L130.169 114.198C130.094 114.564 129.968 114.9 129.789 115.205L129.81 112.037C129.812 111.848 129.906 111.754 130.093 111.754L148.418 111.733C148.512 111.733 148.587 111.696 148.642 111.621L149.461 110.508L149.836 110.653Z" fill="#0B0E1D"/>
<path d="M155.898 122.555C155.045 122.805 154.183 122.717 153.311 122.29C153.011 122.143 152.913 121.914 153.017 121.603C153.035 121.55 153.064 121.501 153.102 121.46C153.141 121.419 153.188 121.387 153.24 121.365C153.292 121.344 153.348 121.334 153.404 121.337C153.46 121.339 153.515 121.354 153.566 121.38C154.252 121.737 154.938 121.815 155.623 121.614C156.308 121.414 156.843 120.98 157.23 120.311C157.258 120.262 157.297 120.22 157.343 120.188C157.389 120.156 157.441 120.134 157.497 120.124C157.552 120.113 157.609 120.115 157.664 120.129C157.718 120.143 157.769 120.169 157.813 120.204C158.067 120.409 158.108 120.654 157.935 120.94C157.429 121.769 156.75 122.307 155.898 122.555Z" fill="#0B0E1D"/>
<path d="M72.7926 123.125C72.9556 123.132 73.077 123.17 73.1567 123.239L72.4935 124.581C72.4718 124.625 72.4616 124.674 72.4639 124.722C72.4662 124.771 72.481 124.819 72.5068 124.86C72.5326 124.902 72.5686 124.936 72.6113 124.959C72.6541 124.983 72.7022 124.995 72.751 124.995L76.5976 124.972C76.627 124.971 76.6561 124.978 76.6828 124.99C76.7095 125.003 76.7331 125.021 76.752 125.043C76.7709 125.066 76.7845 125.093 76.792 125.121C76.7995 125.149 76.8006 125.179 76.7952 125.208C76.3756 127.462 76.2326 129.731 76.3661 132.014C76.4302 133.096 76.6435 134.178 77.0059 135.26C78.0167 138.272 80.1121 139.938 83.292 140.259C86.9617 140.628 90.4415 139.291 93.6301 137.497C93.7047 137.455 93.7601 137.469 93.7966 137.539L93.8408 137.619C93.8625 137.659 93.8717 137.703 93.8663 137.743C93.8609 137.782 93.8415 137.813 93.8122 137.83C92.6747 138.477 91.4983 139.036 90.2829 139.507C90.1997 139.539 90.158 139.599 90.158 139.689V143.138C90.0904 143.386 89.9656 143.457 89.7835 143.351L89.7523 139.845C89.7524 139.822 89.7467 139.799 89.7356 139.778C89.7246 139.757 89.7085 139.739 89.689 139.726C89.6694 139.713 89.6469 139.705 89.6235 139.703C89.6001 139.7 89.5764 139.704 89.5547 139.713C87.644 140.486 85.6864 140.811 83.6821 140.688C79.4558 140.428 77.1541 137.994 76.2959 134.082C76.0098 132.78 75.8979 131.366 75.9604 129.84C76.0263 128.2 76.1433 126.772 76.3115 125.557C76.3137 125.539 76.3122 125.522 76.3071 125.505C76.3019 125.488 76.2933 125.473 76.2817 125.46C76.2701 125.447 76.2559 125.437 76.2399 125.429C76.224 125.422 76.2067 125.419 76.1892 125.419C75.0154 125.424 73.8381 125.408 72.6574 125.369C72.4077 125.362 72.2126 125.242 72.0956 125.05C72.0488 124.972 71.9803 124.927 71.8901 124.917C71.6803 124.889 71.5122 124.875 71.3856 124.875C67.2954 124.834 62.2118 124.828 56.1346 124.857C54.8775 124.864 54.0132 124.992 53.5416 125.242C52.64 125.719 52.1875 126.595 52.184 127.871C52.1823 129.343 52.1901 130.813 52.2074 132.28L51.4922 132.436C51.5165 131.376 51.5251 130.318 51.5182 129.26C51.5078 127.663 51.6049 126.62 51.8095 126.129C52.1424 125.328 52.7371 124.768 53.5936 124.449C54.067 124.274 54.8368 124.185 55.9031 124.184C61.2469 124.177 66.5759 124.177 71.8901 124.186C71.9779 124.186 72.064 124.163 72.1398 124.119C72.2156 124.075 72.2784 124.012 72.3219 123.936L72.7926 123.125Z" fill="#0B0E1D"/>
<path d="M138.83 129.387L145.122 129.418C145.283 129.642 145.306 129.861 145.192 130.076L138.997 130.092C138.908 130.092 138.846 130.133 138.809 130.214C138.771 130.303 138.752 130.407 138.752 130.526L138.669 130.56C138.593 130.588 138.544 130.563 138.523 130.485L138.453 130.214L138.544 129.444C138.582 129.385 138.623 129.343 138.666 129.317C138.72 129.288 138.775 129.311 138.83 129.387Z" fill="#0B0E1D"/>
<path d="M81.6019 131.364C80.8928 131.656 80.0623 131.618 79.1104 131.25C79.0203 131.215 78.9445 131.151 78.8954 131.067C78.8463 130.984 78.8268 130.886 78.8399 130.79L78.8555 130.691C78.8989 130.386 79.061 130.274 79.3419 130.355C80.0233 130.556 80.5252 130.74 81.2638 130.465C81.9999 130.186 82.2573 129.718 82.6397 129.117C82.7974 128.871 82.9925 128.849 83.2248 129.05L83.3029 129.115C83.3762 129.179 83.4259 129.265 83.4438 129.361C83.4618 129.456 83.4469 129.555 83.4017 129.64C82.9266 130.543 82.3267 131.118 81.6019 131.364Z" fill="#0B0E1D"/>
<path d="M177.319 139.427C177.436 139.666 177.173 139.783 176.531 139.778L168.646 139.783C168.563 139.763 168.509 139.737 168.485 139.705C168.466 139.681 168.454 139.651 168.45 139.62C168.447 139.589 168.452 139.558 168.465 139.53C168.479 139.502 168.499 139.479 168.525 139.463C168.551 139.446 168.581 139.437 168.612 139.437L171.983 139.414L177.319 139.427Z" fill="#0B0E1D"/>
<path d="M29.6954 140.227L29.8931 140.583C26.7184 140.572 23.5454 140.567 20.3742 140.567C19.3911 140.567 18.6507 140.679 18.1531 140.903C17.1718 141.343 16.4591 142.024 16.0153 142.944C15.7621 143.473 15.6347 144.625 15.633 146.401C15.6208 164.084 15.6226 181.766 15.6382 199.446C15.5705 199.703 15.5523 199.98 15.5835 200.279C15.5888 200.317 15.5705 200.337 15.5289 200.338L15.4197 200.341C15.3746 200.341 15.3512 200.321 15.3495 200.281L15.3053 199.142C15.3018 181.02 15.3139 162.898 15.3417 144.775C15.3434 143.328 15.8722 142.167 16.9282 141.293C18.2702 140.18 19.4535 140.242 21.4535 140.24C24.2017 140.236 26.949 140.232 29.6954 140.227Z" fill="#0B0E1D"/>
<path d="M179.389 148.513L179.586 148.919L169.576 148.929C169.467 148.806 169.416 148.666 169.422 148.508L179.389 148.513Z" fill="#0B0E1D"/>
<path d="M101.628 157.364C101.747 157.348 101.844 157.373 101.916 157.439C101.97 157.488 101.984 157.536 101.958 157.585C101.939 157.625 101.9 157.669 101.841 157.718L92.3378 158.194C92.2615 158.188 92.1939 158.154 92.1349 158.089C92.0638 158.011 92.1063 157.926 92.2624 157.835L101.628 157.364Z" fill="#0B0E1D"/>
<path d="M83.8688 177.467C84.03 177.784 84.102 178.097 84.0847 178.406C84.078 178.511 84.0313 178.61 83.954 178.682C83.8766 178.754 83.7745 178.794 83.6685 178.793L79.835 178.796C79.8195 178.796 79.8041 178.799 79.7899 178.805C79.7758 178.812 79.7631 178.821 79.7527 178.833C79.7424 178.845 79.7347 178.859 79.73 178.874C79.7253 178.889 79.7239 178.905 79.7257 178.921C80.0101 181.053 80.0803 183.202 79.9364 185.366C79.8879 186.089 79.7301 186.93 79.4631 187.891C79.3313 187.919 79.2108 187.913 79.1016 187.875C79.861 184.936 79.7778 181.67 79.3304 178.7C79.3248 178.665 79.3267 178.629 79.3361 178.595C79.3456 178.561 79.3622 178.529 79.385 178.502C79.4078 178.475 79.4361 178.453 79.468 178.439C79.4999 178.424 79.5346 178.416 79.5697 178.416L83.6009 178.419C83.6286 178.419 83.6559 178.413 83.6805 178.4C83.7052 178.388 83.7266 178.37 83.7428 178.347C83.7591 178.325 83.7698 178.299 83.7741 178.272C83.7783 178.244 83.776 178.216 83.7674 178.19L83.5437 177.522C83.5298 177.444 83.6382 177.425 83.8688 177.467Z" fill="#0B0E1D"/>
<path d="M115.69 179.963C115.157 185.175 115.617 192.047 122.291 192.988C123.948 193.222 125.72 193.05 127.607 192.471C129.493 191.893 131.352 191.05 133.183 189.943C133.203 189.931 133.23 189.929 133.261 189.936C133.292 189.944 133.326 189.96 133.357 189.984L133.401 190.018C133.416 190.029 133.427 190.042 133.435 190.058C133.443 190.074 133.447 190.092 133.447 190.11C133.447 190.127 133.442 190.145 133.434 190.161C133.426 190.176 133.413 190.19 133.399 190.2C132.36 190.914 131.209 191.502 129.945 191.963C129.915 191.974 129.888 191.994 129.87 192.02C129.851 192.046 129.841 192.077 129.841 192.109L129.849 199.264C129.849 199.342 129.889 199.381 129.968 199.381L148.177 199.37C148.199 199.37 148.221 199.361 148.237 199.345C148.253 199.329 148.262 199.307 148.262 199.285L148.239 194.179C148.502 194.093 148.622 194.427 148.598 195.183L148.593 199.261C148.593 199.292 148.605 199.322 148.627 199.344C148.649 199.366 148.679 199.378 148.71 199.378L154.452 199.376C154.493 199.376 154.533 199.384 154.571 199.399C154.608 199.415 154.642 199.438 154.671 199.467C154.7 199.496 154.723 199.53 154.738 199.568C154.754 199.606 154.762 199.647 154.762 199.688V209.131C154.762 209.168 154.772 209.204 154.791 209.235C154.81 209.266 154.838 209.292 154.871 209.308L177.519 220.861C177.549 220.876 177.582 220.883 177.615 220.881C177.649 220.879 177.681 220.868 177.708 220.85C178.927 220.051 180.239 219.315 181.643 218.642C185.664 216.712 189.677 214.775 193.682 212.829L194.088 213.092C189.889 215.079 185.692 217.068 181.498 219.058C180.652 219.461 179.631 220.061 178.437 220.858C178.179 221.032 178.034 221.334 177.662 221.461C177.318 221.579 177.118 221.701 176.92 221.841C170.387 226.497 165.323 233.043 162.231 240.569C160.858 243.914 159.632 247.464 158.554 251.22C158.548 251.239 158.547 251.259 158.551 251.279C158.554 251.299 158.562 251.318 158.574 251.334C158.587 251.35 158.602 251.363 158.62 251.372C158.638 251.381 158.658 251.386 158.678 251.386L184.062 251.394C184.083 251.394 184.104 251.39 184.122 251.381C184.141 251.371 184.158 251.358 184.171 251.342C184.184 251.325 184.193 251.306 184.198 251.285C184.202 251.264 184.202 251.243 184.197 251.222L180.104 233.584C180.085 233.502 180.138 233.448 180.265 233.42L180.335 233.407C180.348 233.404 180.363 233.411 180.376 233.425C180.389 233.439 180.4 233.459 180.405 233.482L184.504 251.194C184.518 251.254 184.553 251.308 184.602 251.347C184.651 251.386 184.712 251.407 184.775 251.407L256.302 251.433C256.321 251.433 256.34 251.428 256.358 251.419C256.376 251.41 256.391 251.398 256.403 251.382C256.415 251.366 256.423 251.348 256.427 251.328C256.431 251.309 256.431 251.288 256.426 251.269C255.929 249.344 254.202 242.574 251.246 230.957C250.309 227.276 248.681 224.048 246.361 221.274C244.208 218.699 241.814 216.833 239.181 215.675C238.484 215.37 235.286 213.948 229.589 211.409C229.088 211.186 228.386 210.897 227.485 210.543C227.036 210.367 226.564 210.278 226.07 210.278C223.535 210.283 221.002 210.288 218.47 210.294L226.288 209.911C226.375 209.906 226.434 209.864 226.465 209.784L227.108 208.145L227.063 209.545C227.053 209.845 227.19 210.053 227.474 210.169L229.316 210.915C229.553 211.012 229.69 210.923 229.727 210.647C230.269 206.618 229.965 202.53 228.814 198.385C228.996 198.518 229.165 198.607 229.321 198.65C229.985 201.419 230.335 203.811 230.372 205.826C230.403 207.62 230.283 209.377 230.013 211.097C230.007 211.134 230.013 211.172 230.031 211.205C230.049 211.238 230.077 211.264 230.112 211.279C233.22 212.639 236.22 213.97 239.11 215.274C239.861 215.612 240.872 216.169 242.143 216.944C245.872 219.618 248.627 223.077 250.408 227.321C250.92 228.538 251.439 230.191 251.966 232.281C253.58 238.686 255.198 245.115 256.819 251.568C256.825 251.593 256.825 251.618 256.82 251.643C256.815 251.667 256.804 251.69 256.788 251.71C256.773 251.73 256.753 251.746 256.73 251.757C256.708 251.768 256.683 251.774 256.658 251.774H23.7368C23.6501 251.673 23.5998 251.542 23.5859 251.381L90.2804 251.378C90.3481 251.378 90.3871 251.345 90.3975 251.279L92.8396 235.079C92.8552 234.975 92.915 234.927 93.0191 234.936L93.0997 234.944C93.1968 234.953 93.2375 235.005 93.2219 235.103L90.7876 251.233C90.785 251.251 90.7864 251.27 90.7916 251.287C90.7968 251.305 90.8057 251.322 90.8177 251.336C90.8298 251.35 90.8447 251.361 90.8615 251.369C90.8783 251.377 90.8965 251.381 90.915 251.381L95.9398 251.363C95.9741 251.363 96.0075 251.351 96.034 251.329C96.0606 251.307 96.0788 251.277 96.0854 251.243C97.3875 244.389 99.6719 237.897 102.938 231.766C102.946 231.753 102.949 231.738 102.948 231.723C102.947 231.708 102.941 231.694 102.931 231.683C98.9307 226.736 94.0724 222.846 88.3559 220.013C85.1361 218.414 81.9293 216.786 78.7356 215.129C78.8223 215.007 78.9506 214.933 79.1205 214.905C81.0451 215.895 82.9775 216.87 84.9176 217.831C87.5791 219.147 89.4447 220.108 90.5145 220.715C95.4508 223.512 99.6311 227.036 103.056 231.287C103.065 231.299 103.077 231.308 103.091 231.314C103.104 231.32 103.119 231.322 103.134 231.321C103.149 231.32 103.164 231.315 103.176 231.307C103.189 231.299 103.199 231.287 103.206 231.274C107.863 222.929 114.141 216.229 122.039 211.173C123.237 210.406 124.114 209.848 124.671 209.498C124.775 209.432 124.827 209.337 124.827 209.214L124.842 199.646C124.842 199.473 124.929 199.386 125.102 199.386L129.373 199.381C129.446 199.381 129.482 199.344 129.482 199.272L129.469 192.338C129.469 192.316 129.464 192.294 129.453 192.275C129.443 192.256 129.428 192.239 129.41 192.227C129.391 192.215 129.37 192.208 129.348 192.206C129.327 192.204 129.305 192.207 129.284 192.216C127.934 192.812 126.639 193.18 125.401 193.318C121.446 193.758 118.109 192.91 116.267 188.988C115.004 186.299 115.043 182.715 115.326 179.828L115.69 179.963ZM154.379 199.867C154.379 199.854 154.377 199.84 154.371 199.827C154.366 199.815 154.359 199.803 154.349 199.794C154.339 199.784 154.328 199.776 154.315 199.771C154.303 199.766 154.289 199.763 154.275 199.763H125.318C125.291 199.763 125.264 199.774 125.245 199.794C125.225 199.813 125.214 199.84 125.214 199.867V209.116C125.214 209.143 125.225 209.17 125.245 209.189C125.264 209.209 125.291 209.22 125.318 209.22H154.275C154.303 209.22 154.329 209.209 154.349 209.189C154.368 209.17 154.379 209.143 154.379 209.116V199.867ZM149.844 251.394L158.07 251.347C158.109 251.347 158.148 251.334 158.18 251.309C158.211 251.285 158.234 251.251 158.244 251.212C159.146 247.938 160.248 244.642 161.552 241.324C164.831 232.986 170.033 226.278 177.16 221.201C177.172 221.193 177.181 221.182 177.187 221.169C177.194 221.156 177.196 221.141 177.195 221.127C177.194 221.112 177.189 221.099 177.181 221.087C177.173 221.074 177.162 221.065 177.149 221.058L170.699 217.792C165.506 215.13 160.402 212.503 155.386 209.909C154.991 209.706 154.472 209.604 153.831 209.602C144.246 209.574 134.762 209.584 125.378 209.631C125.173 209.63 124.971 209.689 124.798 209.8C123.694 210.495 122.373 211.357 120.837 212.385C119.545 213.248 118.287 214.198 117.061 215.235C114.283 217.581 112.074 219.702 110.434 221.599C104.977 227.914 100.959 235.23 98.3793 243.547C97.6181 246.002 96.9619 248.523 96.4105 251.11C96.4032 251.146 96.4038 251.183 96.4125 251.218C96.4211 251.253 96.4374 251.286 96.4603 251.314C96.4833 251.342 96.5121 251.365 96.5449 251.381C96.5777 251.396 96.6135 251.404 96.6498 251.404L149.844 251.394Z" fill="#0B0E1D"/>
<path d="M120.224 184.438C119.532 184.773 118.783 184.792 117.977 184.495C117.734 184.407 117.604 184.208 117.587 183.9C117.583 183.841 117.594 183.783 117.619 183.73C117.643 183.677 117.681 183.63 117.727 183.595C117.774 183.56 117.829 183.537 117.886 183.529C117.944 183.52 118.003 183.526 118.057 183.546C118.727 183.785 119.306 183.787 119.795 183.551C120.284 183.314 120.642 182.859 120.871 182.186C120.889 182.131 120.921 182.081 120.964 182.041C121.006 182.001 121.058 181.972 121.114 181.957C121.171 181.942 121.23 181.941 121.287 181.955C121.344 181.969 121.397 181.996 121.441 182.035C121.671 182.24 121.746 182.465 121.665 182.711C121.398 183.528 120.917 184.104 120.224 184.438Z" fill="#0B0E1D"/>
<path d="M194.604 184.59C193.73 184.857 192.808 184.758 191.837 184.294C191.737 184.246 191.659 184.164 191.615 184.063C191.572 183.962 191.566 183.849 191.6 183.745C191.659 183.566 191.766 183.46 191.92 183.425C192.012 183.406 192.151 183.432 192.336 183.503C193.078 183.787 193.74 183.841 194.321 183.664C194.901 183.486 195.42 183.071 195.876 182.421C195.99 182.258 196.091 182.158 196.178 182.122C196.325 182.065 196.473 182.094 196.622 182.21C196.708 182.278 196.766 182.375 196.786 182.482C196.806 182.59 196.787 182.701 196.731 182.796C196.187 183.725 195.478 184.323 194.604 184.59Z" fill="#0B0E1D"/>
<path d="M74.6782 183.938C75.1532 184.222 75.7263 184.251 76.3973 184.024C76.4424 184.008 76.4903 184.003 76.5376 184.009C76.585 184.014 76.6305 184.03 76.6711 184.056C76.7116 184.081 76.7461 184.115 76.772 184.156C76.798 184.196 76.8148 184.242 76.8212 184.289C76.9122 184.952 76.0878 185.119 75.5468 185.124C75.0648 185.129 74.6123 185.006 74.1892 184.755C73.7679 184.501 73.4445 184.162 73.2191 183.735C72.9668 183.257 72.7224 182.453 73.3492 182.216C73.394 182.199 73.4421 182.193 73.4898 182.196C73.5376 182.2 73.5839 182.214 73.6254 182.238C73.6669 182.261 73.7026 182.294 73.73 182.333C73.7573 182.372 73.7756 182.416 73.7835 182.463C73.9031 183.162 74.2013 183.654 74.6782 183.938Z" fill="#0B0E1D"/>
<path d="M173.554 196.062L173.585 201.968C173.585 202.016 173.604 202.061 173.638 202.095C173.672 202.129 173.717 202.148 173.765 202.148L190.233 202.15L192.295 202.218C192.384 202.22 192.438 202.265 192.457 202.353C192.479 202.466 192.439 202.536 192.334 202.564L173.416 202.585C173.389 202.585 173.361 202.58 173.335 202.569C173.309 202.559 173.286 202.543 173.266 202.523C173.246 202.503 173.23 202.48 173.219 202.454C173.209 202.427 173.203 202.4 173.203 202.371L173.206 196.025C173.322 195.982 173.438 195.994 173.554 196.062Z" fill="#0B0E1D"/>
</g>
<defs>
<clipPath id="clip0_1136_336756">
<rect width="266.32" height="266.32" fill="white" transform="translate(0.839844 0.625)"/>
</clipPath>
</defs>
</svg>
